<?xml version="1.0" encoding="utf-8"?>
<!-- Generator: Adobe Illustrator 24.0.1, SVG Export Plug-In . SVG Version: 6.00 Build 0)  -->
<svg version="1.1" xmlns="http://www.w3.org/2000/svg" xmlns:xlink="http://www.w3.org/1999/xlink" x="0px" y="0px"
	 viewBox="0 0 953 799" style="enable-background:new 0 0 953 799;" xml:space="preserve">
<style type="text/css">
	.st0{fill:#1F2C44;}
	.st1{fill:#EBC870;}
	.st2{fill-rule:evenodd;clip-rule:evenodd;fill:#EBC870;}
	.st3{fill:#B5933B;}
	.st4{fill-rule:evenodd;clip-rule:evenodd;fill:#B5933B;}
	.st5{fill:#1C2A50;}
	.st6{fill:none;stroke:#1C2A50;stroke-width:4.374;}
	.st7{fill-rule:evenodd;clip-rule:evenodd;fill:#B91600;}
	.st8{fill:#8D8D8D;}
	.st9{fill-rule:evenodd;clip-rule:evenodd;fill:#BE1902;}
	.st10{fill:#FFFFFF;}
	.st11{fill:none;stroke:#1F2C44;stroke-width:0.4105;stroke-miterlimit:10;}
	.st12{fill:none;stroke:#FFFFFF;stroke-miterlimit:10;}
</style>
<g id="Layer_1">
	<path class="st0" d="M471.2,131c-54.6-33.7-58.5-91-58.4-107.8v-5.3l4.4-2.9c14-9.4,35.8-15,58.4-15c23.3,0,46.3,5.7,60,15l4.4,2.9
		v5.3c0.1,16.8-3.8,74.1-58.4,107.8l-5.3,3.2L471.2,131z"/>
	<path class="st0" d="M371.4,122V3.8H235.7v475.4h-37.2v53.9h145.1V598h-13.1v31.8c-93-4.9-193.2-13.4-193.2-13.4v30.1L1,631
		l74.3,81.7L3.1,776.1L198.5,797l15.3-13.8v-16.3c63.9,4.6,167.1,11.2,248.6,11.9v0.1h13.9c0.1,0,0.1,0,0.2,0s0.1,0,0.2,0h13.9v-0.1
		c81.5-0.7,184.7-7.2,248.6-11.9v16.3l15.3,13.8l195.4-20.8l-72.1-63.3L952,631l-136.4,15.6v-30.1c0,0-100.2,8.4-193.2,13.4V598
		h-13.1v-64.9h145.1v-53.9h-37.2V3.8H581.6V122H371.4z M371.4,149.7h210.3v4.6l-70.8,60.3h-68.8l-70.8-60.3L371.4,149.7L371.4,149.7
		z M581.6,190.6v209.6L535,360V230.4L581.6,190.6z M371.4,190.6l46.7,39.8V360l-46.7,40.2V190.6z M394.8,416.5l45.8-39.4h71.7
		l45.8,39.4H394.8z"/>
	<path class="st1" d="M476.5,279.5H437v5.1h39.5H516v-5.1H476.5z"/>
	<path class="st2" d="M249.6,17.7h107.9v118.1h119v92.6H516h5.1v23.3H516v5.8h5.1v21.9H516h-39.5H437h-5.1v-21.9h5.1v-5.8h-5.1
		v-23.3h5.1l-79.5-67.8v269.7l78-67.1h-3.6v-22.6h5.1v-5.8h-5.1v-22.6h5.1v-5.1h-5.1v-22.6h5.1h39.5H516h5.1v22.6H516v5.1h5.1v22.6
		H516v5.8h5.1v22.6h-3.6l78,67.1V160.6v-24.8V17.7h107.9v67.8l-54.2,26.8c-3,1.5-4.9,4.5-4.9,7.8v283.2h10.9V137.5
		c0-3.2,1.8-6.2,4.6-7.7l43.5-23V136l-27.5,15c-2.8,1.5-4.6,4.5-4.6,7.7V442h13.1V176c0-3.2,1.8-6.2,4.6-7.7l14.4-7.7v304.7H595.5
		v14.6H586v15.3h62h7.3h85.3v24.1h-85.3H648h-62v15.3h9.5v23.3H586v15.3h9.5v24.1H586v14.6h22.6V625v16.8H476.5H344.4V625v-13.1H367
		v-14.6h-9.5v-24.1h9.5v-15.3h-9.5v-23.3h9.5v-15.3h-62h-7.3h-85.3v-24.1h85.3h7.3h62v-15.3h-9.5v-14.6H249.6V160.6l14.4,7.7
		c2.8,1.5,4.6,4.5,4.6,7.7v266h13.1V158.5c0-3.2-1.7-6.1-4.6-7.7l-27.5-15v-29.2l43.5,23c2.9,1.5,4.6,4.5,4.6,7.7v265.9h10.9V120.1
		c0-3.3-1.9-6.4-4.9-7.8l-54.2-26.8L249.6,17.7L249.6,17.7z M332.5,72.2c1.9,1,3.1,3,3.1,5.1v285.9h-12.4V95.7
		c0-2.2-1.3-4.2-3.2-5.2l-56.9-28.1c-2.7-1.3-3.9-4.5-2.9-7.3l4.5-11.5c1.3-3.3,5.1-4.7,8.2-3L332.5,72.2z M617.4,363.3V77.4
		c0-2.2,1.2-4.1,3.1-5.1l59.6-31.7c3.1-1.6,6.9-0.2,8.2,3l4.5,11.5c1.1,2.8-0.1,6-2.9,7.3L633,90.5c-2,1-3.2,3-3.2,5.2v267.6H617.4z
		"/>
	<path class="st1" d="M476.5,228.4H516l79.5-67.8v-24.8h-119V228.4z"/>
	<path class="st3" d="M476.5,279.5H437v5.1h39.5H516v-5.1H476.5z"/>
	<path class="st3" d="M476.5,228.4H516l79.5-67.8v-24.8h-119V228.4z"/>
	<path class="st4" d="M437,257.6v-5.8h39.5v-23.3H516h5.1v23.3H516v5.8h5.1v21.9H516h-39.5v-21.9H437z M476.5,430.4v-67.1v-22.6H437
		v-5.8h39.5v-22.6H437v-5.1h39.5v-22.6H516h5.1v22.6H516v5.1h5.1v22.6H516v5.8h5.1v22.6h-3.6l78,67.1V160.6v-24.8V17.7h107.9v67.8
		l-54.2,26.8c-3,1.5-4.9,4.5-4.9,7.8v283.2h10.9V137.5c0-3.2,1.8-6.2,4.6-7.7l43.5-23V136l-27.5,15c-2.8,1.5-4.6,4.5-4.6,7.7V442
		h13.1V176c0-3.2,1.8-6.2,4.6-7.7l14.4-7.7v304.7H595.5v14.6H586v15.3h62h7.3h85.3v24.1h-85.3H648h-62v15.3h9.5v23.3H586v15.3h9.5
		v24.1H586v14.6H476.5v-14.6h-3.8v-24.1h3.8v-15.3h-3.8v-23.3h3.8v-15.3h-3.8v-24.1h3.8v-15.3v-27.7V430.4z M393.9,597.3v-24.1h-8.7
		v24.1H393.9z M367,611.9h109.5V625l-6.3-9.2c-0.6-0.8-1.8-0.9-2.4,0l-5.7,7.7c-0.6,0.8-1.7,0.8-2.3,0l-6.4-8
		c-0.6-0.8-1.7-0.7-2.3,0l-5.8,7.9c-0.6,0.8-1.7,0.8-2.3,0l-6.4-8c-0.6-0.8-1.7-0.7-2.3,0l-5.7,7.8c-0.6,0.8-1.8,0.8-2.4,0l-5.7-7.8
		c-0.6-0.8-1.7-0.8-2.3,0l-6.4,8c-0.6,0.7-1.7,0.7-2.3,0l-6.4-8c-0.6-0.8-1.7-0.7-2.3,0l-5.8,7.9c-0.6,0.8-1.7,0.8-2.3,0l-6.4-8
		c-0.6-0.8-1.7-0.7-2.3,0l-5.8,7.9c-0.6,0.8-1.7,0.8-2.3,0l-6.4-8c-0.6-0.8-1.7-0.7-2.3,0l-5.8,7.9c-0.6,0.8-1.7,0.8-2.3,0l-6.3-7.9
		c-0.6-0.8-1.8-0.7-2.4,0.1l-6.2,9.3v-13.1H367V611.9z M476.5,625l6.3-9.2c0.6-0.8,1.8-0.9,2.4,0l5.7,7.7c0.6,0.8,1.7,0.8,2.3,0
		l6.4-8c0.6-0.8,1.7-0.7,2.3,0l5.8,7.9c0.6,0.8,1.7,0.8,2.3,0l6.4-8c0.6-0.8,1.7-0.7,2.3,0l5.7,7.8c0.6,0.8,1.8,0.8,2.4,0l5.7-7.8
		c0.6-0.8,1.7-0.8,2.3,0l6.4,8c0.6,0.7,1.7,0.7,2.3,0l6.4-8c0.6-0.8,1.7-0.7,2.3,0l5.8,7.9c0.6,0.8,1.7,0.8,2.3,0l6.4-8
		c0.6-0.8,1.7-0.7,2.3,0l5.8,7.9c0.6,0.8,1.7,0.8,2.3,0l6.4-8c0.6-0.8,1.7-0.7,2.3,0l5.8,7.9c0.6,0.8,1.7,0.8,2.3,0l6.3-7.9
		c0.6-0.8,1.8-0.7,2.4,0.1l6.2,9.3v16.8H476.5V625z M393.9,534.6v23.3h-8.7v-23.3H393.9z M393.9,519.3v-24.1h-8.7v24.1H393.9z
		 M305,495.2h-7.3v24.1h7.3V495.2z M277.1,150.9c2.8,1.5,4.6,4.5,4.6,7.7l0,0C281.7,155.3,279.9,152.4,277.1,150.9L277.1,150.9z
		 M303.8,112.3c3,1.5,4.9,4.5,4.9,7.8l0,0C308.6,116.8,306.8,113.8,303.8,112.3L303.8,112.3z M620.5,72.2c-1.9,1-3.1,3-3.1,5.1
		v285.9h12.4V95.7c0-2.2,1.3-4.2,3.2-5.2l56.9-28.1c2.7-1.3,3.9-4.5,2.9-7.3l-4.5-11.5c-1.3-3.3-5.1-4.7-8.2-3L620.5,72.2z"/>
	<path class="st5" d="M476.5,495.2h-3.8v24.1h3.8h3.8v-24.1L476.5,495.2L476.5,495.2z"/>
	<path class="st5" d="M567.8,519.3v-24.1h-8.7v24.1H567.8z"/>
	<path class="st5" d="M655.3,519.3v-24.1H648v24.1H655.3z"/>
	<path class="st5" d="M385.2,495.2v24.1h8.7v-24.1L385.2,495.2L385.2,495.2z"/>
	<path class="st5" d="M297.7,495.2v24.1h7.3v-24.1L297.7,495.2L297.7,495.2z"/>
	<path class="st5" d="M385.2,534.6v23.3h8.7v-23.3H385.2z"/>
	<path class="st5" d="M476.5,534.6h-3.8v23.3h3.8h3.8v-23.3H476.5z"/>
	<path class="st5" d="M567.8,557.9v-23.3h-8.7v23.3H567.8z"/>
	<path class="st5" d="M567.8,597.3v-24.1h-8.7v24.1H567.8z"/>
	<path class="st5" d="M476.5,573.2h-3.8v24.1h3.8h3.8v-24.1H476.5z"/>
	<path class="st5" d="M385.2,573.2v24.1h8.7v-24.1H385.2z"/>
	<path class="st5" d="M476.5,611.9H367h-22.6V625l6.2-9.3c0.5-0.8,1.7-0.9,2.4-0.1l6.3,7.9c0.6,0.8,1.7,0.7,2.3,0l5.8-7.9
		c0.6-0.8,1.7-0.8,2.3,0l6.4,8c0.6,0.8,1.7,0.7,2.3,0l5.8-7.9c0.6-0.8,1.7-0.8,2.3,0l6.4,8c0.6,0.8,1.7,0.7,2.3,0l5.8-7.9
		c0.6-0.8,1.7-0.8,2.3,0l6.4,8c0.6,0.7,1.7,0.7,2.3,0l6.4-8c0.6-0.8,1.7-0.7,2.3,0l5.7,7.8c0.6,0.8,1.8,0.8,2.4,0l5.7-7.8
		c0.6-0.8,1.7-0.8,2.3,0l6.4,8c0.6,0.8,1.7,0.7,2.3,0l5.8-7.9c0.6-0.8,1.7-0.8,2.3,0l6.4,8c0.6,0.8,1.7,0.7,2.3,0l5.7-7.7
		c0.6-0.8,1.8-0.8,2.4,0l5.1,7.5c0.6,0.8,1.8,0.8,2.4,0l5.1-7.5c0.6-0.8,1.8-0.9,2.4,0l5.7,7.7c0.6,0.8,1.7,0.8,2.3,0l6.4-8
		c0.6-0.8,1.7-0.7,2.3,0l5.8,7.9c0.6,0.8,1.7,0.8,2.3,0l6.4-8c0.6-0.8,1.7-0.7,2.3,0l5.7,7.8c0.6,0.8,1.8,0.8,2.4,0l5.7-7.8
		c0.6-0.8,1.7-0.8,2.3,0l6.4,8c0.6,0.7,1.7,0.7,2.3,0l6.4-8c0.6-0.8,1.7-0.7,2.3,0l5.8,7.9c0.6,0.8,1.7,0.8,2.3,0l6.4-8
		c0.6-0.8,1.7-0.7,2.3,0l5.8,7.9c0.6,0.8,1.7,0.8,2.3,0l6.4-8c0.6-0.8,1.7-0.7,2.3,0l5.8,7.9c0.6,0.8,1.7,0.8,2.3,0l6.3-7.9
		c0.6-0.8,1.8-0.7,2.4,0.1l6.2,9.3v-13.1h-23H476.5z"/>
	<path class="st5" d="M437,340.7h39.5H516v-5.8h-39.5H437V340.7z"/>
	<path class="st5" d="M437,312.3h39.5H516v-5.1h-39.5H437V312.3z"/>
	<path class="st5" d="M476.5,279.5H437v5.1h39.5H516v-5.1H476.5z"/>
	<path class="st5" d="M476.5,251.8H437v5.8h39.5H516v-5.8H476.5z"/>
	<path class="st6" d="M357.5,465.4H249.6V160.6l14.4,7.7 M357.5,465.4v-13.1 M357.5,465.4V480h9.5 M357.5,430.4l78-67.1
		 M357.5,430.4v21.9 M357.5,430.4h119h119 M357.5,430.4V160.6 M435.5,363.3h41h41 M435.5,363.3h-3.6v-22.6h5.1 M357.5,452.2h119h119
		 M437,340.7h39.5H516 M437,340.7v-5.8 M437,334.9h39.5H516 M437,334.9h-5.1v-22.6h5.1 M437,312.3h39.5H516 M437,312.3v-5.1
		 M437,307.2h39.5H516 M437,307.2h-5.1v-22.6h5.1 M437,251.8h-5.1v-23.3h5.1 M437,251.8h39.5H516 M437,251.8v5.8 M437,257.6h-5.1
		v21.9h5.1 M437,257.6h39.5H516 M437,228.4h39.5H516 M437,228.4l-79.5-67.8 M357.5,160.6v-24.8 M357.5,135.8V17.7H249.6v67.8
		l54.2,26.8 M357.5,135.8h119h119 M367,479.9h109.5H586 M367,479.9v15.3 M367,495.2h-62 M367,495.2h18.2 M367,519.3v15.3 M367,519.3
		h-62 M367,519.3h18.2 M367,534.6h-9.5v23.3h9.5 M367,534.6h18.2 M367,557.9v15.3 M367,557.9h18.2 M367,573.2h-9.5v24.1h9.5
		 M367,573.2h18.2 M367,597.3v14.6 M367,597.3h18.2 M367,611.9h109.5H586 M367,611.9h-22.6V625 M344.4,625v16.8h132.1h132.1V625
		 M344.4,625l6.2-9.3c0.5-0.8,1.7-0.9,2.4-0.1l6.3,7.9c0.6,0.8,1.7,0.7,2.3,0l5.8-7.9c0.6-0.8,1.7-0.8,2.3,0l6.4,8
		c0.6,0.8,1.7,0.7,2.3,0l5.8-7.9c0.6-0.8,1.7-0.8,2.3,0l6.4,8c0.6,0.8,1.7,0.7,2.3,0l5.8-7.9c0.6-0.8,1.7-0.8,2.3,0l6.4,8
		c0.6,0.7,1.7,0.7,2.3,0l6.4-8c0.6-0.8,1.7-0.7,2.3,0l5.7,7.8c0.6,0.8,1.8,0.8,2.4,0l5.7-7.8c0.6-0.8,1.7-0.8,2.3,0l6.4,8
		c0.6,0.8,1.7,0.7,2.3,0l5.8-7.9c0.6-0.8,1.7-0.8,2.3,0l6.4,8c0.6,0.8,1.7,0.7,2.3,0l5.7-7.7c0.6-0.8,1.8-0.8,2.4,0l5.1,7.5
		c0.6,0.8,1.8,0.8,2.4,0l5.1-7.5c0.6-0.8,1.8-0.9,2.4,0l5.7,7.7c0.6,0.8,1.7,0.8,2.3,0l6.4-8c0.6-0.8,1.7-0.7,2.3,0l5.8,7.9
		c0.6,0.8,1.7,0.8,2.3,0l6.4-8c0.6-0.8,1.7-0.7,2.3,0l5.7,7.8c0.6,0.8,1.8,0.8,2.4,0l5.7-7.8c0.6-0.8,1.7-0.8,2.3,0l6.4,8
		c0.6,0.7,1.7,0.7,2.3,0l6.4-8c0.6-0.8,1.7-0.7,2.3,0l5.8,7.9c0.6,0.8,1.7,0.8,2.3,0l6.4-8c0.6-0.8,1.7-0.7,2.3,0l5.8,7.9
		c0.6,0.8,1.7,0.8,2.3,0l6.4-8c0.6-0.8,1.7-0.7,2.3,0l5.8,7.9c0.6,0.8,1.7,0.8,2.3,0l6.3-7.9c0.6-0.8,1.8-0.7,2.4,0.1l6.2,9.3
		 M297.7,495.2h-85.3v24.1h85.3 M297.7,495.2v24.1 M297.7,495.2h7.3 M297.7,519.3h7.3 M305,495.2v24.1 M385.2,495.2v24.1
		 M385.2,495.2h8.7 M385.2,519.3h8.7 M393.9,495.2v24.1 M393.9,495.2h78.7 M393.9,519.3h78.7 M472.7,495.2h3.8h3.8 M472.7,495.2
		v24.1 M472.7,519.3h3.8h3.8 M385.2,534.6v23.3 M385.2,534.6h8.7 M385.2,557.9h8.7 M393.9,534.6v23.3 M393.9,534.6h78.7
		 M393.9,557.9h78.7 M385.2,573.2v24.1 M385.2,573.2h8.7 M385.2,597.3h8.7 M393.9,573.2v24.1 M393.9,573.2h78.7 M393.9,597.3h78.7
		 M472.7,534.6h3.8h3.8 M472.7,534.6v23.3 M472.7,557.9h3.8h3.8 M472.7,573.2h3.8h3.8 M472.7,573.2v24.1 M472.7,597.3h3.8h3.8
		 M595.5,465.4h107.9V160.6l-14.4,7.7 M595.5,465.4v-13.1 M595.5,465.4V480H586 M595.5,430.4l-78-67.1 M595.5,430.4v21.9
		 M595.5,430.4V160.6 M517.5,363.3h3.6v-22.6H516 M516,340.7v-5.8 M516,334.9h5.1v-22.6H516 M516,312.3v-5.1 M516,307.2h5.1v-22.6
		H516 M516,251.8h5.1v-23.3H516 M516,251.8v5.8 M516,257.6h5.1v21.9H516 M516,228.4l79.5-67.8 M595.5,160.6v-24.8 M595.5,135.8V17.7
		h107.9v67.8l-54.2,26.8 M586,479.9v15.3 M586,495.2h62 M586,495.2h-18.2 M586,519.3v15.3 M586,519.3h62 M586,519.3h-18.2
		 M586,534.6h9.5v23.3H586 M586,534.6h-18.2 M586,557.9v15.3 M586,557.9h-18.2 M586,573.2h9.5v24.1H586 M586,573.2h-18.2 M586,597.3
		v14.6 M586,597.3h-18.2 M586,611.9h22.6V625 M655.3,495.2h85.3v24.1h-85.3 M655.3,495.2v24.1 M655.3,495.2H648 M655.3,519.3H648
		 M648,495.2v24.1 M567.8,495.2v24.1 M567.8,495.2h-8.7 M567.8,519.3h-8.7 M559.1,495.2v24.1 M559.1,495.2h-78.7 M559.1,519.3h-78.7
		 M480.3,495.2v24.1 M567.8,534.6v23.3 M567.8,534.6h-8.7 M567.8,557.9h-8.7 M559.1,534.6v23.3 M559.1,534.6h-78.7 M559.1,557.9
		h-78.7 M567.8,573.2v24.1 M567.8,573.2h-8.7 M567.8,597.3h-8.7 M559.1,573.2v24.1 M559.1,573.2h-78.7 M559.1,597.3h-78.7
		 M480.3,534.6v23.3 M480.3,573.2v24.1 M649.2,112.3c-3,1.5-4.9,4.5-4.9,7.8 M649.2,112.3L649.2,112.3c-3,1.5-4.9,4.5-4.9,7.8l0,0
		 M644.4,120.1v283.2h10.9V137.5 M655.3,137.5c0-3.2,1.8-6.2,4.6-7.7 M655.3,137.5L655.3,137.5c0-3.2,1.8-6.2,4.6-7.7l0,0
		 M659.9,129.7l43.5-23v29.2l-27.5,15 M675.9,150.9c-2.8,1.5-4.6,4.5-4.6,7.7 M675.9,150.9L675.9,150.9c-2.8,1.5-4.6,4.5-4.6,7.7
		l0,0 M671.3,158.5V442h13.1V176 M684.4,176.1c0-3.2,1.8-6.2,4.6-7.7 M684.4,176.1L684.4,176.1c0-3.2,1.8-6.2,4.6-7.7l0,0
		 M264,168.4c2.8,1.5,4.6,4.5,4.6,7.7 M264,168.4L264,168.4c2.8,1.5,4.6,4.5,4.6,7.7l0,0 M268.6,176.1v266h13.1V158.5 M281.7,158.5
		c0-3.2-1.7-6.1-4.6-7.7 M281.7,158.5L281.7,158.5c0-3.2-1.7-6.1-4.6-7.7l0,0 M277.1,150.9l-27.5-15v-29.2l43.5,23 M293.1,129.7
		c2.9,1.5,4.6,4.5,4.6,7.7 M293.1,129.7L293.1,129.7c2.9,1.5,4.6,4.5,4.6,7.7l0,0 M297.7,137.5v265.9h10.9V120.1 M308.6,120.1
		c0-3.3-1.9-6.4-4.9-7.8 M308.6,120.1L308.6,120.1c0-3.3-1.9-6.4-4.9-7.8l0,0 M437,279.5h39.5H516 M437,279.5v5.1 M437,284.6h39.5
		H516 M516,279.5v5.1 M335.6,363.3V77.4c0-2.2-1.2-4.1-3.1-5.1l-59.6-31.7c-3.1-1.6-6.9-0.2-8.2,3l-4.5,11.5c-1.1,2.8,0.1,6,2.9,7.3
		L320,90.5c2,1,3.2,3,3.2,5.2v267.6H335.6z M617.4,363.3V77.4c0-2.2,1.2-4.1,3.1-5.1l59.6-31.7c3.1-1.6,6.9-0.2,8.2,3l4.5,11.5
		c1.1,2.8-0.1,6-2.9,7.3L633,90.5c-2,1-3.2,3-3.2,5.2v267.6H617.4z"/>
	<path class="st5" d="M200,752c-29.9-2.2-48.8-3.8-48.8-3.8l48.8,35V752z"/>
	<path class="st7" d="M151.2,631.5c0,0,198.2,16.8,325.5,16.8v116.6c-88,0-209.8-8-276.7-13c-29.9-2.2-48.8-3.8-48.8-3.8v-86V631.5z
		"/>
	<path class="st8" d="M151.2,748.2v-86L36,649l59,64.9l-59,51.8l164,17.5L151.2,748.2z"/>
	<path class="st5" d="M753,752c29.9-2.2,48.8-3.8,48.8-3.8l-48.8,35V752z"/>
	<path class="st7" d="M801.8,631.5c0,0-198.2,16.8-325.5,16.8v116.6c88,0,209.8-8,276.7-13c29.9-2.2,48.8-3.8,48.8-3.8v-86V631.5z"
		/>
	<path class="st8" d="M801.8,748.2v-86L917,649l-59,64.9l59,51.8l-164,17.5L801.8,748.2z"/>
	<path class="st5" d="M200,752c-29.9-2.2-48.8-3.8-48.8-3.8l48.8,35V752z"/>
	<path class="st9" d="M151.2,631.5c0,0,198.2,16.8,325.5,16.8v116.6c-88,0-209.8-8-276.7-13c-29.9-2.2-48.8-3.8-48.8-3.8v-86V631.5z
		"/>
	<path class="st8" d="M151.2,748.2v-86L36,649l59,64.9l-59,51.8l164,17.5L151.2,748.2z"/>
	<path class="st5" d="M753,752c29.9-2.2,48.8-3.8,48.8-3.8l-48.8,35V752z"/>
	<path class="st9" d="M801.8,631.5c0,0-198.2,16.8-325.5,16.8v116.6c88,0,209.8-8,276.7-13c29.9-2.2,48.8-3.8,48.8-3.8v-86V631.5z"
		/>
	<path class="st8" d="M801.8,748.2v-86L917,649l-59,64.9l59,51.8l-164,17.5L801.8,748.2z"/>
	<g>
		<path class="st10" d="M188.5,712.3c0-5,0-10,0-15c3.2,0.3,6.4,0.7,9.6,1c0,5,0,9.9,0,14.9c0,6.9-2.2,13.7-11.7,12.8
			c-0.7-0.1-1.4-0.2-2.2-0.2c-9.9-1.1-12-8.4-12-14.9c0-13.1,0-26.2,0-39.4c0-6.6,2.9-12.6,11.7-11.7c0.7,0.1,1.5,0.2,2.2,0.2
			c10.7,1.1,11.9,8.3,11.9,14.7c0,3.8,0,7.7,0,11.5c-3.2-0.3-6.4-0.7-9.6-1c0-3.8,0-7.6,0-11.4c0-2.8-0.9-4.3-3.3-4.6
			c-2.4-0.3-3,1.1-3,3.9c0,12.8,0,25.6,0,38.3c0,2.9,1,4.5,3.1,4.8C187.6,716.5,188.5,714.9,188.5,712.3z"/>
		<path class="st10" d="M217.7,673.1c0,18.4,0,36.8,0,55.2c-3.2-0.3-6.5-0.6-9.7-0.9c0-18.4,0-36.8,0-55.2c-2.7-0.3-5.5-0.5-8.2-0.8
			c0-3.1,0-6.2,0-9.4c8.7,0.9,17.4,1.7,26.1,2.5c0,3.1,0,6.2,0,9.4C223.2,673.6,220.5,673.4,217.7,673.1z"/>
		<path class="st10" d="M239.7,718.1c-2.4-0.2-4.7-0.4-7.1-0.6c-0.4,4-0.9,8-1.3,12c-2.9-0.3-5.8-0.5-8.7-0.8
			c2.6-21.3,5.3-42.5,7.9-63.8c3.9,0.3,7.7,0.7,11.6,1c2.8,21.7,5.6,43.5,8.4,65.2c-3.1-0.3-6.3-0.5-9.4-0.8
			C240.6,726.3,240.1,722.2,239.7,718.1z M238.7,708.4c-0.9-8-1.7-16-2.6-24.1c-0.8,7.9-1.7,15.8-2.5,23.6
			C235.3,708.1,237,708.2,238.7,708.4z"/>
		<path class="st10" d="M269.9,677.5c-1.9-0.1-3.8-0.3-5.7-0.4c0,20.8-0.1,35.6-0.9,44.9c-0.5,6.5-2.8,9.9-10.2,9.3
			c-0.8-0.1-1.6-0.1-2.4-0.2c0-3.3,0-6.6,0-10c0.2,0,0.5,0,0.7,0.1c2.3,0.2,2.8-1.1,3-4.1c0.6-6.5,0.6-16.3,0.6-50.2
			c8.2,0.7,16.5,1.3,24.7,1.9c0,21.5,0,43,0,64.5c-3.3-0.2-6.5-0.5-9.8-0.7C269.9,714.3,269.9,695.9,269.9,677.5z"/>
		<path class="st10" d="M308.9,707.6c0,5.5,0,10.9,0,16.4c0,7.7-3.1,11.1-10.1,10.6c-5.2-0.3-10.3-0.7-15.5-1c0-21.5,0-43,0-64.5
			c3.3,0.2,6.5,0.5,9.8,0.7c0,8.3,0,16.7,0,25c1.9,0.1,3.8,0.3,5.7,0.4C305.5,695.5,308.9,700,308.9,707.6z M295.6,725.1
			c2.9,0.2,3.4-1.7,3.4-4.2c0-3.9,0-7.8,0-11.7c0-2.6-0.4-4.7-3.4-4.9c-0.8-0.1-1.7-0.1-2.5-0.2c0,6.9,0,13.9,0,20.8
			C293.9,725,294.8,725,295.6,725.1z"/>
		<path class="st10" d="M328.3,708c-2.2-0.1-4.5-0.2-6.7-0.4c0,9.5,0,18.9,0,28.4c-3.3-0.2-6.5-0.4-9.8-0.6c0-21.5,0-43,0-64.5
			c3.3,0.2,6.5,0.4,9.8,0.6c0,8.6,0,17.2,0,25.8c2.2,0.1,4.5,0.2,6.7,0.4c0-8.6,0-17.2,0-25.8c3.3,0.2,6.5,0.3,9.8,0.5
			c0,21.5,0,43,0,64.5c-3.3-0.2-6.5-0.3-9.8-0.5C328.3,727,328.3,717.5,328.3,708z"/>
		<path class="st10" d="M356.9,725.6c-2.4-0.1-4.7-0.2-7.1-0.3c-0.4,4-0.9,8.1-1.3,12.1c-2.9-0.1-5.8-0.3-8.8-0.4
			c2.6-21.4,5.3-42.8,7.9-64.1c3.9,0.2,7.8,0.4,11.6,0.5c2.8,21.6,5.6,43.2,8.4,64.9c-3.2-0.1-6.3-0.3-9.5-0.4
			C357.7,733.8,357.3,729.7,356.9,725.6z M355.8,716c-0.9-8-1.7-16-2.6-24c-0.8,7.9-1.7,15.8-2.5,23.7
			C352.4,715.8,354.1,715.9,355.8,716z"/>
		<path class="st10" d="M384.5,711.8c-2.4,8.9-4.8,17.9-7.2,26.8c-3.4-0.1-6.7-0.2-10.1-0.4c2.6-9.5,5.2-19,7.8-28.5
			c-3.5-1.3-5.4-4-5.4-8c0-6,0-12,0-18c0-7.2,3.4-9.8,9.9-9.6c5.3,0.2,10.6,0.4,15.9,0.5c0,21.5,0,43,0,64.5
			c-3.3-0.1-6.5-0.2-9.8-0.3c0-9,0-18,0-27.1C385.3,711.8,384.9,711.8,384.5,711.8z M385.7,683.1c-0.9,0-1.7-0.1-2.6-0.1
			c-3-0.1-3.6,1.3-3.6,4c0,3.5,0,7.1,0,10.6c0,2.9,0.9,4.6,3.6,4.7c0.9,0,1.7,0.1,2.6,0.1C385.7,696,385.7,689.6,385.7,683.1z"/>
		<path class="st10" d="M415.8,739.7c-3.3-0.1-6.6-0.2-9.9-0.2c2.8-11.4,5.7-22.9,8.5-34.3c-2.4-10.1-4.9-20.1-7.3-30.2
			c3.3,0.1,6.7,0.2,10,0.2c1.4,6.8,2.8,13.6,4.2,20.5c1.3-6.8,2.7-13.5,4-20.3c3.2,0.1,6.4,0.1,9.6,0.2c-2.5,10-4.9,19.9-7.4,29.9
			c2.8,11.6,5.6,23.1,8.3,34.7c-3.4-0.1-6.8-0.1-10.2-0.2c-1.6-7.8-3.2-15.6-4.9-23.4C419.1,724.2,417.5,732,415.8,739.7z"/>
		<path class="st10" d="M462.7,726c0,9-3,15.2-12.5,15.1c-0.6,0-1.1,0-1.7,0c-9.4-0.1-12.7-6.3-12.7-15.3c0-12,0-23.9,0-35.9
			c0-8.9,3.4-14.8,12.6-14.7c0.5,0,1.1,0,1.6,0c9.6,0.1,12.6,6,12.6,14.8C462.7,702,462.7,714,462.7,726z M452.7,689.5
			c0-3.4-1.1-5-3.4-5c-2.5,0-3.5,1.6-3.5,4.9c0,12.4,0,24.7,0,37.1c0,2.8,0.8,5,3.6,5c2.6,0,3.3-2.1,3.3-4.9
			C452.7,714.2,452.7,701.8,452.7,689.5z"/>
		<path class="st10" d="M475.9,712.4c0,9.3,0,18.7,0,28c-3.3,0-6.5,0-9.8,0c0-21.5,0-43,0-64.5c3.3,0,6.5,0,9.8,0
			c0,8.6,0,17.2,0,25.8c2.6-8.6,5.2-17.2,7.7-25.8c3.2,0,6.4,0,9.6,0c-3,10-6.1,20-9.1,30c3.4,11.5,6.7,23,10.1,34.5
			c-3.4,0-6.7,0-10.1,0C481.3,731.1,478.6,721.7,475.9,712.4z"/>
		<path class="st10" d="M505.3,712.3c0,9.3,0,18.7,0,28c-3.3,0-6.5,0.1-9.8,0.1c0-21.5,0-43,0-64.5c3.3,0,6.5,0,9.8-0.1
			c0,8.6,0,17.2,0,25.8c2.6-8.6,5.2-17.3,7.7-25.9c3.2,0,6.4-0.1,9.6-0.1c-3,10.1-6.1,20.1-9.1,30.1c3.4,11.5,6.7,22.9,10.1,34.4
			c-3.4,0.1-6.7,0.1-10.1,0.1C510.7,730.9,508,721.6,505.3,712.3z"/>
		<path class="st10" d="M547.1,675c0,3.1,0,6.2,0,9.4c-4.2,0.1-8.3,0.2-12.5,0.3c0,5.6,0,11.3,0,16.9c3.3-0.1,6.5-0.1,9.8-0.2
			c0,3.3,0,6.5,0,9.8c-3.3,0.1-6.5,0.2-9.8,0.2c0,6.2,0,12.4,0,18.6c4.3-0.1,8.7-0.2,13-0.3c0,3.3,0,6.5,0,9.8
			c-7.6,0.2-15.2,0.4-22.8,0.5c0-21.5,0-43,0-64.5C532.2,675.3,539.7,675.2,547.1,675z"/>
		<path class="st10" d="M567,704c-2.3,11.7-4.7,23.4-7,35.2c-3.3,0.1-6.5,0.2-9.8,0.3c0-21.5,0-43,0-64.5c3.3-0.1,6.5-0.2,9.8-0.3
			c0,11.6,0,23.3,0,34.9c2.3-11.7,4.7-23.4,7-35.2c3.3-0.1,6.5-0.2,9.8-0.3c0,21.5,0,43,0,64.5c-3.3,0.1-6.5,0.2-9.8,0.3
			C567,727.3,567,715.7,567,704z M563.3,672.3c-0.1,0-0.2,0-0.3,0c-4.8,0.1-8.6-2.6-8.6-7.9c0-0.2,0-0.3,0-0.5
			c2.2-0.1,4.5-0.1,6.7-0.2c0,0.1,0,0.2,0,0.3c0,1.5,0.8,2.3,2,2.3h0.1c1.2,0,2.1-0.9,2.1-2.4c0-0.1,0-0.2,0-0.3
			c2.2-0.1,4.4-0.1,6.6-0.2c0,0.2,0,0.3,0,0.5C571.9,669.2,567.9,672.2,563.3,672.3z"/>
		<path class="st10" d="M596.9,709.5c-2.2,0.1-4.5,0.2-6.7,0.3c0,9.5,0,18.9,0,28.4c-3.3,0.1-6.5,0.3-9.8,0.4c0-21.5,0-43,0-64.5
			c3.3-0.1,6.5-0.2,9.8-0.4c0,8.6,0,17.2,0,25.8c2.2-0.1,4.5-0.2,6.7-0.3c0-8.6,0-17.2,0-25.8c3.3-0.1,6.5-0.3,9.8-0.4
			c0,21.5,0,43,0,64.5c-3.3,0.2-6.5,0.3-9.8,0.4C596.9,728.4,596.9,718.9,596.9,709.5z"/>
		<path class="st10" d="M625.5,724.3c-2.4,0.1-4.7,0.3-7.1,0.4c-0.4,4.1-0.9,8.1-1.3,12.2c-2.9,0.1-5.8,0.3-8.8,0.4
			c2.6-21.6,5.3-43.3,7.9-64.9c3.9-0.2,7.8-0.4,11.6-0.6c2.8,21.4,5.6,42.7,8.4,64.1c-3.2,0.2-6.3,0.4-9.5,0.5
			C626.4,732.4,625.9,728.3,625.5,724.3z M624.5,714.7c-0.9-7.9-1.7-15.8-2.6-23.7c-0.8,8-1.7,16-2.5,24
			C621,714.9,622.7,714.8,624.5,714.7z"/>
		<path class="st10" d="M653.2,707.8c-2.4,9.2-4.8,18.3-7.2,27.5c-3.4,0.2-6.7,0.4-10.1,0.6c2.6-9.7,5.2-19.5,7.8-29.2
			c-3.5-0.9-5.4-3.5-5.4-7.5c0-6,0-12,0-18c0-7.2,3.4-10.2,9.9-10.6c5.3-0.3,10.6-0.7,15.9-1c0,21.5,0,43,0,64.5
			c-3.3,0.2-6.5,0.4-9.8,0.6c0-9,0-18,0-27.1C653.9,707.7,653.5,707.8,653.2,707.8z M654.3,679c-0.9,0.1-1.7,0.1-2.6,0.2
			c-2.9,0.2-3.6,1.6-3.6,4.4c0,3.5,0,7.1,0,10.6c0,2.9,0.9,4.5,3.6,4.4c0.9-0.1,1.7-0.1,2.6-0.2C654.3,691.9,654.3,685.4,654.3,679z
			"/>
		<path class="st10" d="M694.4,676.8c-1.9,0.1-3.8,0.3-5.7,0.4c0,20.8-0.1,35.6-0.9,45.1c-0.5,6.5-2.8,10.4-10.2,10.9
			c-0.8,0.1-1.6,0.1-2.4,0.2c0-3.3,0-6.6,0-10c0.2,0,0.5,0,0.7,0c2.3-0.2,2.8-1.5,3-4.6c0.6-6.6,0.6-16.3,0.6-50.3
			c8.2-0.6,16.5-1.2,24.7-1.9c0,21.5,0,43,0,64.5c-3.3,0.3-6.5,0.5-9.8,0.8C694.4,713.5,694.4,695.1,694.4,676.8z"/>
		<path class="st10" d="M724.7,694.4c-2.3,11.9-4.7,23.7-7,35.6c-3.3,0.3-6.5,0.6-9.8,0.8c0-21.5,0-43,0-64.5
			c3.3-0.3,6.5-0.5,9.8-0.8c0,11.6,0,23.3,0,34.9c2.3-11.9,4.7-23.7,7-35.6c3.3-0.3,6.5-0.6,9.8-0.9c0,21.5,0,43,0,64.5
			c-3.3,0.3-6.5,0.6-9.8,0.9C724.7,717.7,724.7,706.1,724.7,694.4z"/>
		<path class="st10" d="M738.1,663.6c6.5-0.6,13.1-1.3,19.6-1.9c0,3.1,0,6.2,0,9.4c-3.3,0.3-6.6,0.7-9.9,1c0,18.4,0,36.8,0,55.2
			c-3.3,0.3-6.5,0.6-9.8,0.9C738.1,706.6,738.1,685.1,738.1,663.6z"/>
		<path class="st10" d="M771.7,712.6c-2.4,0.3-4.7,0.5-7.1,0.7c-0.4,4.1-0.9,8.2-1.3,12.3c-2.9,0.3-5.8,0.6-8.7,0.9
			c2.6-21.8,5.2-43.5,7.9-65.3c3.9-0.4,7.7-0.8,11.6-1.2c2.8,21.2,5.6,42.4,8.4,63.6c-3.1,0.3-6.3,0.7-9.4,1
			C772.6,720.6,772.2,716.6,771.7,712.6z M770.7,703.1c-0.9-7.9-1.7-15.7-2.6-23.6c-0.8,8-1.7,16.1-2.5,24.1
			C767.3,703.5,769,703.3,770.7,703.1z"/>
	</g>
	<path class="st11" d="M474.3,11.5"/>
	<path class="st10" d="M533.1,23.2v-1.6l-1.3-0.9C520,12.8,499.6,7.6,479,7.1l-2.5-3.8L474,7c-20.6,0.3-40.3,5.4-52.8,13.7l-1.3,0.9
		v1.6c-0.1,15.8,3.6,70,55.1,101.8l1.6,1l1.6-1C529.6,93.2,533.3,39.1,533.1,23.2z"/>
</g>
<g id="Layer_2">
	<path class="st12" d="M533.1,23.2v-1.6l-1.3-0.9C520,12.8,499.6,7.6,479,7.1L474,7c-20.6,0.3-40.3,5.4-52.8,13.7l-1.3,0.9v1.6
		c-0.1,15.8,3.6,70,55.1,101.8l1.6,1l1.6-1C529.6,93.2,533.3,39.1,533.1,23.2z"/>
	<path class="st0" d="M473.5,50.6c-8.1-15.3-16.1-30.4-16.1-30.4l4.7-0.8c0,0,6.8,12.9,13.9,26.4C475.2,47.5,474.4,49.1,473.5,50.6z
		 M510.8,82.9c-0.7-1.4-3.3-4.1-3.3-4.1s-9.8,0-12.2,0s-2.1-0.6-2.9-2.1c-0.4-0.7-6.5-12.1-13.1-24.6c-0.8,1.6-1.7,3.2-2.5,4.7
		c7,13.2,13.3,25.1,13.8,25.9c1,2,2.7,3.2,5.9,3.2s11.6,0,13.1,0S511.5,84.3,510.8,82.9z M495.5,20.3l-4.7-0.8
		c0,0-29.4,55.8-30.3,57.2s-0.6,2.1-2.9,2.1c-2.3,0-12.2,0-12.2,0s-2.6,2.7-3.3,4.1c-0.7,1.4-0.3,3.1,1.2,3.1c1.5,0,9.9,0,13.1,0
		c3.2,0,4.9-1.3,5.9-3.2C463.3,80.8,495.5,20.3,495.5,20.3z M473.1,51.4c-3.9,7.4-7.7,14.5-10.2,19.2h-4.5l12.7-22.9L473.1,51.4z
		 M476.4,45.2c7-13.2,13.6-25.7,13.7-26l0.2-0.4l5.7,0.9l4.2-7.3l-8.5-1.6l-15,26.9l-5.7-10.5h-4.2C469.5,32,472.9,38.5,476.4,45.2z
		 M453.9,56.9l-8.8,0.3l0.5,4.9c0,0-4.3,0.1-8.4,0c-0.9-4.3-3.9-23.5-3.9-23.5l9.5-1l0.5,5l8.9-0.5l-0.7-13L423,32
		c0,0,3.8,28.2,8,38.3c3.7,0,24.5-0.3,24.5-0.3L453.9,56.9z M499.8,28.7c0,0-2.1,26.8-2.1,30s-4.9,3-4.9,3v5.4l-10.9-20
		c-0.7,1.4-1.5,2.8-2.2,4.2l0.2,0.4c4.9,9.2,8,15.1,10,18.8h4.8l-0.4-0.8h3.7c4.9,0,7-4.5,7.6-7.1s3-25.1,3-25.1l10.6,1.1
		c-2.8,21.5-6,31.5-6,31.5h8.6c7.4-17.9,8-37.7,8-37.7L499.8,28.7z"/>
	<path class="st0" d="M476.4,84.3c-5.5,0-9.9,0.8-9.9,1.7c0,1,4.5,1.7,9.9,1.7s9.9-0.8,9.9-1.7C486.3,85.1,481.9,84.3,476.4,84.3z
		 M476.4,87.5c-3.8,0-6.9-0.6-6.9-1.4s3.1-1.4,6.9-1.4s6.8,0.6,6.8,1.4S480.2,87.5,476.4,87.5z"/>
	<path class="st0" d="M476.4,88.3c-0.9,0-8,0-9.9-1.5V94c0,1,4.5,1.7,9.9,1.7s9.9-0.8,9.9-1.7v-7.2
		C484.4,88.2,477.3,88.3,476.4,88.3z"/>
	<polygon class="st0" points="476.5,5.7 478.6,12.1 485.3,12.1 479.9,16.1 481.9,22.5 476.5,18.5 471.1,22.5 473.1,16.1 467.7,12.1 
		474.4,12.1 	"/>
	<polygon class="st0" points="476.5,5.7 478.6,12.1 485.3,12.1 479.9,16.1 481.9,22.5 476.5,18.5 471.1,22.5 473.1,16.1 467.7,12.1 
		474.4,12.1 	"/>
	<path class="st8" d="M486.3,95v2.3c0,1-4.5,1.7-9.9,1.7s-9.9-0.8-9.9-1.7V95c2,1.3,7.9,1.4,9.9,1.4C478.5,96.4,484.3,96.3,486.3,95
		z M459.4,25.6l-1.9-3.5l-0.6,0.1c0,0,1.7,3.3,4.4,8.3l0.3,4.9l7.8,14.1l1.4-2.5L459.4,25.6z M482.4,46.4c0.5-0.9,1-1.8,1.4-2.7
		c2.5-4.8,5-9.5,7.2-13.5c2.9-5.4,4.9-9.2,5.2-9.7l2.3,1.1l-14.9,27.1L482.4,46.4z M458.6,71.3h3.9c-0.8,1.5-1.5,2.7-1.9,3.6h-1
		L458.6,71.3z M497.6,36.4l1,0c-0.6,7.9-1.4,19.5-1.5,22.1c0,0,0,0,0,0c0,0.1,0,0.2,0,0.2c0,0,0,0,0,0c0,0.2,0,0.3-0.1,0.5
		c0,0,0,0.1,0,0.1c0,0.1-0.1,0.2-0.2,0.3c0,0,0,0,0,0.1c-0.1,0.1-0.2,0.2-0.3,0.3c0,0,0,0,0,0c-0.1,0.1-0.2,0.2-0.4,0.3c0,0,0,0,0,0
		C496.5,53,497.6,36.4,497.6,36.4z M492,74.5c-0.4-0.8-0.8-1.6-1.7-3.2h5.6h0l-0.4-0.8h2.6c0.3,0,0.5,0,0.8,0c0.1,0,0.2,0,0.3,0
		c0.2,0,0.3,0,0.5-0.1c0.1,0,0.2,0,0.3-0.1c0.1,0,0.3-0.1,0.4-0.1c0.1,0,0.2-0.1,0.3-0.1c0.1,0,0.2-0.1,0.4-0.1
		c0.1,0,0.2-0.1,0.3-0.1c0.1-0.1,0.2-0.1,0.3-0.2c0.1-0.1,0.2-0.1,0.3-0.2c0.1-0.1,0.2-0.1,0.3-0.2c0.3-0.2,0.6-0.4,0.8-0.6
		c-0.9,2.6-3.1,5.9-7.3,5.9h-2.9L492,74.5z M510.6,86.5C510.6,86.5,510.6,86.5,510.6,86.5c-0.1,0.8-0.6,1.4-1.5,1.4
		c-1.5,0-9.9,0-13.1,0c-3.2,0-4.9-1.3-5.9-3.2c-0.2-0.5-2.3-4.3-5.2-9.8h-1.6l-7.1-13l-7.2,13h-1c-2.9,5.5-5,9.3-5.2,9.8
		c-1,2-2.7,3.2-5.9,3.2s-11.6,0-13.1,0c-0.9,0-1.3-0.6-1.5-1.4c0,0,0,0,0,0c0.1,0,0.2,0.1,0.4,0.1c0.1,0,0.3,0.1,0.4,0.1h13.1
		c3.2,0,5.3-1.2,6.6-3.6c0-0.1,0.1-0.2,0.2-0.3c0.1-0.2,0.2-0.4,0.3-0.6c0.1-0.2,0.2-0.4,0.3-0.7c0.2-0.3,0.3-0.6,0.5-1
		c0.2-0.3,0.3-0.6,0.5-0.9c0.4-0.8,1-1.8,1.5-2.9c0,0,0,0,0-0.1c0,0,0-0.1,0.1-0.1c0.2-0.3,0.3-0.6,0.5-1c0.7-1.3,1.4-2.7,2.2-4.2
		c0.4-0.7,0.7-1.4,1.1-2.1c0.3-0.6,0.7-1.3,1.1-2c0.4-0.7,0.8-1.4,1.1-2.1c0.1-0.2,0.3-0.5,0.4-0.7c0.8-1.5,1.6-3.1,2.5-4.6
		c0.4-0.7,0.7-1.4,1.1-2.1c3.8,7.2,6.9,13,9.2,17.3h0c1.6,3,2.8,5.2,3.5,6.6c0,0.1,0.1,0.2,0.1,0.3c0,0.1,0.1,0.1,0.1,0.2
		c0.2,0.4,0.4,0.7,0.5,0.9c0,0,0,0,0,0c0.1,0.1,0.1,0.2,0.1,0.2c1.2,2.4,3.4,3.6,6.6,3.6h13.1c0.2,0,0.4,0,0.5-0.1
		C510.3,86.6,510.5,86.6,510.6,86.5z M512.2,70.9h7c-0.5,1.3-1,2.7-1.5,4h-8c0,0,2.7-7.7,5.6-29.2l-6.7-0.7c0,0,0,0,0,0
		c0-0.4,0.1-0.7,0.1-1.1c0,0,0,0,0,0c0-0.3,0.1-0.7,0.1-1c0,0,0-0.1,0-0.1c0.1-1,0.2-1.9,0.3-2.6c0,0,0-0.1,0-0.1
		c0.1-0.7,0.1-1.3,0.2-1.8l9.2,1c-0.7,5.2-1.4,9.7-2.1,13.5c-1.8,10.1-3.3,15.6-3.7,16.9c-0.1,0.2-0.1,0.3-0.1,0.3L512.2,70.9z
		 M456.5,74.5c0,0-18.5-0.3-22.2-0.3c-0.4-1-0.8-2-1.2-3.2c0.1,0,0.3,0,0.5,0c0.1,0,0.1,0,0.2,0c0.2,0,0.3,0,0.5,0
		c0.1,0,0.2,0,0.2,0c0.4,0,0.9,0,1.4,0c0,0,0.1,0,0.1,0c0.2,0,0.4,0,0.6,0c0.1,0,0.2,0,0.4,0c0.2,0,0.4,0,0.6,0c0.1,0,0.1,0,0.2,0
		c0.3,0,0.5,0,0.8,0c0.6,0,1.1,0,1.7,0c0.5,0,0.9,0,1.4,0c0.2,0,0.4,0,0.7,0c0.8,0,1.6,0,2.3,0c1,0,2,0,2.9,0c0.7,0,1.4,0,2.1,0
		c1.1,0,2.2,0,3,0c0.1,0,0.2,0,0.3,0c0.3,0,0.6,0,0.9,0c0.5,0,0.9,0,1.1,0c0.3,0,0.5,0,0.5,0l0.6,0L456.5,74.5z M452.5,33.3l0.8,3.6
		l0.5,11.8l-8.4,0.6l-0.4-4.4l-8.5,0.4c0,0,1.1,9.2,2.2,16.2c-0.3,0-0.6,0-0.9,0c-0.9-4.5-3.1-18.8-3.7-22.2l8.1-0.9l0.5,4.9h0l0,0
		l10.3-0.5L452.5,33.3z M481.6,22.5l0.3,1l-5.4-3.9l-5.4,3.9l0.3-1l5.1-3.7L481.6,22.5z M472.9,16.1l-4.1-3h-1.1l5,3.6L472.9,16.1z
		 M480.1,16.1l0.2,0.6l5-3.6h-1.1L480.1,16.1z"/>
	<g>
		<path class="st0" d="M462.6,18.4c0,0,0.5,1,1.4,2.6c2.2-0.3,4.5-0.5,6.7-0.7l1.1-3.5l-5.7-4.1l-2.1-1.5h9.7l0.5-1.5
			c-7.1,0.2-14.1,1.2-20.6,2.6l3.1,7.3L462.6,18.4z"/>
		<path class="st0" d="M499.2,21.3l-0.8,1.4c2.5,0.6,4.8,1.2,7,1.8l5.1-9.5c-2.7-0.8-5.6-1.6-8.6-2.3c-0.8,1.4-2.5,4.2-4.6,7.7
			L499.2,21.3z"/>
		<path class="st0" d="M489,11.1l-7.8,5.7l1.1,3.5c1,0.1,1.9,0.2,2.9,0.2l5.5-9.9c-3.9-0.5-7.9-0.9-11.9-1l0.5,1.5H489z"/>
		<path class="st0" d="M441.6,26.4c4.2-1.5,9.3-2.9,14.8-4.1l-0.3-0.5l0.4-0.1l-4-9.4c-4.3,1-8.4,2.1-12.1,3.3l-1.2,11L441.6,26.4z"
			/>
		<path class="st0" d="M439.3,16c-7.9,2.6-13.8,5.4-16.4,7.1l0,0v0c0,1.4,0,3.1,0.1,5l15.2-1.5L439.3,16z"/>
		<path class="st0" d="M432.6,71.3C432.6,71.3,432.6,71.3,432.6,71.3c0,0.2,0.1,0.4,0.2,0.6C432.8,71.7,432.7,71.5,432.6,71.3z"/>
		<path class="st0" d="M530.1,23.2L530.1,23.2c-2.5-1.7-8.5-4.5-16.5-7.1l-6.2,9.1c5.9,1.8,10.7,3.8,13.4,5.2l9,1.1
			C530.1,28.1,530.1,25.3,530.1,23.2z"/>
		<path class="st0" d="M518.1,75.1l-0.1,0.3h-9l0.2-0.5c-0.5,1-1.1,2-1.6,2.9h0.4l0.3,0.3c0.3,0.3,2.7,2.9,3.4,4.3
			c0.6,1.2,0.6,2.5,0,3.4c-0.2,0.2-0.3,0.4-0.6,0.6l0,0.1c-0.1,1.1-0.9,1.9-2,1.9h-8.4c-6.3,8.8-14.2,17.2-24.1,24l0,0
			c-10.2-6.4-18.3-14.9-24.8-24.1h-8c-1,0-1.8-0.7-2-1.8c-0.3-0.2-0.6-0.4-0.8-0.7c-0.6-0.9-0.6-2.3,0-3.4c0.7-1.5,3.2-4.1,3.4-4.3
			l0.3-0.3h0.2c-0.5-1-1.1-2-1.6-3c-4-0.1-7.8-0.1-9.3-0.1h-0.2c7.7,16.8,20.7,34.3,42.5,47.7l0,0l0,0c23.3-14.4,36.5-33.5,44-51.3
			h-1C519.1,72.6,518.6,73.9,518.1,75.1z"/>
	</g>
	<circle class="st10" cx="426.3" cy="23.7" r="1.7"/>
	<circle class="st10" cx="463.7" cy="13.8" r="1.7"/>
	<circle class="st10" cx="526.5" cy="24.9" r="1.7"/>
	<circle class="st10" cx="513.9" cy="78.1" r="1.7"/>
	<circle class="st10" cx="500.5" cy="96.7" r="1.7"/>
	<circle class="st10" cx="476.8" cy="117.4" r="1.7"/>
	<path class="st0" d="M489.3-3.8"/>
</g>
</svg>
