<?xml version="1.0" encoding="utf-8"?>
<!-- Generator: Adobe Illustrator 24.0.1, SVG Export Plug-In . SVG Version: 6.00 Build 0)  -->
<svg version="1.1" id="Layer_1" xmlns="http://www.w3.org/2000/svg" xmlns:xlink="http://www.w3.org/1999/xlink" x="0px" y="0px"
	 viewBox="0 0 953 799" style="enable-background:new 0 0 953 799;" xml:space="preserve">
<style type="text/css">
	.st0{fill:#1F2C44;}
	.st1{fill:#EBC870;}
	.st2{fill-rule:evenodd;clip-rule:evenodd;fill:#EBC870;}
	.st3{fill:#B5933B;}
	.st4{fill-rule:evenodd;clip-rule:evenodd;fill:#B5933B;}
	.st5{fill:#1C2A50;}
	.st6{fill:#D9D9D9;}
	.st7{fill:#FFFFFF;}
	.st8{fill:none;stroke:#1C2A50;stroke-width:4.374;}
	.st9{fill-rule:evenodd;clip-rule:evenodd;fill:#B91600;}
	.st10{fill:#8D8D8D;}
	.st11{fill-rule:evenodd;clip-rule:evenodd;fill:#BE1902;}
	.st12{fill-rule:evenodd;clip-rule:evenodd;fill:#FFFFFF;}
</style>
<path class="st0" d="M952,631l-136.4,15.6v-30.1c0,0-100.2,8.4-193.2,13.4V598h-13.1v-64.9h145.1v-53.9l-37.2,0V3.8H581.6v118.1
	h-63.3c0.2-1.1,0.3-1.9,0.3-1.9c-0.1-3.5-1.7-6.3-2.7-7.9c-1.1-1.7-2.4-3.2-2.9-3.7c0,0-4.7-3.9-7.3-4.6c0,0-7.8-0.3-8.3-0.3
	l3.2-22.7c1.3-1,2.7-2.5,3.7-4.5l1.5-2.9c1.2-2.3,1.4-4.8,1.5-6.2c0.1-1.6,0-3.5-0.4-5.2c0,0-1.3-3.7-2.4-5.1c0,0,7.2-41.1,7.4-43
	l-1.1-6.3c-1.6-3.4-4.6-5.8-7.9-6.7c0,0-3.4-0.7-5.7-0.6c0,0-3.6,1-4.4,1.5l-1.4,0.1l-7,0.8c-0.2,0-0.3,0-0.5,0.1h-0.1l-10.4,1.7
	l0,0c-3,0.5-8.4,0.9-13.3,2.7c-2.1,0.8-4.2,1.8-6.2,3c0,0-0.9,0.6-1.1,0.8c-0.3,0-0.6,0.1-0.9,0.2c-0.2,0-0.4,0.1-0.5,0.1l-4.8,1.4
	c-0.2,0.1-0.3,0.1-0.5,0.2c-8.1,3-15.4,8.8-20.6,17.4l-3.2,6.4c-0.6,1.8-0.7,3.5-0.8,4.5c-0.1,1.6-2.1,20.9-2.1,20.9
	c-0.1,1.4,0,2.8,0.4,4.2c1,3.7,3.6,6.3,5.8,7.5c2.7,1.6,5.4,1.9,7.7,1.7c1,1.3,2.4,2.6,4.2,3.5c1.6,0.8,3.4,1.1,4.3,1.2
	c0.4,0.1,1.4,0.3,2.3,0.5c0.6,0.9,1.2,1.9,1.9,2.9c0.6,1,1.3,2,1.9,2.9c-0.4,1.1-0.8,2.4-0.9,3.8c-0.1,0.6,0,1.3,0,1.9
	c-0.6,0.9-1.1,1.9-1.5,3c-0.5,1.5-0.6,2.8-0.7,3.5c-0.1,0.4-0.4,1-0.5,1.8c-0.1,0.5-0.2,1-0.2,1.4c0,0.1-0.1,0.1-0.1,0.3
	c-0.1,0.3-0.2,0.8-0.3,1.4c-0.2,0.9-0.1,1.7-0.1,2c0,0.1,0,0.3-0.1,0.4c-0.1,0.6-0.3,1.5-0.2,2.7l0,1c0,0.3,0,0.8,0,1.2
	c-0.1,0.3-0.4,1.2-0.4,1.2c-0.1,0.4-0.2,0.7-0.3,0.9c-0.1,0.2-0.1,0.4-0.1,0.5c-1.1,1.9-1.6,4-1.7,6.1l0,0c0,0.7,0,1.5,0.1,2.4
	h-69.5V3.8H235.7v475.4l-37.2,0v53.9h145.1V598h-13.1v31.8c-93-4.9-193.2-13.4-193.2-13.4v30.1L1,631l74.3,81.7L3.1,776.1L198.5,797
	l15.3-13.8v-16.3c63.9,4.6,167.1,11.2,248.6,11.9v0.1h13.9c0.1,0,0.1,0,0.2,0s0.1,0,0.2,0h13.9v-0.1c81.5-0.7,184.7-7.2,248.6-11.9
	v16.3l15.3,13.8l195.4-20.8l-72.1-63.3L952,631z M371.4,149.7h210.3v4.6l-70.8,60.3h-68.8l-70.8-60.3V149.7z M581.6,190.6v209.6
	L535,360V230.4L581.6,190.6z M371.4,190.6l46.7,39.8V360l-46.7,40.2V190.6z M394.8,416.5l45.8-39.4h71.7l45.8,39.4H394.8z"/>
<path class="st1" d="M476.5,279.5H437v5.1h39.5H516v-5.1H476.5z"/>
<path class="st2" d="M249.6,17.7h107.9v118.1h119v92.6H516h5.1v23.3H516v5.8h5.1v21.9H516h-39.5H437h-5.1v-21.9h5.1v-5.8h-5.1v-23.3
	h5.1l-79.5-67.8v269.7l78-67.1h-3.6v-22.6h5.1v-5.8h-5.1v-22.6h5.1v-5.1h-5.1v-22.6h5.1h39.5H516h5.1v22.6H516v5.1h5.1v22.6H516v5.8
	h5.1v22.6h-3.6l78,67.1V160.6v-24.8V17.7h107.9v67.8l-54.2,26.8c-3,1.5-4.9,4.5-4.9,7.8v283.2h10.9V137.5c0-3.2,1.8-6.2,4.6-7.7
	l43.5-23V136l-27.5,15c-2.8,1.5-4.6,4.5-4.6,7.7V442h13.1V176c0-3.2,1.8-6.2,4.6-7.7l14.4-7.7v304.7H595.5v14.6H586v15.3h62h7.3
	h85.3v24.1h-85.3H648h-62v15.3h9.5v23.3H586v15.3h9.5v24.1H586v14.6h22.6V625v16.8H476.5H344.4V625v-13.1H367v-14.6h-9.5v-24.1h9.5
	v-15.3h-9.5v-23.3h9.5v-15.3h-62h-7.3h-85.3v-24.1h85.3h7.3h62v-15.3h-9.5v-14.6H249.6V160.6l14.4,7.7c2.8,1.5,4.6,4.5,4.6,7.7v266
	h13.1V158.5c0-3.2-1.7-6.1-4.6-7.7l-27.5-15v-29.2l43.5,23c2.9,1.5,4.6,4.5,4.6,7.7v265.9h10.9V120.1c0-3.3-1.9-6.4-4.9-7.8
	l-54.2-26.8L249.6,17.7L249.6,17.7z M332.5,72.2c1.9,1,3.1,3,3.1,5.1v285.9h-12.4V95.7c0-2.2-1.3-4.2-3.2-5.2l-56.9-28.1
	c-2.7-1.3-3.9-4.5-2.9-7.3l4.5-11.5c1.3-3.3,5.1-4.7,8.2-3L332.5,72.2z M617.4,363.3V77.4c0-2.2,1.2-4.1,3.1-5.1l59.6-31.7
	c3.1-1.6,6.9-0.2,8.2,3l4.5,11.5c1.1,2.8-0.1,6-2.9,7.3L633,90.5c-2,1-3.2,3-3.2,5.2v267.6H617.4z"/>
<path class="st1" d="M476.5,228.4H516l79.5-67.8v-24.8h-119V228.4z"/>
<path class="st3" d="M476.5,279.5H437v5.1h39.5H516v-5.1H476.5z"/>
<path class="st3" d="M476.5,228.4H516l79.5-67.8v-24.8h-119V228.4z"/>
<path class="st4" d="M437,257.6v-5.8h39.5v-23.3H516h5.1v23.3H516v5.8h5.1v21.9H516h-39.5v-21.9H437z M476.5,430.4v-67.1v-22.6H437
	v-5.8h39.5v-22.6H437v-5.1h39.5v-22.6H516h5.1v22.6H516v5.1h5.1v22.6H516v5.8h5.1v22.6h-3.6l78,67.1V160.6v-24.8V17.7h107.9v67.8
	l-54.2,26.8c-3,1.5-4.9,4.5-4.9,7.8v283.2h10.9V137.5c0-3.2,1.8-6.2,4.6-7.7l43.5-23V136l-27.5,15c-2.8,1.5-4.6,4.5-4.6,7.7V442
	h13.1V176c0-3.2,1.8-6.2,4.6-7.7l14.4-7.7v304.7H595.5v14.6H586v15.3h62h7.3h85.3v24.1h-85.3H648h-62v15.3h9.5v23.3H586v15.3h9.5
	v24.1H586v14.6H476.5v-14.6h-3.8v-24.1h3.8v-15.3h-3.8v-23.3h3.8v-15.3h-3.8v-24.1h3.8v-15.3v-27.7V430.4z M393.9,597.3v-24.1h-8.7
	v24.1H393.9z M367,611.9h109.5V625l-6.3-9.2c-0.6-0.8-1.8-0.9-2.4,0l-5.7,7.7c-0.6,0.8-1.7,0.8-2.3,0l-6.4-8c-0.6-0.8-1.7-0.7-2.3,0
	l-5.8,7.9c-0.6,0.8-1.7,0.8-2.3,0l-6.4-8c-0.6-0.8-1.7-0.7-2.3,0l-5.7,7.8c-0.6,0.8-1.8,0.8-2.4,0l-5.7-7.8c-0.6-0.8-1.7-0.8-2.3,0
	l-6.4,8c-0.6,0.7-1.7,0.7-2.3,0l-6.4-8c-0.6-0.8-1.7-0.7-2.3,0l-5.8,7.9c-0.6,0.8-1.7,0.8-2.3,0l-6.4-8c-0.6-0.8-1.7-0.7-2.3,0
	l-5.8,7.9c-0.6,0.8-1.7,0.8-2.3,0l-6.4-8c-0.6-0.8-1.7-0.7-2.3,0l-5.8,7.9c-0.6,0.8-1.7,0.8-2.3,0l-6.3-7.9
	c-0.6-0.8-1.8-0.7-2.4,0.1l-6.2,9.3v-13.1H367V611.9z M476.5,625l6.3-9.2c0.6-0.8,1.8-0.9,2.4,0l5.7,7.7c0.6,0.8,1.7,0.8,2.3,0
	l6.4-8c0.6-0.8,1.7-0.7,2.3,0l5.8,7.9c0.6,0.8,1.7,0.8,2.3,0l6.4-8c0.6-0.8,1.7-0.7,2.3,0l5.7,7.8c0.6,0.8,1.8,0.8,2.4,0l5.7-7.8
	c0.6-0.8,1.7-0.8,2.3,0l6.4,8c0.6,0.7,1.7,0.7,2.3,0l6.4-8c0.6-0.8,1.7-0.7,2.3,0l5.8,7.9c0.6,0.8,1.7,0.8,2.3,0l6.4-8
	c0.6-0.8,1.7-0.7,2.3,0l5.8,7.9c0.6,0.8,1.7,0.8,2.3,0l6.4-8c0.6-0.8,1.7-0.7,2.3,0l5.8,7.9c0.6,0.8,1.7,0.8,2.3,0l6.3-7.9
	c0.6-0.8,1.8-0.7,2.4,0.1l6.2,9.3v16.8H476.5V625z M393.9,534.6v23.3h-8.7v-23.3H393.9z M393.9,519.3v-24.1h-8.7v24.1H393.9z
	 M305,495.2h-7.3v24.1h7.3V495.2z M277.1,150.9c2.8,1.5,4.6,4.5,4.6,7.7l0,0C281.7,155.3,279.9,152.4,277.1,150.9L277.1,150.9z
	 M303.8,112.3c3,1.5,4.9,4.5,4.9,7.8l0,0C308.6,116.8,306.8,113.8,303.8,112.3L303.8,112.3z M620.5,72.2c-1.9,1-3.1,3-3.1,5.1v285.9
	h12.4V95.7c0-2.2,1.3-4.2,3.2-5.2l56.9-28.1c2.7-1.3,3.9-4.5,2.9-7.3l-4.5-11.5c-1.3-3.3-5.1-4.7-8.2-3L620.5,72.2z"/>
<path class="st5" d="M497.9,9c0.9-0.1,1.9,0.1,2.7,0.3c0.8,0.2,1.7,0.9,2.1,1.9c0.2,0.5,0.4,1.1,0.3,1.8c-0.1,1.4-0.5,3-0.7,4.4
	l-1.7,10.1L495,60.4l1.2,0.6c0.9,0.6,1.7,1.5,2,2.9c0.4,1.5,0.3,4.2-0.3,5.5c-0.3,0.5-0.7,0.9-0.9,1.4c-0.2,0.6-0.3,1.4-0.6,2
	c-0.7,1.7-2.5,2-3.8,2.5l-5,35.3c0.2,0.3,0.5,0.8,0.8,0.9c0.6,0.4,1.9,0.4,2.6,0.5c2.6,0.3,5.1,0.3,7.7,0.3c1.6,0,3.3-0.2,4.9,0.1
	c1,0.2,1.9,0.7,2.7,1.6c1.3,1.5,3.4,3.9,3.5,6.4c0,0.9-0.2,1.9-0.7,2.5c-0.6,0.9-1.5,1.5-2.3,1.8c-1.8,0.6-3.7,0.6-5.6,0.6l-6.9-0.1
	c-2.7-0.1-5.3-0.1-8-0.6c-1-0.2-2-0.6-2.8-1.4c-0.3-0.3-0.6-0.7-1-0.9c-0.2-0.1-2.6,0.3-3.1,0.3c-1.7,1.8-3.6,2-5.7,2
	c-0.7,0.7-1.3,1.3-2.1,1.7c-0.8,0.4-1.6,0.6-2.4,0.6c-3,0.2-6.2-0.5-9.2-1l-4.9-0.9c-1.5-0.3-2.9-0.6-4.3-1.6
	c-0.3-0.3-0.7-0.7-0.9-1.1c-0.4-0.7-0.6-1.6-0.5-2.5c0.1-1.3,0.4-2.2,1.1-3c0.4-0.5,0.4-1.4,0.7-2.1c0.3-0.8,0.7-1.6,1-2.4
	c-0.1-0.5-0.3-1.2-0.3-1.7c0-0.3,0.1-0.6,0.1-0.9c0-0.4-0.1-0.8-0.1-1.2c0-0.7,0.2-1.1,0.2-1.8c0.1-0.6,0-1.1,0.1-1.7
	c0.1-0.7,0.4-1.2,0.4-1.8c0-1.1,0.4-1.5,0.7-2.4c0.2-0.9,0.1-1.7,0.4-2.7c0.3-0.9,0.8-1.6,1.4-2.2s1.2-0.7,1.5-1.7l-0.2-0.3
	c-0.5-0.8-0.9-1.8-0.8-2.9c0.1-1.9,1.5-3.2,2.4-4.4c-0.9-1.4-8.9-14.2-9.4-14.5h-0.1c-1-0.4-1.7,0-2.7,0c-0.9,0-1.5-0.4-2.3-0.6
	c-0.7-0.1-1.4-0.1-2.1-0.4c-0.9-0.5-1.5-1.3-1.9-2.5c-0.6-1.7-0.6-3.2-0.1-4.9l0.1-0.2c-2.7,1.4-6.6,4.4-9.5,2.7
	c-0.7-0.4-1.5-1.2-1.7-2.3c-0.1-0.4-0.2-0.9-0.1-1.4c0-0.7,0.3-1.2,0.4-1.9l1.5-16.2c0.2-1.7,0.1-3.6,0.6-5.1
	c0.5-1.7,1.5-3.3,2.3-4.7c4.1-6.9,9.9-11.4,16.1-13.7l4.8-1.4c0.8-0.2,1.6-0.2,2.4-0.5s1.6-1.1,2.3-1.5c1.5-0.9,3-1.7,4.6-2.3
	c3.9-1.4,7.8-1.7,11.7-2.3l10.4-1.7l6.7-0.7l2.5-0.2c0.3,0,0.8,0,1.1-0.2C496.4,9.6,496.9,9.2,497.9,9z"/>
<path class="st6" d="M456,23.5h0.4v0.2c-0.6,0.7-1.1,1.4-1.6,2.2c-0.5,0.8-1.2,2.5-1.8,2.9c-1.8,1.2-3.5,2.4-5.2,3.8
	c-0.4,0.4-0.9,0.8-1.3,1.3c0.4,0,1.3-0.9,1.6-1.1c1.3-0.9,2.7-1.8,4-2.5c-0.7,1.3-1.4,2.7-2,4.1c-1.8,4.5-3.1,9.7-4.5,14.5
	c-0.6,2.2-1.2,4.6-2,6.7c-0.2,0.5-0.5,1.1-0.9,1.5c-0.5,0.5-1.2,0.8-1.8,1.1l-4,2c-1.5,0.8-3,1.8-4.6,2.3c0.8-1.4,6.1-9.5,6.1-9.8
	l-0.3,0.2l-5.7,8l0.9-9l0.6-7c0.1-1.1,0.1-2.3,0.3-3.4c0.2-1,0.9-2,1.4-2.8c0.2,0,0.3,0,0.5,0.3l-0.5,3.2l2.1-1.8
	c0.2-0.2,0.6-0.6,0.9-0.7c0.2-0.1,0.6,0.1,0.9,0.2l2.9,0.9l-1.8-2.8l2.8-2.5c-0.4-0.1-0.9,0.1-1.4,0.2l-2.6,0.5l-1.1-1.6
	C443.3,27.9,449.2,24.7,456,23.5z"/>
<path class="st6" d="M497.6,12.3l1.5,0.2l-8,50.4c0.9,0.3,2.9,0.3,3.5,1.3c0.3,0.4,0.3,0.9,0.3,1.5s0.1,1.2,0,1.8
	c-0.1,0.6-0.7,1-0.9,1.5c-0.3,0.6-0.5,1.6-0.7,2.3c-1.1,0.4-2.3,1-3.5,1.1h-0.2l-5.6,39c0.7,1,1.5,2.3,2.4,2.9c1,0.7,2.3,0.9,3.4,1
	c3.3,0.5,6.7,0.5,10,0.5h2.5c0.2,0,0.6,0,0.8,0.1c0.2,0.1,0.4,0.4,0.6,0.5c0.7,0.8,2.6,3,2.6,4.2c0,0.4-0.2,0.5-0.3,0.7
	c-1.4,0.6-2.9,0.6-4.3,0.6l-6.8-0.1l-6.5-0.3c-0.7-0.1-1.6-0.1-2.2-0.5c-0.9-0.6-2.6-2.4-2.9-3.7v-0.1h-0.1
	c-0.1,0.6-0.3,1.2-0.5,1.7l-2.7,0.4l1.1-4.7l-5.5-7.7c-1.1-1.6-2.2-3.3-3.5-4.7l-0.3,0.8c-0.5,1.5-0.9,1.6-1.9,2.2
	c-0.3,0.5-0.4,1.3-0.6,2l-0.7,0.5c-0.2,0.1-0.5,0.3-0.7,0.5s-0.4,0.5-0.4,0.9l0.4,0.4c0.3,0.3,0.5,0.5,0.8,0.5
	c0.2,0,0.3,0.1,0.5,0.2c0.1,0.6,0.2,1.4,0.4,1.8c0.4,0.6,1.1,0.8,1.6,1c1.2,0.4,3.5,0.8,4.4,2c0.3,0.4,0.4,0.7,0.4,1.3
	c0,2.3-2.1,1.1-2.9,2.1l0.1,0.3c1.2,0.7,2.9,0,4.2-0.3l0.1,0.2c-0.5,3.2-3.3,2.7-5.1,2.6c-0.1,0-0.6-0.1-0.6,0
	c-0.2,0.2-0.6,1.3-0.9,1.6c-0.4,0.4-1,0.7-1.5,0.7c-1.1,0.2-2.4-0.1-3.6-0.2l-7.6-1.2l-3.4-0.7c-0.6-0.2-1.3-0.3-1.9-0.8
	c-0.2-0.5-0.1-0.6,0-1.2c0.7-1.2,2.5,0.5,3.4-0.3c0-0.1,0-0.3-0.1-0.4c-0.4-0.4-1.2-0.3-1.7-0.9c-1.3-1.4,1.1-4,1.2-5.4
	c0-0.4-0.3-1.7-0.4-2.2c0.1-0.4,0.2-0.8,0.2-1.2c0-0.3-0.3-0.7-0.3-1c0.1-0.5,0.2-0.9,0.3-1.5c0-0.3,0-1.2,0.1-1.5
	c0.1-0.2,0.5-0.7,0.7-0.9l-0.3-1.2c0.2-0.5,0.6-1.1,0.7-1.7c0.1-0.7,0-1.5,0.2-2.1c0.3-0.9,1.3-1.4,1.9-1.7c0.1,0,0.5-0.2,0.6-0.2
	c0.2-0.3,0.1-1.3,0.3-1.6c0.3-0.5,1-0.4,1.4-0.9c0.1-0.5,0.2-1,0.1-1.5l-0.9-0.5c-0.6-0.3-1-0.6-1.2-1.4c0.1-1.2,1.5-2.4,2-3.2
	c0.4-0.5,0.7-1.1,1-1.7l-11.9-18.3l-1.1,0.4l-1.1-1l-0.9,0.5c-0.6,0.4-1.3,0.7-1.9,0.3c-0.7-0.5-1.7,0-2.3-0.5
	c-0.2-0.6-0.4-1.1-0.4-1.8c-0.2-2.6,1.8-3.2,2.7-4.7c0.2-1.2,0.6-1.5,1.3-2.1c0.2-0.2,0.5-0.3,0.6-0.6c0.5-1,1-1.3,1.7-2.1
	c0.3-0.4,0.6-0.8,0.9-1.2c0.7-0.8,2.1-0.1,2.9,0l0.6-2.2l-0.6-0.9l0.5-2.2l-5.8,2.1c1.2-2.1,3-3.5,4.5-5.1c-2.4,1.3-4.9,4.1-6.9,6.4
	l4-13.6c0.6-1.9,1-4,1.8-5.8c0.9-2.2,2.1-4.4,3.2-6.2c5.1-8.1,12.2-9.9,19.6-10.5l-6.8,3.4l0.1,0.1c0.2,0,0.9-0.4,1.2-0.5l3.4-1.4
	c3.5-1.4,7-2.4,10.5-3.1L490,15l7.1-0.8L497.6,12.3z"/>
<path class="st5" d="M496.6,17.4l0.2,0.2l-0.1,0.8c-0.5,0.7-7.7,3.2-8.8,3.5l-0.1-0.1c2-1.1,4.1-1.8,6.1-2.8
	C494.8,18.5,495.8,18,496.6,17.4z"/>
<path class="st5" d="M459.5,119.2l2.7,0.3c0.9,0.1,2.3-0.1,3.1,0.4c0.1,0.4,0.1,0.4-0.1,0.7l-0.5,0.1c-0.6,0-5.5-0.6-5.7-0.8
	c-0.1-0.1-0.2-0.2-0.2-0.3v-0.2L459.5,119.2z"/>
<path class="st5" d="M497,14.9l0.1,0.1c0,0.5-0.1,1-0.2,1.4c-0.3-0.1-0.5-0.2-0.8-0.2c-1.1,0.1-2.3,0.8-3.3,1.2l-11.5,4.8H481
	c1.8-1.2,3.8-1.9,5.7-2.8L497,14.9z"/>
<path class="st5" d="M494.2,32.3h0.3l-0.1,0.8c-0.3,0.3-0.8,0.4-1.2,0.6l-2.2,0.9c-4.1,1.7-8.2,3.7-12.3,5l-0.3-0.1L494.2,32.3z"/>
<path class="st5" d="M466.7,21.9c0.3,0,0.6-0.1,0.9,0.1c0.5,0.4,0.1,0.8,0.2,1.4l0.6-0.1h0.2l0.1,0.2l-0.4,1.2l-3.8,1.2l-1.4,0.5
	c-0.4,0-0.5,0-0.8-0.4c-0.1-0.6,0.3-1.7,0.5-2.2s0.7-0.7,1.1-0.8C464.7,22.8,465.7,22.3,466.7,21.9z"/>
<path class="st5" d="M460.6,23.5c0.5-0.1,0.9-0.1,1.3,0.3c0.1,0.3,0.1,0.3,0,0.7c-0.3,1.4-0.9,3.2-2,3.4c-0.4,0.1-0.7-0.1-1.1,0.2
	c-0.4,0.4-0.8,0.5-1.2,0.6h-0.1c-0.2,0.3-0.5,0.4-0.8,0.5l-1.4,0.6l1.6-4.2c0-0.1,0.2-0.5,0.2-0.6c0.2-0.2,0.7-0.4,1-0.5L460.6,23.5
	z"/>
<path class="st5" d="M475.6,24.3l0.2,0.2l-0.3,1.1c-0.2,0.2-0.3,0.3-0.4,0.5l0.1,0.2c0.3-0.2,0.5-0.3,0.9-0.3c0.2,0,0.3,0,0.4,0
	c0.8-0.4,1.8-0.3,2.6-0.5c-0.1,0.3-0.3,1.1-0.4,1.4c-0.1,0.1-0.3,0.1-0.5,0.4c0,0.7,0.7,0.2,1,0.7l-0.2,0.9
	c-0.2,0.5-2.6,0.5-3.1,0.6c-0.5,0.2-0.9,0.2-1.4,0h-0.1l-0.1,0.1c-0.1,0.1-0.2,0.4-0.3,0.5c-0.2,0.1-0.7,0.1-0.9,0.1l-2.1,0.3
	l-0.1-0.1l0.3-1.2c0.7-0.4,0.8-1.6,1.1-2.5l-0.2-0.3l0.4-1.3L475.6,24.3z"/>
<path class="st5" d="M480.5,18.1h0.3l0.1,0.2l-0.5,3.6c-2.3,0.3-4.5,0.9-6.8,1.4c-0.9,0.2-2,0.7-2.9,0.6c-0.2-0.1-0.3-0.2-0.4-0.4
	c-0.1-0.6,0-0.9,0.1-1.5c0.1-0.4,0.1-0.8,0.4-1.1c0.4-0.5,0.8-0.6,1.3-0.6h0.1l0.1-0.1c0.4-0.4,1.2-0.4,1.7-0.3h0.1
	c0.7-0.7,1.7-0.8,2.5-1L480.5,18.1z"/>
<path class="st5" d="M470.6,26.9h1.1l-1.1,3.4l-2.9,0.6c-0.7,0.1-1.5,0.5-2.2,0.3h-0.1c-0.7,0.4-1.2,0.6-1.9,0.5h-0.1
	c-0.7,0.5-1.1,0.7-1.8,0.5c-0.3-0.1-0.2,0.2-0.4,0.4c-0.4,0.4-1.5,0.5-2,0.7c-0.3,0.1-0.6,0.2-1,0.2h-0.1c-0.6,0.7-2,1-2.7,1.2
	c-0.2,0.1-0.1,0.1-0.3,0l1.8-4c0.3-0.1,0.6-0.2,0.8-0.4c0.1-0.1,0.2-0.2,0.3-0.3c0.3-0.2,1.4-0.7,1.7-0.5l-0.1,0.6
	c0.5,0.2,1.5-0.4,2-0.6l3.5-1c0.8-0.2,1.6-0.6,2.4-0.5h0.1c0.4-0.4,1.2-0.5,1.7-0.5c0.2,0,0.3,0,0.5-0.1
	C469.8,27.1,470.2,27,470.6,26.9z"/>
<path class="st5" d="M470,31.7h0.1c0.4,0,0.5,0.2,0.8,0.5c0,0.6,0,0.7-0.2,1.2l0.1,0.2h0.5l0.1,0.2L471,35l-5.5,0.9
	c-0.3,0-0.8-0.1-1,0.1c-0.7,0.5-1.7,0.2-2.4,0.6c-0.1,0.1-0.2,0.2-0.3,0.3c-0.4,0.3-1.2,0.3-1.6,0.1l-8.7,3.3l1.7-3.7
	c1.5-0.7,3.3-1.7,4.9-1.9h0.3c2.1-1,4.4-1.5,6.6-1.9c-0.3,0.6-0.7,1.2-0.9,1.8l0.2,0.2l0.6-0.1l0.2-0.5c0.1-0.3,0.2-0.6,0.4-0.8
	C466.1,31.9,468.9,31.9,470,31.7z"/>
<path class="st5" d="M461.7,39.1c1-0.1,1.5,0.2,2.3,0.9l-1.2,3.8c-0.4,1.2-0.6,2.9-1.3,3.7c-0.7-0.2-1.3-0.3-2-0.3
	c-0.5,0-1.7,0.4-2.1,0.1c0.1-0.6,0.2-0.7,0.4-1.1l-0.1-0.8c-0.4,0-0.9,1.9-1.2,2.3c-0.2,0.2-0.8,0.3-1,0.4c-0.8,0.4-1.4,1-2,1.8
	c0-0.7,0-1.4,0.2-2c0.4-1.8,1.8-3.7,2.7-5l-1.8,0.5l1.1-2.9C457.6,39.7,459.7,39.4,461.7,39.1z"/>
<path class="st5" d="M485.4,39.9c0.2-0.1,0.3-0.1,0.5,0.1l-0.1,0.8c0.6,0.6,1.7-0.2,2.3,0.5l0.2-0.2c0.6,0,1.8-0.2,2.3,0.2l-0.1,0.8
	l0.5,0.7c0.2,0.8,0,2-0.2,2.9c-0.1,0.6-0.4,0.8-0.7,1.1c-0.3,0.3-0.1,0.7-0.4,1c-0.5,0-1.9,0.2-2.3-0.2c0-0.3,0-0.6-0.1-0.9
	c-0.2,0.1-0.1,0.1-0.3,0.2c-0.6,0.7-1.2,0.7-1.9,0.7c-0.7,0-2.8,0.1-3.2-0.4c-0.1,0-0.1,0.1-0.2,0.2c-0.9-0.1-2.3,0.1-3.1-0.2
	c0.2-1.5,0.3-3.9,0.9-5.2s1.8-1,2.7-1c0.1,0,0.5,0.1,0.6,0c0,0,0.1-0.3,0.2-0.3C483.5,40.2,484.7,40,485.4,39.9z"/>
<path class="st5" d="M472.3,37.6c0.9-0.1,1.9,0.3,2.7,0.7c0.9,0.5,2.3,1.5,2.7,2.8c0.3,0.9,0.1,1.6-0.2,2.5c-0.3,1-0.2,1.5-0.2,2.5
	c-0.1,1.1-0.9,1.6-1.4,2.2c0.4,0.3,0.8,0.4,1.2,0.7c0.3,0.2,0.8,0.8,1.2,0.9c0.2,0.1,0.6,0,0.9,0h2.1c3.6,0.1,7.1,0.3,10.7-0.1
	l-1.9,12l-0.1-0.1l-0.2-0.2c-0.6-0.5-1.1-0.5-1.7-0.3l-0.2,0.1c-0.6,0.2-1,0.5-1.4,1l-0.2,0.2c-0.4-0.2-1-0.4-1.3-0.8
	c-0.1-0.2-0.1-0.7-0.3-0.8c-0.1-0.2-0.5-0.4-0.6-0.5l0.2-0.8c-0.1-0.4-0.1-0.6-0.3-0.9c-0.5,0.1-1.2,0.1-1.7,0.6v0.3
	c0.2,0.6,0.7,1.3,1.2,1.6s0.8,1,1.3,1.5c0.2,0.2,0.5,0.3,0.6,0.6s0,0.1,0.2,0.3c0.2,0.3,0.5,0.6,0.6,1c0.1,0.5,0.2,1.8,0,2.3
	c-0.3,0.6-1,0.9-1.5,1c-0.4,0-0.8,0-1.1-0.4c-0.3-0.3-0.3-0.8-0.5-1.1c-0.5-0.7-1.2-1.4-1.8-2c-0.5,0.6-0.6,0.7-0.7,1.6v0.2
	c0.3,0.6,0.9,2.1,1.3,2.5c0.1,0.1,0.7,0,0.8,0c0.7,0,1.5,0.1,2.1,0.5c0.5,0.3,1,0.9,1.4,1.4l1.3-0.3c0.5-0.1,0.7,0.1,1.1,0.5
	c0.1,0.8-0.3,2.1-0.4,2.9l-1.2,6.7l-5,28.6l-7.6-10.6l0.9-1.1c0.1-0.1,0.6-0.8,0.7-0.8c0.4,0,1,0.4,1.4,0.5c0.5,0.1,1,0.1,1.5,0.1
	c0.3-0.6,0.6-1.2,0.8-1.9c0.2-0.7,0.3-1.7,0.5-2.3c0.2-0.3,0.3-0.3,0.5-0.4c0.3-0.5,0.5-1,0.6-1.6c0.4-1.7,1.2-4.9,0.6-6.6
	c-0.2-0.5-0.3-0.8-0.3-1.3c0.1-0.6,0.9-0.9,1.2-1.4c0.1-0.5,0.1-0.7,0.1-1.2l-0.2-0.1l-0.4,0.3c-0.4-0.2-0.8-0.1-1.2-0.2
	c-0.3-0.1-0.5-0.2-0.6-0.5c-0.2-0.5-0.4-1.1-0.6-1.6l-1.1-3c-1.1-2.6-2.4-5.1-3.6-7.5c-1.5,1.8-3,3.9-4.7,5.3
	c-0.6,0.6-1.5,0.7-2.1,1.3c-0.7,0.8-1.5,1.9-2.1,2.9c-0.5,0.7-0.6,1.2-1.4,1.5h-0.1c-0.2,0.5-0.7,1.2-0.7,1.8c0,1-0.3,1.5-0.7,2.3
	c-0.9-0.5-1.1-2-1.9-2.6c-0.2-0.1-0.3-0.2-0.4-0.3c-0.5-0.5-0.7-1-0.7-1.8c0-0.3-6-9.9-6.5-10.9l0.9-0.2c1.1-0.4,1.3-1.8,1.2-3.2
	c-0.1-0.8-0.3-1.3-0.1-2c0.3-0.1,0.5-0.2,0.9-0.2c0.5,0.7,1.6,2.1,1.9,3c0.1,0.3,0.1,0.5,0.3,0.7c0.5,0.2,1.1,0,1.6-0.1v1.3
	c0.2,0.5,0.8,0.7,1.2,0.9l0.3-0.3c0.2-0.1,0.3-0.1,0.5-0.4l0.2-0.3c0.2-0.3,0.5-0.5,0.9-0.4c0.3,0,0.1,0.1,0.3-0.1l-0.8-3.1
	c-1-4.6,0.3-9.3,1.8-13.4c0.4,0,0.8,0.1,1.2-0.1l0.6-1.6l-1.4,0.3l1.1-2.6l-0.3-0.7c-0.4-0.8-0.2-1.5-0.3-2.4v-0.5
	c-0.1-1.1-0.1-2,0.5-2.8C467.5,37.5,470.5,37.7,472.3,37.6z"/>
<path class="st6" d="M475.7,49.1L475.7,49.1C476,49,476,49,476.1,49c0.3,0,0.7,0.4,1,0.6c1.2,0.9,2.2,2.1,3,3.6l-0.1,0.4
	c-0.2,0.1-0.1,0.1-0.3,0c-0.4-0.1-0.9-0.1-1.3-0.2c-0.6-0.2-1.2,0-1.7-0.2c0-0.5-0.1-1.2,0-1.7c0.1-0.3,0-0.1,0-0.5l-0.8-0.6
	C475.8,49.9,475.8,49.6,475.7,49.1z"/>
<path class="st6" d="M471.7,38.2l1-0.1c1.3,0.1,3.4,1.2,4.3,2.7c0.8,1.3-0.1,2.3-0.2,3.6c-0.1,0.6,0,1.2,0,1.8
	c-0.1,0.6-0.4,0.9-0.8,1.2c-0.3-0.1-0.3-0.3-0.5-0.5c-0.4-0.1-0.6-0.1-0.9,0.1c-0.8,0.4-1.6,0.5-2.3,1v0.3c0.5,1,1.4,1.5,2.2,2.1
	l-0.5-0.2c-0.6-0.3-1-0.4-1.6-0.4c-0.4,0-1.5-0.2-1.8,0.2c0.4,1.2,2.5,2.1,3.4,2.8c0.6,0.5,1.1,1.1,1.5,1.7l-1.4,1.7l-0.5-0.2
	c-0.5-0.2-0.9-0.1-1.3,0.3c-0.2,0.1-0.2,0.2-0.4,0.2c-0.2,0-0.5,0.1-0.7,0.3c-0.4,0.3-0.4,0.7-0.5,1.2c0.1,0.4,0.2,0.7,0.2,1.1
	c-0.8,0.1-1.4,0.5-2,1.2c0,0.4-0.1,0.6-0.2,1l-0.1,0.3c0,0.3,0.1,0.5,0,0.8l-2.7,3.1c-0.7-1.9-1.2-3.9-1.2-6c0-2.9,1-5.9,1.9-8.6
	c0.3-0.9,0.8-2,0.9-2.9c-0.3-0.4-0.5-0.3-0.9-0.2c0-0.7,0.7-1.2,0.7-1.7c0-0.4-0.5-1.1-0.6-1.6c-0.1-0.6-0.1-1.4-0.1-2
	c-0.1-1-0.1-1.8,0.4-2.6C467.8,38.2,470.3,38.3,471.7,38.2z"/>
<path class="st5" d="M470.2,41.4c0.3,0,0.5,0,0.7,0.3l-0.2,0.8c0.1,0.4,0.1,0.6,0.4,0.8c0.5,0.3,1.3-0.5,1.7-0.8
	c0.3,0.1,0.5,0.4,0.8,0.6c0,0.4,0,0.8-0.1,1.1s-0.4,0.4-0.5,0.8c0.2,0.1,0.3,0.1,0.5,0.2v0.2c-0.2,0.7-0.5,1.1-0.9,1.5l-0.4,0.2
	c-0.6-0.4-1-0.7-1.6-0.6h-0.1c-0.3-0.3-0.4-0.3-0.5-0.8c-0.1-0.4-0.3-0.2-0.5-0.7c0.2-0.1,0.3-0.2,0.5-0.2h0.2l-0.5-0.6L470,44
	c0.2,0,0.4,0,0.6-0.1l-0.1-0.3c-0.3-0.2-0.5-0.3-0.7-0.7C469.9,42.4,470,41.9,470.2,41.4z"/>
<path class="st6" d="M484.4,51h0.3c0.4,0.2,0.7,1,0.9,1.4l2.2,4c0,0.2-0.1,0.2-0.1,0.3c-0.1,0.2-0.4,0.4-0.6,0.5
	c-0.5,0.2-1.1,0.2-1.7,0.3l-4,0.9l0.1,0.4c0,0.4,0,0.7,0.2,1.1c0.3,0.7,0.8,1.2,1.2,1.6c0.8,0.9,1.7,1.8,2.4,2.8
	c0.3,0.5,0.2,1.4,0.2,2c-0.2,0.5-0.4,0.6-0.7,0.8c-0.3,0.1-0.5,0.1-0.8-0.1c-0.2-1.3-2-2.8-2.8-3.7c-0.4,0.6-0.8,1.3-1.3,1.7
	l-0.1,0.1c0,0.3,0,0.2,0.1,0.4l0.1,0.2l-0.2,0.3c0,0.5,0.4,1,0.6,1.4l1.7,3.3c1.3,2.8,2.3,5.8,3.5,8.5h-0.1
	c-1.5,0.6-2.8,0.7-4.3,0.7c-1.6-4.7-3.5-9-5.9-13.1l-2.1,2.5c-1.1,1.3-2.2,2.8-3.4,3.8c-0.6,0.5-1.4,0.5-1.9,1.2
	c-0.7,0.8-2.5,4-3.2,4.1c-0.2,0-0.3,0.1-0.5,0.2c-0.1,0.4-0.2,0.8-0.3,1.2c-0.2,0.4-0.5,0.6-0.8,0.6c-0.5,0.1-1-0.2-1.4-0.6
	c-0.3-0.3-0.4-0.6-0.5-1.1c0-0.3,0.1-0.5,0.3-0.7c0.4-0.2,0.7-0.4,1.1-0.7c0-1.6,1-1.9,1.6-3.1c0.3-0.5,0.6-1,1-1.5l-1.7-2
	c-0.2-0.3,0-0.8,0-1.2c-0.4-0.4-0.9-0.5-1.2-1.1c0.1-0.3,0.2-0.4,0.4-0.5l0.4,0.2c0.5-0.5,0.1-0.3,0.3-0.9l0.3-0.1
	c0.5,0.2,0.8,0.6,1.2,1c1.1-1.5,2.6-2.6,3.5-4.2c0.3-0.5,0.7-0.7,1.1-0.9c0.1-0.6,0.2-1.2,0.2-1.8c0.1-0.1,0.2-0.2,0.4-0.3
	c0.2-0.1,0.3-0.4,0.5-0.6l0.5,0.3c0.4-0.1,0.7-0.6,1-0.9c-0.1-0.4-0.3-0.8-0.3-1.2c-0.1-0.4,0-0.4,0.1-0.7c0.5,0,0.8-0.2,1.2-0.6
	l0.1-0.1c0.4,0.1,0.8,0.5,1.1,0.7l1.8-2c0.3-0.4,0.7-0.9,1.1-1.2s0.8-0.2,1.2,0c0.2,0.1,0.3,0.1,0.5,0.2c0.5,0,0.8,0.1,1.3,0.4
	l0.1,0.1C480.2,54.9,483.6,51.3,484.4,51z"/>
<path class="st5" d="M497.9,9c0.9-0.1,1.9,0.1,2.7,0.3c0.8,0.2,1.7,0.9,2.1,1.9c0.2,0.5,0.4,1.1,0.3,1.8c-0.1,1.4-0.5,3-0.7,4.4
	l-1.7,10.1L495,60.4l1.2,0.6c0.9,0.6,1.7,1.5,2,2.9c0.4,1.5,0.3,4.2-0.3,5.5c-0.3,0.5-0.7,0.9-0.9,1.4c-0.2,0.6-0.3,1.4-0.6,2
	c-0.7,1.7-2.5,2-3.8,2.5l-5,35.3c0.2,0.3,0.5,0.8,0.8,0.9c0.6,0.4,1.9,0.4,2.6,0.5c2.6,0.3,5.1,0.3,7.7,0.3c1.6,0,3.3-0.2,4.9,0.1
	c1,0.2,1.9,0.7,2.7,1.6c1.3,1.5,3.4,3.9,3.5,6.4c0,0.9-0.2,1.9-0.7,2.5c-0.6,0.9-1.5,1.5-2.3,1.8c-1.8,0.6-3.7,0.6-5.6,0.6l-6.9-0.1
	c-2.7-0.1-5.3-0.1-8-0.6c-1-0.2-2-0.6-2.8-1.4c-0.3-0.3-0.6-0.7-1-0.9c-0.2-0.1-2.6,0.3-3.1,0.3c-1.7,1.8-3.6,2-5.7,2
	c-0.7,0.7-1.3,1.3-2.1,1.7c-0.8,0.4-1.6,0.6-2.4,0.6c-3,0.2-6.2-0.5-9.2-1l-4.9-0.9c-1.5-0.3-2.9-0.6-4.3-1.6
	c-0.3-0.3-0.7-0.7-0.9-1.1c-0.4-0.7-0.6-1.6-0.5-2.5c0.1-1.3,0.4-2.2,1.1-3c0.4-0.5,0.4-1.4,0.7-2.1c0.3-0.8,0.7-1.6,1-2.4
	c-0.1-0.5-0.3-1.2-0.3-1.7c0-0.3,0.1-0.6,0.1-0.9c0-0.4-0.1-0.8-0.1-1.2c0-0.7,0.2-1.1,0.2-1.8c0.1-0.6,0-1.1,0.1-1.7
	c0.1-0.7,0.4-1.2,0.4-1.8c0-1.1,0.4-1.5,0.7-2.4c0.2-0.9,0.1-1.7,0.4-2.7c0.3-0.9,0.8-1.6,1.4-2.2s1.2-0.7,1.5-1.7l-0.2-0.3
	c-0.5-0.8-0.9-1.8-0.8-2.9c0.1-1.9,1.5-3.2,2.4-4.4c-0.9-1.4-8.9-14.2-9.4-14.5h-0.1c-1-0.4-1.7,0-2.7,0c-0.9,0-1.5-0.4-2.3-0.6
	c-0.7-0.1-1.4-0.1-2.1-0.4c-0.9-0.5-1.5-1.3-1.9-2.5c-0.6-1.7-0.6-3.2-0.1-4.9l0.1-0.2c-2.7,1.4-6.6,4.4-9.5,2.7
	c-0.7-0.4-1.5-1.2-1.7-2.3c-0.1-0.4-0.2-0.9-0.1-1.4c0-0.7,0.3-1.2,0.4-1.9l1.5-16.2c0.2-1.7,0.1-3.6,0.6-5.1
	c0.5-1.7,1.5-3.3,2.3-4.7c4.1-6.9,9.9-11.4,16.1-13.7l4.8-1.4c0.8-0.2,1.6-0.2,2.4-0.5s1.6-1.1,2.3-1.5c1.5-0.9,3-1.7,4.6-2.3
	c3.9-1.4,7.8-1.7,11.7-2.3l10.4-1.7l6.7-0.7l2.5-0.2c0.3,0,0.8,0,1.1-0.2C496.4,9.6,496.9,9.2,497.9,9z"/>
<path class="st7" d="M456,23.5h0.4v0.2c-0.6,0.7-1.1,1.4-1.6,2.2c-0.5,0.8-1.2,2.5-1.8,2.9c-1.8,1.2-3.5,2.4-5.2,3.8
	c-0.4,0.4-0.9,0.8-1.3,1.3c0.4,0,1.3-0.9,1.6-1.1c1.3-0.9,2.7-1.8,4-2.5c-0.7,1.3-1.4,2.7-2,4.1c-1.8,4.5-3.1,9.7-4.5,14.5
	c-0.6,2.2-1.2,4.6-2,6.7c-0.2,0.5-0.5,1.1-0.9,1.5c-0.5,0.5-1.2,0.8-1.8,1.1l-4,2c-1.5,0.8-3,1.8-4.6,2.3c0.8-1.4,6.1-9.5,6.1-9.8
	l-0.3,0.2l-5.7,8l0.9-9l0.6-7c0.1-1.1,0.1-2.3,0.3-3.4c0.2-1,0.9-2,1.4-2.8c0.2,0,0.3,0,0.5,0.3l-0.5,3.2l2.1-1.8
	c0.2-0.2,0.6-0.6,0.9-0.7c0.2-0.1,0.6,0.1,0.9,0.2l2.9,0.9l-1.8-2.8l2.8-2.5c-0.4-0.1-0.9,0.1-1.4,0.2l-2.6,0.5l-1.1-1.6
	C443.3,27.9,449.2,24.7,456,23.5z"/>
<path class="st7" d="M497.6,12.3l1.5,0.2l-8,50.4c0.9,0.3,2.9,0.3,3.5,1.3c0.3,0.4,0.3,0.9,0.3,1.5s0.1,1.2,0,1.8
	c-0.1,0.6-0.7,1-0.9,1.5c-0.3,0.6-0.5,1.6-0.7,2.3c-1.1,0.4-2.3,1-3.5,1.1h-0.2l-5.6,39c0.7,1,1.5,2.3,2.4,2.9c1,0.7,2.3,0.9,3.4,1
	c3.3,0.5,6.7,0.5,10,0.5h2.5c0.2,0,0.6,0,0.8,0.1c0.2,0.1,0.4,0.4,0.6,0.5c0.7,0.8,2.6,3,2.6,4.2c0,0.4-0.2,0.5-0.3,0.7
	c-1.4,0.6-2.9,0.6-4.3,0.6l-6.8-0.1l-6.5-0.3c-0.7-0.1-1.6-0.1-2.2-0.5c-0.9-0.6-2.6-2.4-2.9-3.7v-0.1h-0.1
	c-0.1,0.6-0.3,1.2-0.5,1.7l-2.7,0.4l1.1-4.7l-5.5-7.7c-1.1-1.6-2.2-3.3-3.5-4.7l-0.3,0.8c-0.5,1.5-0.9,1.6-1.9,2.2
	c-0.3,0.5-0.4,1.3-0.6,2l-0.7,0.5c-0.2,0.1-0.5,0.3-0.7,0.5s-0.4,0.5-0.4,0.9l0.4,0.4c0.3,0.3,0.5,0.5,0.8,0.5
	c0.2,0,0.3,0.1,0.5,0.2c0.1,0.6,0.2,1.4,0.4,1.8c0.4,0.6,1.1,0.8,1.6,1c1.2,0.4,3.5,0.8,4.4,2c0.3,0.4,0.4,0.7,0.4,1.3
	c0,2.3-2.1,1.1-2.9,2.1l0.1,0.3c1.2,0.7,2.9,0,4.2-0.3l0.1,0.2c-0.5,3.2-3.3,2.7-5.1,2.6c-0.1,0-0.6-0.1-0.6,0
	c-0.2,0.2-0.6,1.3-0.9,1.6c-0.4,0.4-1,0.7-1.5,0.7c-1.1,0.2-2.4-0.1-3.6-0.2l-7.6-1.2l-3.4-0.7c-0.6-0.2-1.3-0.3-1.9-0.8
	c-0.2-0.5-0.1-0.6,0-1.2c0.7-1.2,2.5,0.5,3.4-0.3c0-0.1,0-0.3-0.1-0.4c-0.4-0.4-1.2-0.3-1.7-0.9c-1.3-1.4,1.1-4,1.2-5.4
	c0-0.4-0.3-1.7-0.4-2.2c0.1-0.4,0.2-0.8,0.2-1.2c0-0.3-0.3-0.7-0.3-1c0.1-0.5,0.2-0.9,0.3-1.5c0-0.3,0-1.2,0.1-1.5
	c0.1-0.2,0.5-0.7,0.7-0.9l-0.3-1.2c0.2-0.5,0.6-1.1,0.7-1.7c0.1-0.7,0-1.5,0.2-2.1c0.3-0.9,1.3-1.4,1.9-1.7c0.1,0,0.5-0.2,0.6-0.2
	c0.2-0.3,0.1-1.3,0.3-1.6c0.3-0.5,1-0.4,1.4-0.9c0.1-0.5,0.2-1,0.1-1.5l-0.9-0.5c-0.6-0.3-1-0.6-1.2-1.4c0.1-1.2,1.5-2.4,2-3.2
	c0.4-0.5,0.7-1.1,1-1.7l-11.9-18.3l-1.1,0.4l-1.1-1l-0.9,0.5c-0.6,0.4-1.3,0.7-1.9,0.3c-0.7-0.5-1.7,0-2.3-0.5
	c-0.2-0.6-0.4-1.1-0.4-1.8c-0.2-2.6,1.8-3.2,2.7-4.7c0.2-1.2,0.6-1.5,1.3-2.1c0.2-0.2,0.5-0.3,0.6-0.6c0.5-1,1-1.3,1.7-2.1
	c0.3-0.4,0.6-0.8,0.9-1.2c0.7-0.8,2.1-0.1,2.9,0l0.6-2.2l-0.6-0.9l0.5-2.2l-5.8,2.1c1.2-2.1,3-3.5,4.5-5.1c-2.4,1.3-4.9,4.1-6.9,6.4
	l4-13.6c0.6-1.9,1-4,1.8-5.8c0.9-2.2,2.1-4.4,3.2-6.2c5.1-8.1,12.2-9.9,19.6-10.5l-6.8,3.4l0.1,0.1c0.2,0,0.9-0.4,1.2-0.5l3.4-1.4
	c3.5-1.4,7-2.4,10.5-3.1L490,15l7.1-0.8L497.6,12.3z"/>
<path class="st5" d="M496.6,17.4l0.2,0.2l-0.1,0.8c-0.5,0.7-7.7,3.2-8.8,3.5l-0.1-0.1c2-1.1,4.1-1.8,6.1-2.8
	C494.8,18.5,495.8,18,496.6,17.4z"/>
<path class="st5" d="M459.5,119.2l2.7,0.3c0.9,0.1,2.3-0.1,3.1,0.4c0.1,0.4,0.1,0.4-0.1,0.7l-0.5,0.1c-0.6,0-5.5-0.6-5.7-0.8
	c-0.1-0.1-0.2-0.2-0.2-0.3v-0.2L459.5,119.2z"/>
<path class="st5" d="M497,14.9l0.1,0.1c0,0.5-0.1,1-0.2,1.4c-0.3-0.1-0.5-0.2-0.8-0.2c-1.1,0.1-2.3,0.8-3.3,1.2l-11.5,4.8H481
	c1.8-1.2,3.8-1.9,5.7-2.8L497,14.9z"/>
<path class="st5" d="M494.2,32.3h0.3l-0.1,0.8c-0.3,0.3-0.8,0.4-1.2,0.6l-2.2,0.9c-4.1,1.7-8.2,3.7-12.3,5l-0.3-0.1L494.2,32.3z"/>
<path class="st5" d="M466.7,21.9c0.3,0,0.6-0.1,0.9,0.1c0.5,0.4,0.1,0.8,0.2,1.4l0.6-0.1h0.2l0.1,0.2l-0.4,1.2l-3.8,1.2l-1.4,0.5
	c-0.4,0-0.5,0-0.8-0.4c-0.1-0.6,0.3-1.7,0.5-2.2s0.7-0.7,1.1-0.8C464.7,22.8,465.7,22.3,466.7,21.9z"/>
<path class="st5" d="M460.6,23.5c0.5-0.1,0.9-0.1,1.3,0.3c0.1,0.3,0.1,0.3,0,0.7c-0.3,1.4-0.9,3.2-2,3.4c-0.4,0.1-0.7-0.1-1.1,0.2
	c-0.4,0.4-0.8,0.5-1.2,0.6h-0.1c-0.2,0.3-0.5,0.4-0.8,0.5l-1.4,0.6l1.6-4.2c0-0.1,0.2-0.5,0.2-0.6c0.2-0.2,0.7-0.4,1-0.5L460.6,23.5
	z"/>
<path class="st5" d="M475.6,24.3l0.2,0.2l-0.3,1.1c-0.2,0.2-0.3,0.3-0.4,0.5l0.1,0.2c0.3-0.2,0.5-0.3,0.9-0.3c0.2,0,0.3,0,0.4,0
	c0.8-0.4,1.8-0.3,2.6-0.5c-0.1,0.3-0.3,1.1-0.4,1.4c-0.1,0.1-0.3,0.1-0.5,0.4c0,0.7,0.7,0.2,1,0.7l-0.2,0.9
	c-0.2,0.5-2.6,0.5-3.1,0.6c-0.5,0.2-0.9,0.2-1.4,0h-0.1l-0.1,0.1c-0.1,0.1-0.2,0.4-0.3,0.5c-0.2,0.1-0.7,0.1-0.9,0.1l-2.1,0.3
	l-0.1-0.1l0.3-1.2c0.7-0.4,0.8-1.6,1.1-2.5l-0.2-0.3l0.4-1.3L475.6,24.3z"/>
<path class="st5" d="M480.5,18.1h0.3l0.1,0.2l-0.5,3.6c-2.3,0.3-4.5,0.9-6.8,1.4c-0.9,0.2-2,0.7-2.9,0.6c-0.2-0.1-0.3-0.2-0.4-0.4
	c-0.1-0.6,0-0.9,0.1-1.5c0.1-0.4,0.1-0.8,0.4-1.1c0.4-0.5,0.8-0.6,1.3-0.6h0.1l0.1-0.1c0.4-0.4,1.2-0.4,1.7-0.3h0.1
	c0.7-0.7,1.7-0.8,2.5-1L480.5,18.1z"/>
<path class="st5" d="M470.6,26.9h1.1l-1.1,3.4l-2.9,0.6c-0.7,0.1-1.5,0.5-2.2,0.3h-0.1c-0.7,0.4-1.2,0.6-1.9,0.5h-0.1
	c-0.7,0.5-1.1,0.7-1.8,0.5c-0.3-0.1-0.2,0.2-0.4,0.4c-0.4,0.4-1.5,0.5-2,0.7c-0.3,0.1-0.6,0.2-1,0.2h-0.1c-0.6,0.7-2,1-2.7,1.2
	c-0.2,0.1-0.1,0.1-0.3,0l1.8-4c0.3-0.1,0.6-0.2,0.8-0.4c0.1-0.1,0.2-0.2,0.3-0.3c0.3-0.2,1.4-0.7,1.7-0.5l-0.1,0.6
	c0.5,0.2,1.5-0.4,2-0.6l3.5-1c0.8-0.2,1.6-0.6,2.4-0.5h0.1c0.4-0.4,1.2-0.5,1.7-0.5c0.2,0,0.3,0,0.5-0.1
	C469.8,27.1,470.2,27,470.6,26.9z"/>
<path class="st5" d="M470,31.7h0.1c0.4,0,0.5,0.2,0.8,0.5c0,0.6,0,0.7-0.2,1.2l0.1,0.2h0.5l0.1,0.2L471,35l-5.5,0.9
	c-0.3,0-0.8-0.1-1,0.1c-0.7,0.5-1.7,0.2-2.4,0.6c-0.1,0.1-0.2,0.2-0.3,0.3c-0.4,0.3-1.2,0.3-1.6,0.1l-8.7,3.3l1.7-3.7
	c1.5-0.7,3.3-1.7,4.9-1.9h0.3c2.1-1,4.4-1.5,6.6-1.9c-0.3,0.6-0.7,1.2-0.9,1.8l0.2,0.2l0.6-0.1l0.2-0.5c0.1-0.3,0.2-0.6,0.4-0.8
	C466.1,31.9,468.9,31.9,470,31.7z"/>
<path class="st5" d="M461.7,39.1c1-0.1,1.5,0.2,2.3,0.9l-1.2,3.8c-0.4,1.2-0.6,2.9-1.3,3.7c-0.7-0.2-1.3-0.3-2-0.3
	c-0.5,0-1.7,0.4-2.1,0.1c0.1-0.6,0.2-0.7,0.4-1.1l-0.1-0.8c-0.4,0-0.9,1.9-1.2,2.3c-0.2,0.2-0.8,0.3-1,0.4c-0.8,0.4-1.4,1-2,1.8
	c0-0.7,0-1.4,0.2-2c0.4-1.8,1.8-3.7,2.7-5l-1.8,0.5l1.1-2.9C457.6,39.7,459.7,39.4,461.7,39.1z"/>
<path class="st5" d="M485.4,39.9c0.2-0.1,0.3-0.1,0.5,0.1l-0.1,0.8c0.6,0.6,1.7-0.2,2.3,0.5l0.2-0.2c0.6,0,1.8-0.2,2.3,0.2l-0.1,0.8
	l0.5,0.7c0.2,0.8,0,2-0.2,2.9c-0.1,0.6-0.4,0.8-0.7,1.1c-0.3,0.3-0.1,0.7-0.4,1c-0.5,0-1.9,0.2-2.3-0.2c0-0.3,0-0.6-0.1-0.9
	c-0.2,0.1-0.1,0.1-0.3,0.2c-0.6,0.7-1.2,0.7-1.9,0.7c-0.7,0-2.8,0.1-3.2-0.4c-0.1,0-0.1,0.1-0.2,0.2c-0.9-0.1-2.3,0.1-3.1-0.2
	c0.2-1.5,0.3-3.9,0.9-5.2s1.8-1,2.7-1c0.1,0,0.5,0.1,0.6,0c0,0,0.1-0.3,0.2-0.3C483.5,40.2,484.7,40,485.4,39.9z"/>
<path class="st5" d="M472.3,37.6c0.9-0.1,1.9,0.3,2.7,0.7c0.9,0.5,2.3,1.5,2.7,2.8c0.3,0.9,0.1,1.6-0.2,2.5c-0.3,1-0.2,1.5-0.2,2.5
	c-0.1,1.1-0.9,1.6-1.4,2.2c0.4,0.3,0.8,0.4,1.2,0.7c0.3,0.2,0.8,0.8,1.2,0.9c0.2,0.1,0.6,0,0.9,0h2.1c3.6,0.1,7.1,0.3,10.7-0.1
	l-1.9,12l-0.1-0.1l-0.2-0.2c-0.6-0.5-1.1-0.5-1.7-0.3l-0.2,0.1c-0.6,0.2-1,0.5-1.4,1l-0.2,0.2c-0.4-0.2-1-0.4-1.3-0.8
	c-0.1-0.2-0.1-0.7-0.3-0.8c-0.1-0.2-0.5-0.4-0.6-0.5l0.2-0.8c-0.1-0.4-0.1-0.6-0.3-0.9c-0.5,0.1-1.2,0.1-1.7,0.6v0.3
	c0.2,0.6,0.7,1.3,1.2,1.6s0.8,1,1.3,1.5c0.2,0.2,0.5,0.3,0.6,0.6s0,0.1,0.2,0.3c0.2,0.3,0.5,0.6,0.6,1c0.1,0.5,0.2,1.8,0,2.3
	c-0.3,0.6-1,0.9-1.5,1c-0.4,0-0.8,0-1.1-0.4c-0.3-0.3-0.3-0.8-0.5-1.1c-0.5-0.7-1.2-1.4-1.8-2c-0.5,0.6-0.6,0.7-0.7,1.6v0.2
	c0.3,0.6,0.9,2.1,1.3,2.5c0.1,0.1,0.7,0,0.8,0c0.7,0,1.5,0.1,2.1,0.5c0.5,0.3,1,0.9,1.4,1.4l1.3-0.3c0.5-0.1,0.7,0.1,1.1,0.5
	c0.1,0.8-0.3,2.1-0.4,2.9l-1.2,6.7l-5,28.6l-7.6-10.6l0.9-1.1c0.1-0.1,0.6-0.8,0.7-0.8c0.4,0,1,0.4,1.4,0.5c0.5,0.1,1,0.1,1.5,0.1
	c0.3-0.6,0.6-1.2,0.8-1.9c0.2-0.7,0.3-1.7,0.5-2.3c0.2-0.3,0.3-0.3,0.5-0.4c0.3-0.5,0.5-1,0.6-1.6c0.4-1.7,1.2-4.9,0.6-6.6
	c-0.2-0.5-0.3-0.8-0.3-1.3c0.1-0.6,0.9-0.9,1.2-1.4c0.1-0.5,0.1-0.7,0.1-1.2l-0.2-0.1l-0.4,0.3c-0.4-0.2-0.8-0.1-1.2-0.2
	c-0.3-0.1-0.5-0.2-0.6-0.5c-0.2-0.5-0.4-1.1-0.6-1.6l-1.1-3c-1.1-2.6-2.4-5.1-3.6-7.5c-1.5,1.8-3,3.9-4.7,5.3
	c-0.6,0.6-1.5,0.7-2.1,1.3c-0.7,0.8-1.5,1.9-2.1,2.9c-0.5,0.7-0.6,1.2-1.4,1.5h-0.1c-0.2,0.5-0.7,1.2-0.7,1.8c0,1-0.3,1.5-0.7,2.3
	c-0.9-0.5-1.1-2-1.9-2.6c-0.2-0.1-0.3-0.2-0.4-0.3c-0.5-0.5-0.7-1-0.7-1.8c0-0.3-6-9.9-6.5-10.9l0.9-0.2c1.1-0.4,1.3-1.8,1.2-3.2
	c-0.1-0.8-0.3-1.3-0.1-2c0.3-0.1,0.5-0.2,0.9-0.2c0.5,0.7,1.6,2.1,1.9,3c0.1,0.3,0.1,0.5,0.3,0.7c0.5,0.2,1.1,0,1.6-0.1v1.3
	c0.2,0.5,0.8,0.7,1.2,0.9l0.3-0.3c0.2-0.1,0.3-0.1,0.5-0.4l0.2-0.3c0.2-0.3,0.5-0.5,0.9-0.4c0.3,0,0.1,0.1,0.3-0.1l-0.8-3.1
	c-1-4.6,0.3-9.3,1.8-13.4c0.4,0,0.8,0.1,1.2-0.1l0.6-1.6l-1.4,0.3l1.1-2.6l-0.3-0.7c-0.4-0.8-0.2-1.5-0.3-2.4v-0.5
	c-0.1-1.1-0.1-2,0.5-2.8C467.5,37.5,470.5,37.7,472.3,37.6z"/>
<path class="st7" d="M475.7,49.1L475.7,49.1C476,49,476,49,476.1,49c0.3,0,0.7,0.4,1,0.6c1.2,0.9,2.2,2.1,3,3.6l-0.1,0.4
	c-0.2,0.1-0.1,0.1-0.3,0c-0.4-0.1-0.9-0.1-1.3-0.2c-0.6-0.2-1.2,0-1.7-0.2c0-0.5-0.1-1.2,0-1.7c0.1-0.3,0-0.1,0-0.5l-0.8-0.6
	C475.8,49.9,475.8,49.6,475.7,49.1z"/>
<path class="st7" d="M471.7,38.2l1-0.1c1.3,0.1,3.4,1.2,4.3,2.7c0.8,1.3-0.1,2.3-0.2,3.6c-0.1,0.6,0,1.2,0,1.8
	c-0.1,0.6-0.4,0.9-0.8,1.2c-0.3-0.1-0.3-0.3-0.5-0.5c-0.4-0.1-0.6-0.1-0.9,0.1c-0.8,0.4-1.6,0.5-2.3,1v0.3c0.5,1,1.4,1.5,2.2,2.1
	l-0.5-0.2c-0.6-0.3-1-0.4-1.6-0.4c-0.4,0-1.5-0.2-1.8,0.2c0.4,1.2,2.5,2.1,3.4,2.8c0.6,0.5,1.1,1.1,1.5,1.7l-1.4,1.7l-0.5-0.2
	c-0.5-0.2-0.9-0.1-1.3,0.3c-0.2,0.1-0.2,0.2-0.4,0.2c-0.2,0-0.5,0.1-0.7,0.3c-0.4,0.3-0.4,0.7-0.5,1.2c0.1,0.4,0.2,0.7,0.2,1.1
	c-0.8,0.1-1.4,0.5-2,1.2c0,0.4-0.1,0.6-0.2,1l-0.1,0.3c0,0.3,0.1,0.5,0,0.8l-2.7,3.1c-0.7-1.9-1.2-3.9-1.2-6c0-2.9,1-5.9,1.9-8.6
	c0.3-0.9,0.8-2,0.9-2.9c-0.3-0.4-0.5-0.3-0.9-0.2c0-0.7,0.7-1.2,0.7-1.7c0-0.4-0.5-1.1-0.6-1.6c-0.1-0.6-0.1-1.4-0.1-2
	c-0.1-1-0.1-1.8,0.4-2.6C467.8,38.2,470.3,38.3,471.7,38.2z"/>
<path class="st5" d="M470.2,41.4c0.3,0,0.5,0,0.7,0.3l-0.2,0.8c0.1,0.4,0.1,0.6,0.4,0.8c0.5,0.3,1.3-0.5,1.7-0.8
	c0.3,0.1,0.5,0.4,0.8,0.6c0,0.4,0,0.8-0.1,1.1s-0.4,0.4-0.5,0.8c0.2,0.1,0.3,0.1,0.5,0.2v0.2c-0.2,0.7-0.5,1.1-0.9,1.5l-0.4,0.2
	c-0.6-0.4-1-0.7-1.6-0.6h-0.1c-0.3-0.3-0.4-0.3-0.5-0.8c-0.1-0.4-0.3-0.2-0.5-0.7c0.2-0.1,0.3-0.2,0.5-0.2h0.2l-0.5-0.6L470,44
	c0.2,0,0.4,0,0.6-0.1l-0.1-0.3c-0.3-0.2-0.5-0.3-0.7-0.7C469.9,42.4,470,41.9,470.2,41.4z"/>
<path class="st7" d="M484.4,51h0.3c0.4,0.2,0.7,1,0.9,1.4l2.2,4c0,0.2-0.1,0.2-0.1,0.3c-0.1,0.2-0.4,0.4-0.6,0.5
	c-0.5,0.2-1.1,0.2-1.7,0.3l-4,0.9l0.1,0.4c0,0.4,0,0.7,0.2,1.1c0.3,0.7,0.8,1.2,1.2,1.6c0.8,0.9,1.7,1.8,2.4,2.8
	c0.3,0.5,0.2,1.4,0.2,2c-0.2,0.5-0.4,0.6-0.7,0.8c-0.3,0.1-0.5,0.1-0.8-0.1c-0.2-1.3-2-2.8-2.8-3.7c-0.4,0.6-0.8,1.3-1.3,1.7
	l-0.1,0.1c0,0.3,0,0.2,0.1,0.4l0.1,0.2l-0.2,0.3c0,0.5,0.4,1,0.6,1.4l1.7,3.3c1.3,2.8,2.3,5.8,3.5,8.5h-0.1
	c-1.5,0.6-2.8,0.7-4.3,0.7c-1.6-4.7-3.5-9-5.9-13.1l-2.1,2.5c-1.1,1.3-2.2,2.8-3.4,3.8c-0.6,0.5-1.4,0.5-1.9,1.2
	c-0.7,0.8-2.5,4-3.2,4.1c-0.2,0-0.3,0.1-0.5,0.2c-0.1,0.4-0.2,0.8-0.3,1.2c-0.2,0.4-0.5,0.6-0.8,0.6c-0.5,0.1-1-0.2-1.4-0.6
	c-0.3-0.3-0.4-0.6-0.5-1.1c0-0.3,0.1-0.5,0.3-0.7c0.4-0.2,0.7-0.4,1.1-0.7c0-1.6,1-1.9,1.6-3.1c0.3-0.5,0.6-1,1-1.5l-1.7-2
	c-0.2-0.3,0-0.8,0-1.2c-0.4-0.4-0.9-0.5-1.2-1.1c0.1-0.3,0.2-0.4,0.4-0.5l0.4,0.2c0.5-0.5,0.1-0.3,0.3-0.9l0.3-0.1
	c0.5,0.2,0.8,0.6,1.2,1c1.1-1.5,2.6-2.6,3.5-4.2c0.3-0.5,0.7-0.7,1.1-0.9c0.1-0.6,0.2-1.2,0.2-1.8c0.1-0.1,0.2-0.2,0.4-0.3
	c0.2-0.1,0.3-0.4,0.5-0.6l0.5,0.3c0.4-0.1,0.7-0.6,1-0.9c-0.1-0.4-0.3-0.8-0.3-1.2c-0.1-0.4,0-0.4,0.1-0.7c0.5,0,0.8-0.2,1.2-0.6
	l0.1-0.1c0.4,0.1,0.8,0.5,1.1,0.7l1.8-2c0.3-0.4,0.7-0.9,1.1-1.2s0.8-0.2,1.2,0c0.2,0.1,0.3,0.1,0.5,0.2c0.5,0,0.8,0.1,1.3,0.4
	l0.1,0.1C480.2,54.9,483.6,51.3,484.4,51z"/>
<path class="st5" d="M476.5,495.2h-3.8v24.1h3.8h3.8v-24.1L476.5,495.2L476.5,495.2z"/>
<path class="st5" d="M567.8,519.3v-24.1h-8.7v24.1H567.8z"/>
<path class="st5" d="M655.3,519.3v-24.1H648v24.1H655.3z"/>
<path class="st5" d="M385.2,495.2v24.1h8.7v-24.1L385.2,495.2L385.2,495.2z"/>
<path class="st5" d="M297.7,495.2v24.1h7.3v-24.1L297.7,495.2L297.7,495.2z"/>
<path class="st5" d="M385.2,534.6v23.3h8.7v-23.3H385.2z"/>
<path class="st5" d="M476.5,534.6h-3.8v23.3h3.8h3.8v-23.3H476.5z"/>
<path class="st5" d="M567.8,557.9v-23.3h-8.7v23.3H567.8z"/>
<path class="st5" d="M567.8,597.3v-24.1h-8.7v24.1H567.8z"/>
<path class="st5" d="M476.5,573.2h-3.8v24.1h3.8h3.8v-24.1H476.5z"/>
<path class="st5" d="M385.2,573.2v24.1h8.7v-24.1H385.2z"/>
<path class="st5" d="M476.5,611.9H367h-22.6V625l6.2-9.3c0.5-0.8,1.7-0.9,2.4-0.1l6.3,7.9c0.6,0.8,1.7,0.7,2.3,0l5.8-7.9
	c0.6-0.8,1.7-0.8,2.3,0l6.4,8c0.6,0.8,1.7,0.7,2.3,0l5.8-7.9c0.6-0.8,1.7-0.8,2.3,0l6.4,8c0.6,0.8,1.7,0.7,2.3,0l5.8-7.9
	c0.6-0.8,1.7-0.8,2.3,0l6.4,8c0.6,0.7,1.7,0.7,2.3,0l6.4-8c0.6-0.8,1.7-0.7,2.3,0l5.7,7.8c0.6,0.8,1.8,0.8,2.4,0l5.7-7.8
	c0.6-0.8,1.7-0.8,2.3,0l6.4,8c0.6,0.8,1.7,0.7,2.3,0l5.8-7.9c0.6-0.8,1.7-0.8,2.3,0l6.4,8c0.6,0.8,1.7,0.7,2.3,0l5.7-7.7
	c0.6-0.8,1.8-0.8,2.4,0l5.1,7.5c0.6,0.8,1.8,0.8,2.4,0l5.1-7.5c0.6-0.8,1.8-0.9,2.4,0l5.7,7.7c0.6,0.8,1.7,0.8,2.3,0l6.4-8
	c0.6-0.8,1.7-0.7,2.3,0l5.8,7.9c0.6,0.8,1.7,0.8,2.3,0l6.4-8c0.6-0.8,1.7-0.7,2.3,0l5.7,7.8c0.6,0.8,1.8,0.8,2.4,0l5.7-7.8
	c0.6-0.8,1.7-0.8,2.3,0l6.4,8c0.6,0.7,1.7,0.7,2.3,0l6.4-8c0.6-0.8,1.7-0.7,2.3,0l5.8,7.9c0.6,0.8,1.7,0.8,2.3,0l6.4-8
	c0.6-0.8,1.7-0.7,2.3,0l5.8,7.9c0.6,0.8,1.7,0.8,2.3,0l6.4-8c0.6-0.8,1.7-0.7,2.3,0l5.8,7.9c0.6,0.8,1.7,0.8,2.3,0l6.3-7.9
	c0.6-0.8,1.8-0.7,2.4,0.1l6.2,9.3v-13.1h-23H476.5z"/>
<path class="st5" d="M437,340.7h39.5H516v-5.8h-39.5H437V340.7z"/>
<path class="st5" d="M437,312.3h39.5H516v-5.1h-39.5H437V312.3z"/>
<path class="st5" d="M476.5,279.5H437v5.1h39.5H516v-5.1H476.5z"/>
<path class="st5" d="M476.5,251.8H437v5.8h39.5H516v-5.8H476.5z"/>
<path class="st8" d="M357.5,465.4H249.6V160.6l14.4,7.7 M357.5,465.4v-13.1 M357.5,465.4V480h9.5 M357.5,430.4l78-67.1 M357.5,430.4
	v21.9 M357.5,430.4h119h119 M357.5,430.4V160.6 M435.5,363.3h41h41 M435.5,363.3h-3.6v-22.6h5.1 M357.5,452.2h119h119 M437,340.7
	h39.5H516 M437,340.7v-5.8 M437,334.9h39.5H516 M437,334.9h-5.1v-22.6h5.1 M437,312.3h39.5H516 M437,312.3v-5.1 M437,307.2h39.5H516
	 M437,307.2h-5.1v-22.6h5.1 M437,251.8h-5.1v-23.3h5.1 M437,251.8h39.5H516 M437,251.8v5.8 M437,257.6h-5.1v21.9h5.1 M437,257.6
	h39.5H516 M437,228.4h39.5H516 M437,228.4l-79.5-67.8 M357.5,160.6v-24.8 M357.5,135.8V17.7H249.6v67.8l54.2,26.8 M357.5,135.8h119
	h119 M367,479.9h109.5H586 M367,479.9v15.3 M367,495.2h-62 M367,495.2h18.2 M367,519.3v15.3 M367,519.3h-62 M367,519.3h18.2
	 M367,534.6h-9.5v23.3h9.5 M367,534.6h18.2 M367,557.9v15.3 M367,557.9h18.2 M367,573.2h-9.5v24.1h9.5 M367,573.2h18.2 M367,597.3
	v14.6 M367,597.3h18.2 M367,611.9h109.5H586 M367,611.9h-22.6V625 M344.4,625v16.8h132.1h132.1V625 M344.4,625l6.2-9.3
	c0.5-0.8,1.7-0.9,2.4-0.1l6.3,7.9c0.6,0.8,1.7,0.7,2.3,0l5.8-7.9c0.6-0.8,1.7-0.8,2.3,0l6.4,8c0.6,0.8,1.7,0.7,2.3,0l5.8-7.9
	c0.6-0.8,1.7-0.8,2.3,0l6.4,8c0.6,0.8,1.7,0.7,2.3,0l5.8-7.9c0.6-0.8,1.7-0.8,2.3,0l6.4,8c0.6,0.7,1.7,0.7,2.3,0l6.4-8
	c0.6-0.8,1.7-0.7,2.3,0l5.7,7.8c0.6,0.8,1.8,0.8,2.4,0l5.7-7.8c0.6-0.8,1.7-0.8,2.3,0l6.4,8c0.6,0.8,1.7,0.7,2.3,0l5.8-7.9
	c0.6-0.8,1.7-0.8,2.3,0l6.4,8c0.6,0.8,1.7,0.7,2.3,0l5.7-7.7c0.6-0.8,1.8-0.8,2.4,0l5.1,7.5c0.6,0.8,1.8,0.8,2.4,0l5.1-7.5
	c0.6-0.8,1.8-0.9,2.4,0l5.7,7.7c0.6,0.8,1.7,0.8,2.3,0l6.4-8c0.6-0.8,1.7-0.7,2.3,0l5.8,7.9c0.6,0.8,1.7,0.8,2.3,0l6.4-8
	c0.6-0.8,1.7-0.7,2.3,0l5.7,7.8c0.6,0.8,1.8,0.8,2.4,0l5.7-7.8c0.6-0.8,1.7-0.8,2.3,0l6.4,8c0.6,0.7,1.7,0.7,2.3,0l6.4-8
	c0.6-0.8,1.7-0.7,2.3,0l5.8,7.9c0.6,0.8,1.7,0.8,2.3,0l6.4-8c0.6-0.8,1.7-0.7,2.3,0l5.8,7.9c0.6,0.8,1.7,0.8,2.3,0l6.4-8
	c0.6-0.8,1.7-0.7,2.3,0l5.8,7.9c0.6,0.8,1.7,0.8,2.3,0l6.3-7.9c0.6-0.8,1.8-0.7,2.4,0.1l6.2,9.3 M297.7,495.2h-85.3v24.1h85.3
	 M297.7,495.2v24.1 M297.7,495.2h7.3 M297.7,519.3h7.3 M305,495.2v24.1 M385.2,495.2v24.1 M385.2,495.2h8.7 M385.2,519.3h8.7
	 M393.9,495.2v24.1 M393.9,495.2h78.7 M393.9,519.3h78.7 M472.7,495.2h3.8h3.8 M472.7,495.2v24.1 M472.7,519.3h3.8h3.8 M385.2,534.6
	v23.3 M385.2,534.6h8.7 M385.2,557.9h8.7 M393.9,534.6v23.3 M393.9,534.6h78.7 M393.9,557.9h78.7 M385.2,573.2v24.1 M385.2,573.2
	h8.7 M385.2,597.3h8.7 M393.9,573.2v24.1 M393.9,573.2h78.7 M393.9,597.3h78.7 M472.7,534.6h3.8h3.8 M472.7,534.6v23.3 M472.7,557.9
	h3.8h3.8 M472.7,573.2h3.8h3.8 M472.7,573.2v24.1 M472.7,597.3h3.8h3.8 M595.5,465.4h107.9V160.6l-14.4,7.7 M595.5,465.4v-13.1
	 M595.5,465.4V480H586 M595.5,430.4l-78-67.1 M595.5,430.4v21.9 M595.5,430.4V160.6 M517.5,363.3h3.6v-22.6H516 M516,340.7v-5.8
	 M516,334.9h5.1v-22.6H516 M516,312.3v-5.1 M516,307.2h5.1v-22.6H516 M516,251.8h5.1v-23.3H516 M516,251.8v5.8 M516,257.6h5.1v21.9
	H516 M516,228.4l79.5-67.8 M595.5,160.6v-24.8 M595.5,135.8V17.7h107.9v67.8l-54.2,26.8 M586,479.9v15.3 M586,495.2h62 M586,495.2
	h-18.2 M586,519.3v15.3 M586,519.3h62 M586,519.3h-18.2 M586,534.6h9.5v23.3H586 M586,534.6h-18.2 M586,557.9v15.3 M586,557.9h-18.2
	 M586,573.2h9.5v24.1H586 M586,573.2h-18.2 M586,597.3v14.6 M586,597.3h-18.2 M586,611.9h22.6V625 M655.3,495.2h85.3v24.1h-85.3
	 M655.3,495.2v24.1 M655.3,495.2H648 M655.3,519.3H648 M648,495.2v24.1 M567.8,495.2v24.1 M567.8,495.2h-8.7 M567.8,519.3h-8.7
	 M559.1,495.2v24.1 M559.1,495.2h-78.7 M559.1,519.3h-78.7 M480.3,495.2v24.1 M567.8,534.6v23.3 M567.8,534.6h-8.7 M567.8,557.9
	h-8.7 M559.1,534.6v23.3 M559.1,534.6h-78.7 M559.1,557.9h-78.7 M567.8,573.2v24.1 M567.8,573.2h-8.7 M567.8,597.3h-8.7
	 M559.1,573.2v24.1 M559.1,573.2h-78.7 M559.1,597.3h-78.7 M480.3,534.6v23.3 M480.3,573.2v24.1 M649.2,112.3
	c-3,1.5-4.9,4.5-4.9,7.8 M649.2,112.3L649.2,112.3c-3,1.5-4.9,4.5-4.9,7.8l0,0 M644.4,120.1v283.2h10.9V137.5 M655.3,137.5
	c0-3.2,1.8-6.2,4.6-7.7 M655.3,137.5L655.3,137.5c0-3.2,1.8-6.2,4.6-7.7l0,0 M659.9,129.7l43.5-23v29.2l-27.5,15 M675.9,150.9
	c-2.8,1.5-4.6,4.5-4.6,7.7 M675.9,150.9L675.9,150.9c-2.8,1.5-4.6,4.5-4.6,7.7l0,0 M671.3,158.5V442h13.1V176 M684.4,176.1
	c0-3.2,1.8-6.2,4.6-7.7 M684.4,176.1L684.4,176.1c0-3.2,1.8-6.2,4.6-7.7l0,0 M264,168.4c2.8,1.5,4.6,4.5,4.6,7.7 M264,168.4
	L264,168.4c2.8,1.5,4.6,4.5,4.6,7.7l0,0 M268.6,176.1v266h13.1V158.5 M281.7,158.5c0-3.2-1.7-6.1-4.6-7.7 M281.7,158.5L281.7,158.5
	c0-3.2-1.7-6.1-4.6-7.7l0,0 M277.1,150.9l-27.5-15v-29.2l43.5,23 M293.1,129.7c2.9,1.5,4.6,4.5,4.6,7.7 M293.1,129.7L293.1,129.7
	c2.9,1.5,4.6,4.5,4.6,7.7l0,0 M297.7,137.5v265.9h10.9V120.1 M308.6,120.1c0-3.3-1.9-6.4-4.9-7.8 M308.6,120.1L308.6,120.1
	c0-3.3-1.9-6.4-4.9-7.8l0,0 M437,279.5h39.5H516 M437,279.5v5.1 M437,284.6h39.5H516 M516,279.5v5.1 M335.6,363.3V77.4
	c0-2.2-1.2-4.1-3.1-5.1l-59.6-31.7c-3.1-1.6-6.9-0.2-8.2,3l-4.5,11.5c-1.1,2.8,0.1,6,2.9,7.3L320,90.5c2,1,3.2,3,3.2,5.2v267.6
	H335.6z M617.4,363.3V77.4c0-2.2,1.2-4.1,3.1-5.1l59.6-31.7c3.1-1.6,6.9-0.2,8.2,3l4.5,11.5c1.1,2.8-0.1,6-2.9,7.3L633,90.5
	c-2,1-3.2,3-3.2,5.2v267.6H617.4z"/>
<path class="st5" d="M200,752c-29.9-2.2-48.8-3.8-48.8-3.8l48.8,35V752z"/>
<path class="st9" d="M151.2,631.5c0,0,198.2,16.8,325.5,16.8v116.6c-88,0-209.8-8-276.7-13c-29.9-2.2-48.8-3.8-48.8-3.8v-86V631.5z"
	/>
<path class="st10" d="M151.2,748.2v-86L36,649l59,64.9l-59,51.8l164,17.5L151.2,748.2z"/>
<path class="st5" d="M753,752c29.9-2.2,48.8-3.8,48.8-3.8l-48.8,35V752z"/>
<path class="st9" d="M801.8,631.5c0,0-198.2,16.8-325.5,16.8v116.6c88,0,209.8-8,276.7-13c29.9-2.2,48.8-3.8,48.8-3.8v-86V631.5z"/>
<path class="st10" d="M801.8,748.2v-86L917,649l-59,64.9l59,51.8l-164,17.5L801.8,748.2z"/>
<path class="st5" d="M200,752c-29.9-2.2-48.8-3.8-48.8-3.8l48.8,35V752z"/>
<path class="st11" d="M151.2,631.5c0,0,198.2,16.8,325.5,16.8v116.6c-88,0-209.8-8-276.7-13c-29.9-2.2-48.8-3.8-48.8-3.8v-86V631.5z
	"/>
<path class="st10" d="M151.2,748.2v-86L36,649l59,64.9l-59,51.8l164,17.5L151.2,748.2z"/>
<path class="st5" d="M753,752c29.9-2.2,48.8-3.8,48.8-3.8l-48.8,35V752z"/>
<path class="st11" d="M801.8,631.5c0,0-198.2,16.8-325.5,16.8v116.6c88,0,209.8-8,276.7-13c29.9-2.2,48.8-3.8,48.8-3.8v-86V631.5z"
	/>
<path class="st10" d="M801.8,748.2v-86L917,649l-59,64.9l59,51.8l-164,17.5L801.8,748.2z"/>
<path class="st7" d="M179.1,726.4l4-66.7l43.9,2.6l-4,66.7l-19.7-1.2l3.4-56.7l-4.6-0.3l-3.3,56.7L179.1,726.4z"/>
<path class="st7" d="M274.3,732l4-66.7l44.2,2.6l-3.2,54.4l-7.7,5.6l-17.5-1l-0.4,6.3L274.3,732z M297.9,676.6l-2.5,42l4.6,0.3
	l2.5-42L297.9,676.6z"/>
<path class="st12" d="M274.5,665.1l-43.9-2.6l-4,66.7l19.7,1.2l0.6-10l4.6,0.3l-0.6,10l19.7,1.2L274.5,665.1z M249.7,673.7l4.6,0.3
	l-2.3,37.9l-4.6-0.3L249.7,673.7z"/>
<path class="st7" d="M545,738.7l-3.1-66.7l45.2-2.1l0.8,16.3l-19.7,0.9l-0.3-6.2l-5.7,0.3l2.2,46.6l5.7-0.3l-0.3-6.7l19.2-0.9
	l0.5,10.9l-8.1,6.2L545,738.7z"/>
<path class="st7" d="M590.3,679.8l-0.5-10l38.6-1.8l0.5,10l-7.5,0.3L624,735l-23.8,1.1l-2.6-56.7L590.3,679.8z"/>
<path class="st7" d="M432.2,739.2v-66.8h19.3v11.4l5.4-11.4h18.8v66.8H456v-16l-6.8,16H432.2z"/>
<path class="st7" d="M479.9,672.4h46v29.2L519,705l6.8,2.1v26.2l-7.7,5.8h-38.2V718h20.2v11.1h6.3V710H503v-8.4h4.2v-19.2h-5.4v11.1
	h-22v-21.1H479.9z"/>
<path class="st7" d="M684.1,731.9l-0.6-10l4.8-0.3l-3.6-56.6l42.8-2.7l4.2,66.7l-19.6,1.2l-3.6-56.6l-4.6,0.3l3.2,50.8l-7.6,6.4
	L684.1,731.9z"/>
<path class="st7" d="M737,728.5l-4.2-66.7l19.2-1.2l0.8,12.1l4.7-12.5l18.8-1.2l4.2,66.7l-19.6,1.3l-1-16l-5.8,16.4L737,728.5z"/>
<path class="st12" d="M676.1,665.4l-43.9,2.8l4.2,66.7l19.6-1.3l-0.7-10l4.6-0.3l0.6,10l19.6-1.2L676.1,665.4z M652.5,677l4.6-0.3
	l2.4,37.9l-4.6,0.3L652.5,677z"/>
<path class="st7" d="M326,668l19.7,0.8l-0.6,14.6l4.6,0.2l0.6-14.6l19.7,0.8l-2.8,66.8l-19.7-0.8l0.6-14.6l-4.6-0.2l-0.6,14.6
	l-19.7-0.8L326,668z"/>
<path class="st7" d="M370.9,736.7l2.8-66.8l19.2,0.8l-0.5,11.4l5.9-11.2l18.8,0.8l-2.8,66.8l-19.7-0.8l0.7-16l-7.5,15.7L370.9,736.7
	z"/>
</svg>
