<?xml version="1.0" encoding="utf-8"?>
<!-- Generator: Adobe Illustrator 28.0.0, SVG Export Plug-In . SVG Version: 6.00 Build 0)  -->
<svg version="1.1" id="Слой_1" xmlns="http://www.w3.org/2000/svg" xmlns:xlink="http://www.w3.org/1999/xlink" x="0px" y="0px"
	 viewBox="0 0 160 100" style="enable-background:new 0 0 160 100;" xml:space="preserve">
<style type="text/css">
	.st0{fill:#D52B1E;}
	.st1{fill:#F8C234;}
	.st2{clip-path:url(#SVGID_00000133498473717888251970000009717536907517805218_);fill:#ED3434;}
	.st3{clip-path:url(#SVGID_00000133498473717888251970000009717536907517805218_);fill:#0057A4;}
	.st4{clip-path:url(#SVGID_00000133498473717888251970000009717536907517805218_);fill:#FFFFFF;}
	.st5{fill:#B42A32;}
	.st6{fill-rule:evenodd;clip-rule:evenodd;fill:#FFFFFF;}
	.st7{fill:#ED2E34;}
	.st8{fill:#FFFFFF;}
</style>
<path class="st0" d="M0,0h160v100H0V0z"/>
<g>
	<g>
		<path class="st1" d="M85.2,71.1C85.2,71.1,85.2,71.1,85.2,71.1l-5.6,3.3c0,0,1.6-0.5,0,1.3c-0.1-0.9-3.6-2.9-5.4-4.6h-0.3
			c0,0,0,0,0,0l-9,9c-0.2,1.4,0.1,3.2,0.1,3.2c0,0,1.4,0.4,3.2,0.3l5.9-9.3c0,0,1.2,0.1,0.8,0.7l-5,9.8c0.3,1.3,1.4,2.9,1.4,2.9
			s1.7-0.3,3.1-1l3.4-11.3l0.9,0.6l-2.4,11.5c0,0,1.2,1.5,3.3,2.4c0,0,0,0,0,0c0,0,0,0,0,0c2-0.8,3.3-2.4,3.3-2.4l-2.4-11.5l0.9-0.6
			l3.4,11.3c1.5,0.7,3.1,1,3.1,1s1.2-1.5,1.4-2.9l-5-9.8c-0.3-0.6,0.8-0.7,0.8-0.7l5.9,9.3c1.8,0.1,3.2-0.3,3.2-0.3
			c0,0,0.3-1.9,0.1-3.2L85.2,71.1z"/>
		<path class="st1" d="M91.9,32.2h3.2l0.8,0.9l2.9-2.6l-1.6-1.8h-3l1.5-1.5h-9.4c-1.4,0-4.6,0-4.3-1.8c-1.1,2.1,0.3,3.5,2.4,3.7
			c-0.6,0.7-2.7,1.6-3.2,0.6c-0.1,1.4,1.4,1.6,1.4,1.6s-1.7,2-3,4.3c-1.3-2.3-3-4.3-3-4.3s1.5-0.2,1.4-1.6c-0.5,1-2.6,0.1-3.2-0.6
			c2.1-0.2,3.5-1.6,2.4-3.7c0.2,1.7-2.9,1.8-4.3,1.8h-9.4l1.5,1.5h-3l-1.6,1.8l2.9,2.6l0.8-0.9h3.2c0.1,0.1,0.2,0.2,0.3,0.2
			c0.1,0.1,0.1,0.1,0.2,0.2c-2.5,0.2-5.3,2.8-6.3,0.9c0.6,2.3,3,2,4.4,1.1c0,0-0.2,0.7,0.3,1.2c0.1-1.4,3.5-0.9,3.5-0.9
			c1.8,2,2.4,5,1.3,7.6l2-1.2C73,42,73,42.9,73,43.8h0.6c0-0.7,0-1.5-0.1-2.4l0.9-1.3c0.4,1.4,0.5,2.7,0.5,3.7h1.6
			c0-1.2-0.2-2.5-0.3-3.1l0.8-1c0,0,0.6,1.9,0.7,4h1.5c-0.1-1.3-0.3-2.5-0.5-3.1l0.8-0.2l0.8,0.2c-0.1,0.6-0.3,1.8-0.5,3.1h1.5
			c0.1-2.1,0.7-4,0.7-4l0.8,1c-0.1,0.5-0.2,1.9-0.3,3.1h1.6c0-1,0.1-2.3,0.5-3.7l0.9,1.3c-0.1,0.9-0.1,1.7-0.1,2.4h0.6
			c-0.1-0.9,0-1.8,0.1-2.4l2,1.2C87.1,40,87.8,37,89.6,35c0,0,3.4-0.4,3.5,0.9c0.6-0.5,0.3-1.2,0.3-1.2c1.4,0.9,3.8,1.2,4.4-1.1
			c-1,1.9-3.9-0.7-6.3-0.9c0.1-0.1,0.1-0.1,0.2-0.2C91.8,32.4,91.9,32.3,91.9,32.2 M66.9,29.9L66,28.9H70L66.9,29.9z M89.1,28.9h4.1
			l-0.9,0.9L89.1,28.9z"/>
		<path class="st1" d="M115,47.1c0,0,3.5-2.2,3-6.8c0,0-5.2,3-13.3,3.9l0.2-1.7c6.7-1.4,11.6-4.7,11.6-4.7s2.6-3.9,0.3-8.3
			c0,0-4.3,5.8-12.2,9.5l0-0.1c-0.1-0.6-0.2-1.2-0.3-1.7c0.4-0.2,7.1-4.3,9.8-9.3c0,0,0.9-5.2-3.1-8.3c-1.5,5.7-4.9,10.5-8.1,14
			c-0.6-1.1-1.2-1.6-1.2-1.6c-0.6,2.6-2.4,5.5-5.6,7.7c0.8,0.9,1.3,2,1.4,3.2c0.3,3.2-2,4.8-5.2,5.1c-0.7,0.1-1.3,1.4-2,1.2
			c0,0,0.5,8.4,0.8,8.4c1.5-0.2,4-1.1,4.6-1.5c1.2,3.3,2.8,6.4,2.8,6.4s3.1,0.8,5.5-0.9c0,0-3.3-3.2-5.9-6.9L99,54
			c2.6,3.1,5.8,5.6,5.8,5.6s3.7,0.3,5.3-2.6c0,0-4.7-1.8-9.1-4.9l0.8-1c4.4,2.4,8.8,3.5,8.8,3.5s4-0.5,4.9-5.1c0,0-5.7,0.5-12-1.1
			l0.6-1.4C109.3,48.2,115,47.1,115,47.1"/>
		<path class="st1" d="M94.2,26.2c2.4,0,2.9-2.4,2.7-3.6c-0.1-0.4-0.2-0.8-0.2-1.1c0-0.2,0-0.3,0.1-0.4c0.4-0.3,1.4-0.2,2.4,0.6
			c0.6,0.5,1.1,1.2,0.8,1.7c-0.2,0.3-0.5,0.6-0.9,0.8c-0.4,0.3-0.8,0.6-1,1.1c-0.4,0.8,0.4,3.2,2.5,3.9c0.4,0.1,0.1-0.7,0.4-1.2
			c0.4-0.6,1.4-0.8,0.9-0.9c-0.3-0.1-1.2-0.5-1.2-1c-0.1-0.5,0.7-1.2,1.3-1.6l0.2-0.2c0.7-0.5,0.8-1,0.7-1.3c0-0.3-0.2-0.7-0.8-1
			c0,0-0.1,0-0.1-0.1v0c0,0-0.1-0.1-0.6-0.3c-1-0.4-1.7-1.2-2.3-1.9c-0.1-0.1-0.2-0.2-0.3-0.4c-0.5-0.5-1-0.3-1.6-0.2
			c-0.3,0.1-0.7,0.3-1.2,0.3c-0.1,0-0.6,0.1-0.6,0.1v0c-0.2,0-0.4,0.1-0.5,0.2c-0.2,0.2-0.3,0.6-0.3,1c0.1,0.5,0.3,1.1,0.5,1.7
			C95.6,23.9,95.6,25.9,94.2,26.2"/>
		<path class="st1" d="M56.9,24.3l0.2,0.2c0.6,0.4,1.4,1.1,1.3,1.6c-0.1,0.5-1,1-1.2,1c-0.4,0.1,0.5,0.3,0.9,0.9
			c0.3,0.5,0,1.3,0.4,1.2c2-0.7,2.8-3.1,2.5-3.9c-0.2-0.5-0.6-0.8-1-1.1c-0.4-0.3-0.7-0.5-0.9-0.8c-0.3-0.5,0.2-1.2,0.8-1.7
			c1-0.8,2-0.9,2.4-0.6c0.1,0.1,0.1,0.2,0.1,0.4c0,0.3-0.1,0.7-0.2,1.1c-0.2,1.2,0.3,3.6,2.7,3.6c-1.4-0.3-1.4-2.3-0.9-3.6
			c0.2-0.6,0.4-1.2,0.5-1.7c0-0.4-0.1-0.7-0.3-1c-0.1-0.1-0.3-0.2-0.5-0.2v0c0,0-0.5-0.1-0.6-0.1c-0.5,0-0.9-0.2-1.2-0.3
			c-0.5-0.2-1.1-0.4-1.6,0.2c-0.1,0.1-0.2,0.2-0.3,0.4c-0.6,0.6-1.3,1.4-2.3,1.9c-0.4,0.2-0.6,0.3-0.6,0.3l0,0c-0.1,0-0.1,0-0.2,0.1
			c-0.6,0.3-0.8,0.7-0.8,1C56.1,23.3,56.2,23.8,56.9,24.3"/>
		<path class="st1" d="M78.5,21.9h-2.2c-0.2,1.9-1,3.2-2.2,3.9C76.2,25.7,77.9,23.9,78.5,21.9"/>
		<path class="st1" d="M82.8,21.9h-2.2c0.6,2,2.3,3.8,4.5,3.9C83.8,25,83,23.8,82.8,21.9"/>
		<path class="st1" d="M79.5,20.5L79.5,20.5h3.3c0.4-0.5,1.6-2.2,1.6-3.8c0-0.7-0.3-1.3-0.9-1.8c-0.3-0.2-1-0.7-2.3-0.9l-1.6,2.8
			l-1.6-2.8c-1.3,0.2-2,0.7-2.3,0.9c-0.6,0.5-0.9,1.1-0.9,1.8c0,1.6,1.2,3.3,1.6,3.8H79.5z"/>
		<path class="st1" d="M89.6,25.8L89.6,25.8h2.7c0.3-0.4,1.3-1.8,1.3-3.1c0-0.6-0.2-1-0.8-1.4C92.6,21,92,20.7,91,20.5l-1.4,2.3
			l-1.4-2.3c-1.1,0.2-1.7,0.5-1.9,0.7c-0.5,0.4-0.7,0.9-0.7,1.4c0,1.3,1,2.7,1.3,3.1H89.6z"/>
		<path class="st1" d="M69.5,25.8L69.5,25.8h2.7c0.3-0.4,1.3-1.8,1.3-3.1c0-0.6-0.2-1-0.8-1.4c-0.2-0.2-0.8-0.6-1.9-0.7l-1.4,2.3
			l-1.4-2.3c-1.1,0.2-1.7,0.5-1.9,0.7c-0.5,0.4-0.8,0.9-0.8,1.4c0,1.3,1,2.7,1.3,3.1H69.5z"/>
		<path class="st1" d="M44.1,47.1c0,0,5.7,1.1,11,0.1l0.6,1.4c-6.3,1.6-12,1.1-12,1.1c0.9,4.6,4.9,5.1,4.9,5.1s4.3-1.2,8.7-3.5
			l0.8,1C53.7,55.2,49,57,49,57c1.6,3,5.3,2.6,5.3,2.6s3.2-2.5,5.8-5.6l0.9,0.7c-2.5,3.6-5.9,6.9-5.9,6.9c2.4,1.7,5.5,0.9,5.5,0.9
			s1.6-3,2.8-6.4c0.6,0.4,3.1,1.3,4.6,1.5c0.3,0,0.8-8.4,0.8-8.4c-0.6,0.1-1.3-1.1-2-1.2c-3.2-0.3-5.6-1.9-5.2-5.1
			c0.1-1.2,0.6-2.3,1.4-3.2c-3.2-2.2-4.9-5.1-5.6-7.7c0,0-0.6,0.5-1.2,1.6c-3.2-3.5-6.7-8.3-8.1-14c-4,3.1-3.1,8.3-3.1,8.3
			c2.7,5,9.4,9.1,9.8,9.3c-0.1,0.5-0.2,1.1-0.3,1.7l0,0.1c-7.8-3.7-12.2-9.5-12.2-9.5c-2.2,4.4,0.3,8.3,0.3,8.3s4.9,3.3,11.6,4.7
			l0.2,1.7c-8.1-0.9-13.3-3.9-13.3-3.9C40.6,44.8,44.1,47.1,44.1,47.1"/>
		<path class="st1" d="M59.3,77.1c0.7-0.6,3.9-3.3,6.5-3.5c-1.1-5.1,1.4-6.9,3.4-4.6c0.7,0.8,1,1.7,1.1,2.4l2.5,0L73,61.3l-5.2-0.1
			C68,61.7,68,62,68,62c-4.2-0.1-5.9,1.2-6.4,3l0,0c0,0,0,0.1,0,0.1c0,0.1,0,0.1,0,0.2c0,0.1,0,0.2-0.1,0.3c0,0,0,0.1,0,0.1
			c-0.2,2.2,0.7,5.4-0.6,5.5c0.6,0.4,1.4,0.2,1.9-0.4c0.4,0.7,0.8,1.4,1.1,1.8c-1,0.5-2.4,0.8-3.4,0.8c-1.6,0-2.9-0.5-4.3-2.2
			c-0.9-1.1-1.8-1.4-2.7,0c-2-2-3.6-3.6-3.6-3.6c0-0.2-0.1-0.5-0.2-0.7c2.1-2.2,0-5.4-1.9-5.5c-0.7,0,0.7,2.2-0.5,2.6
			c-0.6,0.2-1-0.9-0.2-1.4c-1-0.2-2.2,0.8-1.6,1.4c-0.6-0.6-1.6,0.5-1.4,1.6c0.5-0.8,1.5-0.4,1.4,0.2c-0.4,1.2-2.6-0.2-2.6,0.5
			c0.1,1.9,3.2,4,5.5,1.9c0.2,0.2,0.4,0.2,0.7,0.2c0,0,1.5,1.5,3.4,3.5l0,0c-0.5,0.4-0.9,1.4,0.1,2.2c-0.5,1.7,0.9,3.4,5.4,3.5
			c1.8,1.9,3.2,3.3,3.3,3.4c0.5,0.5,0.8,0.6,1,0.5c0,0,0,0,0,0c0.2,0,0.3-0.1,0.5-0.2c0.1-0.1,0.2-0.3,0.3-0.5c0-0.2-0.1-0.6-0.5-1
			C62.2,79.9,60.9,78.7,59.3,77.1"/>
		<path class="st1" d="M106.7,69.9l-0.8,1.4l-1.2,2.2l-1.2-2.2l-0.8-1.4c-1.6,0.7-2.8,2.3-2.9,4.1c-1.1-0.5-3.4-1.2-4.5-1.5
			c0,0,0.5-0.7,1-1.8c0.5,0.6,1.3,0.8,1.9,0.4c-1.3-0.2-0.4-3.4-0.6-5.5l0-0.1c0-0.1,0-0.2-0.1-0.3c0-0.1,0-0.1,0-0.2
			c0,0,0-0.1,0-0.1l0,0c-0.5-1.8-2.2-3.1-6.4-3c0,0,0-0.3,0.2-0.8l-5.2,0.1l0.2,10.1l2.5,0c0.1-0.8,0.4-1.6,1.1-2.4
			c2-2.3,4.5-0.4,3.4,4.6c4.4,0.6,6.4,3.5,7.1,4.6c1.2,2,4.2,3.4,5.3,1.3c1.2,0.6,3.9-0.7,3.4-2.8c0,0,0,0,0,0
			c0.3-0.7,0.6-1.4,0.6-2.2C109.6,72.4,108.4,70.7,106.7,69.9"/>
		<path class="st1" d="M44.8,62.1c0.3,0.4,0.3,0.9,0,1.3c-0.4,0.3-0.9,0.3-1.3,0c-0.3-0.4-0.3-0.9,0-1.3
			C43.8,61.7,44.4,61.7,44.8,62.1"/>
		<path class="st1" d="M44.5,63.3c0.3,0.3,0.3,0.7,0,1c-0.3,0.3-0.7,0.3-1,0c-0.3-0.3-0.3-0.7,0-1C43.8,63,44.3,63,44.5,63.3"/>
		<path class="st1" d="M45.7,62.2c0.3,0.3,0.3,0.7,0,1c-0.3,0.3-0.7,0.3-1,0c-0.3-0.3-0.3-0.7,0-1C45,61.9,45.4,61.9,45.7,62.2"/>
	</g>
	<g>
		<defs>
			<path id="SVGID_1_" d="M66,40.9v25.3c0,5.7,3.2,6.5,6.6,6.5h2.3c1.4,0,2.5,0.4,3.2,1.1c0.2,0.1,0.4,0.3,0.6,0.5
				c0.1,0.1,0.2,0.1,0.2,0.2c0,0,0,0,0.1,0.1c0.1,0.1,0.2,0.2,0.3,0.3c0.2-0.2,0.5-0.4,0.7-0.6c0.2-0.1,0.4-0.2,0.7-0.3
				c0.7-0.8,1.8-1.3,3.3-1.3h2.3c3.4,0,6.6-0.8,6.6-6.5V40.9H66z"/>
		</defs>
		<clipPath id="SVGID_00000066494485291730398790000017726274108536797844_">
			<use xlink:href="#SVGID_1_"  style="overflow:visible;"/>
		</clipPath>
		<path style="clip-path:url(#SVGID_00000066494485291730398790000017726274108536797844_);fill:#ED3434;" d="M92.6,50.4
			c-10.9,1.9-23.4,11.9-26.2,20.9c0.8,1.6,2.4,1.9,4.9,1.9h2.6c2.3,0,4.1,0.7,5.3,2c1.2-1.3,3-2,5.3-2h2.6c3.7,0,5.5-0.8,5.5-5.4
			V50.4z"/>
		<path style="clip-path:url(#SVGID_00000066494485291730398790000017726274108536797844_);fill:#0057A4;" d="M81.2,39.8
			c-7,1.2-13.2,4.8-15.4,11v17v0c0,0.3,0,0.5,0,0.8c0,0,0,0.1,0,0.1c0.1,1.1,0.3,2,0.6,2.6c2.8-8.9,15.1-18.9,25.9-20.8
			c0.1,0,0.2,0,0.3-0.1v-9.2C88.9,40.4,85,39.9,81.2,39.8"/>
		<path style="clip-path:url(#SVGID_00000066494485291730398790000017726274108536797844_);fill:#FFFFFF;" d="M65.8,55.5
			c3.2-8.8,11.9-14.1,22-15.7c-7.4-0.2-14.8,0.5-22,2.1V55.5z"/>
	</g>
	<g>
		<path class="st5" d="M93.5,45.6v2.3c1.2-0.2,2.8-0.4,4.7-0.5l-2.9-1.5C95.3,45.9,94,45.6,93.5,45.6"/>
		<path class="st5" d="M65.6,45.6v2.3c-1.2-0.2-2.8-0.4-4.7-0.5l2.9-1.5C63.8,45.9,65.1,45.6,65.6,45.6"/>
		<path class="st1" d="M93.6,39.5H65.5v27.3c0,5.4,2.6,6.5,6.6,6.5h2.5c2.4,0,4,0.9,4.8,2.7l0.2,0.4l0.2-0.4
			c0.8-1.8,2.4-2.7,4.8-2.7H87c3.9,0,6.5-1.1,6.5-6.5V39.5z M92.6,66.8c0,4.7-2.1,5.6-5.7,5.6h-2.5c-2,0-3.5,0.6-4.6,1.7l-0.4,0.4
			l-0.4-0.4c-1-1.1-2.6-1.7-4.6-1.7h-2.5c-3.6,0-5.7-0.9-5.7-5.6V40.5h26.1V66.8z"/>
		<path class="st6" d="M72.1,52.1c0.3,0.2,0.4,1.6,0.5,2.2c0,0-0.4,0.1-0.3,0.3c0,0.1,0.1,0.4,0.2,0.5c0,0.1-0.1,0.3-0.1,0.3
			c0.1,0.3,0.2,0.6,0.3,0.8c0.1,0.1,0.2,0.1,0.2,0.2c0.5,1.9,1.6,1.9,1.6,1.9l0,0.8c-0.4,0.6-1.2,1.6-0.9,1.8
			c0.2,0.2,0.3,0.2,0.2,0.3c0,0-0.1,0.2-0.3,0.3c-0.1,0.1-0.1,0.4,0.1,0.5c0.2,0.1,0.5,0.1,0.8,0.1l-0.3,7.2c0,0.1-0.1,0.3-0.2,0.1
			c-0.2-0.2-0.5-0.5-0.8-1c-0.3-0.4-0.3-0.2-0.4,0c-0.1,0.3,0,0.8,0.1,1c0.1,0.3,0.6,0.7,1.2,0.9c0.5,0.2,0.5-0.1,0.5-1
			c0-0.4,0.2-4.2,0.4-7.4c0.1,0,0.1,0,0.2-0.1c0.5-0.3,1.1-1,1.5-1.6c0.2,0.5,0.2,1.5,0.4,1.8c0.3,0.4,0.4,0.2,0.7,0.9
			c0.1,0.2,0.7,0.4,1,0.8c0.6,1,2.6,2.2,3.3,2.4c0.2,0.1,0.5-0.1,0.6,0.2c0.2,0.4,0.2,0.4,0.4,0.5c0.2,0.1,0.2,0.7,0.6,0.9
			c0.4,0.3,0.7,0.1,1.1,0.3c0.3,0.1,0.7,0.6,0.7,0.6c0.1,0-0.2-0.5-0.4-0.8c-0.1-0.1,0-0.3,0-0.5c0.2-1-0.9-1.5-1.1-1.9
			c-0.3-0.7-0.4-0.3-0.6-0.7C82.5,64,82,63,81.2,62.4c-0.2-0.1-0.4-0.1-0.4-0.2c-0.1-0.1-0.1-0.4-0.4-0.9c-0.1-0.1,0.1-0.5,0-0.8
			c-0.1-0.1-0.2-0.2-0.2-0.6c0-0.9,0.1-0.3,0.3,0.1c0.3,0.6,0.7,1.4,0.9,1.6c0.1,0.1,0.3,0,0.4,0.1c0.5,0.8,1.1,1.4,1.4,1.6
			c0.1,0.1,0.2,0.5,0.7,1.2c0.9,1.3,1.9,2,2.2,2.7c0.3,0.7,0.5,0.6,0.8,0.9c0.3,0.4,0.6,0.7,0.9,0.8c0.3,0,0.4-0.1,0.6-0.1
			c0.2,0,0.9,0.5,0.9,0.5c0,0-0.4-0.7-0.4-0.9c0-0.3,0.2-0.5,0.1-0.8c-0.2-0.4-0.7-0.5-1.2-1.1c-0.3-0.3-0.2-0.6-0.3-0.8
			c-0.4-0.9-0.6-2.1-1.4-3.2c-0.3-0.4-0.5-0.5-0.5-0.8c-0.1-0.8-0.5-1.3-0.5-1.5c0-0.2,0.3-0.6,0.2-0.8c-0.3-0.7-1-2-1.5-3.9
			c-0.1-0.5-0.9-0.8-0.9-1.2c0-0.4-0.6-0.7-0.6-0.7c0.2-1,0.1-1.5,0-1.8c-0.2-0.8-1.2-1.6-2.7-2.7c0.1-0.4,0.3-1.5,0.2-1.7
			c0-0.1-0.1-0.1-0.2-0.3c-0.1-0.4-0.2-0.8-0.3-0.9c-0.2-0.2-0.3-0.1-0.5-0.1c-0.2,0-0.4,0-0.6-0.1c-0.4-0.2-0.8-0.2-1.3,0.5
			c-0.1,0.1-0.2,0.1-0.3,0.3c-0.1,0.2-0.2,0.5-0.2,0.9c-0.1,0.5,0,0.6,0,0.7c-0.6,0-1.4,0-1.6,0.2C72.8,49.7,71.9,51.9,72.1,52.1
			 M74.5,54.4c0-0.4,0.1-1.2,0.1-1.2c0,0.7,0.9,3.2,0.9,3.2s-0.7-1.1-0.8-1.2c-0.1-0.1,0-0.5-0.1-0.6C74.6,54.5,74.5,54.5,74.5,54.4
			"/>
		<path class="st7" d="M98.3,47.3c-11.9-4.5-25.5-4.5-37.4,0c1.2-3.8,0-6.7,0-6.7c11.9-4.5,25.5-4.5,37.4,0
			C98.3,40.6,96.7,43.3,98.3,47.3"/>
		<path class="st8" d="M64.6,42.8c0.3-0.6,0.5-1.2,0.8-1.7c0,0,0-0.1,0-0.1c0,0-0.1,0-0.1,0c-0.1,0-0.3,0.1-0.4,0.1c0,0,0,0-0.1,0.1
			c-0.2,0.4-0.3,0.8-0.5,1.2l-0.5-0.8c0,0-0.1-0.1-0.1,0c-0.1,0-0.3,0.1-0.4,0.1c0,0,0,0-0.1,0.1c0,0,0,0.1,0,0.1
			c0.3,0.4,0.5,0.8,0.8,1.2c-0.3,0.6-0.5,1.3-0.8,1.9c0,0,0,0.1,0,0.1c0,0,0,0,0.1,0c0,0,0,0,0,0c0.1,0,0.3-0.1,0.4-0.1
			c0,0,0,0,0.1-0.1c0.2-0.4,0.4-0.9,0.5-1.3c0.2,0.3,0.4,0.6,0.5,0.9c0,0,0.1,0.1,0.1,0c0.1,0,0.3-0.1,0.4-0.1c0,0,0,0,0.1-0.1
			c0,0,0-0.1,0-0.1C65.2,43.7,64.9,43.3,64.6,42.8"/>
		<path class="st8" d="M67.6,40.7c-0.1-0.1-0.2-0.1-0.4-0.2c-0.1,0-0.3,0-0.5,0c-0.2,0-0.4,0.1-0.5,0.2C66.2,40.9,66,41,66,41.1
			c-0.1,0.1-0.1,0.2-0.2,0.4c0,0.1-0.1,0.3-0.1,0.4v1.3c0,0.1,0,0.3,0.1,0.4c0,0.1,0.1,0.2,0.2,0.3c0.1,0.1,0.2,0.1,0.4,0.2
			c0,0,0.1,0,0.1,0c0.1,0,0.2,0,0.3-0.1c0.2,0,0.3-0.1,0.4-0.2c0.1-0.1,0.2-0.2,0.3-0.3c0.1-0.1,0.2-0.2,0.2-0.4
			c0.1-0.1,0.1-0.3,0.1-0.4v-1.3c0-0.1,0-0.2-0.1-0.4C67.8,40.9,67.7,40.8,67.6,40.7 M67.3,41.4v1.4c0,0.1,0,0.1,0,0.2
			c0,0.1-0.1,0.1-0.1,0.2c0,0.1-0.1,0.1-0.2,0.1c-0.1,0-0.1,0.1-0.2,0.1c-0.1,0-0.2,0-0.2,0c-0.1,0-0.1,0-0.1-0.1
			c0,0-0.1-0.1-0.1-0.1c0-0.1,0-0.1,0-0.2l0-1.3c0-0.1,0-0.1,0-0.2c0-0.1,0-0.1,0.1-0.2c0-0.1,0.1-0.1,0.2-0.2
			c0.1-0.1,0.1-0.1,0.2-0.1c0.1,0,0.1,0,0.1,0c0,0,0.1,0,0.1,0c0.1,0,0.1,0,0.1,0.1c0,0,0.1,0.1,0.1,0.1
			C67.3,41.4,67.3,41.4,67.3,41.4"/>
		<path class="st8" d="M70.2,41.6c0-0.1-0.1-0.1-0.2-0.1c0.1,0,0.1-0.1,0.1-0.2c0.1-0.1,0.1-0.3,0.2-0.5l0.3-1c0,0,0-0.1,0-0.1
			c0,0-0.1,0-0.1,0c-0.1,0-0.3,0-0.4,0.1c0,0-0.1,0-0.1,0.1l-0.3,1c0,0.1-0.1,0.2-0.1,0.3c0,0.1-0.1,0.1-0.1,0.1
			c0,0-0.1,0.1-0.1,0.1c-0.1,0-0.1,0-0.1,0c-0.1,0-0.2,0-0.2,0.1v-1.3c0,0,0-0.1,0-0.1c0,0-0.1,0-0.1,0c-0.1,0-0.3,0.1-0.4,0.1
			c0,0-0.1,0-0.1,0.1v3.2c0,0,0,0.1,0,0.1c0,0,0,0,0.1,0h0c0.1,0,0.3-0.1,0.4-0.1c0,0,0.1,0,0.1-0.1V42c0.1,0,0.2,0,0.3-0.1
			c0.1,0,0.1,0,0.2,0c0,0,0.1,0,0.1,0c0,0,0.1,0,0.1,0.1c0,0,0.1,0.1,0.1,0.2l0.3,0.9c0,0,0.1,0.1,0.1,0.1c0.1,0,0.3-0.1,0.4-0.1
			c0,0,0,0,0.1,0c0,0,0,0,0-0.1l-0.3-1C70.3,41.9,70.3,41.7,70.2,41.6"/>
		<path class="st8" d="M72.9,41.2c0-0.1-0.1-0.1-0.2-0.2c0.1,0,0.1-0.1,0.1-0.2c0.1-0.1,0.1-0.3,0.2-0.4l0.3-1c0,0,0-0.1,0-0.1
			c0,0-0.1,0-0.1,0c-0.1,0-0.3,0-0.4,0c0,0-0.1,0-0.1,0.1l-0.3,1c0,0.1-0.1,0.2-0.1,0.2c0,0.1-0.1,0.1-0.1,0.1c0,0-0.1,0.1-0.1,0.1
			c-0.1,0-0.1,0-0.1,0c-0.1,0-0.2,0-0.3,0v-1.3c0,0,0-0.1,0-0.1c0,0,0,0-0.1,0c-0.1,0-0.3,0-0.4,0.1c0,0-0.1,0-0.1,0.1v3.2
			c0,0,0,0.1,0,0.1c0,0,0,0,0.1,0c0,0,0,0,0,0c0.1,0,0.3,0,0.4-0.1c0,0,0.1,0,0.1-0.1v-1.4l0.3,0c0,0,0.1,0,0.1,0h0c0,0,0.1,0,0.1,0
			c0,0,0.1,0.1,0.1,0.1c0,0.1,0.1,0.1,0.1,0.2l0.3,0.9c0,0,0.1,0.1,0.1,0.1c0.1,0,0.3,0,0.4-0.1c0,0,0.1,0,0.1,0c0,0,0,0,0-0.1
			l-0.3-1C73,41.4,72.9,41.3,72.9,41.2"/>
		<path class="st8" d="M75.7,39.1c-0.6,0-1.2,0.1-1.8,0.2c0,0-0.1,0-0.1,0.1v3.2c0,0,0,0.1,0,0.1c0,0,0,0,0.1,0h0
			c0.6-0.1,1.2-0.1,1.8-0.2c0,0,0.1,0,0.1-0.1V42c0,0,0-0.1,0-0.1c0,0,0,0-0.1,0c-0.4,0-0.9,0.1-1.3,0.1v-0.9c0.4,0,0.7-0.1,1.1-0.1
			c0,0,0.1,0,0.1-0.1v-0.3c0,0,0-0.1,0-0.1c0,0,0,0-0.1,0c-0.4,0-0.7,0.1-1.1,0.1v-0.9c0.4,0,0.9-0.1,1.3-0.1c0,0,0.1,0,0.1-0.1
			L75.7,39.1C75.8,39.1,75.7,39.1,75.7,39.1C75.7,39.1,75.7,39.1,75.7,39.1"/>
		<path class="st8" d="M78.5,38.9c-0.1,0-0.3,0-0.4,0c0,0-0.1,0-0.1,0c-0.3,0.5-0.5,1-0.8,1.5c-0.1,0.2-0.2,0.5-0.4,0.7v-2.1
			c0,0,0-0.1,0-0.1c0,0,0,0-0.1,0c-0.1,0-0.3,0-0.4,0c-0.1,0-0.1,0-0.1,0.1v3.2c0,0,0,0.1,0,0.1c0,0,0,0,0.1,0c0,0,0,0,0,0
			c0.1,0,0.3,0,0.4,0c0,0,0.1,0,0.1,0c0.3-0.5,0.6-1.1,0.9-1.6l0.3-0.6v2.1c0,0,0,0,0,0.1c0,0,0,0,0.1,0l0.4,0c0,0,0.1,0,0.1-0.1
			C78.6,41.2,78.6,40.1,78.5,38.9C78.6,39,78.5,39,78.5,38.9C78.5,38.9,78.5,38.9,78.5,38.9"/>
		<path class="st8" d="M76.8,38.8c0.1,0.1,0.1,0.1,0.2,0.2c0.1,0,0.2,0,0.3,0h0.1c0.1,0,0.3,0,0.3-0.1c0.1,0,0.2-0.1,0.2-0.2
			c0.1-0.1,0.1-0.1,0.1-0.2c0-0.1,0-0.1,0.1-0.2c0,0,0-0.1,0-0.1c0,0,0,0-0.1,0c-0.1,0-0.2,0-0.3,0c-0.1,0-0.1,0-0.1,0.1
			c0,0,0,0,0,0.1c0,0,0,0,0,0.1c0,0,0,0-0.1,0.1c0,0-0.1,0-0.1,0c0,0-0.1,0-0.1,0c0,0-0.1,0-0.1,0c0,0,0,0,0-0.1c0,0,0,0,0-0.1
			c0,0,0-0.1-0.1-0.1c-0.1,0-0.2,0-0.3,0c0,0-0.1,0-0.1,0.1c0,0.1,0,0.1,0,0.2C76.7,38.6,76.7,38.7,76.8,38.8"/>
		<path class="st8" d="M81.5,39c-0.3,0-0.7,0-1,0c0,0,0,0-0.1,0c0,0,0,0,0,0.1v3.2c0,0.1,0,0.1,0.1,0.1c0.1,0,0.3,0,0.4,0h0
			c0,0,0.1,0,0.1,0c0,0,0,0,0-0.1V41c0.2,0,0.3,0,0.5,0c0.2,0,0.4,0,0.5-0.1c0.1-0.1,0.3-0.1,0.3-0.2c0.1-0.1,0.2-0.2,0.2-0.3
			c0-0.1,0.1-0.2,0.1-0.4c0-0.3-0.1-0.6-0.3-0.8C82.2,39.1,81.9,39,81.5,39 M81.1,39.5c0.2,0,0.3,0,0.5,0c0.2,0,0.3,0.1,0.4,0.1
			C82,39.8,82,39.9,82,40c0,0.1,0,0.1,0,0.2c0,0.1,0,0.1-0.1,0.1s-0.1,0.1-0.1,0.1c-0.1,0-0.1,0-0.2,0h0c-0.2,0-0.3,0-0.5,0V39.5z"
			/>
		<path class="st8" d="M84.9,39.5c-0.1-0.1-0.2-0.2-0.3-0.3c-0.1-0.1-0.3-0.1-0.5-0.1c-0.2,0-0.4,0-0.5,0.1
			c-0.1,0.1-0.3,0.1-0.3,0.2c-0.1,0.1-0.2,0.2-0.2,0.3c0,0.1-0.1,0.2-0.1,0.4v1.3c0,0.1,0,0.3,0.1,0.4c0,0.1,0.1,0.3,0.2,0.4
			c0.1,0.1,0.2,0.2,0.3,0.3c0.1,0.1,0.3,0.1,0.5,0.1c0,0,0.1,0,0.1,0c0.1,0,0.2,0,0.3,0c0.1,0,0.2-0.1,0.4-0.2
			c0.1-0.1,0.2-0.2,0.2-0.3c0.1-0.1,0.1-0.3,0.1-0.4v-1.3c0-0.1,0-0.3-0.1-0.4C85.1,39.7,85,39.6,84.9,39.5 M84.6,40.2v1.4
			c0,0.1,0,0.1,0,0.2c0,0.1-0.1,0.1-0.1,0.1c0,0-0.1,0.1-0.1,0.1c-0.1,0-0.1,0-0.2,0c-0.1,0-0.2,0-0.2-0.1c-0.1,0-0.1-0.1-0.2-0.1
			c0-0.1-0.1-0.1-0.1-0.2c0-0.1,0-0.2,0-0.2l0-1.3c0-0.1,0-0.1,0-0.2c0-0.1,0-0.1,0.1-0.2c0,0,0.1-0.1,0.1-0.1c0,0,0.1,0,0.2,0
			c0,0,0,0,0.1,0c0.1,0,0.2,0,0.2,0.1c0.1,0,0.1,0.1,0.2,0.2c0,0.1,0.1,0.1,0.1,0.2C84.6,40.1,84.6,40.2,84.6,40.2"/>
		<path class="st8" d="M86.3,40.2c0-0.1,0-0.1,0.1-0.1c0,0,0.1-0.1,0.1-0.1c0.1,0,0.1,0,0.2,0c0.1,0,0.2,0.1,0.3,0.1
			c0.1,0.1,0.1,0.2,0.2,0.3c0,0,0.1,0.1,0.1,0.1c0.1,0,0.3-0.1,0.4-0.1c0,0,0,0,0.1,0c0,0,0,0,0-0.1c-0.1-0.2-0.2-0.4-0.4-0.5
			c-0.2-0.1-0.4-0.2-0.6-0.3c-0.2,0-0.3,0-0.5,0c-0.1,0-0.3,0.1-0.4,0.2c-0.1,0.1-0.2,0.2-0.2,0.3c0,0.1-0.1,0.3-0.1,0.4v1.3
			c0,0.2,0,0.3,0.1,0.4c0.1,0.1,0.1,0.3,0.2,0.4c0.1,0.1,0.2,0.2,0.3,0.3c0.1,0.1,0.3,0.1,0.4,0.1c0.1,0,0.1,0,0.2,0
			c0.2,0,0.3,0,0.4-0.1c0.2-0.1,0.3-0.2,0.4-0.5c0,0,0-0.1,0-0.1L87.4,42c0,0-0.1,0-0.1,0c0,0,0,0-0.1,0.1c0,0.1-0.1,0.2-0.1,0.2
			c-0.1,0-0.2,0.1-0.3,0c-0.1,0-0.2,0-0.2-0.1c-0.1,0-0.1-0.1-0.2-0.1c0-0.1-0.1-0.1-0.1-0.2c0-0.1,0-0.1,0-0.2v-1.4
			C86.3,40.3,86.3,40.3,86.3,40.2"/>
		<path class="st8" d="M88.8,40.6c0-0.1,0-0.1,0.1-0.1c0,0,0.1-0.1,0.1-0.1c0.1,0,0.1,0,0.2,0c0.1,0,0.2,0.1,0.3,0.2
			c0.1,0.1,0.1,0.2,0.2,0.3c0,0,0.1,0.1,0.1,0.1l0.4-0.1c0,0,0.1,0,0.1,0c0,0,0-0.1,0-0.1c-0.1-0.2-0.2-0.4-0.4-0.6
			c-0.2-0.2-0.4-0.3-0.6-0.3c-0.2,0-0.3,0-0.5,0c-0.1,0-0.3,0.1-0.4,0.2c-0.1,0.1-0.2,0.2-0.2,0.3c0,0.1-0.1,0.3-0.1,0.4v1.3
			c0,0.2,0,0.3,0.1,0.4c0.1,0.1,0.1,0.3,0.2,0.4c0.1,0.1,0.2,0.2,0.3,0.3c0.1,0.1,0.3,0.1,0.4,0.2c0.1,0,0.2,0,0.3,0
			c0.1,0,0.3,0,0.4-0.1c0.2-0.1,0.3-0.2,0.4-0.4c0,0,0-0.1,0-0.1c-0.1-0.1-0.3-0.1-0.4-0.2c0,0-0.1,0-0.1,0c0,0,0,0-0.1,0.1
			c0,0.1-0.1,0.2-0.1,0.2c-0.1,0-0.2,0-0.3,0c-0.1,0-0.2,0-0.2-0.1c-0.1,0-0.1-0.1-0.2-0.1c0-0.1-0.1-0.1-0.1-0.2c0-0.1,0-0.1,0-0.2
			v-1.4C88.8,40.7,88.8,40.7,88.8,40.6"/>
		<path class="st8" d="M92.6,40.6c0,0-0.1,0-0.1,0c-0.3,0.4-0.5,0.8-0.8,1.3l-0.3,0.6v-2.1c0,0,0-0.1-0.1-0.1
			c-0.1,0-0.3-0.1-0.4-0.1c0,0-0.1,0-0.1,0c0,0,0,0,0,0.1v3.2c0,0,0,0.1,0.1,0.1c0.1,0,0.3,0.1,0.4,0.1c0,0,0.1,0,0.1,0
			c0.3-0.4,0.6-0.9,0.8-1.3l0.3-0.5v2.1c0,0,0,0.1,0.1,0.1c0.1,0,0.3,0.1,0.4,0.1c0,0,0,0,0,0c0,0,0,0,0.1,0c0,0,0,0,0-0.1v-3.2
			c0,0,0-0.1-0.1-0.1C92.8,40.7,92.7,40.7,92.6,40.6"/>
		<path class="st8" d="M95.9,41.6c-0.1,0-0.3-0.1-0.4-0.1c0,0-0.1,0-0.1,0c-0.3,0.4-0.5,0.8-0.8,1.2l-0.3,0.6v-2.1
			c0,0,0-0.1-0.1-0.1L93.8,41c0,0-0.1,0-0.1,0c0,0,0,0,0,0.1v3.2c0,0,0,0.1,0.1,0.1c0.1,0,0.3,0.1,0.4,0.1c0,0,0.1,0,0.1,0
			c0.3-0.4,0.5-0.9,0.8-1.3l0.3-0.5v2.1c0,0,0,0.1,0.1,0.1c0.1,0,0.3,0.1,0.4,0.1c0,0,0,0,0,0c0,0,0,0,0.1,0c0,0,0,0,0-0.1
			L95.9,41.6C95.9,41.7,95.9,41.6,95.9,41.6"/>
	</g>
	<g>
		<path class="st1" d="M69.9,16.1c-0.1,0.1-0.2,0.3-0.1,0.5c0.1,0.6,1.1-0.1,1.3-0.3v1.5c-0.2-0.2-0.7-0.5-1-0.5
			c-0.6,0.1,0.1,1.1,0.2,1.3h-1.5c0.2-0.2,0.5-0.7,0.5-1c-0.1-0.6-1.1,0.1-1.2,0.3v-1.5c0.2,0.2,0.7,0.5,1,0.5
			c0.6-0.1-0.1-1.1-0.2-1.3h1.5C70.1,15.7,70,15.9,69.9,16.1L69.9,16.1z"/>
		<path class="st1" d="M69.5,18.9c0.6,0,1.1,0.5,1.1,1.1c0,0.6-0.5,1.1-1.1,1.1c-0.6,0-1.1-0.5-1.1-1.1
			C68.4,19.4,68.9,18.9,69.5,18.9L69.5,18.9z"/>
	</g>
	<g>
		<path class="st1" d="M80.1,7.6c-0.1,0.2-0.2,0.4-0.2,0.7c0.1,0.9,1.5-0.2,1.7-0.3v2c-0.3-0.2-1-0.7-1.4-0.7
			c-0.9,0.1,0.2,1.5,0.3,1.7h-2c0.2-0.3,0.7-1,0.7-1.4c-0.1-0.9-1.5,0.2-1.7,0.3v-2c0.3,0.2,1,0.7,1.4,0.7c0.9-0.1-0.2-1.5-0.3-1.7
			h2C80.4,7.2,80.2,7.4,80.1,7.6L80.1,7.6z"/>
		<path class="st1" d="M79.5,11.6c0.9,0,1.5,0.7,1.5,1.5c0,0.8-0.7,1.5-1.5,1.5c-0.8,0-1.5-0.7-1.5-1.5C78,12.2,78.7,11.6,79.5,11.6
			L79.5,11.6z"/>
	</g>
	<g>
		<path class="st1" d="M105.3,63.8c-0.1,0.2-0.2,0.4-0.2,0.7c0.1,0.9,1.5-0.2,1.7-0.3v2c-0.3-0.2-1-0.7-1.4-0.7
			c-0.9,0.1,0.2,1.5,0.3,1.7h-2c0.2-0.3,0.7-1,0.7-1.4c-0.1-0.9-1.5,0.2-1.7,0.3v-2c0.3,0.2,1,0.7,1.4,0.7c0.9-0.1-0.2-1.5-0.3-1.7
			h2C105.6,63.3,105.4,63.6,105.3,63.8L105.3,63.8z"/>
		<path class="st1" d="M104.8,67.7c0.9,0,1.5,0.7,1.5,1.5c0,0.8-0.7,1.5-1.5,1.5c-0.8,0-1.5-0.7-1.5-1.5
			C103.2,68.4,103.9,67.7,104.8,67.7L104.8,67.7z"/>
	</g>
	<g>
		<path class="st1" d="M90,16.1c-0.1,0.1-0.2,0.3-0.1,0.5c0.1,0.6,1.1-0.1,1.3-0.3v1.5c-0.2-0.2-0.7-0.5-1-0.5
			c-0.6,0.1,0.1,1.1,0.2,1.3h-1.5c0.2-0.2,0.5-0.7,0.5-1c-0.1-0.6-1.1,0.1-1.2,0.3v-1.5c0.2,0.2,0.7,0.5,1,0.5
			c0.6-0.1-0.1-1.1-0.2-1.3h1.5C90.2,15.7,90.1,15.9,90,16.1L90,16.1z"/>
		<path class="st1" d="M89.6,18.9c0.6,0,1.1,0.5,1.1,1.1c0,0.6-0.5,1.1-1.1,1.1c-0.6,0-1.1-0.5-1.1-1.1C88.5,19.4,89,18.9,89.6,18.9
			L89.6,18.9z"/>
	</g>
</g>
</svg>
