<?xml version="1.0" encoding="utf-8"?>
<!-- Generator: Adobe Illustrator 26.3.1, SVG Export Plug-In . SVG Version: 6.00 Build 0)  -->
<svg version="1.1" id="_x36_d0d79ad-e8d3-4ba0-ad13-6327f92b6a0f"
	 xmlns="http://www.w3.org/2000/svg" xmlns:xlink="http://www.w3.org/1999/xlink" x="0px" y="0px" viewBox="0 0 78.1 99.2"
	 style="enable-background:new 0 0 78.1 99.2;" xml:space="preserve">
<style type="text/css">
	.st0{fill:#000B0B;}
	.st1{fill:none;}
	.st2{clip-path:url(#SVGID_00000004547267506473620330000016491498016884323218_);}
	.st3{fill:url(#SVGID_00000080917141730416320680000017557797947191025545_);}
	.st4{clip-path:url(#SVGID_00000121958998667490618490000004053915933006112687_);}
	.st5{opacity:0.5;}
	.st6{clip-path:url(#SVGID_00000173850556009998680280000012360738550734097328_);}
	.st7{clip-path:url(#SVGID_00000021121011901325265120000002517431077538999435_);}
	.st8{fill:url(#SVGID_00000124147430306419784250000007798612138817993090_);}
	.st9{clip-path:url(#SVGID_00000138543827386563975370000003770863103448892815_);}
	.st10{fill:url(#SVGID_00000067208347313155245090000010898530833361990322_);}
	.st11{clip-path:url(#SVGID_00000171705584023858164290000000544384336477639094_);}
	.st12{fill:url(#SVGID_00000166638004488392813030000014642704905257367951_);}
	.st13{fill:#2B2C2D;}
	.st14{clip-path:url(#SVGID_00000036951569851404270730000003057856352435252105_);}
	.st15{fill:url(#SVGID_00000026843784690633285340000013332693520642374026_);}
	.st16{clip-path:url(#SVGID_00000054958799631937760550000017120972275788645051_);}
	.st17{fill:url(#SVGID_00000183236755424471154570000002361551728586626955_);}
	.st18{fill:#535151;}
	.st19{fill:#EDF0F3;}
	.st20{fill:#95989A;}
	.st21{fill:#8D8D8E;}
	.st22{clip-path:url(#SVGID_00000029040262827251935260000009515881840020217518_);}
	.st23{fill:url(#SVGID_00000131362735031056061380000016053505918259564163_);}
	.st24{fill:#FFFFFF;}
</style>
<path class="st0" d="M60.2,99.2H18c-3.7,0-6.7-3-6.7-6.7V6.7C11.2,3,14.2,0,18,0h42.2c3.7,0,6.7,3,6.7,6.7c0,0,0,0,0,0v85.7
	C66.9,96.2,63.9,99.2,60.2,99.2C60.2,99.2,60.2,99.2,60.2,99.2"/>
<rect x="-15.4" y="-39.8" class="st1" width="109" height="178.8"/>
<g>
	<defs>
		<path id="SVGID_1_" d="M12.4,92.5V6.7c0-3.1,2.5-5.5,5.5-5.5h42.2c3.1,0,5.5,2.5,5.5,5.5v85.7c0,3.1-2.5,5.5-5.5,5.5H18
			C14.9,98,12.4,95.5,12.4,92.5 M18,0c-3.7,0-6.7,3-6.7,6.7c0,0,0,0,0,0v85.7c0,3.7,3,6.7,6.7,6.7h42.2c3.7,0,6.7-3,6.7-6.7V6.7
			c0-3.7-3-6.7-6.7-6.7c0,0,0,0,0,0H18z"/>
	</defs>
	<clipPath id="SVGID_00000106133286768791096510000007369600962272393398_">
		<use xlink:href="#SVGID_1_"  style="overflow:visible;"/>
	</clipPath>
	<g style="clip-path:url(#SVGID_00000106133286768791096510000007369600962272393398_);">
		
			<linearGradient id="SVGID_00000067928548002317596500000017846994647455818399_" gradientUnits="userSpaceOnUse" x1="-277.6528" y1="338.5348" x2="-276.6528" y2="338.5348" gradientTransform="matrix(55.6729 0 0 55.6729 15468.959 -18797.6016)">
			<stop  offset="0" style="stop-color:#EBEAEB"/>
			<stop  offset="0.7711" style="stop-color:#949494"/>
			<stop  offset="1" style="stop-color:#98A5AD"/>
		</linearGradient>
		
			<rect x="11.2" y="0" style="fill:url(#SVGID_00000067928548002317596500000017846994647455818399_);" width="55.7" height="99.2"/>
	</g>
</g>
<g>
	<defs>
		<path id="SVGID_00000016059459435512512960000001759967335121854088_" d="M12.4,92.5V6.7c0-3.1,2.5-5.5,5.5-5.5h42.2
			c3.1,0,5.5,2.5,5.5,5.5v85.7c0,3.1-2.5,5.5-5.5,5.5H18C14.9,98,12.4,95.5,12.4,92.5 M18,0c-3.7,0-6.7,3-6.7,6.7c0,0,0,0,0,0v85.7
			c0,3.7,3,6.7,6.7,6.7h42.2c3.7,0,6.7-3,6.7-6.7V6.7c0-3.7-3-6.7-6.7-6.7c0,0,0,0,0,0H18z"/>
	</defs>
	<clipPath id="SVGID_00000167390798139718623920000005505009980800605375_">
		<use xlink:href="#SVGID_00000016059459435512512960000001759967335121854088_"  style="overflow:visible;"/>
	</clipPath>
	<g style="clip-path:url(#SVGID_00000167390798139718623920000005505009980800605375_);">
		<g class="st5">
			<g>
				<defs>
					<rect id="SVGID_00000183948776038580034320000004548707379687817148_" x="4.7" y="25.9" width="68.6" height="61"/>
				</defs>
				<clipPath id="SVGID_00000160185245435620964420000013016819419850512306_">
					<use xlink:href="#SVGID_00000183948776038580034320000004548707379687817148_"  style="overflow:visible;"/>
				</clipPath>
				<g style="clip-path:url(#SVGID_00000160185245435620964420000013016819419850512306_);">
					<g>
						<defs>
							<path id="SVGID_00000170279230407468271150000016432384857296800686_" d="M4.7,25.9C5,34.1,6,47.7,9.9,56.8
								C13.8,66.2,20,74.5,28,80.7c3.2,2.5,6.8,4.5,10.6,6l0.1,0l0.3,0.1l0.3-0.1l0.1,0c3.8-1.4,7.4-3.4,10.6-6
								c8-6.3,14.3-14.5,18.1-23.9c3.9-9.1,4.9-22.7,5.2-30.9H4.7z"/>
						</defs>
						<clipPath id="SVGID_00000159447024195554460020000010141198686148020620_">
							<use xlink:href="#SVGID_00000170279230407468271150000016432384857296800686_"  style="overflow:visible;"/>
						</clipPath>
						<g style="clip-path:url(#SVGID_00000159447024195554460020000010141198686148020620_);">
							
								<linearGradient id="SVGID_00000075132309363963733260000006005756631804594068_" gradientUnits="userSpaceOnUse" x1="-272.1099" y1="324.3283" x2="-271.1099" y2="324.3283" gradientTransform="matrix(-0.2192 35.7246 -35.7246 -0.2192 11565.8105 9857.499)">
								<stop  offset="0" style="stop-color:#1D1D1F"/>
								<stop  offset="0.1773" style="stop-color:#1D1D1F"/>
								<stop  offset="0.4916" style="stop-color:#2B2C2D"/>
								<stop  offset="0.7934" style="stop-color:#333335"/>
								<stop  offset="1" style="stop-color:#333335"/>
							</linearGradient>
							<polygon style="fill:url(#SVGID_00000075132309363963733260000006005756631804594068_);" points="4.4,86.8 4.7,25.4 
								73.7,25.9 73.3,87.2 							"/>
						</g>
					</g>
				</g>
			</g>
		</g>
	</g>
</g>
<g>
	<defs>
		<path id="SVGID_00000034059745920797336860000006072196564267351706_" d="M39.2,20c-19.6,0-27.3,3.9-27.6,4l-0.2,0.1l0,0.2
			c0,0.2-0.3,20.1,4.5,31.3c3.2,7.7,8.2,14.5,14.7,19.6c2.5,2.1,5.4,3.7,8.5,4.9l0.1,0h0l0.1,0c3.1-1.2,5.9-2.8,8.5-4.9
			c6.5-5.2,11.6-11.9,14.7-19.6C67.3,44.5,67,24.6,67,24.4l0-0.2l-0.2-0.1C66.5,23.9,58.8,20,39.2,20L39.2,20z"/>
	</defs>
	<clipPath id="SVGID_00000092422280558366681490000012116480677323439030_">
		<use xlink:href="#SVGID_00000034059745920797336860000006072196564267351706_"  style="overflow:visible;"/>
	</clipPath>
	<g style="clip-path:url(#SVGID_00000092422280558366681490000012116480677323439030_);">
		
			<linearGradient id="SVGID_00000036243185742140460610000017356840618543062156_" gradientUnits="userSpaceOnUse" x1="-282.9985" y1="339.3599" x2="-281.9985" y2="339.3599" gradientTransform="matrix(47.2895 -39.6806 39.6806 47.2895 -62.1371 -27212.2969)">
			<stop  offset="0" style="stop-color:#1D1D1F"/>
			<stop  offset="0.1773" style="stop-color:#1D1D1F"/>
			<stop  offset="0.4916" style="stop-color:#2B2C2D"/>
			<stop  offset="0.7934" style="stop-color:#333335"/>
			<stop  offset="1" style="stop-color:#333335"/>
		</linearGradient>
		<polygon style="fill:url(#SVGID_00000036243185742140460610000017356840618543062156_);" points="-18.6,44.9 44.1,-7.6 96.9,55.4 
			34.3,107.9 		"/>
	</g>
</g>
<g>
	<defs>
		<path id="SVGID_00000142879630163816814020000009542399335652595881_" d="M26.5,31.5h3.7l-3.9,4.5l4.4,6.6H27l-2.8-4.2l-1.4,1.5
			v2.7h-3.5v-11h3.5v4L26.5,31.5z M15,26.5l0,0.2c-0.4,7.5,0.4,15,2.4,22.2h14.2l5.6-9.2l-9.6-15.6C19.5,24.8,15.8,26.2,15,26.5
			 M31.2,23.8l7.8,12.9v0l7.8-12.9c-2.3-0.1-4.9-0.2-7.8-0.2v0C36.2,23.6,33.5,23.7,31.2,23.8"/>
	</defs>
	<clipPath id="SVGID_00000101796469577893448440000017803049910033999496_">
		<use xlink:href="#SVGID_00000142879630163816814020000009542399335652595881_"  style="overflow:visible;"/>
	</clipPath>
	<g style="clip-path:url(#SVGID_00000101796469577893448440000017803049910033999496_);">
		
			<linearGradient id="SVGID_00000150068809304956985180000013541073444227821988_" gradientUnits="userSpaceOnUse" x1="-274.8051" y1="320.5448" x2="-273.8051" y2="320.5448" gradientTransform="matrix(-11.5135 31.6331 -31.6331 -11.5135 7012.3765 12403.5645)">
			<stop  offset="0" style="stop-color:#EDF0F3"/>
			<stop  offset="0.7711" style="stop-color:#95989A"/>
			<stop  offset="1" style="stop-color:#95989A"/>
		</linearGradient>
		<polygon style="fill:url(#SVGID_00000150068809304956985180000013541073444227821988_);" points="6.2,46 18.2,13.1 55,26.6 
			43.1,59.4 		"/>
	</g>
</g>
<path class="st13" d="M39.1,20.7c4.2,0,8.3,0.2,12.5,0.6c2.8,0.3,5.6,0.7,8.4,1.3c2.1,0.4,4.2,1.1,6.3,1.9c0,1.9,0,20.3-4.5,30.8
	c-3.1,7.6-8.1,14.3-14.5,19.4c-2.5,2-5.2,3.6-8.2,4.8c-3-1.2-5.7-2.8-8.2-4.8C24.5,69.6,19.5,63,16.4,55.4
	c-4.5-10.5-4.5-28.9-4.5-30.8c2-0.9,4.1-1.5,6.3-1.9c2.8-0.6,5.6-1,8.4-1.3C30.7,20.8,34.9,20.6,39.1,20.7 M39.1,20
	c-19.6,0-27.3,3.9-27.6,4l-0.2,0.1l0,0.2c0,0.2-0.3,20.1,4.5,31.3c3.2,7.7,8.2,14.4,14.7,19.6c2.5,2.1,5.4,3.7,8.5,4.9l0.1,0l0.1,0
	c3.1-1.2,5.9-2.8,8.5-4.9c6.5-5.2,11.6-11.9,14.7-19.6c4.8-11.2,4.5-31.1,4.5-31.3l0-0.2L66.7,24C66.4,23.9,58.7,20,39.1,20"/>
<g>
	<defs>
		<path id="SVGID_00000027597105474232155910000002022634478575699366_" d="M36.4,63.5L33.2,58l0,0l3.9,0l2,2.7v0l0,0l0,0h0l2-2.8
			H45l-0.1,0.1l-3.2,5.4l3.2,5.4L45,69h-3.9l-2-2.8v0l-2,2.8h-3.9L36.4,63.5z M39.1,42.9l-8,13H19.8c1.4,3.3,3.2,6.3,5.4,9.2
			c3.3,4.1,7.3,7.5,12,10c0,0,0,0,0,0c1.2,0.6,1.8,0.9,1.8,0.9l0,0c0,0,0.1,0,0.4-0.2c1.6-0.7,3.1-1.6,4.6-2.5
			c2.7-1.8,5.1-3.9,7.3-6.3c2.8-3.3,5.1-7,6.8-11H47L39.1,42.9L39.1,42.9L39.1,42.9z"/>
	</defs>
	<clipPath id="SVGID_00000121250874681503212390000002359770517909280945_">
		<use xlink:href="#SVGID_00000027597105474232155910000002022634478575699366_"  style="overflow:visible;"/>
	</clipPath>
	<g style="clip-path:url(#SVGID_00000121250874681503212390000002359770517909280945_);">
		
			<linearGradient id="SVGID_00000083079715780267780630000017560350533101891507_" gradientUnits="userSpaceOnUse" x1="-281.3599" y1="317.2318" x2="-280.3599" y2="317.2318" gradientTransform="matrix(-23.879 20.0368 -20.0368 -23.879 -310.2422 13261.2227)">
			<stop  offset="0" style="stop-color:#EDF0F3"/>
			<stop  offset="1.955000e-02" style="stop-color:#EDF0F3"/>
			<stop  offset="0.8712" style="stop-color:#95989A"/>
			<stop  offset="1" style="stop-color:#95989A"/>
		</linearGradient>
		<polygon style="fill:url(#SVGID_00000083079715780267780630000017560350533101891507_);" points="3.6,56.5 42.4,24 74.5,62.2 
			35.7,94.8 		"/>
	</g>
</g>
<g>
	<defs>
		<path id="SVGID_00000044863109590480145430000014180608868282697376_" d="M9.5,22.1l-0.2,0.1l-0.4,0.2l0,0.4l0,0.2
			c0,0.2-0.5,21.4,4.6,33.4c3.4,8.3,8.9,15.6,16,21.1c2.8,2.2,5.9,4,9.3,5.2l0.1,0l0.2,0.1v-2.8l-0.1,0c-3.1-1.2-5.9-2.8-8.5-4.9
			c-6.5-5.2-11.6-12-14.7-19.6c-4.8-11.2-4.5-31.1-4.5-31.3l0-0.2l0.2-0.1c0.3-0.2,8-4,27.6-4v-2.6C18.1,17.4,9.8,22,9.5,22.1"/>
	</defs>
	<clipPath id="SVGID_00000165203025365144638910000016332329202073453698_">
		<use xlink:href="#SVGID_00000044863109590480145430000014180608868282697376_"  style="overflow:visible;"/>
	</clipPath>
	<g style="clip-path:url(#SVGID_00000165203025365144638910000016332329202073453698_);">
		
			<linearGradient id="SVGID_00000050658873267296788820000014202370557615313538_" gradientUnits="userSpaceOnUse" x1="-274.3165" y1="339.8615" x2="-273.3165" y2="339.8615" gradientTransform="matrix(39.6441 6.9903 -6.9903 39.6441 13255.3457 -11509.1201)">
			<stop  offset="0" style="stop-color:#D2D4D6"/>
			<stop  offset="0.236" style="stop-color:#D2D4D6"/>
			<stop  offset="1" style="stop-color:#95989A"/>
		</linearGradient>
		<polygon style="fill:url(#SVGID_00000050658873267296788820000014202370557615313538_);" points="-2.9,81 9.2,12.1 50.3,19.4 
			38.1,88.3 		"/>
	</g>
</g>
<polygon class="st18" points="41,63.5 45,69 44.9,69 41,63.5 44.9,58.1 44.9,58 "/>
<path class="st19" d="M33.8,68.2L33.8,68.2l3.3-4.7l-3.8-5.3L33.2,58h2.9l-3.2-0.2l3.5,5.7l-3.5,5.7l3.2-0.2l-2.9,0L33.8,68.2z
	 M36.4,63.5l-0.1,0.1L36.4,63.5L36.4,63.5z"/>
<path class="st20" d="M45.2,57.9L42,58l2.9,0l-0.6,0.8l0,0.1L41,63.5l3.3,4.6l0.1,0.1l0.6,0.8L42,69l3.2,0.2l-3.5-5.7L45.2,57.9z
	 M41.8,63.7l-0.1-0.1l0,0L41.8,63.7z"/>
<polygon class="st19" points="20.5,31.5 23.1,31.3 22.9,35.5 22.9,31.5 "/>
<polygon class="st19" points="22.9,42.5 23.1,40 24,38.6 22.9,39.8 "/>
<polygon class="st19" points="28.6,33.3 26.6,35.9 28.8,39.7 26.3,35.9 "/>
<path class="st21" d="M30.5,75.3c-0.1,0-0.1-0.1-0.2-0.1l0,0C30.4,75.2,30.4,75.2,30.5,75.3"/>
<path class="st21" d="M30.3,75.1L30.3,75.1C30.2,75.1,30.3,75.1,30.3,75.1L30.3,75.1"/>
<g>
	<defs>
		<path id="SVGID_00000049921992729889226140000017976654579987872437_" d="M46.4,40.3c0.9-0.1,1.7-0.7,2.2-1.6c0,0,0,0,0,0
			c0.2-0.5,0.4-1.1,0.3-1.7v-5.7h9.7v11.2h-3.5v-8.4h-2.7V37c-0.2,5.6-4.6,5.7-4.6,5.7L46.4,40.3z M40.9,39.7l5.6,9.2h14.2
			c2-7.2,2.8-14.7,2.4-22.2l0-0.2c-0.7-0.3-4.5-1.7-12.6-2.4L40.9,39.7z M39.1,19.3c-12.1,0.5-16.3,1.8-16.3,1.8
			c5.4-0.8,10.9-1.1,16.3-1.1c19.6,0,27.2,3.9,27.6,4l0.2,0.1l0,0.2c0,0.2,0.3,20.1-4.5,31.3c-3.2,7.7-8.2,14.5-14.7,19.6
			c-2.5,2.1-5.4,3.7-8.5,4.9l-0.1,0v0l-0.1,0c-3.1-1.2-5.9-2.8-8.5-4.9c-0.1,0-0.1-0.1-0.2-0.1c0.1,0.1,0.1,0.1,0.2,0.2
			c2.8,3.1,8.3,5.5,8.5,5.6l0.1,0V83l0.2-0.1l0.1,0c3.4-1.2,6.5-3,9.3-5.2c7.1-5.5,12.6-12.8,16-21.1c5.1-12,4.6-33.2,4.6-33.4
			l0-0.2l0-0.4l-0.4-0.2l-0.2-0.1c-0.3-0.2-8.6-4.7-29.6-4.7L39.1,19.3z"/>
	</defs>
	<clipPath id="SVGID_00000031203851806969371750000001417660192304828829_">
		<use xlink:href="#SVGID_00000049921992729889226140000017976654579987872437_"  style="overflow:visible;"/>
	</clipPath>
	<g style="clip-path:url(#SVGID_00000031203851806969371750000001417660192304828829_);">
		
			<linearGradient id="SVGID_00000178187925635516931240000011930780042793037190_" gradientUnits="userSpaceOnUse" x1="-276.7072" y1="339.8486" x2="-275.7072" y2="339.8486" gradientTransform="matrix(46.5041 0 0 46.5041 12890.832 -15754.1621)">
			<stop  offset="0" style="stop-color:#DFDFE1"/>
			<stop  offset="0.4521" style="stop-color:#DFDFE1"/>
			<stop  offset="0.9364" style="stop-color:#95989A"/>
			<stop  offset="1" style="stop-color:#95989A"/>
		</linearGradient>
		
			<rect x="22.8" y="17.4" style="fill:url(#SVGID_00000178187925635516931240000011930780042793037190_);" width="47" height="65.6"/>
	</g>
</g>
<path class="st19" d="M62.8,55.6c5.1-13.1,4-31.3,4-31.5l0,0.2c0,0.2,0.3,20.1-4.5,31.3c-3.2,7.7-8.2,14.4-14.7,19.6
	c-1.6,1.3-3.4,2.4-5.2,3.4c1.9-1,3.7-2.1,5.4-3.4C54.5,70.3,59.8,63.5,62.8,55.6"/>
<polygon class="st19" points="54.3,31.3 58.9,31 58.9,42.8 56.6,42.5 58.7,42.5 58.7,31.3 "/>
<polygon class="st19" points="31.6,48.9 36.3,39.7 27.6,24.1 37.2,39.7 "/>
<polygon class="st20" points="39.1,36.7 39.1,35.2 31.2,23.8 "/>
<polygon class="st20" points="39.1,42.9 39.1,44.4 31.2,55.7 "/>
<polygon class="st19" points="39.1,42.9 39.1,44.4 46.9,55.7 "/>
<polygon class="st20" points="46.5,48.9 41.8,39.7 50.5,24.1 40.9,39.7 "/>
<polygon class="st19" points="39.1,36.7 39.1,35.2 46.9,23.9 "/>
<path class="st24" d="M16.6,93.6v-1.2l1.9-2.6c0.1-0.1,0.2-0.3,0.2-0.5v-0.6c0-0.3-0.1-0.4-0.4-0.4H17L16.7,88V87h1.9
	c0.7,0,1.3,0.5,1.3,1.2c0,0.1,0,0.1,0,0.2v0.9c0,0.2,0,0.5-0.1,0.7c-0.1,0.2-0.2,0.4-0.4,0.6l-1.3,1.7v0.1H20v1.3L16.6,93.6z"/>
<path class="st24" d="M23.2,93.7c-0.4,0-0.7-0.1-1-0.4c-0.3-0.3-0.4-0.6-0.4-1v-4.1c0-0.4,0.1-0.7,0.4-1c0.3-0.3,0.6-0.4,1-0.4h1
	c0.7,0,1.3,0.5,1.3,1.2c0,0.1,0,0.1,0,0.2v4.1c0,0.7-0.5,1.3-1.2,1.3c-0.1,0-0.1,0-0.2,0L23.2,93.7z M23.9,92.5
	c0.3,0,0.4-0.1,0.4-0.4v-3.4c0-0.3-0.1-0.4-0.4-0.4h-0.3c-0.3,0-0.4,0.1-0.4,0.4v3.4c0,0.3,0.1,0.4,0.4,0.4H23.9z"/>
<path class="st24" d="M27.2,93.6v-1.2l1.9-2.6c0.1-0.1,0.2-0.3,0.2-0.5v-0.6c0-0.3-0.1-0.4-0.4-0.4h-1.3L27.3,88V87h1.9
	c0.7,0,1.3,0.5,1.3,1.2c0,0.1,0,0.1,0,0.2v0.9c0,0.2,0,0.5-0.1,0.7c-0.1,0.2-0.2,0.4-0.4,0.6l-1.3,1.7v0.1h1.8v1.3L27.2,93.6z"/>
<path class="st24" d="M32.5,93.6v-1.3h1.7c0.3,0,0.4-0.1,0.4-0.4v-0.8c0-0.3-0.1-0.4-0.4-0.4h-1.6V87h3.1V88l-0.3,0.3h-1.5v1.2h0.6
	c0.7,0,1.3,0.5,1.3,1.2c0,0.1,0,0.1,0,0.2v1.4c0,0.7-0.5,1.3-1.2,1.3c-0.1,0-0.1,0-0.2,0H32.5z"/>
<polygon class="st24" points="38.3,94.1 37.2,94.1 37.2,93.5 39.8,86.6 40.9,86.6 40.9,87.2 "/>
<path class="st24" d="M42.2,93.6v-1.2l1.9-2.6c0.1-0.1,0.2-0.3,0.2-0.5v-0.6c0-0.3-0.1-0.4-0.4-0.4h-1.3L42.3,88V87h1.9
	c0.7,0,1.3,0.5,1.3,1.2c0,0.1,0,0.1,0,0.2v0.9c0,0.2,0,0.5-0.1,0.7c-0.1,0.2-0.2,0.4-0.4,0.6l-1.3,1.7v0.1h1.8v1.3L42.2,93.6z"/>
<path class="st24" d="M48.8,93.7c-0.4,0-0.7-0.1-1-0.4c-0.3-0.3-0.4-0.6-0.4-1v-4.1c0-0.4,0.1-0.7,0.4-1c0.3-0.3,0.6-0.4,1-0.4h1
	c0.7,0,1.3,0.5,1.3,1.2c0,0.1,0,0.1,0,0.2v4.1c0,0.7-0.5,1.3-1.2,1.3c-0.1,0-0.1,0-0.2,0L48.8,93.7z M49.5,92.5
	c0.3,0,0.4-0.1,0.4-0.4v-3.4c0-0.3-0.1-0.4-0.4-0.4h-0.3c-0.3,0-0.4,0.1-0.4,0.4v3.4c0,0.3,0.1,0.4,0.4,0.4H49.5z"/>
<path class="st24" d="M52.8,93.6v-1.2l1.9-2.6c0.1-0.1,0.2-0.3,0.2-0.5v-0.6c0-0.3-0.1-0.4-0.4-0.4h-1.3L52.9,88V87h1.9
	c0.7,0,1.3,0.5,1.3,1.2c0,0.1,0,0.1,0,0.2v0.9c0,0.2,0,0.5-0.1,0.7c-0.1,0.2-0.2,0.4-0.4,0.6l-1.3,1.7v0.1h1.8v1.3L52.8,93.6z"/>
<path class="st24" d="M59.2,93.7c-0.4,0-0.7-0.1-1-0.4c-0.3-0.3-0.4-0.6-0.4-1V91c0-0.2,0-0.5,0.1-0.7c0.1-0.3,0.2-0.5,0.3-0.7
	l1.4-2.5h1.1v0.6l-1.1,1.9v0h0.6c0.7,0,1.3,0.5,1.3,1.2c0,0.1,0,0.1,0,0.2v1.4c0,0.4-0.1,0.7-0.4,1c-0.3,0.3-0.6,0.4-1,0.4H59.2z
	 M59.8,92.5c0.3,0,0.4-0.1,0.4-0.4v-0.9c0-0.3-0.1-0.4-0.4-0.4h-0.3c-0.3,0-0.4,0.1-0.4,0.4v0.9c0,0.3,0.1,0.4,0.4,0.4H59.8z"/>
<polygon class="st24" points="55.3,5.3 54.9,7.1 57.1,7.1 55.7,13.4 57.8,13.4 59.3,7.1 61.5,7.1 61.9,5.3 "/>
<path class="st24" d="M48,7.8L47.3,11c-0.1,0.3-0.1,0.5-0.1,0.8c0,1,0.6,1.7,2.3,1.7h3.5l0.4-1.8h-3.5c-0.3,0-0.5-0.2-0.5-0.4
	c0-0.1,0-0.1,0-0.2l0.2-0.8H53l0.4-1.7H50l0.2-0.7c0.1-0.4,0.2-0.6,0.7-0.6h3.2l0.4-1.8h-3.2C49.3,5.3,48.4,6,48,7.8"/>
<path class="st24" d="M19.6,7.8c0.1-0.4,0.2-0.6,0.7-0.6h2.9l0.4-1.8h-2.9c-2,0-2.9,0.7-3.3,2.5l-1.3,5.7h2.1l0.6-2.8h3.2l0.4-1.8
	h-3.2L19.6,7.8z"/>
<path class="st24" d="M28.1,5.1c-2.9,0-3.8,1-4.6,4.2c-0.2,0.7-0.3,1.3-0.3,2c0,1.7,1.2,2.2,2.9,2.2c2.9,0,3.8-1,4.6-4.2
	C30.9,8.7,31,8,31,7.3C31,5.7,29.8,5.1,28.1,5.1 M28.6,9.4c-0.5,2-0.8,2.4-2,2.4c-0.9,0-1.2-0.2-1.2-0.8c0-0.5,0.1-1,0.3-1.6
	c0.5-2,0.8-2.4,2-2.4c0.9,0,1.2,0.2,1.2,0.8C28.8,8.3,28.7,8.8,28.6,9.4"/>
<path class="st24" d="M44.8,5.3H41l-1.9,8.1l3.8,0c1.9,0,3-0.3,3.4-2.1c0-0.2,0.1-0.4,0.1-0.6c0-0.7-0.5-1.3-1.2-1.4l0-0.1
	C46.1,9,46.8,8.3,47,7.4C47,7.2,47,7,47,6.9C47.1,5.7,46.3,5.3,44.8,5.3 M44.3,11c-0.1,0.4-0.4,0.6-1,0.6h-1.5l0.3-1.5h1.5
	c0.5,0,0.8,0.1,0.8,0.5C44.3,10.7,44.3,10.9,44.3,11 M44.7,7.9c-0.1,0.4-0.3,0.6-0.9,0.6h-1.4l0.3-1.4h1.4c0.5,0,0.7,0.1,0.7,0.4
	C44.8,7.6,44.8,7.8,44.7,7.9"/>
<path class="st24" d="M37.6,5.3l-0.2,0.9c-0.3,1.3-0.6,2.7-0.7,4h-0.1l-1.7-5h-2.3l-1.9,8.1h2.1l0.2-0.9c0.3-1.3,0.6-2.7,0.7-4h0.1
	l1.7,5h2.3l1.9-8.1L37.6,5.3z"/>
</svg>
