<svg width="134" height="164" viewBox="0 0 134 164" fill="none" xmlns="http://www.w3.org/2000/svg">
<path fill-rule="evenodd" clip-rule="evenodd" d="M125 94V110.04L66.8449 154L18 117.054L31.709 114.091L66.8449 140.679L113.936 105.092V96.3924L125 94Z" fill="#E9E9E9"/>
<path fill-rule="evenodd" clip-rule="evenodd" d="M8 61.3271L33.1836 56L41.5508 63.1388V73.5497L39.1445 77.7951L43 81.9054V93.1815L38.2148 101.618L8 108V61.3271ZM16.7773 97.8596L32.1992 94.5876L34.1953 91.0723V84.8528L31.7891 82.2839L16.7773 85.4477V97.8596ZM30.5586 64.8424L16.7773 67.7629V77.1461L31.2422 74.0905L32.7734 71.4405V66.7353L30.5586 64.8424Z" fill="#E9E9E9"/>
<path fill-rule="evenodd" clip-rule="evenodd" d="M87 45L71.9332 71.6545L86.4851 91.4373L77.4071 93.3699L67.3807 79.7072L57.2188 97.6379L46 100L61.7713 72.1108L47.924 53.2943L56.9749 51.3616L66.3239 64.0581L75.7812 47.389L87 45Z" fill="#E9E9E9"/>
<path fill-rule="evenodd" clip-rule="evenodd" d="M125 8V25.903L113.963 28.301V18.4094H20.0374V48.6293L9 51V8H125Z" fill="#E9E9E9"/>
<path fill-rule="evenodd" clip-rule="evenodd" d="M125 37V83.3241L116.265 85.1759V47.0915L106.907 49.0775L101.536 80.3181L98.2808 86.0616L92.7471 91L88 84.5318L91.2551 81.2038L93.2353 77.7147L99.3116 42.3946L125 37Z" fill="#E9E9E9"/>
<path fill-rule="evenodd" clip-rule="evenodd" d="M125.312 25.9061V8.15813H8.68794V50.7857L19.7847 48.4355V18.4774H114.215V28.2833L125.312 25.9061ZM125.312 109.865V93.9265L114.215 96.3037V104.948L66.9865 140.309L31.7475 113.89L17.9984 116.834L66.9865 153.546L125.312 109.865ZM134 0V113.782L66.9865 164L0 113.782V0H134ZM88.3951 84.4447L93.1315 90.955L98.6528 85.9845L101.901 80.2036L107.26 48.7597L116.597 46.7607V85.0931L125.312 83.2291V36.6035L99.6813 42.0333L93.6187 77.5833L91.6429 81.095L88.3951 84.4447ZM86.5546 91.4953L72.0206 71.5862L87.0689 44.7617L75.8639 47.1659L66.4181 63.9414L57.0806 51.1639L48.0408 53.1089L61.8711 72.0455L46.1192 100.113L57.3242 97.7355L67.4736 79.6903L77.4878 93.4403L86.5546 91.4953ZM43.3585 93.3052V82.0405L39.5423 77.9344L41.9241 73.6933V63.293L33.6421 56.1614L8.71501 61.4831V108.109L38.6221 101.733L43.3585 93.3052Z" fill="#1A1B1D"/>
<path fill-rule="evenodd" clip-rule="evenodd" d="M34 84.6389V91.0278L32.0518 94.6389L17 98V85.25L31.6515 82L34 84.6389Z" fill="#1A1B1D"/>
<path fill-rule="evenodd" clip-rule="evenodd" d="M33 66.8462V71.4352L31.4684 74.0198L17 77V67.8484L30.7846 65L33 66.8462Z" fill="#1A1B1D"/>
</svg>
