<?xml version="1.0" encoding="utf-8"?>
<!-- Generator: Adobe Illustrator 26.3.1, SVG Export Plug-In . SVG Version: 6.00 Build 0)  -->
<svg version="1.1" id="Layer_1" xmlns="http://www.w3.org/2000/svg" xmlns:xlink="http://www.w3.org/1999/xlink" x="0px" y="0px"
	 viewBox="0 0 3600 3600" style="enable-background:new 0 0 3600 3600;" xml:space="preserve">
<style type="text/css">
	.st0{fill:#B3B3B3;}
</style>
<path class="st0" d="M3361.97,3289.08c-49.21-91.94-156.87-166.28-277.42-235.7c-60.27-34.71-127.95-62.92-195.8-89.28
	c-181.22-58.97-367.72-149.04-527.59-277.72c-119.9-115.81-179.24-268.85-165.42-416.47c1.53-16.4,3.97-32.74,7.33-48.95
	c5.51-84.89,41.75-155.62,87.58-221.43c3.49,2.29,7.79,3.21,12.5,1.29c6.8-2.77,11.13-10.1,16.59-14.22
	c4.95-3.73,10.47-7.04,15.65-10.67c4.53-3.17,9.34-7.86,13.33-11.73c3.75-3.63,101.73-197.57,106.69-208.85
	c2.06-4.68,2.63-8.89,3.79-13.37c4.27-8.03,8.6-16.07,13.24-24.05c3.07-5.28,6.89-10.36,9.16-16.22c2.98-7.67,6.87-14.69,6.99-23.34
	c0.12-8.97-0.05-17.96-0.05-26.92c0-8.07,1.62-17.52-1.57-25.15c-2.94-7.04-11.2-15.16-18.43-18.21c-3.88-1.64-6.44-1.35-10.59-1.51
	c-4.23-0.16-7.08-1.88-11.22-2.62c-0.13-0.58-0.25-1.15-4.82,2.56c-0.09,0.6-0.4,1.21-0.54,1.82c-1.7-7.57-5.83-11.72-6.08-20.67
	c-0.21-7.55,0.04-15.15,0.08-22.71c0.04-8.44,2.48-14.82,4.7-23.04c1.96-7.25-0.17-15.07,1.7-22.06
	c106.82-302.14-27.31-544.92-253.78-725.07c-53.29-51.47-133.22-38.6-187.05-98.02c-30.89-16.6-63.33-29.35-96.67-38.61
	c-200.03-55.59-432.34,14.38-582.21,149.5c-199.83,154.41-279.76,437.51-229.62,698.01c0.78,7.01-0.5,12.77,2.33,19.61
	c1.25,3.04,3.43,6.18,4.24,9.09c1.67,5.95,0.56,11.34,3.98,17.3c1.93,3.37,4.48,5.5,5.6,9.08c1.33,4.26,1.24,7.25,3.58,11.14
	c2.74,4.57,7.87,8.99,9.49,14.48c1.73,5.88,0.58,12.78,0.58,18.84c0.01,8.4,2.46,21.37-0.58,29.23
	c-4.52,11.68-19.58,18.02-22.51,30.59c-2.07,8.87-0.23,20.04-0.23,29.2c0,9.7-1.37,20.49-0.16,30.12c0.85,6.75,3.7,11.97,7.4,17.53
	c6.7,10.07,11.59,20.24,16.88,30.96c5.21,10.55,8.97,21.24,13.42,32.28c2.24,5.56,1.34,10.19,2.91,15.91
	c1.58,5.76,3.69,5.67,6.28,9.82c2.8,4.49,3.65,6.91,5.72,11.99c1.91,4.68,2.61,9.26,4.01,13.68c1.41,4.46,5.77,8.27,7.82,12.88
	c2.48,5.55,1.98,9.25,2.25,15.27c0.34,7.61,3.7,11.35,6.84,18.16c3.25,7.05,2.32,14.62,5.65,21.47c0.6,1.24,3.13,2.46,3.6,3.61
	c1.06,2.55-0.14,4.86,0.81,7.31c2.01,5.2,7.26,9.21,9.87,14.5c2.58,5.23,5.41,9.06,9.04,13.6c7.81,9.75,14.15,19.52,22.47,28.86
	c4.83,5.42,7.89,14.01,12.49,18.9c3.91,4.15,11.29,7.94,16.2,10.99c5.29,3.28,13.8,6.3,17.78,11.43c4.85,6.26,8.62,18.7,11.94,26.32
	c53.26,111.88,146.52,227.69,133.2,369.24c-39.97,295.96-373.02,411.77-645.71,469.6c-33.63,13.42-66.11,28.35-97.41,44.72
	c-156.5,81.87-283.52,199.88-377.38,345.74C273.35,3322.42,674.49,3600,1809.25,3600S3373.79,3311.16,3361.97,3289.08z"/>
</svg>
