<?xml version="1.0" encoding="utf-8"?>
<!-- Generator: Adobe Illustrator 24.0.1, SVG Export Plug-In . SVG Version: 6.00 Build 0)  -->
<svg version="1.1" id="Layer_1" xmlns="http://www.w3.org/2000/svg" xmlns:xlink="http://www.w3.org/1999/xlink" x="0px" y="0px"
	 viewBox="0 0 300 319.9" style="enable-background:new 0 0 300 319.9;" xml:space="preserve">
<style type="text/css">
	.st0{fill:#2F3E4C;}
</style>
<path class="st0" d="M75.9,261l0.2,0.2c-0.5,2-1.3,3.9-1.8,5.9c-1.2,4.3-2.2,8.6-3.2,12.9c-1.7-1.3-3.3-2.6-5-4
	c-1.4-1.2-2.8-2.4-4.1-3.7C66.6,269,71.3,264.7,75.9,261z"/>
<path class="st0" d="M94.2,240.2c0.1,0.4,0.2,0.8,0.3,1.2c0.8,3.7,2.8,7.5,5.7,9.9c4.2,3.5,9.6,4,14.8,3.6c-1.5,1.9-3.1,3.7-4.7,5.5
	c-0.3,0.2-0.5,0.4-0.8,0.5c-2.8,0.9-8-0.3-10.5-1.7c-5.5-3-7.2-7.7-8.9-13.4C91.2,243.9,92.8,242.1,94.2,240.2z"/>
<path class="st0" d="M116.8,175c0,0.2,0,0.1,0,0.4c-0.1,1-0.1,1.8,0.1,2.8c0.6,3,1.7,5.1,4.3,6.8c0,5.9-0.8,12.1,0.8,17.9
	c-4.4,3.8-9.1,7.2-13.6,10.9l-3.1,2.7c0.2-2.6,0.8-5.1,1.3-7.7c1.8-8.9,4.4-17.4,7.2-26C114.8,180.3,115.5,177.3,116.8,175z"/>
<path class="st0" d="M177.1,0.2c5.3-0.6,11,0,15.3,3.2c3.6,2.7,5.2,6.4,5.9,10.7c0.9,0,1.7,0,2.5,0.4c0.4,0.5,0.6,1.1,0.7,1.7
	c0.4,1.6,1,5.5-0.1,6.9c-2.5,3.5-13.8,5.2-17.8,5.4c-8.6,0.2-18.6-0.6-25.5-6.3c0.3-2.2-0.2-6.1,1.4-7.8c0.7-0.7,1.6-0.6,2.5-0.7
	c0.5-2.7,1.4-5.2,3.2-7.5C168.2,2.6,172.4,0.8,177.1,0.2z"/>
<path class="st0" d="M87.5,251c0.8,0.8,1.3,3.1,1.8,4.2c1.1,2.3,2.6,4.5,4.5,6.1c3.2,2.7,8.1,4.6,12.4,4.2c-1.4,1.6-2.9,3.2-4.3,4.8
	c-3.3,3.7-6.5,7.6-9.7,11.4c-3.3,3.9-6.7,7.7-9.8,11.7c0.3,0.7,0.6,1.4,0.8,2.1c1.1,3.8-1.8,7.6-3.6,10.7c-3,5.3-3.9,6.6-9.9,8.3
	c-2.5,0.8-5.1,1.5-7.7,2.3c-2.7,0.9-5.4,1.9-8.1,2.9c1.7-1.1,4-2.3,5.2-4c2.7-3.8-1.7-10.6,2.9-15.9c1.8-2.1,9.3-9.6,11.5-10.6
	c0.8-0.4,1.7-0.4,2.6-0.5c2.3-8.2,4.7-16.3,7.3-24.4C84.7,259.8,85.9,255.3,87.5,251z"/>
<path class="st0" d="M123,205.4c1,1.2,1.9,3.2,2.5,4.6c-2.9,3.2-6.5,5.7-9.8,8.4l-19.2,15.9c-13,10.9-26,21.7-39.2,32.4
	c-3.7,3.1-7.5,6.1-11.3,9.1c-2.2,1.8-4.4,3.8-6.9,5.2c-4.5,2.7-10.6,2.6-15.6,1.3c-8-2.1-18-8.8-22.2-16.1c-0.9-1.9-1.6-3.9-1.3-6.1
	c0.3-2.6,1.8-5,3.8-6.6c2-1.5,4.8-2.5,7.3-1.6c2.8,1,6,4.8,8.2,6.8c4,3.6,12.7,9.8,18.1,10.4c2.5,0.3,5.4,0,7.7-1.2
	c2.3-1.2,4.5-3.3,6.6-4.9l10.9-8.6C83,238.4,102.7,221.6,123,205.4z"/>
<path class="st0" d="M235.7,233.5c1.5,4.7,2.5,9.6,3.4,14.4c0.9,2.2,1.2,5.3,1.6,7.6c0.7,4.1,1.4,8.3,2,12.4
	c0.8,5.8,1.4,14.4,4,19.5c2,3.9,5.2,7.3,9.5,8.4c2.3,0.6,4.7,0.9,7,1.7c2.9,1,5.2,2.9,6.6,5.7c1.6,3.3,1.2,6.7-0.1,10.1
	c4.1,2.3,8.4,4.3,12.5,6.6c-2.6-0.7-5.3-1.1-7.9-1.8c-11.9-2.9-23.7-5.7-35.6-8.7c0-3.3-0.7-10.4,1-13c0.4-0.6,0.7-0.7,1.4-0.9
	c0.1,0,0.2,0,0.3-0.1c0-1.1-5.4-8.1-6.3-9.5c-6.5-9.6-12.7-19.5-18.4-29.6c1,0,2,0.1,3,0c6.2-0.1,14.5-2.1,19-6.7l-0.7-3.1l-0.5-2.1
	c-4.8,4.5-12.1,6.7-18.6,6.5c-1.6,0-3.3-0.2-4.8-0.7c-1.1-2.1-2.1-4.3-3-6.5c7.1,1.9,15.2,0.1,21.5-3.5c1.3-0.7,2.4-1.6,3.5-2.6
	C235.8,236.4,235.7,234.9,235.7,233.5z"/>
<path class="st0" d="M216.8,270.4c0.1,0.1,4.5,8.3,5.3,9.6c2.9,4.5,6.3,8.7,9.8,12.7c-5.2,2.8-10.4,5.5-15.9,7.9
	c-0.9,0.4-1.8,0.8-2.7,1.1c-0.9,0.4-1.8,0.7-2.8,1.1c-0.9,0.3-1.8,0.7-2.8,1c-0.9,0.3-1.9,0.6-2.8,1c-0.9,0.3-1.9,0.6-2.8,0.9
	c-0.9,0.3-1.9,0.6-2.8,0.8c-0.9,0.3-1.9,0.5-2.9,0.8c-1,0.2-1.9,0.5-2.9,0.7c-1,0.2-1.9,0.5-2.9,0.7c-1,0.2-1.9,0.4-2.9,0.6
	c-1,0.2-1.9,0.4-2.9,0.5c-1,0.2-1.9,0.3-2.9,0.5c-1,0.1-1.9,0.3-2.9,0.4c-1,0.1-2,0.2-2.9,0.4c-1,0.1-2,0.2-2.9,0.3
	c-1,0.1-2,0.2-2.9,0.2c-1,0.1-2,0.1-3,0.2c-1,0-2,0.1-3,0.1c-1,0-2,0-3,0.1c-1,0-2,0-3,0c-1,0-2,0-3-0.1c-1,0-2-0.1-3-0.1
	c-1-0.1-2-0.1-3-0.2c-1-0.1-2-0.2-2.9-0.3c-1-0.1-2-0.2-2.9-0.3c-1-0.1-2-0.2-2.9-0.4c-1-0.1-2-0.3-2.9-0.4c-1-0.2-1.9-0.3-2.9-0.5
	c-1-0.2-1.9-0.4-2.9-0.6c-1-0.2-1.9-0.4-2.9-0.6c-1-0.2-1.9-0.4-2.9-0.7c-1-0.2-1.9-0.5-2.9-0.7c-5.8-1.5-11.4-3.6-17-5.8
	c-5.2-2.1-10.2-4.5-15.1-7.3c6.3-6.9,12.7-13.7,19.1-20.4c7.7,3.4,15.6,6.4,23.9,8.2c0.7,0.2,1.4,0.3,2.1,0.5
	c0.7,0.2,1.4,0.3,2.2,0.4c0.7,0.1,1.4,0.3,2.2,0.4c0.7,0.1,1.4,0.2,2.2,0.4c0.7,0.1,1.4,0.2,2.2,0.3c0.7,0.1,1.5,0.2,2.2,0.3
	c0.7,0.1,1.5,0.2,2.2,0.2c0.7,0.1,1.5,0.1,2.2,0.2c0.7,0.1,1.5,0.1,2.2,0.1c0.7,0,1.5,0.1,2.2,0.1c0.7,0,1.5,0.1,2.2,0.1
	c0.7,0,1.5,0,2.2,0c0.7,0,1.5,0,2.2,0c0.7,0,1.5,0,2.2-0.1c0.7,0,1.5-0.1,2.2-0.1c0.7,0,1.5-0.1,2.2-0.1c0.7-0.1,1.5-0.1,2.2-0.2
	c0.7-0.1,1.5-0.1,2.2-0.2c0.7-0.1,1.5-0.2,2.2-0.3c0.7-0.1,1.5-0.2,2.2-0.3c0.7-0.1,1.4-0.2,2.2-0.3s1.4-0.2,2.2-0.4
	c0.7-0.1,1.4-0.3,2.2-0.4c0.7-0.1,1.4-0.3,2.1-0.5c0.7-0.2,1.4-0.3,2.1-0.5c0.7-0.2,1.4-0.4,2.1-0.5s1.4-0.4,2.1-0.6
	c0.7-0.2,1.4-0.4,2.1-0.6c0.7-0.2,1.4-0.4,2.1-0.7c0.7-0.2,1.4-0.5,2.1-0.7c0.7-0.2,1.4-0.5,2.1-0.7s1.4-0.5,2.1-0.8
	C207.9,274.9,212.7,273.1,216.8,270.4z"/>
<path class="st0" d="M205.7,40.8c1.5,0.1,5.2,1.9,6.8,2.5c17.2,7.1,32.6,18,45.9,30.9c0.8,0.8,1.6,1.6,2.4,2.4
	c0.8,0.8,1.6,1.6,2.3,2.4c0.8,0.8,1.5,1.7,2.3,2.5c0.7,0.8,1.5,1.7,2.2,2.6c0.7,0.9,1.4,1.7,2.1,2.6c0.7,0.9,1.4,1.8,2.1,2.7
	c0.7,0.9,1.3,1.8,2,2.7c0.7,0.9,1.3,1.8,1.9,2.8c0.6,0.9,1.3,1.9,1.9,2.8c0.6,0.9,1.2,1.9,1.8,2.8s1.2,1.9,1.7,2.9
	c0.6,1,1.1,1.9,1.7,2.9c0.5,1,1.1,2,1.6,3s1,2,1.5,3c0.5,1,1,2,1.4,3c0.5,1,0.9,2,1.4,3.1c0.4,1,0.9,2.1,1.3,3.1
	c0.4,1,0.8,2.1,1.2,3.1c0.4,1.1,0.8,2.1,1.1,3.2c0.4,1.1,0.7,2.1,1.1,3.2c0.3,1.1,0.7,2.1,1,3.2c0.3,1.1,0.6,2.2,0.9,3.2
	c0.3,1.1,0.6,2.2,0.8,3.3c0.3,1.1,0.5,2.2,0.8,3.3c0.2,1.1,0.5,2.2,0.7,3.3c0.2,1.1,0.4,2.2,0.6,3.3c0.2,1.1,0.4,2.2,0.5,3.3
	c0.2,1.1,0.3,2.2,0.4,3.3c0.1,1.1,0.2,2.2,0.3,3.4c0.1,1.1,0.2,2.2,0.3,3.4c0.1,1.1,0.1,2.2,0.2,3.4c0,1.1,0.1,2.2,0.1,3.4
	c0.6,35.4-13.3,71.6-37.9,97.1c-3.5,3.8-7.2,7.3-11.2,10.5c0.1-11.2-1.8-22.5-4.4-33.4c11.1-14.4,18.3-27,22.9-44.8
	c5.8-22.4,4.1-47.9-4.7-69.3c-1.5-3.6-3-7.2-4.8-10.6c-1.3-2.4-3.2-4.9-4-7.5c-0.5-1.7-0.3-3.7-0.4-5.4c-0.1-1.6-0.4-3.1-0.6-4.7
	c-1.5-10.7-4.9-20.6-10.4-29.9c-9.6-16.3-21.8-24.6-39.9-29.2C204.9,42.5,205.2,41.6,205.7,40.8z"/>
<path class="st0" d="M151.5,32.8l0.5,0c0.2,0.3,0.2,0.4,0.3,0.8c0.3,4.1,1.4,7.5,2.8,11.4c-14.1,3.9-25.2,8.6-36.3,18.4
	c-1.5,1.3-3,2.8-4.3,4.4c-1,1.2-1.9,2.7-3.2,3.7c-1.8,1.4-4.2,2.4-6.1,3.5c-3.4,1.9-6.6,4-9.7,6.3c-25.7,19.1-42.7,44.8-47.4,76.8
	c-0.1,0.9-0.2,1.8-0.3,2.7c-0.1,0.9-0.2,1.8-0.3,2.7c-0.1,0.9-0.1,1.8-0.2,2.7c-0.1,0.9-0.1,1.8-0.1,2.7c0,0.9-0.1,1.8-0.1,2.7
	c0,0.9,0,1.8,0,2.7c0,0.9,0,1.8,0.1,2.7c0,0.9,0.1,1.8,0.1,2.7c0.1,0.9,0.1,1.8,0.2,2.7c0.1,0.9,0.2,1.8,0.3,2.7
	c0.1,0.9,0.2,1.8,0.3,2.7c0.1,0.9,0.2,1.8,0.4,2.7c0.1,0.9,0.3,1.8,0.5,2.6c0.2,0.9,0.3,1.8,0.5,2.6c0.2,0.9,0.4,1.7,0.6,2.6
	c0.2,0.9,0.4,1.7,0.7,2.6c0.2,0.9,0.5,1.7,0.7,2.6c0.2,0.9,0.5,1.7,0.8,2.6c0.3,0.9,0.5,1.7,0.8,2.5c0.3,0.8,0.6,1.7,0.9,2.5
	c0.3,0.8,0.6,1.7,1,2.5c0.3,0.8,0.7,1.7,1,2.5c0.4,0.8,0.7,1.6,1.1,2.5c0.4,0.8,0.8,1.6,1.1,2.4c0.4,0.8,0.8,1.6,1.2,2.4
	c0.4,0.8,0.8,1.6,1.3,2.4c0.4,0.8,0.9,1.6,1.3,2.3c0.5,0.8,0.9,1.5,1.4,2.3c0.5,0.8,0.9,1.5,1.4,2.3c0.5,0.7,1,1.5,1.5,2.2
	c0.5,0.7,1,1.5,1.5,2.2c0.5,0.7,1.1,1.4,1.6,2.2c-7,5.8-14.1,11.5-21.4,17.1l-1.4-1.7c-2.2-2.3-5.8-7.9-7.5-10.8
	c-0.7-1.1-1.4-2.2-2-3.4c-0.7-1.1-1.3-2.3-1.9-3.4c-0.6-1.2-1.2-2.3-1.8-3.5c-0.6-1.2-1.1-2.3-1.7-3.5c-0.5-1.2-1.1-2.4-1.6-3.6
	c-0.5-1.2-1-2.4-1.5-3.6c-0.5-1.2-0.9-2.4-1.4-3.7c-0.4-1.2-0.9-2.5-1.3-3.7c-0.4-1.2-0.8-2.5-1.2-3.7c-0.4-1.3-0.7-2.5-1-3.8
	c-0.3-1.3-0.6-2.5-0.9-3.8c-0.3-1.3-0.6-2.6-0.8-3.8c-0.3-1.3-0.5-2.6-0.7-3.9c-0.2-1.3-0.4-2.6-0.6-3.9c-0.2-1.3-0.3-2.6-0.5-3.9
	c-0.1-1.3-0.3-2.6-0.4-3.9c-0.1-1.1-0.2-2.2-0.3-3.4c-0.1-1.1-0.1-2.2-0.2-3.4c0-1.1-0.1-2.3-0.1-3.4c0-1.1,0-2.3,0-3.4
	c0-1.1,0-2.3,0.1-3.4c0-1.1,0.1-2.2,0.2-3.4c0.1-1.1,0.1-2.2,0.2-3.4c0.1-1.1,0.2-2.2,0.3-3.4c0.1-1.1,0.3-2.2,0.4-3.4
	c0.2-1.1,0.3-2.2,0.5-3.3c0.2-1.1,0.4-2.2,0.6-3.3c0.2-1.1,0.4-2.2,0.7-3.3c0.2-1.1,0.5-2.2,0.7-3.3c0.3-1.1,0.5-2.2,0.8-3.3
	c0.3-1.1,0.6-2.2,0.9-3.3c0.3-1.1,0.6-2.2,1-3.2c0.3-1.1,0.7-2.1,1.1-3.2c0.4-1.1,0.8-2.1,1.1-3.2c0.4-1.1,0.8-2.1,1.2-3.1
	c0.4-1,0.9-2.1,1.3-3.1c0.4-1,0.9-2.1,1.4-3.1c0.5-1,1-2,1.5-3c0.5-1,1-2,1.5-3c0.5-1,1.1-2,1.6-3c0.5-1,1.1-2,1.7-2.9
	c0.6-1,1.2-1.9,1.8-2.9c0.6-1,1.2-1.9,1.8-2.8c0.6-0.9,1.2-1.9,1.9-2.8c0.6-0.9,1.3-1.8,2-2.8c0.7-0.9,1.3-1.8,2-2.7
	c0.7-0.9,1.4-1.8,2.1-2.6c0.7-0.9,1.4-1.7,2.2-2.6c0.8-0.9,1.6-1.8,2.4-2.7c0.8-0.9,1.6-1.8,2.4-2.6c0.8-0.9,1.7-1.7,2.5-2.6
	c0.8-0.9,1.7-1.7,2.6-2.5c0.9-0.8,1.7-1.7,2.6-2.5c0.9-0.8,1.8-1.6,2.7-2.4c0.9-0.8,1.8-1.6,2.7-2.3c0.9-0.8,1.9-1.5,2.8-2.3
	c0.9-0.7,1.9-1.5,2.8-2.2c1-0.7,1.9-1.4,2.9-2.1c1-0.7,2-1.4,2.9-2.1c1-0.7,2-1.3,3-2c1-0.6,2-1.3,3-1.9c1-0.6,2.1-1.2,3.1-1.8
	c1-0.6,2.1-1.2,3.1-1.8c1.1-0.6,2.1-1.1,3.2-1.7c1.1-0.5,2.1-1.1,3.2-1.6c1.1-0.5,2.2-1,3.3-1.5c1.1-0.5,2.2-1,3.3-1.4
	c1.1-0.5,2.2-0.9,3.3-1.4c1.1-0.4,2.2-0.9,3.4-1.3c1.1-0.4,2.3-0.8,3.4-1.2c1.1-0.4,2.3-0.8,3.4-1.1c1.1-0.4,2.3-0.7,3.4-1
	c1.2-0.3,2.3-0.6,3.5-1c1.2-0.3,2.3-0.6,3.5-0.9c1.2-0.3,2.3-0.5,3.5-0.8c1.2-0.2,2.3-0.5,3.5-0.7c1.2-0.2,2.4-0.4,3.5-0.6
	c1.2-0.2,2.4-0.4,3.6-0.5c1.2-0.2,2.4-0.3,3.6-0.4C149.1,33.1,150.3,32.9,151.5,32.8z"/>
<path class="st0" d="M201.4,115.8c0.6-0.8,1.2-1.5,1.8-2.3c0.6-0.8,1.1-1.6,1.7-2.4c0.5-0.8,1.1-1.6,1.6-2.4c0.5-0.8,1-1.7,1.5-2.5
	c0.5-0.9,0.9-1.7,1.4-2.6c0.4-0.9,0.8-1.8,1.2-2.6c0.4-0.9,0.8-1.8,1.1-2.7c0.4-0.9,0.7-1.8,1-2.7c4,2.3,8.7,6,11,10
	c4.6-1.4,8.9-1.6,13.2,0.7c4.8,2.6,7.2,6.2,9,11.2c2.6-15.1-2.6-31.6-11.3-43.9c-8.8-12.5-20.6-19.6-35.6-22.1
	c-1.5-0.3-3-0.4-4.6-0.5c0.3-3.9,1.7-4.7,3.3-7.8c2.6-5,2.8-10.7,2.4-16.2c1.1-0.7,3-1.5,3.4-2.8c0.1-0.3,0-0.4-0.1-0.7l-0.5-0.5
	c-1,0.2-2.1,1.6-3,2.1c-1.3,0.8-2.7,1.4-4.1,1.9c-10,3.6-22.2,3.5-32-0.7c-1.2-0.5-2.6-1.1-3.8-1.8c-1-0.6-1.6-1.6-2.5-2.2
	c-0.2,0.7-0.4,1.6-0.1,2.2c0.6,1.3,2,1.7,3.2,2.1c0,6.4-0.1,12.2,3.2,17.9c1.3,2.3,2.7,4.1,3.5,6.7c-3.4,0.5-6.7,1-10,1.9
	c-14.5,3.8-30.8,12.3-39.8,24.6c-4.7,6.4-6.6,13.7-8.6,21.2c-0.8,2.9-1.7,5.7-2.4,8.6c3.7,6.4,8.7,13.5,14.7,17.9
	c1.5,1.1,3,1.9,4.6,2.7c-7.3-1.8-16.9-8.1-21-14.5c-0.2,2.2-0.4,4.5-0.5,6.7c4.8,5.8,9.2,10.3,16.1,13.7c1.8,0.9,3.8,1.5,5.6,2.4
	c-8.2-0.4-15.9-3.7-22.2-8.9c0.2,2.5,0.4,5,0.7,7.4c5.5,4.1,11.4,6.3,17.9,8c1.8,0.5,3.8,0.8,5.6,1.4c-8,0.6-16.7-2-23.7-5.8
	c0.3,2.6,1.4,5.3,2.3,7.7c1.6,4.4,3.3,8.8,5.3,13c2.1,4.4,4.6,8.6,6.4,13.1c3.5-2.7,7.4-4.5,12-4c0.9,0.1,1.8,0.4,2.6,0.8l0,0.3
	c-1.4,0.4-3,0.2-4.4,0.4c-3,0.3-7.4,1.6-8.9,4.5c-0.8,1.6-0.8,3.6-0.2,5.2c0.5,1.4,1.4,2.5,2.4,3.5l2,0.3
	c-0.6,5.6-0.9,12.2,0.2,17.8c0.5,2.3,1.3,4.5,1.9,6.8c0.7,3.1,0.6,4.9,2.7,7.5c0.1,0.1,0.2,0.3,0.4,0.4c-0.4,0.3-0.6,0.5-1.1,0.5
	c-1.2-0.1-2.3-2-3.5-1.2c-2.3,1.6-5,4.2-7.2,6.1c-6.6,5.4-13.2,10.8-19.4,16.7c0.7,4.1,2.4,7.8,5.8,10.3c3.6,2.6,7.8,3.1,12.1,2.3
	c1.1-0.2,2.2-0.4,3.2-1c2.4-1.4,5-6.1,7.3-8.3c2-0.5,4-1,5.8-1.8c6.2-2.7,10.4-8.6,13.7-14.2c2.4-4.1,4.5-8.5,6.7-12.7
	c1.6-3.1,3.3-6.2,4.9-9.4c2-3.9,3.8-7.9,6.1-11.6c9.1,13.4,23.7,33.7,40.5,36.9c0.8,0.1,1.6,0.2,2.3,0.3c1.1,3.3,2.1,6.6,3.3,9.8
	c7,1.8,14.6,1.4,21-2.4c1.9-1.1,3.4-2.5,5-3.9c-1.4-5-3.5-10-6.2-14.4c2.4-6.2,0.5-12.2-2.1-18c-1.1-2.5-2.4-5.2-3.9-7.5
	c-6-9.8-12.1-18-19.6-26.7c-1.9-2.2-3.8-4.8-6.2-6.4c1.1-0.9,7.2-6.2,7.9-6.2l0.3,0.9c0.6-3.3,0.2-7.2,1.7-10.3l0.3-0.2
	c1.3,1.7-1.1,10.9,0.1,13.6c0.3,0.6,0.9,0.9,1.5,1c0.7,0.1,1.3,0,1.9-0.2c2-0.7,3.8-1.8,5.7-2.6c3.7-1.7,11.6-4.8,14.6-7
	c1.1-0.8,1.4-2.5,1.5-3.7c0.4-3.7,0.5-7.6,0.7-11.3c1.5-1.1,3-2.5,4.6-3.5c1-0.6,2.2-0.7,3.3-1.2c1.2-0.6,2.6-5.1,2.9-6.6
	c0.5-3.1-1-6.6-2.8-9.1c-2.1-2.8-5.5-5.5-9-6c-2.3-0.3-7.4-0.7-9.2,0.9c-0.3,0.3-0.5,0.7-0.5,1.2c0,0.4,0.2,0.7,0.4,1
	c1.2-0.1,2.4-0.3,3.5-0.3c3.5,0,7.2,1.7,9.8,3.9c3,2.6,5.6,6.6,5.9,10.7c0,0.8,0,1.6,0,2.4c-1.2-5.2-3.4-9.8-8.1-12.7
	c-0.2-0.1-0.4-0.3-0.7-0.4c-0.2-0.1-0.5-0.2-0.7-0.4c-0.2-0.1-0.5-0.2-0.7-0.3c-0.2-0.1-0.5-0.2-0.7-0.3c-0.2-0.1-0.5-0.2-0.7-0.2
	c-0.2-0.1-0.5-0.1-0.7-0.2c-0.2-0.1-0.5-0.1-0.7-0.2c-0.3-0.1-0.5-0.1-0.8-0.1c-0.3,0-0.5-0.1-0.8-0.1c-0.3,0-0.5,0-0.8-0.1
	c-0.3,0-0.5,0-0.8,0c-0.3,0-0.5,0-0.8,0c-0.3,0-0.5,0-0.8,0.1c-0.3,0-0.5,0.1-0.8,0.1c-0.3,0-0.5,0.1-0.8,0.1
	c-0.3,0-0.5,0.1-0.7,0.2c-0.1,0-0.1,0-0.2,0c-1.7,4.1-3.4,8.2-4.9,12.4c-1.6-0.1-3.7-0.5-5,0.5c-0.9,0.6-8.3,10.1-8.9,11.3
	c-0.4,0.8-0.4,1.8-0.5,2.6c-0.2,2.3-0.2,4.6,0.1,6.8c0.4,0.5,0.9,1,1.3,1.4c-4.4,3.9-9.1,7.3-13.7,11.1l-43.4,35.4
	c-0.1-1.1-0.3-2.1-0.6-3.2c0,0,0-0.1,0-0.1c11.4-10.3,23.9-19.6,35.7-29.3c3.3-2.7,7-5.3,10.1-8.2c-3.2-8.6-2.4-18.1,1.4-26.4
	C195.7,121.8,198.4,119.4,201.4,115.8z M140.9,100.2c-0.5,3.1-1.4,6.4-2.8,9.3c-3,6.2-5.5,8.1-6.8,15.7c-1.2,7.2,0.7,16,1.4,23.3
	c0.2,2.5,0.6,5.2,0.3,7.7c-0.2-0.6-0.2-1.2-0.3-1.8c-1.2-13.8-7.8-25.4-0.3-39c1.4-2.5,3.2-4.7,4.8-7.1c2.3-3.6,3.1-8.2,4.1-12.3
	C141.4,97.2,141.1,98.9,140.9,100.2z M164.3,37.7c-0.4-1.6-0.8-4.9,0.1-6.3c3.6-2,11.9,1.9,16.1,2.1c4,0.2,9.3-2.3,13.8-2.8
	c0.3,0,0.4,0,0.7,0.1c0.6,0.2,1,0.7,1.3,1.3c0.9,2.2-0.1,6.1-1,8.3c-1.3,3.1-3.4,6.3-6.5,7.6c-1.3-0.9-2.5-1.8-3.9-2.4
	c-3.1-1.4-7.3-1.1-10.2,0.8c-0.6,0.4-1.7,1.6-2.4,1.6c-1.4,0.1-2.5-1.2-3.4-2C166.7,43.6,165,40.8,164.3,37.7z M184.7,51.7
	c-0.6,1-2.2,1.1-3.3,1.3c-1.1,0-2,0-3-0.4c-0.8-0.3-1.3-0.7-1.7-1.5c0-0.5,0-0.7,0.4-1.1c0.7-0.8,2.3-0.9,3.3-1.1
	c0.7,0,1.4,0.1,2,0.2c0.8,0.2,2,0.6,2.3,1.4C185,50.9,184.9,51.3,184.7,51.7z M191.6,66.2c-0.4,0.6-0.8,1.2-1.3,1.7
	c-0.4,0.6-0.9,1.1-1.4,1.6c-0.5,0.5-1,1.1-1.4,1.6c-0.5,0.5-1,1-1.5,1.5c-0.5,0.5-1.1,1-1.6,1.4c-0.5,0.5-1.1,0.9-1.7,1.3
	c-0.6,0.4-1.2,0.8-1.7,1.2c-0.6,0.4-1.2,0.8-1.8,1.1c-6.2-4.7-11.8-10.9-14.7-18.2c1.2,0.7,2.8,3.2,3.8,4.3c1.1,1.1,2.2,2.2,3.4,3.2
	c2.4,2,6.5,5.3,9.8,4.9c4.1-0.5,9.5-6.3,11.9-9.4C193,63.9,192.4,65,191.6,66.2z"/>
</svg>
