<?xml version="1.0" encoding="utf-8"?>
<!-- Generator: Adobe Illustrator 24.0.1, SVG Export Plug-In . SVG Version: 6.00 Build 0)  -->
<svg version="1.1" id="Layer_1" xmlns="http://www.w3.org/2000/svg" xmlns:xlink="http://www.w3.org/1999/xlink" x="0px" y="0px"
	 viewBox="0 0 188.4 284.5" style="enable-background:new 0 0 188.4 284.5;" xml:space="preserve">
<style type="text/css">
	.st0{fill:#BF2727;}
	.st1{fill:#FEFEFE;}
</style>
<path class="st0" d="M64.6,42.8l0.9-0.1l0.1,0.4c-1.2,1.5-2.5,3.1-3.7,4.9s-2.6,5.6-4.1,6.5c-3.9,2.6-7.9,5.2-11.5,8.6
	c-1,0.9-2.1,1.7-2.8,2.9c0.8,0,2.8-1.9,3.6-2.4c3-2,5.9-3.9,9-5.6c-1.5,3-3.1,5.9-4.5,9.1c-4,10.1-6.9,21.7-10.1,32.5
	c-1.4,4.9-2.7,10.4-4.5,15c-0.5,1.2-1.2,2.5-2,3.2c-1.2,1-2.8,1.7-4.1,2.4l-8.9,4.5c-3.3,1.7-6.6,3.9-10.1,5.2
	c1.8-3.1,13.6-21.1,13.6-21.8l-0.6,0.5l-12.6,17.8l2.1-20.2l1.2-15.6c0.2-2.4,0.2-5.2,0.7-7.5c0.5-2.2,2.1-4.5,3.1-6.3
	c0.5,0.1,0.7,0.1,1.1,0.6l-1.1,7.2l4.7-4c0.5-0.4,1.3-1.4,1.9-1.6c0.4-0.2,1.4,0.3,1.9,0.4l6.5,2.1l-4-6.4l6.1-5.7
	c-1-0.1-2.1,0.3-3.1,0.4l-5.9,1l-2.4-3.5C36.3,52.6,49.5,45.4,64.6,42.8z"/>
<path class="st0" d="M157.1,17.8l3.4,0.4l-17.8,112.5c2,0.6,6.5,0.7,7.9,2.9c0.6,1,0.7,2,0.6,3.3s0.2,2.7-0.1,4
	c-0.3,1.4-1.5,2.2-2.1,3.3c-0.7,1.4-1.1,3.6-1.6,5.2c-2.5,0.9-5.2,2.4-7.9,2.4h-0.3l-12.3,87c1.5,2.1,3.3,5.1,5.2,6.5
	c2.3,1.6,5.2,1.9,7.6,2.3c7.3,1.1,14.9,1.1,22.3,1h5.7c0.4,0,1.3,0,1.7,0.2s1,0.8,1.3,1.2c1.5,1.8,5.8,6.6,5.8,9.4
	c0,0.8-0.3,1-0.8,1.6c-3.1,1.2-6.4,1.3-9.5,1.4l-15.1-0.2l-14.5-0.8c-1.5-0.2-3.6-0.2-4.9-1c-2-1.3-5.8-5.3-6.4-8.2l-0.1-0.3
	L125,252c-0.3,1.3-0.5,2.7-1,3.9l-5.9,0.8l2.4-10.5L108,229.1c-2.5-3.5-5-7.3-7.8-10.4l-0.6,1.7c-1.1,3.4-1.9,3.5-4.2,5
	c-0.7,1.2-1,2.9-1.2,4.4l-1.6,1c-0.5,0.3-1.1,0.6-1.6,1.1c-0.4,0.5-0.9,1.1-0.9,2l0.9,0.8c0.6,0.5,1,1,1.7,1.1
	c0.4,0.1,0.8,0.3,1.2,0.5c0.2,1.3,0.3,3.1,1,4.1c0.9,1.4,2.4,1.8,3.6,2.3c2.6,0.9,7.9,1.7,9.9,4.5c0.6,0.9,0.9,1.7,0.9,2.8
	c-0.1,5.1-4.6,2.4-6.5,4.7l0.3,0.6c2.6,1.7,6.5,0,9.3-0.6l0.2,0.5c-1.2,7.3-7.3,5.9-11.4,5.9c-0.2,0-1.3-0.1-1.4,0
	c-0.5,0.3-1.4,2.9-2.1,3.6c-1,1-2.2,1.5-3.3,1.7c-2.5,0.4-5.3-0.2-7.9-0.4l-16.8-2.5l-7.5-1.7c-1.5-0.3-3-0.6-4.2-1.7
	c-0.3-1.2-0.3-1.3-0.1-2.5c1.7-2.6,5.6,1.2,7.6-0.6c-0.1-0.3,0-0.7-0.2-0.9c-0.9-1-2.6-0.7-3.8-1.9c-2.9-3.2,2.4-8.9,2.7-12
	c0.1-0.8-0.8-3.8-0.9-4.9c0.3-0.9,0.5-1.8,0.4-2.7c-0.1-0.7-0.7-1.5-0.6-2.3c0.1-1.1,0.5-2.1,0.6-3.3c0-0.7,0-2.7,0.2-3.3
	c0.2-0.5,1.1-1.7,1.5-2.1l-0.6-2.6c0.5-1.1,1.3-2.5,1.5-3.8c0.3-1.5,0.1-3.3,0.5-4.7c0.7-2.1,2.9-3.1,4.3-3.8
	c0.2-0.1,1.1-0.4,1.2-0.5c0.5-0.8,0.3-3,0.7-3.7c0.7-1.1,2.3-1,3.1-2.1c0.2-1,0.3-2.2,0.2-3.2l-2.1-1.1c-1.2-0.7-2.1-1.2-2.6-3.1
	c0.3-2.5,3.2-5.3,4.5-7.1c0.9-1.1,1.6-2.4,2.3-3.8L52,143l-2.4,0.9l-2.5-2.3l-1.9,1.1c-1.4,0.8-2.8,1.7-4.3,0.7
	c-1.7-1.1-3.7-0.1-5.1-1.1c-0.5-1.2-0.9-2.4-1-3.9c-0.3-5.8,3.9-7.1,6-10.6c0.3-2.7,1.2-3.2,2.8-4.6c0.4-0.3,1-0.7,1.3-1.3
	c1.1-2.2,2.3-3,3.8-4.6c0.7-0.8,1.2-1.8,1.9-2.6c1.5-1.7,4.7-0.3,6.5,0.1l1.2-4.8l-1.2-2l1.1-4.9l-12.9,4.6c2.7-4.6,6.6-7.9,10-11.4
	c-5.3,3-10.8,9.1-15.3,14.2l8.8-30.3c1.2-4.3,2.3-8.9,3.9-12.9c1.9-4.8,4.6-9.8,7.2-13.9c11.4-18,27.2-22.1,43.5-23.4l-15,7.6
	c0.1,0.1,0.2,0.2,0.3,0.3c0.5,0.1,2-1,2.5-1.2l7.6-3.2c7.7-3.1,15.6-5.4,23.4-6.8l17.9-1.8l15.8-1.7L157.1,17.8z"/>
<path class="st1" d="M154.9,29.1l0.3,0.3l-0.2,1.7c-1.1,1.6-17.2,7.1-19.6,7.7l-0.2-0.2c4.4-2.4,9-4.1,13.5-6.2
	C150.9,31.6,153,30.6,154.9,29.1z"/>
<path class="st1" d="M72.4,256.5l5.9,0.8c2,0.2,5.2-0.2,7,0.9c0.1,0.9,0.1,0.8-0.2,1.6l-1,0.2c-1.4,0-12.2-1.2-12.8-1.7
	c-0.2-0.2-0.3-0.5-0.5-0.8l0.1-0.5L72.4,256.5z"/>
<path class="st1" d="M155.8,23.6l0.3,0.2c0,1.1-0.3,2.2-0.4,3.2c-0.6-0.3-1.2-0.5-1.8-0.4c-2.4,0.3-5.1,1.8-7.4,2.7l-25.6,10.8h-0.7
	c3.9-2.6,8.6-4.3,12.7-6.1L155.8,23.6z"/>
<path class="st1" d="M149.6,62.4h0.8l-0.3,1.8c-0.8,0.7-1.8,0.9-2.7,1.2l-4.9,2c-9.1,3.8-18.2,8.1-27.5,11.2l-0.6-0.2L149.6,62.4z"
	/>
<path class="st1" d="M88.3,39.2c0.6-0.1,1.3-0.2,1.9,0.3c1,0.9,0.3,1.9,0.4,3.1l1.3-0.2l0.3-0.1l0.2,0.4l-0.8,2.6l-8.5,2.8l-3.2,1
	c-1,0.1-1.2-0.1-1.8-1c-0.2-1.4,0.7-3.8,1.2-4.9c0.5-1.1,1.6-1.6,2.4-1.7C83.9,41.3,86.2,40,88.3,39.2z"/>
<path class="st1" d="M74.9,42.8c1.2-0.2,1.9-0.2,3,0.7c0.2,0.7,0.2,0.8,0.1,1.5c-0.5,3.2-2,7-4.5,7.5c-0.9,0.2-1.5-0.3-2.4,0.5
	c-1,0.8-1.7,1.1-2.8,1.2H68c-0.4,0.7-1.1,1-1.7,1.2l-3.1,1.4l3.5-9.4c0.1-0.2,0.3-1.1,0.4-1.2c0.4-0.4,1.7-0.8,2.2-1L74.9,42.8z"/>
<path class="st1" d="M108.1,44.6l0.4,0.3l-0.6,2.4c-0.4,0.3-0.6,0.6-0.9,1.2l0.2,0.4c0.7-0.5,1.2-0.8,2-0.8c0.3,0,0.6,0.1,1-0.1
	c1.7-0.8,4-0.8,5.9-1c-0.2,0.8-0.5,2.5-1,3.1c-0.3,0.3-0.6,0.3-1,1c0.1,1.5,1.6,0.4,2.3,1.5l-0.5,2.1c-0.4,1-5.9,1.2-6.8,1.2
	c-1,0.3-2,0.4-3-0.1l-0.3-0.1l-0.2,0.3c-0.1,0.2-0.5,0.9-0.7,1c-0.4,0.3-1.5,0.3-1.9,0.3l-4.6,0.8l-0.1-0.3l0.8-2.6
	c1.5-1,1.8-3.7,2.4-5.7l-0.5-0.7l0.8-2.9L108.1,44.6z"/>
<path class="st1" d="M119,30.8l0.6-0.1l0.3,0.4l-1.1,8c-5.1,0.7-10.1,2.1-15.1,3.2c-2.1,0.5-4.4,1.6-6.5,1.3c-0.3-0.2-0.6-0.5-1-0.8
	c-0.3-1.2,0.1-2,0.3-3.2c0.2-1,0.3-1.7,0.8-2.4c0.8-1.1,1.7-1.3,2.8-1.3h0.3l0.2-0.2c1-0.9,2.6-1,3.8-0.6l0.3,0.1
	c1.5-1.6,3.8-1.8,5.6-2.3L119,30.8z"/>
<path class="st1" d="M96.9,50.4l2.4-0.1L97,57.8l-6.6,1.3c-1.6,0.3-3.4,1.1-5,0.7l-0.2-0.1c-1.5,1-2.6,1.5-4.3,1l-0.3-0.1
	c-1.5,1.1-2.4,1.7-4.1,1.2c-0.6-0.2-0.4,0.5-0.9,1c-0.9,0.8-3.3,1-4.4,1.5c-0.8,0.3-1.4,0.4-2.2,0.4h-0.3c-1.3,1.6-4.4,2.2-6,2.8
	c-0.5,0.2-0.3,0.3-0.7-0.1l3.9-9c0.6-0.2,1.4-0.3,1.8-0.9c0.3-0.3,0.3-0.4,0.6-0.6c0.7-0.4,3.1-1.5,3.8-1l-0.3,1.3
	c1,0.3,3.4-0.9,4.5-1.3l7.7-2.3c1.7-0.5,3.6-1.3,5.3-1.1h0.3c0.8-0.9,2.7-1.1,3.7-1c0.4,0.1,0.7,0.1,1.1-0.2
	C95.3,50.8,96.1,50.6,96.9,50.4z"/>
<path class="st1" d="M95.6,61h0.3c0.8,0,1.1,0.3,1.7,1.1c0,1.3-0.1,1.5-0.5,2.6l0.2,0.3h1.2l0.2,0.5L98,68.5l-12.2,1.9
	c-0.7,0.1-1.7-0.2-2.3,0.2c-1.6,1-3.8,0.4-5.3,1.4c-0.3,0.2-0.4,0.4-0.7,0.6c-0.9,0.6-2.7,0.8-3.7,0.3l-19.3,7.3l3.7-8.2
	c3.4-1.6,7.4-3.8,10.9-4.4l0.6-0.1c4.6-2.2,9.9-3.2,14.7-4.4c-0.6,1.3-1.5,2.5-1.9,3.9l0.3,0.4l1.3-0.3l0.5-1.2
	c0.3-0.6,0.4-1.3,0.8-1.9C87,61.6,93.2,61.5,95.6,61z"/>
<path class="st1" d="M77.1,77.6c2.2-0.3,3.3,0.4,5.2,1.9L79.6,88c-0.8,2.7-1.3,6.4-3,8.3c-1.5-0.3-2.9-0.6-4.4-0.6
	c-1.2,0-3.7,0.9-4.7,0.2c0.2-1.2,0.3-1.5,0.9-2.4L68,91.6c-1,0-1.9,4.3-2.7,5.1c-0.3,0.3-1.7,0.7-2.2,0.9c-1.7,0.9-3.1,2.3-4.5,3.9
	c0.1-1.5,0.1-3.1,0.3-4.5c0.8-4.1,3.9-8.1,5.9-11.2l-4,1l2.5-6.6C68,78.9,72.7,78.3,77.1,77.6z"/>
<path class="st1" d="M129.9,79.3c0.5-0.1,0.6-0.3,1,0.2l-0.3,1.9c1.2,1.4,3.7-0.3,5,1l0.5-0.5c1.3,0,4-0.5,5.1,0.3l-0.2,1.8l1,1.6
	c0.4,1.8,0,4.5-0.3,6.4c-0.3,1.2-0.9,1.7-1.6,2.4c-0.6,0.5-0.2,1.6-0.9,2.3c-1.2,0-4.2,0.4-5.1-0.3c0-0.7,0-1.3-0.2-2
	c-0.4,0.3-0.3,0.2-0.6,0.5c-1.3,1.6-2.5,1.5-4.2,1.5c-1.5-0.1-6.2,0.3-7.3-1c-0.2,0-0.3,0.3-0.5,0.5c-1.9-0.2-5.2,0.3-7-0.5
	c0.4-3.5,0.7-8.7,2-11.6c1.3-2.9,3.9-2.4,6-2.3c0.3,0,1.2,0.2,1.4,0c0.1,0,0.3-0.5,0.3-0.6C125.7,80,128.5,79.7,129.9,79.3z"/>
<path class="st1" d="M100.8,74.2c2-0.3,4.3,0.6,6.1,1.7c1.9,1,5.2,3.2,5.9,6.2c0.6,2.1,0.2,3.7-0.4,5.6c-0.7,2.2-0.3,3.4-0.5,5.6
	c-0.2,2.4-1.9,3.6-3.1,4.8c0.9,0.6,1.8,0.9,2.7,1.5c0.7,0.5,1.8,1.8,2.6,2c0.5,0.2,1.3,0,1.9,0l4.7,0.1c8,0.2,15.8,0.8,23.7-0.1
	l-4.3,26.8l-0.3-0.3l-0.4-0.3c-1.2-1.1-2.4-1.2-3.8-0.7l-0.3,0.1c-1.3,0.4-2.1,1.1-3.1,2.3l-0.3,0.3c-0.9-0.3-2.3-0.9-2.9-1.8
	c-0.3-0.4-0.3-1.5-0.6-1.9c-0.3-0.4-1-0.8-1.4-1.1l0.3-1.7c-0.2-0.9-0.2-1.4-0.6-2.1c-1.2,0.2-2.8,0.2-3.8,1.3v0.8
	c0.5,1.3,1.6,2.9,2.5,3.5c1.1,0.7,1.7,2.3,2.9,3.4c0.4,0.4,1,0.7,1.3,1.3c0.3,0.6,0,0.3,0.3,0.7c0.5,0.7,1,1.2,1.3,2.2
	c0.3,1,0.4,4.1,0,5.1c-0.6,1.4-2.2,2.1-3.2,2.3c-0.9,0.1-1.8,0-2.5-0.8c-0.6-0.7-0.6-1.7-1.1-2.5c-1.1-1.7-2.7-3.1-3.9-4.5
	c-1,1.4-1.3,1.6-1.5,3.7v0.4c0.7,1.4,2,4.6,2.9,5.5c0.1,0.2,1.6,0.1,1.8,0.1c1.5,0.1,3.3,0.2,4.7,1c1.1,0.8,2.1,2,3.1,3.1l2.8-0.6
	c1.1-0.2,1.6,0.1,2.4,1c0.2,1.7-0.6,4.7-0.9,6.6l-2.5,15l-10.8,64l-17-23.5l1.9-2.4c0.2-0.2,1.4-1.8,1.5-1.8c0.8,0,2.3,1,3.1,1.2
	c1.1,0.3,2.4,0.2,3.4,0.2c0.7-1.3,1.4-2.7,1.7-4.3c0.3-1.6,0.6-3.8,1.2-5.1c0.3-0.7,0.6-0.7,1.2-0.8c0.7-1,1-2.3,1.4-3.6
	c0.9-3.8,2.7-10.9,1.3-14.7c-0.3-1-0.6-1.8-0.8-3c0.3-1.2,1.9-2,2.7-3.1c0.2-1,0.3-1.5,0.2-2.6l-0.3-0.3l-0.9,0.6
	c-1-0.4-1.7-0.3-2.7-0.5c-0.6-0.1-1-0.3-1.4-1c-0.5-1-0.9-2.4-1.2-3.6l-2.4-6.6c-2.4-5.9-5.2-11.3-8.1-16.7c-3.3,4-6.7,8.7-10.4,12
	c-1.4,1.3-3.4,1.6-4.6,2.9c-1.7,1.7-3.2,4.3-4.7,6.4c-1.1,1.6-1.4,2.6-3.1,3.4l-0.3,0.1c-0.5,1-1.6,2.7-1.5,3.9
	c0.1,2.2-0.7,3.4-1.5,5.1c-2-1.2-2.4-4.5-4.3-5.7c-0.3-0.3-0.6-0.3-1-0.7c-1-1-1.5-2.2-1.6-3.9c-0.1-0.8-13.3-22.1-14.5-24.2
	l1.9-0.5c2.4-1,3-3.9,2.7-7.2c-0.2-1.7-0.8-2.9-0.2-4.5c0.7-0.3,1.2-0.4,1.9-0.3c1.2,1.7,3.7,4.5,4.2,6.7c0.2,0.6,0.3,1,0.5,1.7
	c1,0.3,2.4-0.1,3.5-0.3l-0.1,2.9c0.5,1.1,1.8,1.5,2.7,1.9l0.7-0.6c0.4-0.3,0.8-0.3,1.1-0.9l0.4-0.6c0.5-0.7,1.2-1,1.9-1
	c0.6,0.1,0.3,0.2,0.8-0.2l-1.9-6.8c-2.4-10.3,0.7-20.8,4-29.9c0.9,0,1.8,0.3,2.7-0.1l1.3-3.5l-3.1,0.6l2.5-5.9l-0.6-1.5
	c-0.8-1.9-0.5-3.3-0.7-5.3l-0.1-1.1c-0.1-2.4-0.1-4.5,1.1-6.3C90.2,74.1,96.9,74.6,100.8,74.2z"/>
<path class="st0" d="M108.5,100l0.2-0.1c0.3-0.1,0.3-0.2,0.7-0.1c0.7,0.1,1.7,0.9,2.4,1.3c2.5,1.9,4.8,4.7,6.6,8l-0.3,0.8
	c-0.3,0.2-0.2,0.2-0.6,0.1c-1-0.2-1.9-0.2-2.8-0.5c-1.3-0.4-2.6-0.1-3.8-0.5c-0.1-1.2-0.3-2.7-0.1-3.8c0.2-0.8,0.1-0.3,0.1-1.2
	l-1.8-1.3C108.5,101.6,108.5,101,108.5,100z"/>
<path class="st0" d="M99.5,75.5l2.3-0.2c2.9,0.2,7.6,2.7,9.4,5.9c1.7,2.9-0.2,5.2-0.5,8c-0.2,1.3,0.1,2.6-0.1,3.9
	c-0.2,1.4-1,2-1.7,2.7c-0.6-0.2-0.7-0.6-1.1-1.2c-0.9-0.2-1.2-0.1-2,0.3c-1.7,0.9-3.7,1.1-5.2,2.4l-0.1,0.6c1.2,2.3,3.1,3.4,4.8,4.7
	l-1-0.4c-1.3-0.6-2.3-0.9-3.6-1c-0.9-0.1-3.3-0.3-3.9,0.4c0.9,2.7,5.7,4.7,7.5,6.3c1.2,1,2.4,2.4,3.4,3.8l-3.2,3.8l-1.1-0.4
	c-1-0.3-2-0.3-3,0.6c-0.3,0.3-0.5,0.4-1,0.5c-0.5,0.1-1.1,0.3-1.6,0.6c-0.8,0.7-0.9,1.5-1.1,2.7c0.2,0.8,0.3,1.6,0.3,2.4
	c-1.7,0.2-3.1,1.1-4.4,2.7c-0.1,0.8-0.2,1.4-0.5,2.1l-0.3,0.6c0.1,0.6,0.1,1.1,0.1,1.7l-6,7c-1.5-4.3-2.5-8.7-2.6-13.5
	c0-6.6,2.3-13.3,4.2-19.2c0.6-2,1.8-4.5,2-6.6c-0.8-0.9-1.1-0.5-2.1-0.4c0.1-1.5,1.5-2.8,1.5-3.8c0-1-1.1-2.5-1.3-3.5
	c-0.3-1.2-0.2-3.1-0.2-4.5c-0.2-2.3-0.3-4,1-5.9C90.7,75.5,96.4,75.8,99.5,75.5z"/>
<path class="st1" d="M96,82.8c0.6,0.1,1.2,0.1,1.7,0.7l-0.3,1.7c0.2,1,0.3,1.2,1,1.7c1,0.7,2.9-1.1,3.8-1.8c0.7,0.3,1.2,0.9,1.7,1.4
	c0.1,0.8,0.1,1.7-0.2,2.5c-0.3,0.7-0.9,0.8-1,1.7c0.3,0.1,0.7,0.3,1,0.5v0.5c-0.4,1.5-1.1,2.4-1.9,3.4l-0.9,0.4
	c-1.2-0.8-2.2-1.6-3.6-1.3l-0.3,0.1c-0.7-0.6-0.9-0.7-1.2-1.8c-0.3-0.9-0.8-0.4-1-1.5c0.3-0.3,0.7-0.3,1-0.4l0.4-0.1l-1-1.6l0.3-0.5
	c0.4,0,0.8-0.1,1.2-0.2l-0.2-0.7c-0.6-0.4-1-0.8-1.5-1.5C95.4,85,95.7,83.9,96,82.8z"/>
<path class="st0" d="M127.7,104.2l0.7-0.1c0.8,0.5,1.6,2.2,2.1,3.1l4.8,8.9c-0.1,0.3-0.1,0.4-0.3,0.8c-0.3,0.4-0.9,0.9-1.2,1
	c-1.1,0.4-2.5,0.4-3.8,0.7l-8.8,2.1l0.1,0.9c0.1,0.8,0.1,1.7,0.4,2.4c0.6,1.5,1.7,2.6,2.7,3.7c1.7,2,3.8,3.9,5.4,6.2
	c0.7,1,0.4,3.1,0.4,4.4c-0.4,1-0.8,1.4-1.7,1.7c-0.8,0.3-1.2,0.2-1.8-0.3c-0.5-3-4.5-6.2-6.3-8.2c-0.9,1.4-1.7,2.9-2.9,3.7l-0.2,0.1
	c0.1,0.6,0,0.3,0.3,0.9l0.2,0.3l-0.3,0.7c0.1,1,1,2.3,1.4,3.1l3.8,7.4c2.9,6.1,5,12.9,7.8,19.1l-0.3,0.1c-3.3,1.4-6.1,1.6-9.6,1.6
	c-3.5-10.6-7.8-20.2-13-29.2l-4.6,5.5c-2.4,2.9-4.9,6.3-7.7,8.4c-1.4,1.1-3.1,1.1-4.3,2.6c-1.6,1.8-5.6,8.8-7.2,9.2
	c-0.4,0.1-0.7,0.2-1,0.4c-0.2,0.8-0.3,1.8-0.8,2.6c-0.4,0.9-1,1.2-1.8,1.4c-1,0.2-2.3-0.4-3.1-1.3c-0.6-0.6-1-1.4-1-2.4
	c-0.1-0.7,0.3-1,0.5-1.6c0.9-0.4,1.7-1,2.4-1.7c-0.1-3.6,2.3-4.3,3.7-6.8c0.6-1.2,1.4-2.3,2.2-3.3l-3.8-4.4c-0.4-0.7-0.1-1.7,0-2.6
	c-1-0.9-2.1-1.1-2.8-2.4c0.3-0.7,0.4-0.8,1-1.2l0.9,0.5c1-1,0.3-0.6,0.5-2.1l0.6-0.3c1,0.3,1.8,1.3,2.7,2.2c2.4-3.2,5.8-5.9,7.8-9.4
	c0.6-1.1,1.5-1.5,2.4-2.1c0.3-1.3,0.3-2.7,0.4-4.1c0.3-0.3,0.5-0.5,0.9-0.7c0.5-0.3,0.6-1,1-1.5l1.1,0.6c0.8-0.3,1.5-1.3,2.1-2.1
	c-0.3-0.9-0.6-1.7-0.7-2.7c-0.2-0.9-0.1-0.9,0.3-1.6c1.1,0,1.8-0.4,2.8-1.4l0.2-0.2c0.9,0.2,1.7,1,2.4,1.7l3.9-4.5
	c0.7-0.9,1.5-2,2.4-2.6c0.8-0.6,1.8-0.5,2.7-0.1c0.4,0.2,0.7,0.3,1.2,0.3c1.1,0.1,1.8,0.3,2.9,0.9c0.1,0.1,0.2,0.3,0.3,0.2
	C118.3,112.9,126,104.9,127.7,104.2z"/>
</svg>
