<?xml version="1.0" encoding="utf-8"?>
<!-- Generator: Adobe Illustrator 24.0.1, SVG Export Plug-In . SVG Version: 6.00 Build 0)  -->
<svg version="1.1" id="Layer_1" xmlns="http://www.w3.org/2000/svg" xmlns:xlink="http://www.w3.org/1999/xlink" x="0px" y="0px"
	 viewBox="0 0 648 525" style="enable-background:new 0 0 648 525;" xml:space="preserve">
<style type="text/css">
	.st0{fill:#4B4B4B;}
	.st1{fill-rule:evenodd;clip-rule:evenodd;fill:#FFFFFF;}
	.st2{fill:none;stroke:#FFFFFF;stroke-width:1.6389;}
	.st3{fill:#BF2727;}
	.st4{fill:#FEFEFE;}
	.st5{fill:#FFFFFF;}
</style>
<path class="st0" d="M241.4,54.2c2.1-13.6,13.8-23.6,27.5-23.6H454c17.1,0,30.1,15.2,27.5,32.1l-65.4,423.7
	C414,500,402.3,510,388.6,510H203.5c-17.1,0-30.1-15.2-27.5-32.1L241.4,54.2z"/>
<path class="st1" d="M268.9,16.4H454c25.8,0,45.5,23,41.6,48.5l-65.4,423.7c-3.2,20.5-20.8,35.6-41.6,35.6H203.5
	c-25.8,0-45.5-23-41.6-48.5L227.3,52C230.5,31.5,248.1,16.4,268.9,16.4z M268.9,30.6c-13.7,0-25.4,10-27.5,23.6L176,477.9
	c-2.6,16.9,10.5,32.1,27.5,32.1h185.1c13.7,0,25.4-10,27.5-23.6l65.4-423.7c2.6-16.9-10.5-32.1-27.5-32.1L268.9,30.6L268.9,30.6z"/>
<path class="st1" d="M238.7,69.7h247.5v4.9H238.7V69.7z"/>
<path class="st1" d="M224,168.5h247.5v4.9H224V168.5z"/>
<path class="st1" d="M221.3,234.1h247.5v4.9H221.3V234.1z"/>
<path class="st1" d="M350.7,285.4c27,0,48.8-21.9,48.8-48.8c0-27-21.9-48.8-48.8-48.8c-27,0-48.8,21.9-48.8,48.8
	C301.9,263.5,323.7,285.4,350.7,285.4z M350.7,289c29,0,52.4-23.5,52.4-52.4c0-29-23.5-52.4-52.4-52.4c-29,0-52.4,23.5-52.4,52.4
	C298.3,265.5,321.8,289,350.7,289z"/>
<path class="st1" d="M410,117.5c-0.1,0.3-0.2,0.5-0.3,0.8c-0.7,2.1-1.1,4.4-1.1,6.8s0.4,4.7,1.1,6.8c0.1,0.3,0.2,0.5,0.3,0.8
	c3.1,8.3,11.1,14.2,20.5,14.2c12.1,0,21.9-9.8,21.9-21.9s-9.8-21.9-21.9-21.9C421.1,103.3,413.1,109.2,410,117.5z M408.6,133.6
	c3.4,8.8,11.9,15,21.9,15c13,0,23.5-10.5,23.5-23.5s-10.5-23.5-23.5-23.5c-10,0-18.5,6.2-21.9,15h-5.4v1.6h4.8c-0.7,2.2-1,4.5-1,6.8
	s0.4,4.7,1,6.8h-4.8v1.6h5.4V133.6z"/>
<path class="st1" d="M451.5,117.5c0.1,0.3,0.2,0.5,0.3,0.8c0.7,2.1,1.1,4.4,1.1,6.8s-0.4,4.7-1.1,6.8c-0.1,0.3-0.2,0.5-0.3,0.8
	C448.4,141,440.4,147,431,147c-12.1,0-21.9-9.8-21.9-21.9s9.8-21.9,21.9-21.9C440.4,103.3,448.4,109.2,451.5,117.5z M452.9,133.6
	c-3.4,8.8-11.9,15-21.9,15c-13,0-23.5-10.5-23.5-23.5s10.5-23.5,23.5-23.5c10,0,18.5,6.2,21.9,15h5.4v1.6h-4.8c0.7,2.2,1,4.5,1,6.8
	s-0.4,4.7-1,6.8h4.8v1.6h-5.4V133.6z"/>
<path class="st2" d="M302.1,147.8c12.5,0,22.7-10.1,22.7-22.7s-10.2-22.7-22.7-22.7c-9.7,0-18,6.1-21.2,14.7
	c-0.9,2.5-1.4,5.1-1.4,7.9s0.5,5.5,1.4,7.9C284.1,141.6,292.4,147.8,302.1,147.8z"/>
<path class="st1" d="M323.1,117.5c0.1,0.3,0.2,0.5,0.3,0.8c0.7,2.1,1.1,4.4,1.1,6.8s-0.4,4.7-1.1,6.8c-0.1,0.3-0.2,0.5-0.3,0.8
	C320,141,312,147,302.6,147c-12.1,0-21.9-9.8-21.9-21.9s9.8-21.9,21.9-21.9C312,103.3,320,109.2,323.1,117.5z M324.6,133.6
	c-3.4,8.8-11.9,15-21.9,15c-13,0-23.5-10.5-23.5-23.5s10.5-23.5,23.5-23.5c10,0,18.5,6.2,21.9,15h5.4v1.6h-4.8c0.7,2.2,1,4.5,1,6.8
	s-0.4,4.7-1,6.8h4.8v1.6h-5.4V133.6z"/>
<path class="st3" d="M327,368.8l1.1-5.6h11.4c0.5,0,0.8-0.3,0.9-0.8l0.4-1.9c0.1-0.3,0-0.5-0.2-0.8c-0.2-0.2-0.4-0.4-0.7-0.4h-13.4
	l1.3-6.5H345c0.7,0,1.4,0.2,2,0.5s1.2,0.7,1.6,1.2s0.7,1.1,0.9,1.8c0.2,0.7,0.2,1.4,0.1,2.1l-0.9,4.5c-0.2,0.9-0.6,1.6-1.3,2.2
	c-0.7,0.6-1.5,0.8-2.4,0.8h0.6c0.6,0,1.1,0.1,1.6,0.4c0.5,0.2,0.9,0.6,1.3,1c0.3,0.4,0.6,0.9,0.7,1.4c0.2,0.5,0.2,1.1,0,1.6
	l-1.4,6.7c-0.2,1.1-0.7,2-1.6,2.7s-3,1-3,1H323l1.3-6.5h14.8c0.5,0,0.8-0.3,0.9-0.8l0.8-3.7c0.1-0.3,0-0.5-0.2-0.8
	c-0.2-0.2-0.4-0.4-0.7-0.4H327V368.8z"/>
<g>
	<path class="st4" d="M493.4,313.9c2.6-12.9-7.2-24.9-20.3-24.9H0l176,33.5l0.3,0.1l-20.8,99l-0.1,0c-0.6,2.9-0.6,6,0.2,9.1l0.1,0
		c0.7,2.6,1.9,5.1,3.6,7.1l0,0l0.1,0.1l0.1,0.1l6.8,5.3c2.7,1.3,5.5,1.9,8.5,1.9v0h34.8v0c4.7,0,9.2-1.6,12.9-4.6l0.1,0.1
		c0.7-0.5,1.3-1.1,1.9-1.7h2.4l-1.2,6.2l421.9,0.1l-173.7-33.4L493.4,313.9z"/>
</g>
<path class="st3" d="M187.8,397.5l-4.3,21.8c-0.1,0.5,0,1,0.3,1.4s0.7,0.6,1.3,0.6h17.5c0.9,0,1.5-0.4,1.6-1.3l0.8-3.6h14.7l-2,9.7
	c-0.4,2-1.3,3.5-2.9,4.8c-1.5,1.2-3.2,1.8-5.2,1.8h-34.8c-1.1,0-2.2-0.2-3.1-0.7c-1-0.5-1.8-1.1-2.4-1.9c-0.7-0.8-1.1-1.8-1.4-2.8
	c-0.3-1-0.3-2.1-0.1-3.2l6.8-33.8c0.4-2,1.3-3.5,2.8-4.8c1.5-1.2,3.2-1.8,5.2-1.8h33.9c1.3,0,2.5,0.3,3.6,0.8s2,1.2,2.7,2.2
	c0.7,0.9,1.3,1.9,1.6,3.1s0.4,2.4,0.1,3.6l-1.3,6.6h-14.7l0.6-2.9c0.1-0.5,0-1-0.4-1.3c-0.3-0.4-0.7-0.6-1.3-0.6h-27.9L187.8,397.5z
	"/>
<path class="st3" d="M248.5,395h-17.3l2.3-11.4h49.9l-2.3,11.4h-25l8.2,2.4l-7.1,35.1H241L248.5,395z"/>
<path class="st3" d="M331.9,432.6h-14.7l2.8-13.9h-21.2l-2.8,13.9h-14.7l8.5-42.4c0.4-2,1.3-3.5,2.8-4.8c1.5-1.2,3.3-1.8,5.2-1.8
	h33.9c1.3,0,2.5,0.3,3.6,0.8s2.1,1.2,2.8,2.2c0.7,0.9,1.3,1.9,1.5,3.1c0.3,1.2,0.3,2.4,0.1,3.6L331.9,432.6z M294.9,395l8.1,2.4
	l-2,9.8h21.3l2-10.3c0.1-0.5,0-1-0.4-1.3c-0.3-0.4-0.7-0.6-1.3-0.6H294.9z"/>
<path class="st3" d="M344.9,432.6l2.3-11.7h-5.9l-2.4,11.7H344.9z"/>
<path class="st3" d="M344.9,432.6h14.7l7.1-35.1l-9.4-2.4h28.6c1.3,0,2.3,1.2,2,2.4l-7,35.1h14.7l7.8-39.2c0.2-1.3,0.2-2.5-0.1-3.7
	c-0.3-1.2-0.8-2.2-1.5-3.1s-1.7-1.6-2.7-2.2c-1.1-0.5-2.3-0.8-3.6-0.8h-33.9c-2,0-3.7,0.6-5.2,1.8c-1.5,1.2-2.5,2.8-2.9,4.8
	l-6.1,30.7L344.9,432.6z"/>
<path class="st3" d="M316.7,358.8l-4.9,22.1h8.4l5.7-27.9h-14.4l-13.7,22.1h-4.9l5.5-1.6l4.3-20.5h-8.4l-5.7,27.9H303L316.7,358.8z"
	/>
<path class="st3" d="M450.7,393.9l-8.5,38.8h14.7l9.9-49h-25.3l-24,38.8h-8.6l9.7-2.8l7.5-36h-14.7l-9.9,49h25.3L450.7,393.9z"/>
<path class="st3" d="M183.5,350.5h14.7l7.1-35.1l-7.9-2.4h27.1c1.3,0,2.3,1.2,2,2.4l-7,35.1h14.7l7.8-39.2c0.2-1.3,0.2-2.5-0.1-3.7
	s-0.8-2.2-1.5-3.1s-1.7-1.6-2.7-2.2c-1.1-0.5-2.3-0.8-3.6-0.8H200c-2,0-3.7,0.6-5.2,1.8c-1.5,1.2-2.5,2.8-2.9,4.8L183.5,350.5z"/>
<path class="st3" d="M131.1,301.6h71.7l-9.7,11.3L131.1,301.6z"/>
<path class="st3" d="M516.3,432.7h-71.7l9.7-11.3L516.3,432.7z"/>
<path class="st3" d="M289.5,350.5h-14.7l2.8-13.9h-21.2l-2.8,13.9h-14.7l8.5-42.4c0.4-2,1.3-3.5,2.8-4.8c1.5-1.2,3.3-1.8,5.2-1.8
	h33.9c1.3,0,2.5,0.3,3.6,0.8s2.1,1.2,2.8,2.2c0.7,0.9,1.3,1.9,1.5,3.1c0.3,1.2,0.3,2.4,0.1,3.6L289.5,350.5z M252.5,313l8.1,2.4
	l-2,9.8h21.3l2-10.3c0.1-0.5,0-1-0.4-1.3c-0.3-0.4-0.7-0.6-1.3-0.6H252.5z"/>
<path class="st3" d="M304.1,301.6h49.2c1.1,0,2.1,0.2,3.1,0.7s1.8,1.1,2.4,2c0.7,0.8,1.1,1.7,1.4,2.7s0.4,2.1,0.1,3.2l-4,19.9
	c-0.4,2-1.3,3.5-2.9,4.8c-1.5,1.2-3.2,1.8-5.2,1.8h-35.7l-2.7,13.9h-15.5L304.1,301.6z M316.8,315.4l-2,9.8h26.4
	c0.8,0,1.3-0.4,1.5-1.3l1.8-9c0.1-0.5,0-1-0.3-1.3c-0.3-0.4-0.7-0.6-1.3-0.6h-34.4L316.8,315.4z"/>
<path class="st3" d="M367.1,331.8l8.2,2.4l-3.3,16.3h-14.7l9.8-49h14.7l-3.8,18.7h24.5l3.8-18.7H421l-9.8,49h-14.7l3.8-18.7
	L367.1,331.8L367.1,331.8z"/>
<path class="st3" d="M467,311.8l-8.5,38.8h14.7l7.9-39.1c1-5.1-2.9-9.8-8-9.8h-15.3l-24,38.8h-8.6l9.7-2.8l7.5-36h-14.7l-9.9,49H443
	L467,311.8z"/>
<path class="st3" d="M183.3,352.9l110.9,0.1l-5.7,27.9l-111-0.1L183.3,352.9z"/>
<path class="st3" d="M345,352.9h127.8l-5.7,27.9L343.3,381L345,352.9z"/>
<path class="st4" d="M308.4,0c2.2-0.2,4.8,0.3,7,0.9c2,0.5,4.3,2.2,5.5,4.7c0.6,1.4,0.9,2.9,0.8,4.5c-0.3,3.7-1.2,7.6-1.8,11.2
	l-4.3,25.8l-14.3,84l2.9,1.6c2.3,1.5,4.3,3.9,5.1,7.4c0.9,3.8,0.9,10.7-0.8,14c-0.6,1.3-1.8,2.2-2.3,3.5c-0.6,1.6-0.9,3.5-1.6,5
	c-1.9,4.4-6.3,5.2-9.5,6.3L282.4,259c0.5,0.7,1.3,2,1.9,2.4c1.6,1.1,4.7,1.1,6.5,1.3c6.5,0.8,13.1,0.9,19.6,0.9
	c4.1,0,8.5-0.6,12.5,0.4c2.5,0.6,4.8,1.8,6.8,4.1c3.2,3.8,8.7,9.9,9,16.3c0.1,2.4-0.6,4.7-1.7,6.5c-1.6,2.4-3.7,3.8-5.9,4.5
	c-4.6,1.6-9.4,1.6-14.1,1.7l-17.5-0.3c-6.8-0.2-13.5-0.1-20.3-1.4c-2.6-0.5-5-1.5-7.2-3.5c-0.8-0.7-1.6-1.8-2.4-2.3
	c-0.4-0.3-6.7,0.7-7.9,0.8c-4.3,4.5-9.2,5.1-14.4,5.2c-1.7,1.9-3.3,3.4-5.4,4.4c-1.9,0.9-4.1,1.5-6.1,1.6
	c-7.7,0.4-15.8-1.3-23.5-2.6l-12.5-2.4c-3.9-0.9-7.4-1.6-11-4.2c-0.9-0.8-1.7-1.7-2.3-2.8c-1.1-1.9-1.4-4-1.3-6.4
	c0.1-3.2,1.1-5.7,2.8-7.7c1.1-1.2,1.1-3.7,1.7-5.4c0.7-2.1,1.7-4.1,2.7-6.1c-0.3-1.4-0.6-3-0.7-4.4c0-0.8,0.2-1.6,0.2-2.4
	c0-1-0.3-2-0.4-3c0-1.7,0.4-2.9,0.6-4.5c0.2-1.5,0.1-2.9,0.3-4.4c0.3-1.7,1-2.9,1.1-4.7c0.1-2.8,1.1-3.8,1.7-6.1
	c0.5-2.3,0.3-4.5,1.1-6.8s2.1-4.1,3.6-5.5c1.6-1.5,3.1-1.7,3.8-4.4l-0.5-0.7c-1.3-2.1-2.2-4.6-2-7.5c0.4-4.7,3.8-8.3,6.2-11.2
	c-2.3-3.7-22.6-36.2-23.9-37l-0.3-0.1c-2.6-1.1-4.2,0-6.8,0.1c-2.2,0-3.8-1-5.9-1.4c-1.8-0.4-3.6-0.2-5.4-1.1
	c-2.4-1.2-3.9-3.2-4.9-6.4c-1.4-4.2-1.5-8.1-0.3-12.4l0.2-0.6c-7,3.6-16.7,11.3-24,6.9c-1.9-1.1-3.7-3-4.4-5.8
	c-0.3-1.1-0.4-2.4-0.3-3.6c0.1-1.7,0.8-3.1,1-4.8l3.9-41.4c0.4-4.3,0.2-9.1,1.5-13.1c1.3-4.3,3.8-8.4,5.9-12
	c10.5-17.7,25.2-29.2,40.9-34.9l12.1-3.6c2-0.5,4.2-0.4,6-1.2c1.9-0.7,3.9-2.7,5.8-3.8c3.8-2.4,7.7-4.3,11.7-5.8
	c9.8-3.7,19.8-4.3,29.9-5.9l26.5-4.4l17.1-1.8l6.3-0.4c0.8,0,2,0.1,2.7-0.4C304.6,1.6,305.9,0.6,308.4,0z"/>
<path class="st3" d="M201.9,37.1l1-0.1l0.1,0.5c-1.4,1.7-2.9,3.6-4.2,5.6s-3,6.4-4.7,7.4c-4.5,3-9,6-13.2,9.8
	c-1.1,1-2.4,1.9-3.2,3.3c0.9,0,3.2-2.2,4.1-2.8c3.4-2.3,6.8-4.5,10.3-6.4c-1.7,3.4-3.6,6.8-5.1,10.4c-4.6,11.5-7.9,24.8-11.5,37.1
	c-1.6,5.6-3.1,11.9-5.2,17.1c-0.6,1.4-1.4,2.9-2.3,3.7c-1.4,1.2-3.2,1.9-4.7,2.7l-10.2,5.2c-3.8,2-7.6,4.5-11.6,6
	c2.1-3.6,15.5-24.1,15.6-24.9l-0.7,0.6L142,132.6l2.4-23.1l1.4-17.8c0.2-2.8,0.2-5.9,0.8-8.6c0.6-2.5,2.4-5.1,3.6-7.2
	c0.6,0.1,0.8,0.1,1.3,0.7l-1.3,8.2l5.4-4.6c0.6-0.5,1.5-1.6,2.2-1.8c0.5-0.2,1.6,0.4,2.2,0.5l7.4,2.4l-4.6-7.3l7-6.5
	c-1.1-0.1-2.4,0.3-3.5,0.5l-6.7,1.2l-2.8-4C169.5,48.3,184.6,40,201.9,37.1z"/>
<path class="st3" d="M307.6,8.5l3.9,0.5l-20.3,128.6c2.3,0.7,7.4,0.8,9,3.3c0.7,1.1,0.8,2.3,0.7,3.8c-0.1,1.5,0.2,3.1-0.1,4.6
	c-0.3,1.6-1.7,2.5-2.4,3.8c-0.8,1.6-1.3,4.1-1.8,6c-2.9,1-6,2.7-9,2.7h-0.4l-14.1,99.5c1.7,2.4,3.8,5.8,6,7.4
	c2.6,1.8,5.9,2.2,8.7,2.6c8.4,1.3,17,1.3,25.5,1.2h6.5c0.5,0,1.5,0,2,0.2s1.1,0.9,1.5,1.4c1.7,2.1,6.6,7.5,6.6,10.8
	c0,0.9-0.4,1.2-0.9,1.8c-3.5,1.4-7.3,1.5-10.9,1.6l-17.3-0.2l-16.6-0.9c-1.7-0.2-4.1-0.2-5.6-1.2c-2.3-1.5-6.6-6.1-7.3-9.4l-0.1-0.3
	l-0.3-0.1c-0.4,1.5-0.6,3.1-1.2,4.5l-6.8,0.9l2.7-12L251.5,250c-2.9-4-5.7-8.3-8.9-11.9l-0.7,2c-1.3,3.9-2.2,4-4.8,5.7
	c-0.8,1.4-1.1,3.3-1.4,5l-1.8,1.2c-0.6,0.4-1.3,0.7-1.8,1.3s-1,1.3-1,2.3l1,0.9c0.7,0.6,1.2,1.2,2,1.3c0.5,0.1,0.9,0.3,1.4,0.6
	c0.2,1.5,0.4,3.5,1.1,4.7c1,1.6,2.7,2.1,4.1,2.6c3,1,9,2,11.3,5.2c0.7,1,1,1.9,1,3.2c-0.1,5.8-5.3,2.8-7.4,5.4l0.3,0.7
	c3,1.9,7.4,0,10.6-0.7l0.2,0.6c-1.4,8.3-8.4,6.8-13,6.7c-0.2,0-1.5-0.1-1.6,0c-0.6,0.4-1.6,3.3-2.4,4.1c-1.1,1.1-2.5,1.7-3.8,1.9
	c-2.9,0.5-6.1-0.2-9-0.5l-19.2-2.9l-8.6-1.9c-1.7-0.4-3.4-0.7-4.8-2c-0.4-1.4-0.3-1.5-0.1-2.9c1.9-3,6.4,1.4,8.7-0.7
	c-0.1-0.3,0-0.8-0.2-1c-1-1.1-3-0.8-4.3-2.2c-3.3-3.7,2.7-10.2,3.1-13.7c0.1-0.9-0.9-4.4-1-5.6c0.3-1,0.6-2.1,0.5-3.1
	c-0.1-0.8-0.8-1.7-0.7-2.6c0.1-1.3,0.6-2.4,0.7-3.8c0-0.8,0-3.1,0.2-3.8c0.2-0.6,1.3-1.9,1.7-2.4l-0.7-3c0.6-1.3,1.5-2.9,1.7-4.4
	c0.3-1.7,0.1-3.8,0.6-5.4c0.8-2.4,3.3-3.5,4.9-4.3c0.2-0.1,1.3-0.5,1.4-0.6c0.6-0.9,0.3-3.4,0.8-4.2c0.8-1.3,2.6-1.1,3.6-2.4
	c0.2-1.2,0.4-2.5,0.2-3.7l-2.4-1.3c-1.4-0.8-2.4-1.4-3-3.5c0.3-2.9,3.7-6.1,5.2-8.1c1-1.3,1.8-2.8,2.6-4.4l-30.3-46.8l-2.8,1
	l-2.9-2.6l-2.2,1.3c-1.6,0.9-3.2,1.9-4.9,0.8c-1.9-1.3-4.2-0.1-5.8-1.3c-0.6-1.4-1-2.8-1.1-4.5c-0.4-6.6,4.5-8.1,6.9-12.1
	c0.4-3.1,1.4-3.7,3.2-5.3c0.5-0.4,1.2-0.8,1.5-1.5c1.3-2.5,2.6-3.4,4.3-5.3c0.8-0.9,1.4-2.1,2.2-3c1.7-2,5.4-0.3,7.4,0.1l1.4-5.5
	l-1.4-2.3l1.3-5.6l-14.7,5.3c3.1-5.3,7.5-9,11.4-13c-6.1,3.4-12.3,10.4-17.5,16.2l10.1-34.6c1.4-4.9,2.6-10.2,4.5-14.8
	c2.2-5.5,5.3-11.2,8.2-15.9c13-20.6,31.1-25.3,49.7-26.8l-17.2,8.7c0.1,0.1,0.2,0.2,0.3,0.3c0.6,0.1,2.3-1.1,2.9-1.4l8.7-3.7
	c8.8-3.5,17.8-6.2,26.8-7.8l20.5-2.1l18.1-1.9L307.6,8.5z"/>
<path class="st4" d="M305.1,21.4l0.4,0.4l-0.2,1.9c-1.3,1.8-19.7,8.1-22.4,8.8l-0.2-0.2c5-2.8,10.3-4.7,15.4-7.1
	C300.5,24.2,302.9,23.1,305.1,21.4z"/>
<path class="st4" d="M210.8,281.4l6.8,0.9c2.3,0.2,6-0.2,8,1c0.1,1,0.1,0.9-0.2,1.8l-1.2,0.2c-1.6,0-13.9-1.4-14.6-2
	c-0.2-0.2-0.4-0.6-0.6-0.9l0.1-0.6L210.8,281.4z"/>
<path class="st4" d="M306.1,15.1l0.4,0.2c0,1.3-0.3,2.5-0.5,3.7c-0.7-0.3-1.4-0.6-2.1-0.5c-2.7,0.3-5.8,2.1-8.5,3.1L266.1,34h-0.8
	c4.5-3,9.8-4.9,14.5-7L306.1,15.1z"/>
<path class="st4" d="M299,59.5h0.9l-0.3,2.1c-0.9,0.8-2.1,1-3.1,1.4l-5.6,2.3c-10.4,4.4-20.8,9.3-31.4,12.8l-0.7-0.2L299,59.5z"/>
<path class="st4" d="M228.9,33c0.7-0.1,1.5-0.2,2.2,0.3c1.2,1,0.3,2.2,0.5,3.6l1.5-0.2l0.4-0.1l0.2,0.5l-0.9,3l-9.7,3.2l-3.7,1.2
	c-1.1,0.1-1.4-0.1-2.1-1.1c-0.2-1.6,0.8-4.3,1.4-5.6c0.6-1.3,1.8-1.8,2.8-2C223.9,35.3,226.5,33.9,228.9,33z"/>
<path class="st4" d="M213.6,37.1c1.4-0.2,2.2-0.2,3.4,0.8c0.2,0.8,0.2,0.9,0.1,1.7c-0.6,3.7-2.3,8-5.2,8.6c-1,0.2-1.7-0.3-2.7,0.6
	c-1.1,0.9-1.9,1.3-3.2,1.4h-0.3c-0.5,0.8-1.3,1.1-2,1.4l-3.5,1.6l4-10.8c0.1-0.2,0.4-1.3,0.5-1.4c0.5-0.5,1.9-0.9,2.5-1.2
	L213.6,37.1z"/>
<path class="st4" d="M251.6,39.1l0.5,0.4l-0.7,2.8c-0.5,0.4-0.7,0.7-1,1.4l0.2,0.5c0.8-0.6,1.4-0.9,2.3-0.9c0.4,0,0.7,0.1,1.1-0.1
	c2-0.9,4.6-0.9,6.7-1.2c-0.2,0.9-0.6,2.9-1.1,3.5c-0.3,0.4-0.7,0.4-1.2,1.1c0.1,1.7,1.8,0.5,2.6,1.7l-0.6,2.4
	c-0.5,1.2-6.7,1.4-7.8,1.4c-1.2,0.4-2.3,0.5-3.4-0.1l-0.3-0.1l-0.2,0.3c-0.1,0.2-0.6,1-0.8,1.2c-0.5,0.3-1.7,0.3-2.2,0.3l-5.3,0.9
	l-0.1-0.3l0.9-3c1.7-1.1,2.1-4.2,2.8-6.5l-0.6-0.8l0.9-3.3L251.6,39.1z"/>
<path class="st4" d="M264,23.3l0.7-0.1l0.3,0.5l-1.3,9.1c-5.8,0.8-11.5,2.4-17.3,3.7c-2.4,0.6-5,1.8-7.4,1.5
	c-0.4-0.2-0.7-0.6-1.1-0.9c-0.3-1.4,0.1-2.3,0.4-3.7c0.2-1.1,0.4-2,0.9-2.8c0.9-1.3,2-1.5,3.2-1.5h0.3l0.2-0.2c1.1-1,3-1.1,4.3-0.7
	l0.3,0.1c1.7-1.8,4.3-2.1,6.4-2.6L264,23.3z"/>
<path class="st4" d="M238.8,45.7l2.8-0.1l-2.7,8.6l-7.5,1.5c-1.8,0.4-3.9,1.3-5.7,0.8l-0.2-0.1c-1.7,1.1-3,1.7-4.9,1.2l-0.3-0.1
	c-1.7,1.3-2.8,1.9-4.7,1.4c-0.7-0.2-0.5,0.6-1,1.1c-1,0.9-3.8,1.2-5,1.7c-0.9,0.3-1.6,0.5-2.5,0.5h-0.3c-1.5,1.8-5,2.5-6.9,3.2
	c-0.6,0.2-0.3,0.3-0.8-0.1l4.5-10.3c0.7-0.2,1.6-0.4,2.1-1c0.3-0.3,0.4-0.5,0.7-0.7c0.8-0.5,3.6-1.7,4.3-1.2l-0.3,1.5
	c1.2,0.4,3.9-1,5.2-1.5l8.8-2.6c1.9-0.6,4.1-1.5,6.1-1.3h0.3c0.9-1,3.1-1.3,4.2-1.2c0.5,0.1,0.8,0.1,1.3-0.2
	C237,46.2,237.9,46,238.8,45.7z"/>
<path class="st4" d="M237.3,57.9h0.3c0.9,0,1.3,0.4,2,1.3c0,1.5-0.1,1.7-0.6,3l0.2,0.4h1.4l0.2,0.6l-0.8,3.2l-13.9,2.2
	c-0.8,0.1-2-0.2-2.6,0.2c-1.8,1.2-4.3,0.5-6.1,1.6c-0.3,0.2-0.5,0.5-0.8,0.7c-1,0.7-3.1,0.9-4.2,0.4l-22.1,8.3l4.2-9.4
	c3.9-1.8,8.5-4.4,12.5-5l0.7-0.1c5.3-2.5,11.3-3.7,16.8-5c-0.7,1.5-1.7,2.9-2.2,4.5l0.4,0.5l1.5-0.3l0.6-1.4
	c0.3-0.7,0.5-1.5,0.9-2.2C227.5,58.6,234.5,58.4,237.3,57.9z"/>
<path class="st4" d="M216.2,76.8c2.5-0.4,3.8,0.5,5.9,2.2l-3.1,9.7c-0.9,3.1-1.5,7.3-3.4,9.5c-1.7-0.4-3.3-0.7-5-0.7
	c-1.4,0-4.2,1-5.4,0.2c0.2-1.4,0.4-1.7,1-2.8l-0.4-2c-1.1,0-2.2,4.9-3.1,5.8c-0.4,0.4-2,0.8-2.5,1c-2,1-3.5,2.6-5.2,4.5
	c0.1-1.7,0.1-3.5,0.4-5.1c0.9-4.7,4.5-9.3,6.8-12.8l-4.6,1.2l2.9-7.5C205.8,78.3,211.1,77.6,216.2,76.8z"/>
<path class="st4" d="M276.5,78.8c0.6-0.1,0.7-0.3,1.2,0.2l-0.3,2.2c1.4,1.6,4.2-0.4,5.7,1.2l0.6-0.6c1.5,0,4.6-0.6,5.8,0.4l-0.2,2.1
	l1.2,1.8c0.5,2.1,0,5.2-0.4,7.3c-0.3,1.4-1,2-1.8,2.8c-0.7,0.6-0.2,1.8-1,2.6c-1.4,0-4.8,0.5-5.8-0.4c0-0.8,0-1.5-0.2-2.3
	c-0.5,0.4-0.3,0.2-0.7,0.6c-1.5,1.8-2.9,1.7-4.8,1.7c-1.7-0.1-7.1,0.3-8.3-1.1c-0.2,0-0.4,0.4-0.6,0.6c-2.2-0.2-5.9,0.3-8-0.6
	c0.5-4,0.8-9.9,2.3-13.3c1.5-3.3,4.5-2.7,6.9-2.6c0.3,0,1.4,0.2,1.6,0c0.1,0,0.3-0.6,0.4-0.7C271.7,79.6,274.9,79.3,276.5,78.8z"/>
<path class="st4" d="M243.3,72.9c2.3-0.3,4.9,0.7,7,1.9c2.2,1.2,5.9,3.7,6.8,7.1c0.7,2.4,0.2,4.2-0.5,6.4c-0.8,2.5-0.4,3.9-0.6,6.4
	c-0.2,2.7-2.2,4.1-3.6,5.5c1,0.7,2.1,1,3.1,1.7c0.8,0.6,2.1,2.1,3,2.3c0.6,0.2,1.5,0,2.2,0l5.4,0.1c9.1,0.2,18.1,0.9,27.1-0.1
	l-4.9,30.6l-0.3-0.3l-0.5-0.4c-1.4-1.3-2.7-1.4-4.4-0.8l-0.4,0.1c-1.5,0.5-2.4,1.3-3.6,2.6l-0.4,0.4c-1-0.4-2.6-1-3.3-2.1
	c-0.3-0.5-0.4-1.7-0.7-2.2c-0.4-0.5-1.1-0.9-1.6-1.3l0.4-2c-0.2-1-0.2-1.6-0.7-2.4c-1.4,0.2-3.2,0.2-4.3,1.5v0.9
	c0.6,1.5,1.8,3.3,2.9,4c1.3,0.8,2,2.6,3.3,3.9c0.5,0.5,1.2,0.8,1.5,1.5s0,0.3,0.4,0.8c0.6,0.8,1.1,1.4,1.5,2.5
	c0.4,1.2,0.5,4.7,0,5.8c-0.7,1.6-2.5,2.4-3.7,2.6c-1,0.1-2.1,0-2.9-0.9c-0.7-0.8-0.7-2-1.3-2.9c-1.3-1.9-3.1-3.5-4.5-5.1
	c-1.2,1.6-1.5,1.8-1.7,4.2v0.5c0.8,1.6,2.3,5.3,3.3,6.3c0.1,0.2,1.8,0.1,2.1,0.1c1.7,0.1,3.8,0.2,5.4,1.2c1.3,0.9,2.4,2.3,3.5,3.6
	l3.2-0.7c1.3-0.2,1.8,0.1,2.8,1.2c0.2,2-0.7,5.4-1,7.5l-2.9,17.2L268,255.3l-19.4-26.9l2.2-2.7c0.2-0.2,1.6-2.1,1.7-2.1
	c0.9,0,2.6,1.1,3.6,1.4c1.3,0.4,2.7,0.2,3.9,0.2c0.8-1.5,1.6-3.1,2-4.9c0.4-1.8,0.7-4.3,1.4-5.8c0.4-0.8,0.7-0.8,1.4-0.9
	c0.8-1.2,1.2-2.6,1.6-4.1c1-4.4,3.1-12.5,1.5-16.8c-0.4-1.2-0.7-2.1-0.9-3.4c0.3-1.4,2.2-2.3,3.1-3.6c0.2-1.2,0.3-1.7,0.2-3
	l-0.4-0.3l-1,0.7c-1.1-0.5-2-0.4-3.1-0.6c-0.7-0.1-1.2-0.4-1.6-1.2c-0.6-1.2-1-2.8-1.4-4.1l-2.8-7.6c-2.7-6.8-6-12.9-9.3-19.1
	c-3.8,4.6-7.7,9.9-11.9,13.7c-1.6,1.5-3.9,1.8-5.3,3.3c-1.9,2-3.7,4.9-5.4,7.3c-1.3,1.8-1.6,3-3.5,3.9l-0.3,0.1
	c-0.6,1.2-1.8,3.1-1.7,4.5c0.1,2.5-0.8,3.9-1.7,5.8c-2.3-1.4-2.8-5.2-4.9-6.5c-0.4-0.3-0.7-0.4-1.1-0.8c-1.2-1.2-1.7-2.5-1.8-4.5
	c-0.1-0.9-15.2-25.3-16.6-27.7l2.2-0.6c2.8-1.1,3.4-4.5,3.1-8.2c-0.2-1.9-0.9-3.3-0.2-5.1c0.8-0.3,1.4-0.5,2.2-0.4
	c1.4,1.9,4.2,5.2,4.8,7.7c0.2,0.7,0.4,1.2,0.6,1.9c1.2,0.4,2.8-0.1,4-0.3l-0.1,3.3c0.6,1.3,2.1,1.7,3.1,2.2l0.8-0.7
	c0.5-0.3,0.9-0.4,1.3-1l0.5-0.7c0.6-0.8,1.4-1.2,2.2-1.1c0.7,0.1,0.3,0.2,0.9-0.2l-2.2-7.8c-2.7-11.8,0.8-23.8,4.6-34.2
	c1,0,2.1,0.3,3.1-0.1l1.5-4l-3.5,0.7l2.9-6.7l-0.7-1.7c-0.9-2.2-0.6-3.8-0.8-6.1l-0.1-1.3c-0.1-2.8-0.1-5.1,1.3-7.2
	C231.1,72.8,238.8,73.4,243.3,72.9z"/>
<path class="st3" d="M252,102.4l0.2-0.1c0.4-0.1,0.4-0.2,0.8-0.1c0.8,0.1,1.9,1,2.7,1.5c2.9,2.2,5.5,5.4,7.5,9.1l-0.3,0.9
	c-0.4,0.2-0.2,0.2-0.7,0.1c-1.1-0.2-2.2-0.2-3.2-0.6c-1.5-0.5-3-0.1-4.4-0.6c-0.1-1.4-0.3-3.1-0.1-4.4c0.2-0.9,0.1-0.4,0.1-1.4
	l-2.1-1.5C252.1,104.3,252,103.6,252,102.4z"/>
<path class="st3" d="M241.8,74.5l2.6-0.2c3.3,0.2,8.7,3.1,10.8,6.8c1.9,3.3-0.2,6-0.6,9.2c-0.2,1.5,0.1,3-0.1,4.5
	c-0.2,1.6-1.1,2.3-2,3.1c-0.7-0.2-0.8-0.7-1.3-1.4c-1-0.2-1.4-0.1-2.3,0.4c-1.9,1-4.2,1.3-5.9,2.7l-0.1,0.7c1.4,2.6,3.5,3.9,5.5,5.4
	l-1.2-0.5c-1.5-0.7-2.6-1-4.1-1.1c-1-0.1-3.8-0.4-4.5,0.5c1,3.1,6.5,5.4,8.6,7.2c1.4,1.2,2.7,2.7,3.9,4.3l-3.7,4.3l-1.3-0.5
	c-1.2-0.4-2.3-0.3-3.4,0.7c-0.4,0.4-0.6,0.5-1.1,0.6c-0.6,0.1-1.3,0.3-1.8,0.7c-0.9,0.8-1,1.7-1.3,3.1c0.2,0.9,0.4,1.8,0.4,2.8
	c-2,0.2-3.5,1.3-5,3.1c-0.1,0.9-0.2,1.6-0.6,2.4L233,134c0.1,0.7,0.1,1.3,0.1,2l-6.9,8c-1.7-4.9-2.9-9.9-3-15.4
	c0-7.5,2.6-15.2,4.8-21.9c0.7-2.3,2.1-5.2,2.3-7.5c-0.9-1-1.3-0.6-2.4-0.5c0.1-1.7,1.7-3.2,1.7-4.3c0-1.1-1.3-2.9-1.5-4
	c-0.3-1.4-0.2-3.6-0.2-5.1c-0.2-2.6-0.3-4.6,1.1-6.7C231.7,74.5,238.2,74.8,241.8,74.5z"/>
<path class="st4" d="M237.8,82.8c0.7,0.1,1.4,0.1,1.9,0.8l-0.4,2c0.2,1.1,0.3,1.4,1.1,2c1.2,0.8,3.3-1.3,4.4-2.1
	c0.8,0.4,1.4,1,2,1.6c0.1,0.9,0.1,2-0.2,2.9c-0.3,0.8-1,0.9-1.2,2c0.4,0.1,0.8,0.3,1.2,0.6v0.6c-0.5,1.7-1.3,2.7-2.2,3.9l-1,0.5
	c-1.4-0.9-2.5-1.8-4.1-1.5l-0.3,0.1c-0.8-0.7-1-0.8-1.4-2.1c-0.3-1-0.9-0.5-1.2-1.7c0.4-0.3,0.8-0.4,1.2-0.5l0.5-0.1L237,90l0.4-0.6
	c0.5,0,0.9-0.1,1.4-0.2l-0.2-0.8c-0.7-0.5-1.2-0.9-1.7-1.7C237.1,85.3,237.4,84,237.8,82.8z"/>
<path class="st3" d="M274,107.2l0.8-0.1c0.9,0.6,1.8,2.5,2.4,3.6l5.5,10.2c-0.1,0.4-0.1,0.5-0.4,0.9c-0.3,0.5-1,1-1.4,1.2
	c-1.3,0.5-2.9,0.5-4.3,0.8l-10.1,2.4l0.1,1c0.1,0.9,0.1,1.9,0.5,2.7c0.7,1.7,2,3,3.1,4.2c2,2.3,4.4,4.5,6.2,7.1
	c0.8,1.2,0.5,3.5,0.5,5c-0.5,1.2-0.9,1.6-1.9,2c-0.9,0.3-1.4,0.2-2.1-0.4c-0.6-3.4-5.2-7.1-7.2-9.4c-1,1.6-1.9,3.3-3.3,4.2l-0.2,0.1
	c0.1,0.7,0,0.4,0.3,1l0.2,0.4l-0.4,0.8c0.1,1.2,1.1,2.6,1.6,3.6l4.3,8.5c3.3,7,5.7,14.7,8.9,21.8l-0.3,0.1c-3.8,1.6-7,1.8-11,1.8
	c-4-12.1-8.9-23.1-14.9-33.4l-5.3,6.3c-2.7,3.3-5.6,7.2-8.8,9.6c-1.6,1.3-3.5,1.3-4.9,3c-1.8,2.1-6.4,10.1-8.2,10.5
	c-0.5,0.1-0.8,0.2-1.2,0.5c-0.2,0.9-0.4,2.1-0.9,3c-0.5,1-1.2,1.4-2.1,1.6c-1.2,0.2-2.6-0.5-3.6-1.5c-0.7-0.7-1.1-1.6-1.2-2.8
	c-0.1-0.8,0.3-1.2,0.6-1.8c1-0.5,1.9-1.1,2.8-1.9c-0.1-4.1,2.6-4.9,4.2-7.8c0.7-1.4,1.6-2.6,2.5-3.8l-4.3-5c-0.5-0.8-0.1-2,0-3
	c-1.1-1-2.4-1.3-3.2-2.8c0.3-0.8,0.5-0.9,1.1-1.4l1,0.6c1.2-1.2,0.3-0.7,0.6-2.4l0.7-0.4c1.2,0.4,2.1,1.5,3.1,2.5
	c2.7-3.7,6.6-6.7,8.9-10.8c0.7-1.3,1.7-1.7,2.8-2.4c0.3-1.5,0.4-3.1,0.5-4.7c0.3-0.4,0.6-0.6,1-0.8c0.6-0.3,0.7-1.1,1.2-1.7l1.3,0.7
	c0.9-0.3,1.7-1.5,2.4-2.4c-0.3-1-0.7-2-0.8-3.1c-0.2-1-0.1-1,0.3-1.8c1.3,0,2.1-0.5,3.2-1.6l0.2-0.2c1,0.2,1.9,1.2,2.8,1.9l4.5-5.1
	c0.8-1,1.7-2.3,2.7-3c0.9-0.7,2.1-0.6,3.1-0.1c0.5,0.2,0.8,0.4,1.4,0.4c1.3,0.1,2.1,0.3,3.3,1c0.1,0.1,0.2,0.3,0.4,0.2
	C263.3,117.2,272.1,108.1,274,107.2z"/>
<path class="st5" d="M392,480.9h0.2c0.6,0,1-0.8,1.3-2.5l2.5-15.7h7.9l-2.9,18.2h0.9l-0.9,5.9h-2.8l0.5-3.2h-4.3l-0.5,3.2H391
	L392,480.9z M395.7,480.9h2.2l2.4-15.4h-1.9l-2,12.9C396.3,479.6,396,480.4,395.7,480.9z"/>
<path class="st5" d="M385.5,462.7h3.1l-1.2,7.9h1.8l1.2-7.9h3.1l-3.3,20.9h-3.1l1.6-10.1H387l-1.6,10.1h-3.1L385.5,462.7z"/>
<path class="st5" d="M379.7,462.5c1.1,0,1.9,0.1,2.5,0.3c0.8,0.3,1.2,1,1.2,1.9c0,0.3,0,0.6-0.1,1.1l-2.3,14.7
	c-0.1,0.7-0.2,1.2-0.4,1.5c-0.5,1.2-2,1.8-4.2,1.8c-1.2,0-2-0.1-2.5-0.3c-0.8-0.3-1.2-1-1.2-2c0-0.3,0-0.6,0.1-0.9l2.3-14.7
	c0.2-1.3,0.7-2.2,1.5-2.7C377.2,462.7,378.2,462.5,379.7,462.5z M380.2,465.5c0-0.4-0.3-0.5-0.9-0.5c-0.4,0-0.7,0.1-0.8,0.2
	c-0.2,0.1-0.3,0.3-0.3,0.7l-2.3,14.7c0,0.1,0,0.2,0,0.3c0,0.4,0.3,0.5,0.9,0.5c0.4,0,0.6-0.1,0.8-0.2c0.2-0.1,0.3-0.3,0.3-0.7
	l2.3-14.7C380.2,465.7,380.2,465.6,380.2,465.5z"/>
<path class="st5" d="M365.5,465.2l0.4-2.5h3.1l-0.4,2.5h1c1.3,0,2.1,0.1,2.5,0.2c0.7,0.3,1.1,1,1.1,2c0,0.4,0,0.9-0.1,1.5l-1.2,7.5
	c-0.3,2.2-1.5,3.3-3.6,3.3h-1.9l-0.6,3.9h-3.1l0.6-3.9c-1.7,0-2.7,0-3-0.1c-1-0.3-1.5-1-1.5-2.3c0-0.3,0-0.6,0.1-0.9l1.2-7.5
	c0.3-1.8,0.9-2.9,1.7-3.4C362.1,465.3,363.4,465.2,365.5,465.2z M368,467.8l-1.5,9.3h1.2c0.5,0,0.8-0.3,0.9-0.9l1.1-6.8
	c0.1-0.5,0.1-0.7,0.1-0.8c0-0.5-0.2-0.7-0.6-0.7H368V467.8z M363.6,477.1l1.5-9.3h-1.2c-0.5,0-0.9,0.5-1.1,1.5l-1.1,6.8
	c0,0.2-0.1,0.4-0.1,0.4c0,0.4,0.2,0.5,0.7,0.5h1.3V477.1z"/>
<path class="st5" d="M343.9,462.7h2.9l-1.8,11.1h0.1l4-11.1h2.9l-3.3,20.9h-2.9l1.8-11.1h-0.1l-4,11.1h-2.9L343.9,462.7z
	 M348.1,461.9c-2,0-3.1-0.9-3.1-2.6v-0.1c0-0.1,0-0.1,0-0.1h2.3c0,0.1,0,0.2,0,0.4c0,0.6,0.3,0.9,1,0.9c0.8,0,1.3-0.4,1.4-1.3h2.3
	C351.6,461,350.2,461.9,348.1,461.9z"/>
<path class="st5" d="M331.1,473.2l-1.2,7.7h0.6c0.6,0,1-0.1,1.2-0.4c0.2-0.2,0.3-0.6,0.4-1.2l0.7-4.3c0.1-0.3,0.1-0.6,0.1-0.8
	c0-0.6-0.4-0.9-1.2-0.9h-0.6V473.2z M332.8,462.7l-1.2,7.8h1.4c1.1,0,1.8,0.1,2.1,0.2c0.6,0.3,0.9,0.8,0.9,1.8
	c0,0.5-0.1,1.2-0.2,2.1l-0.8,4.9c-0.2,1-0.3,1.8-0.5,2.3c-0.4,0.9-0.9,1.4-1.6,1.6c-0.4,0.1-0.9,0.2-1.5,0.2h-5l3.3-20.9H332.8z
	 M338.9,483.6h-3.1l3.3-20.9h3.1L338.9,483.6z"/>
<path class="st5" d="M319.6,462.7h3.1l-1.2,7.9h1.8l1.2-7.9h3.1l-3.3,20.9h-3.1l1.6-10.1H321l-1.6,10.1h-3.1L319.6,462.7z"/>
<path class="st5" d="M311.3,473.2l-1.2,7.7h1c0.4,0,0.7-0.2,0.8-0.5c0.1-0.2,0.2-0.5,0.2-1l0.7-4.5c0.1-0.5,0.1-0.7,0.1-0.9
	c0-0.5-0.2-0.7-0.7-0.7h-0.9V473.2z M312.9,462.7l-1.2,7.8h1.6c1.1,0,1.8,0.1,2.1,0.2c0.6,0.3,0.9,0.9,0.9,1.8
	c0,0.5-0.1,1.1-0.2,2.1l-0.8,4.9c-0.2,1.1-0.4,1.8-0.6,2.3c-0.4,0.9-0.9,1.4-1.6,1.6c-0.4,0.1-0.9,0.2-1.6,0.2h-5l3.3-20.9H312.9z"
	/>
<path class="st5" d="M300.1,462.7h7.8l-3.3,20.9h-3.1l2.9-18.1h-1.7l-2.3,14.5c-0.2,1.4-0.6,2.3-1,2.8c-0.6,0.6-1.5,0.9-2.8,0.9h-1
	l0.4-2.8c0.5,0,0.9-0.1,1.1-0.2s0.3-0.4,0.4-0.9L300.1,462.7z"/>
<path class="st5" d="M295,483.6h-7l3.3-20.9h7l-0.4,2.7H294l-0.8,5.3h3.7l-0.4,2.7h-3.7l-1.2,7.5h3.9L295,483.6z"/>
<path class="st5" d="M284.2,483.6h-3.1l2.9-18.2h-2.4l0.4-2.7h7.9l-0.4,2.7H287L284.2,483.6z"/>
<path class="st5" d="M272.5,462.7h2.9l-1.8,11.1h0.1l4-11.1h2.9l-3.3,20.9h-2.9l1.8-11.1h-0.1l-4,11.1h-2.9L272.5,462.7z"/>
<path class="st5" d="M265.4,465.4l-1.3,8.1h0.9c0.5,0,0.8-0.2,0.9-0.5c0.1-0.1,0.2-0.5,0.2-1.1l0.8-4.9c0.1-0.5,0.1-0.7,0.1-0.9
	c0-0.5-0.3-0.7-0.8-0.7H265.4z M262.5,483.6h-3.1l3.3-20.9h5c1,0,1.6,0.1,2,0.3c0.5,0.3,0.7,0.9,0.7,1.8c0,0.4-0.1,1-0.2,2l-0.8,5.3
	c-0.2,1.4-0.5,2.4-0.9,3c-0.4,0.5-1,0.9-1.7,1c-0.4,0.1-1.4,0.1-3,0.1L262.5,483.6z"/>
<path class="st5" d="M256.9,462.5c1.1,0,1.9,0.1,2.5,0.3c0.8,0.3,1.2,1,1.2,1.9c0,0.3,0,0.6-0.1,1.1l-2.3,14.7
	c-0.1,0.7-0.2,1.2-0.4,1.5c-0.5,1.2-2,1.8-4.2,1.8c-1.2,0-2-0.1-2.5-0.3c-0.8-0.3-1.2-1-1.2-2c0-0.3,0-0.6,0.1-0.9l2.3-14.7
	c0.2-1.3,0.7-2.2,1.5-2.7C254.4,462.7,255.4,462.5,256.9,462.5z M257.4,465.5c0-0.4-0.3-0.5-0.9-0.5c-0.4,0-0.7,0.1-0.8,0.2
	c-0.2,0.1-0.3,0.3-0.3,0.7l-2.3,14.7c0,0.1,0,0.2,0,0.3c0,0.4,0.3,0.5,0.9,0.5c0.4,0,0.6-0.1,0.8-0.2s0.3-0.3,0.3-0.7l2.3-14.7
	C257.3,465.7,257.4,465.6,257.4,465.5z"/>
<path class="st5" d="M244.4,473.4l-1.2,7.7h0.7c0.8,0,1.3-0.5,1.5-1.6l0.7-4.3c0-0.2,0.1-0.4,0.1-0.5c0-0.8-0.4-1.2-1.1-1.2h-0.7
	V473.4z M244.6,483.6h-4.9l3.3-20.9h4.5c1,0,1.7,0.1,2.1,0.4c0.6,0.3,0.8,1,0.8,1.9c0,0.4,0,0.9-0.1,1.4l-0.5,2.9
	c-0.1,0.9-0.4,1.6-0.8,2c-0.4,0.4-1,0.6-2,0.8c1.4,0.2,2.1,1,2.1,2.2c0,0.3,0,0.6-0.1,0.9l-0.7,4.3c-0.2,1.4-0.5,2.4-1,3
	C246.9,483.3,245.9,483.6,244.6,483.6z M245.7,465.1l-0.9,5.9h0.8c0.7,0,1.2-0.5,1.4-1.6l0.4-2.8c0-0.2,0.1-0.4,0.1-0.5
	c0-0.7-0.3-1-0.9-1H245.7z"/>
<path class="st5" d="M236,483.6h-3.1l2.9-18.2h-2.4l0.4-2.7h7.9l-0.4,2.7h-2.4L236,483.6z"/>
<path class="st5" d="M228.8,462.5c1.1,0,1.9,0.1,2.5,0.3c0.8,0.3,1.2,1,1.2,1.9c0,0.3,0,0.6-0.1,1.1l-2.3,14.7
	c-0.1,0.7-0.2,1.2-0.4,1.5c-0.5,1.2-2,1.8-4.2,1.8c-1.2,0-2-0.1-2.5-0.3c-0.8-0.3-1.2-1-1.2-2c0-0.3,0-0.6,0.1-0.9l2.3-14.7
	c0.2-1.3,0.7-2.2,1.5-2.7C226.4,462.7,227.4,462.5,228.8,462.5z M229.3,465.5c0-0.4-0.3-0.5-0.9-0.5c-0.4,0-0.7,0.1-0.8,0.2
	c-0.2,0.1-0.3,0.3-0.3,0.7l-2.3,14.7c0,0.1,0,0.2,0,0.3c0,0.4,0.3,0.5,0.9,0.5c0.4,0,0.6-0.1,0.8-0.2s0.3-0.3,0.3-0.7l2.3-14.7
	C229.3,465.7,229.3,465.6,229.3,465.5z"/>
<path class="st5" d="M217.3,483.6h-3.1l3.3-20.9h6.4l-0.4,2.7h-3.2L217.3,483.6z"/>
<path class="st5" d="M213.3,483.6h-3.2l0.4-5.2H208l-1.4,5.2h-2.8l5.7-20.9h4.7L213.3,483.6z M211.3,465.6l-2.6,10.1h1.9
	L211.3,465.6z"/>
<path class="st5" d="M198.4,462.7h7.8l-3.3,20.9h-3.1l2.9-18.1H201l-2.3,14.5c-0.2,1.4-0.6,2.3-1,2.8c-0.6,0.6-1.5,0.9-2.8,0.9h-1
	l0.4-2.8c0.5,0,0.9-0.1,1.1-0.2c0.2-0.1,0.3-0.4,0.4-0.9L198.4,462.7z"/>
<path class="st5" d="M189.8,473.2l-1.2,7.7h0.6c0.6,0,0.9-0.1,1.2-0.4c0.2-0.2,0.3-0.7,0.4-1.2l0.7-4.3c0.1-0.3,0.1-0.6,0.1-0.8
	c0-0.6-0.4-0.9-1.2-0.9h-0.6V473.2z M191.1,465.4l-0.8,5.2h1.3c1.2,0,1.9,0.1,2.3,0.2c0.6,0.3,0.9,0.9,0.9,1.9
	c0,0.5-0.1,1.1-0.2,1.9l-0.8,4.9c-0.2,1.1-0.4,1.9-0.6,2.4c-0.4,0.8-1,1.3-1.8,1.5c-0.5,0.1-1.1,0.2-1.8,0.2H185l3.3-20.9h7.8
	l-0.4,2.7L191.1,465.4L191.1,465.4z"/>
<path class="st1" d="M327.5,96.3l4.1-25.7l4.9,0.8l-4.1,25.7L327.5,96.3z"/>
<path class="st1" d="M390.4,96.3l3.8-26.2l4.9,0.7L395.2,97L390.4,96.3z"/>
<path class="st1" d="M328,96.7c0,0,0,0,0.3-2.4l0.3-2.4h0.1h0.2c0.1,0,0.4,0,0.7,0.1c0.6,0.1,1.4,0.2,2.4,0.3c2.1,0.3,5,0.6,8.3,0.9
	c6.6,0.7,14.8,1.4,21.1,1.4s14.5-0.7,21.1-1.4c3.3-0.3,6.2-0.7,8.3-0.9c1-0.1,1.9-0.2,2.4-0.3c0.3,0,0.5-0.1,0.7-0.1h0.2h0.1
	c0,0,0,0,0.3,2.4s0.3,2.4,0.3,2.4h-0.1h-0.2c-0.2,0-0.4,0.1-0.7,0.1c-0.6,0.1-1.4,0.2-2.5,0.3c-2.1,0.3-5,0.6-8.4,0.9
	c-6.7,0.7-15,1.4-21.6,1.4s-15-0.7-21.6-1.4c-3.3-0.3-6.3-0.7-8.4-0.9c-1.1-0.1-1.9-0.2-2.5-0.3C328.5,96.8,328.3,96.7,328,96.7
	L328,96.7L328,96.7z"/>
</svg>
