<?xml version="1.0" encoding="utf-8"?>
<!-- Generator: Adobe Illustrator 24.0.1, SVG Export Plug-In . SVG Version: 6.00 Build 0)  -->
<svg version="1.1" id="Layer_1" xmlns="http://www.w3.org/2000/svg" xmlns:xlink="http://www.w3.org/1999/xlink" x="0px" y="0px"
	 viewBox="0 0 2475.8 843.2" style="enable-background:new 0 0 2475.8 843.2;" xml:space="preserve">
<style type="text/css">
	.st0{fill:#BF2727;}
</style>
<g>
	<path class="st0" d="M362.9,615.8L335,755.6c-0.6,3.3,0.2,6.3,2.3,9c2.1,2.4,4.8,3.6,8.1,3.6h112.4c6,0,9.4-2.8,10.3-8.5l5-22.9
		h94.4l-12.6,62.5c-2.4,12.6-8.5,22.8-18.4,30.6c-9.6,7.8-20.7,11.7-33.3,11.7H279.7c-7.2,0-13.9-1.5-20.2-4.5
		c-6.3-3-11.5-7-15.7-12.1c-4.2-5.4-7.2-11.4-9-18s-2-13.5-0.5-20.7L277.9,569c2.4-12.6,8.4-22.8,18-30.6s20.7-11.7,33.3-11.7h218.1
		c8.4,0,16,1.8,22.9,5.4c7.2,3.3,13,7.9,17.5,13.9c4.8,5.7,8.2,12.3,10.3,19.8s2.4,15.3,0.9,23.4l-8.5,42.3H496l4.1-18.9
		c0.6-3.3-0.2-6.1-2.3-8.5c-2.1-2.7-4.8-4-8.1-4H310.3L362.9,615.8z"/>
</g>
<g>
	<polygon class="st0" points="753.5,600 642.4,600 657.2,526.7 978.3,526.7 963.5,600 803,600 855.6,615.7 810.2,841.4 705.4,841.4 
			"/>
</g>
<g>
	<path class="st0" d="M1289.8,841.5h-94.4l18-89h-136.3l-18,89h-94.4l54.4-272.5c2.4-12.6,8.4-22.8,18-30.6
		c9.9-7.8,21.1-11.7,33.7-11.7h218.1c8.4,0,16,1.8,22.9,5.4c7.2,3.3,13.2,7.9,18,13.9c4.8,5.7,8.1,12.3,9.9,19.8
		c2.1,7.5,2.2,15.3,0.4,23.4L1289.8,841.5z M1051.9,600l52.2,15.7l-12.6,63h136.7l13-66.1c0.6-3.3-0.2-6.1-2.3-8.5
		c-2.1-2.7-4.8-4-8.1-4h-178.9V600z"/>
</g>
<g>
	<path class="st0" d="M1016.9,313.9h-94.4l18-89H804.2l-18,89h-94.4l54.4-272.5c2.4-12.6,8.4-22.8,18-30.6
		c9.9-7.8,21.1-11.7,33.7-11.7H1016c8.4,0,16,1.8,22.9,5.4c7.2,3.3,13.2,7.9,18,13.9c4.8,5.7,8.1,12.3,9.9,19.8
		c2.1,7.5,2.3,15.3,0.4,23.4L1016.9,313.9z M779,72.4l52.2,15.7l-12.6,63h136.7l13-66.1c0.6-3.3-0.2-6.1-2.2-8.5
		c-2.1-2.7-4.8-4-8.1-4H779V72.4z"/>
</g>
<g>
	<path class="st0" d="M1110.8-0.9h316.1c7.2,0,13.8,1.5,19.8,4.5c6.3,3,11.5,7.2,15.7,12.6c4.2,5.1,7.2,10.9,9,17.5
		c2.1,6.6,2.4,13.5,0.9,20.7l-25.6,128.2c-2.4,12.6-8.6,22.8-18.4,30.6c-9.6,7.8-20.7,11.7-33.3,11.7h-229.8l-17.5,89h-99.8
		L1110.8-0.9z M1192.6,88.1l-12.6,63h170c5.1,0,8.4-2.7,9.9-8.1l11.7-58c0.6-3.3-0.1-6.1-2.3-8.5c-2.1-2.7-4.8-4-8.1-4H1140
		L1192.6,88.1z"/>
</g>
<g>
	<polygon class="st0" points="1515.5,193.4 1568.1,209.1 1547,313.9 1452.6,313.9 1515.6,-0.9 1610,-0.9 1585.7,119.6 1743.1,119.6 
		1767.4,-0.9 1861.8,-0.9 1798.9,313.9 1704.5,313.9 1728.8,193.4 	"/>
</g>
<g>
	<path class="st0" d="M2158,64.7l-54.8,249.1h94.4l51-251.6c6.6-32.6-18.3-63.1-51.6-63.1h-98.4L1944,248.2h-55.3l62-17.9L1999.2-1
		h-94.4L1841,313.8h162.3L2158,64.7z"/>
</g>
<g>
	<path class="st0" d="M335.6,313.9H430l45.3-225.7l-50.6-15.7h174.1c8.3,0,14.5,7.6,12.9,15.7l-45,225.7h94.4L711.5,62
		c1.5-8.1,1.2-16-0.9-23.8c-2.1-7.5-5.4-14.2-9.9-20.2c-4.8-5.7-10.6-10.3-17.5-13.9c-7.2-3.3-15-4.9-23.4-4.9H441.7h-443l385.7,70
		L335.6,313.9z"/>
</g>
<g>
	<polygon class="st0" points="1191.5,367.1 1160.3,509.2 1214.2,509.2 1250.6,329.6 1157.7,329.6 1069.5,471.7 1037.9,471.7 
		1073.3,461.5 1101,329.5 1047.1,329.5 329.2,329.5 292,509.2 1010.7,509.2 1103.3,509.2 	"/>
</g>
<g>
	<path class="st0" d="M1258,431.5l7.2-36h73.1c3.1,0,5.1-1.6,5.9-4.9l2.3-12.1c0.3-1.9-0.1-3.5-1.3-4.9c-1.2-1.5-2.7-2.3-4.6-2.3
		h-85.9l8.5-41.9h110.6h819.9l-37.1,180.1h-793.4h-129.6l8.5-41.9h95.2c3.1,0,5.1-1.6,5.9-4.9l4.9-23.9c0.3-1.9-0.1-3.5-1.3-4.9
		c-1.2-1.5-2.7-2.3-4.6-2.3H1258V431.5z"/>
</g>
<g>
	<polygon class="st0" points="2053.1,592.4 1998.3,841.5 2092.7,841.5 2474.5,842.3 2106.1,775.4 2156.5,526.7 1993.7,526.7 
		1839.1,775.8 1783.8,775.8 1845.8,757.9 1894.3,526.6 1800,526.6 1736.2,841.4 1898.5,841.4 	"/>
</g>
<g>
	<path class="st0" d="M1373,841.5h94.4l45.3-225.7l-60.2-15.7h183.8c8.3,0,14.5,7.6,12.8,15.7l-45,225.7h94.4l50.4-251.8
		c1.5-8.1,1.2-16-0.9-23.8c-2.1-7.5-5.4-14.2-9.9-20.2c-4.8-5.7-10.6-10.3-17.5-13.9c-7.2-3.3-15-4.9-23.4-4.9h-218.1
		c-12.6,0-23.7,3.9-33.3,11.7c-9.9,7.8-16,18-18.4,30.6l-39.4,197h-38.1l-15.1,75.4h38.2V841.5z"/>
</g>
</svg>
