<?xml version="1.0" encoding="utf-8"?>
<!-- Generator: Adobe Illustrator 24.0.1, SVG Export Plug-In . SVG Version: 6.00 Build 0)  -->
<svg version="1.1" id="Layer_1" xmlns="http://www.w3.org/2000/svg" xmlns:xlink="http://www.w3.org/1999/xlink" x="0px" y="0px"
	 viewBox="0 0 188.4 284.5" style="enable-background:new 0 0 188.4 284.5;" xml:space="preserve">
<style type="text/css">
	.st0{fill:#BF2727;}
	.st1{fill:#FEFEFE;}
</style>
<path class="st0" d="M60.4,28.6l1-0.1l0.1,0.5c-1.4,1.7-2.9,3.6-4.2,5.6s-3,6.4-4.7,7.4c-4.5,3-9,6-13.2,9.8c-1.1,1-2.4,1.9-3.2,3.3
	c0.9,0,3.2-2.2,4.1-2.8c3.4-2.3,6.8-4.5,10.3-6.4c-1.7,3.4-3.6,6.8-5.1,10.4C40.9,67.8,37.6,81.1,34,93.4
	c-1.6,5.6-3.1,11.9-5.2,17.1c-0.6,1.4-1.4,2.9-2.3,3.7c-1.4,1.2-3.2,1.9-4.7,2.7l-10.2,5.2c-3.8,2-7.6,4.5-11.6,6
	c2.1-3.6,15.5-24.1,15.6-24.9l-0.7,0.6L0.5,124.1L2.9,101l1.4-17.8c0.2-2.8,0.2-5.9,0.8-8.6c0.6-2.5,2.4-5.1,3.6-7.2
	c0.6,0.1,0.8,0.1,1.3,0.7l-1.3,8.2l5.4-4.6c0.6-0.5,1.5-1.6,2.2-1.8c0.5-0.2,1.6,0.4,2.2,0.5l7.4,2.4l-4.6-7.3l7-6.5
	c-1.1-0.1-2.4,0.3-3.5,0.5l-6.7,1.2l-2.8-4C28,39.8,43.1,31.5,60.4,28.6z"/>
<path class="st0" d="M166.1,0l3.9,0.5l-20.3,128.6c2.3,0.7,7.4,0.8,9,3.3c0.7,1.1,0.8,2.3,0.7,3.8c-0.1,1.5,0.2,3.1-0.1,4.6
	c-0.3,1.6-1.7,2.5-2.4,3.8c-0.8,1.6-1.3,4.1-1.8,6c-2.9,1-6,2.7-9,2.7h-0.4l-14.1,99.5c1.7,2.4,3.8,5.8,6,7.4
	c2.6,1.8,5.9,2.2,8.7,2.6c8.4,1.3,17,1.3,25.5,1.2h6.5c0.5,0,1.5,0,2,0.2s1.1,0.9,1.5,1.4c1.7,2.1,6.6,7.5,6.6,10.8
	c0,0.9-0.4,1.2-0.9,1.8c-3.5,1.4-7.3,1.5-10.9,1.6l-17.3-0.2l-16.6-0.9c-1.7-0.2-4.1-0.2-5.6-1.2c-2.3-1.5-6.6-6.1-7.3-9.4l-0.1-0.3
	l-0.3-0.1c-0.4,1.5-0.6,3.1-1.2,4.5l-6.8,0.9l2.7-12L110,241.5c-2.9-4-5.7-8.3-8.9-11.9l-0.7,2c-1.3,3.9-2.2,4-4.8,5.7
	c-0.8,1.4-1.1,3.3-1.4,5l-1.8,1.2c-0.6,0.4-1.3,0.7-1.8,1.3s-1,1.3-1,2.3l1,0.9c0.7,0.6,1.2,1.2,2,1.3c0.5,0.1,0.9,0.3,1.4,0.6
	c0.2,1.5,0.4,3.5,1.1,4.7c1,1.6,2.7,2.1,4.1,2.6c3,1,9,2,11.3,5.2c0.7,1,1,1.9,1,3.2c-0.1,5.8-5.3,2.8-7.4,5.4l0.3,0.7
	c3,1.9,7.4,0,10.6-0.7l0.2,0.6c-1.4,8.3-8.4,6.8-13,6.7c-0.2,0-1.5-0.1-1.6,0c-0.6,0.4-1.6,3.3-2.4,4.1c-1.1,1.1-2.5,1.7-3.8,1.9
	c-2.9,0.5-6.1-0.2-9-0.5l-19.2-2.9l-8.6-1.9c-1.7-0.4-3.4-0.7-4.8-2c-0.4-1.4-0.3-1.5-0.1-2.9c1.9-3,6.4,1.4,8.7-0.7
	c-0.1-0.3,0-0.8-0.2-1c-1-1.1-3-0.8-4.3-2.2c-3.3-3.7,2.7-10.2,3.1-13.7c0.1-0.9-0.9-4.4-1-5.6c0.3-1,0.6-2.1,0.5-3.1
	c-0.1-0.8-0.8-1.7-0.7-2.6c0.1-1.3,0.6-2.4,0.7-3.8c0-0.8,0-3.1,0.2-3.8c0.2-0.6,1.3-1.9,1.7-2.4l-0.7-3c0.6-1.3,1.5-2.9,1.7-4.4
	c0.3-1.7,0.1-3.8,0.6-5.4c0.8-2.4,3.3-3.5,4.9-4.3c0.2-0.1,1.3-0.5,1.4-0.6c0.6-0.9,0.3-3.4,0.8-4.2c0.8-1.3,2.6-1.1,3.6-2.4
	c0.2-1.2,0.4-2.5,0.2-3.7l-2.4-1.3c-1.4-0.8-2.4-1.4-3-3.5c0.3-2.9,3.7-6.1,5.2-8.1c1-1.3,1.8-2.8,2.6-4.4L46,143.1l-2.8,1l-2.9-2.6
	l-2.2,1.3c-1.6,0.9-3.2,1.9-4.9,0.8c-1.9-1.3-4.2-0.1-5.8-1.3c-0.6-1.4-1-2.8-1.1-4.5c-0.4-6.6,4.5-8.1,6.9-12.1
	c0.4-3.1,1.4-3.7,3.2-5.3c0.5-0.4,1.2-0.8,1.5-1.5c1.3-2.5,2.6-3.4,4.3-5.3c0.8-0.9,1.4-2.1,2.2-3c1.7-2,5.4-0.3,7.4,0.1l1.4-5.5
	l-1.4-2.3l1.3-5.6l-14.7,5.3c3.1-5.3,7.5-9,11.4-13C43.7,93,37.5,100,32.3,105.8l10.1-34.6c1.4-4.9,2.6-10.2,4.5-14.8
	c2.2-5.5,5.3-11.2,8.2-15.9c13-20.6,31.1-25.3,49.7-26.8l-17.2,8.7c0.1,0.1,0.2,0.2,0.3,0.3c0.6,0.1,2.3-1.1,2.9-1.4l8.7-3.7
	c8.8-3.5,17.8-6.2,26.8-7.8l20.5-2.1l18.1-1.9L166.1,0z"/>
<path class="st1" d="M163.6,12.9l0.4,0.4l-0.2,1.9c-1.3,1.8-19.7,8.1-22.4,8.8l-0.2-0.2c5-2.8,10.3-4.7,15.4-7.1
	C159,15.7,161.4,14.6,163.6,12.9z"/>
<path class="st1" d="M69.3,272.9l6.8,0.9c2.3,0.2,6-0.2,8,1c0.1,1,0.1,0.9-0.2,1.8l-1.2,0.2c-1.6,0-13.9-1.4-14.6-2
	c-0.2-0.2-0.4-0.6-0.6-0.9l0.1-0.6L69.3,272.9z"/>
<path class="st1" d="M164.6,6.6l0.4,0.2c0,1.3-0.3,2.5-0.5,3.7c-0.7-0.3-1.4-0.6-2.1-0.5c-2.7,0.3-5.8,2.1-8.5,3.1l-29.3,12.4h-0.8
	c4.5-3,9.8-4.9,14.5-7L164.6,6.6z"/>
<path class="st1" d="M157.5,51h0.9l-0.3,2.1c-0.9,0.8-2.1,1-3.1,1.4l-5.6,2.3c-10.4,4.4-20.8,9.3-31.4,12.8l-0.7-0.2L157.5,51z"/>
<path class="st1" d="M87.4,24.5c0.7-0.1,1.5-0.2,2.2,0.3c1.2,1,0.3,2.2,0.5,3.6l1.5-0.2l0.4-0.1l0.2,0.5l-0.9,3l-9.7,3.2L77.9,36
	c-1.1,0.1-1.4-0.1-2.1-1.1c-0.2-1.6,0.8-4.3,1.4-5.6c0.6-1.3,1.8-1.8,2.8-2C82.4,26.8,85,25.4,87.4,24.5z"/>
<path class="st1" d="M72.1,28.6c1.4-0.2,2.2-0.2,3.4,0.8c0.2,0.8,0.2,0.9,0.1,1.7c-0.6,3.7-2.3,8-5.2,8.6c-1,0.2-1.7-0.3-2.7,0.6
	c-1.1,0.9-1.9,1.3-3.2,1.4h-0.3c-0.5,0.8-1.3,1.1-2,1.4l-3.5,1.6l4-10.8c0.1-0.2,0.4-1.3,0.5-1.4c0.5-0.5,1.9-0.9,2.5-1.2L72.1,28.6
	z"/>
<path class="st1" d="M110.1,30.6l0.5,0.4l-0.7,2.8c-0.5,0.4-0.7,0.7-1,1.4l0.2,0.5c0.8-0.6,1.4-0.9,2.3-0.9c0.4,0,0.7,0.1,1.1-0.1
	c2-0.9,4.6-0.9,6.7-1.2c-0.2,0.9-0.6,2.9-1.1,3.5c-0.3,0.4-0.7,0.4-1.2,1.1c0.1,1.7,1.8,0.5,2.6,1.7l-0.6,2.4
	c-0.5,1.2-6.7,1.4-7.8,1.4c-1.2,0.4-2.3,0.5-3.4-0.1l-0.3-0.1l-0.2,0.3c-0.1,0.2-0.6,1-0.8,1.2c-0.5,0.3-1.7,0.3-2.2,0.3l-5.3,0.9
	l-0.1-0.3l0.9-3c1.7-1.1,2.1-4.2,2.8-6.5l-0.6-0.8l0.9-3.3L110.1,30.6z"/>
<path class="st1" d="M122.5,14.8l0.7-0.1l0.3,0.5l-1.3,9.1c-5.8,0.8-11.5,2.4-17.3,3.7c-2.4,0.6-5,1.8-7.4,1.5
	c-0.4-0.2-0.7-0.6-1.1-0.9c-0.3-1.4,0.1-2.3,0.4-3.7c0.2-1.1,0.4-2,0.9-2.8c0.9-1.3,2-1.5,3.2-1.5h0.3l0.2-0.2c1.1-1,3-1.1,4.3-0.7
	l0.3,0.1c1.7-1.8,4.3-2.1,6.4-2.6L122.5,14.8z"/>
<path class="st1" d="M97.3,37.2l2.8-0.1l-2.7,8.6l-7.5,1.5c-1.8,0.4-3.9,1.3-5.7,0.8L84,47.9c-1.7,1.1-3,1.7-4.9,1.2L78.8,49
	c-1.7,1.3-2.8,1.9-4.7,1.4c-0.7-0.2-0.5,0.6-1,1.1c-1,0.9-3.8,1.2-5,1.7c-0.9,0.3-1.6,0.5-2.5,0.5h-0.3c-1.5,1.8-5,2.5-6.9,3.2
	c-0.6,0.2-0.3,0.3-0.8-0.1l4.5-10.3c0.7-0.2,1.6-0.4,2.1-1c0.3-0.3,0.4-0.5,0.7-0.7c0.8-0.5,3.6-1.7,4.3-1.2l-0.3,1.5
	c1.2,0.4,3.9-1,5.2-1.5l8.8-2.6c1.9-0.6,4.1-1.5,6.1-1.3h0.3c0.9-1,3.1-1.3,4.2-1.2c0.5,0.1,0.8,0.1,1.3-0.2
	C95.5,37.7,96.4,37.5,97.3,37.2z"/>
<path class="st1" d="M95.8,49.4h0.3c0.9,0,1.3,0.4,2,1.3c0,1.5-0.1,1.7-0.6,3l0.2,0.4h1.4l0.2,0.6l-0.8,3.2l-13.9,2.2
	c-0.8,0.1-2-0.2-2.6,0.2c-1.8,1.2-4.3,0.5-6.1,1.6c-0.3,0.2-0.5,0.5-0.8,0.7c-1,0.7-3.1,0.9-4.2,0.4l-22.1,8.3l4.2-9.4
	c3.9-1.8,8.5-4.4,12.5-5l0.7-0.1c5.3-2.5,11.3-3.7,16.8-5c-0.7,1.5-1.7,2.9-2.2,4.5l0.4,0.5l1.5-0.3l0.6-1.4
	c0.3-0.7,0.5-1.5,0.9-2.2C86,50.1,93,49.9,95.8,49.4z"/>
<path class="st1" d="M74.7,68.3c2.5-0.4,3.8,0.5,5.9,2.2l-3.1,9.7c-0.9,3.1-1.5,7.3-3.4,9.5c-1.7-0.4-3.3-0.7-5-0.7
	c-1.4,0-4.2,1-5.4,0.2c0.2-1.4,0.4-1.7,1-2.8l-0.4-2c-1.1,0-2.2,4.9-3.1,5.8c-0.4,0.4-2,0.8-2.5,1c-2,1-3.5,2.6-5.2,4.5
	c0.1-1.7,0.1-3.5,0.4-5.1c0.9-4.7,4.5-9.3,6.8-12.8L56.1,79l2.9-7.5C64.3,69.8,69.6,69.1,74.7,68.3z"/>
<path class="st1" d="M135,70.3c0.6-0.1,0.7-0.3,1.2,0.2l-0.3,2.2c1.4,1.6,4.2-0.4,5.7,1.2l0.6-0.6c1.5,0,4.6-0.6,5.8,0.4l-0.2,2.1
	l1.2,1.8c0.5,2.1,0,5.2-0.4,7.3c-0.3,1.4-1,2-1.8,2.8c-0.7,0.6-0.2,1.8-1,2.6c-1.4,0-4.8,0.5-5.8-0.4c0-0.8,0-1.5-0.2-2.3
	c-0.5,0.4-0.3,0.2-0.7,0.6c-1.5,1.8-2.9,1.7-4.8,1.7c-1.7-0.1-7.1,0.3-8.3-1.1c-0.2,0-0.4,0.4-0.6,0.6c-2.2-0.2-5.9,0.3-8-0.6
	c0.5-4,0.8-9.9,2.3-13.3c1.5-3.3,4.5-2.7,6.9-2.6c0.3,0,1.4,0.2,1.6,0c0.1,0,0.3-0.6,0.4-0.7C130.2,71.1,133.4,70.8,135,70.3z"/>
<path class="st1" d="M101.8,64.4c2.3-0.3,4.9,0.7,7,1.9c2.2,1.2,5.9,3.7,6.8,7.1c0.7,2.4,0.2,4.2-0.5,6.4c-0.8,2.5-0.4,3.9-0.6,6.4
	c-0.2,2.7-2.2,4.1-3.6,5.5c1,0.7,2.1,1,3.1,1.7c0.8,0.6,2.1,2.1,3,2.3c0.6,0.2,1.5,0,2.2,0l5.4,0.1c9.1,0.2,18.1,0.9,27.1-0.1
	l-4.9,30.6l-0.3-0.3l-0.5-0.4c-1.4-1.3-2.7-1.4-4.4-0.8l-0.4,0.1c-1.5,0.5-2.4,1.3-3.6,2.6l-0.4,0.4c-1-0.4-2.6-1-3.3-2.1
	c-0.3-0.5-0.4-1.7-0.7-2.2c-0.4-0.5-1.1-0.9-1.6-1.3l0.4-2c-0.2-1-0.2-1.6-0.7-2.4c-1.4,0.2-3.2,0.2-4.3,1.5v0.9
	c0.6,1.5,1.8,3.3,2.9,4c1.3,0.8,2,2.6,3.3,3.9c0.5,0.5,1.2,0.8,1.5,1.5s0,0.3,0.4,0.8c0.6,0.8,1.1,1.4,1.5,2.5
	c0.4,1.2,0.5,4.7,0,5.8c-0.7,1.6-2.5,2.4-3.7,2.6c-1,0.1-2.1,0-2.9-0.9c-0.7-0.8-0.7-2-1.3-2.9c-1.3-1.9-3.1-3.5-4.5-5.1
	c-1.2,1.6-1.5,1.8-1.7,4.2v0.5c0.8,1.6,2.3,5.3,3.3,6.3c0.1,0.2,1.8,0.1,2.1,0.1c1.7,0.1,3.8,0.2,5.4,1.2c1.3,0.9,2.4,2.3,3.5,3.6
	l3.2-0.7c1.3-0.2,1.8,0.1,2.8,1.2c0.2,2-0.7,5.4-1,7.5l-2.9,17.2l-12.4,73.2l-19.4-26.9l2.2-2.7c0.2-0.2,1.6-2.1,1.7-2.1
	c0.9,0,2.6,1.1,3.6,1.4c1.3,0.4,2.7,0.2,3.9,0.2c0.8-1.5,1.6-3.1,2-4.9c0.4-1.8,0.7-4.3,1.4-5.8c0.4-0.8,0.7-0.8,1.4-0.9
	c0.8-1.2,1.2-2.6,1.6-4.1c1-4.4,3.1-12.5,1.5-16.8c-0.4-1.2-0.7-2.1-0.9-3.4c0.3-1.4,2.2-2.3,3.1-3.6c0.2-1.2,0.3-1.7,0.2-3
	l-0.4-0.3l-1,0.7c-1.1-0.5-2-0.4-3.1-0.6c-0.7-0.1-1.2-0.4-1.6-1.2c-0.6-1.2-1-2.8-1.4-4.1l-2.8-7.6c-2.7-6.8-6-12.9-9.3-19.1
	c-3.8,4.6-7.7,9.9-11.9,13.7c-1.6,1.5-3.9,1.8-5.3,3.3c-1.9,2-3.7,4.9-5.4,7.3c-1.3,1.8-1.6,3-3.5,3.9l-0.3,0.1
	c-0.6,1.2-1.8,3.1-1.7,4.5c0.1,2.5-0.8,3.9-1.7,5.8c-2.3-1.4-2.8-5.2-4.9-6.5c-0.4-0.3-0.7-0.4-1.1-0.8c-1.2-1.2-1.7-2.5-1.8-4.5
	c-0.1-0.9-15.2-25.3-16.6-27.7l2.2-0.6c2.8-1.1,3.4-4.5,3.1-8.2c-0.2-1.9-0.9-3.3-0.2-5.1c0.8-0.3,1.4-0.5,2.2-0.4
	c1.4,1.9,4.2,5.2,4.8,7.7c0.2,0.7,0.4,1.2,0.6,1.9c1.2,0.4,2.8-0.1,4-0.3l-0.1,3.3c0.6,1.3,2.1,1.7,3.1,2.2l0.8-0.7
	c0.5-0.3,0.9-0.4,1.3-1l0.5-0.7c0.6-0.8,1.4-1.2,2.2-1.1c0.7,0.1,0.3,0.2,0.9-0.2l-2.2-7.8c-2.7-11.8,0.8-23.8,4.6-34.2
	c1,0,2.1,0.3,3.1-0.1l1.5-4l-3.5,0.7l2.9-6.7l-0.7-1.7c-0.9-2.2-0.6-3.8-0.8-6.1l-0.1-1.3c-0.1-2.8-0.1-5.1,1.3-7.2
	C89.6,64.3,97.3,64.9,101.8,64.4z"/>
<path class="st0" d="M110.5,93.9l0.2-0.1c0.4-0.1,0.4-0.2,0.8-0.1c0.8,0.1,1.9,1,2.7,1.5c2.9,2.2,5.5,5.4,7.5,9.1l-0.3,0.9
	c-0.4,0.2-0.2,0.2-0.7,0.1c-1.1-0.2-2.2-0.2-3.2-0.6c-1.5-0.5-3-0.1-4.4-0.6c-0.1-1.4-0.3-3.1-0.1-4.4c0.2-0.9,0.1-0.4,0.1-1.4
	l-2.1-1.5C110.6,95.8,110.5,95.1,110.5,93.9z"/>
<path class="st0" d="M100.3,66l2.6-0.2c3.3,0.2,8.7,3.1,10.8,6.8c1.9,3.3-0.2,6-0.6,9.2c-0.2,1.5,0.1,3-0.1,4.5
	c-0.2,1.6-1.1,2.3-2,3.1c-0.7-0.2-0.8-0.7-1.3-1.4c-1-0.2-1.4-0.1-2.3,0.4c-1.9,1-4.2,1.3-5.9,2.7l-0.1,0.7c1.4,2.6,3.5,3.9,5.5,5.4
	l-1.2-0.5c-1.5-0.7-2.6-1-4.1-1.1c-1-0.1-3.8-0.4-4.5,0.5c1,3.1,6.5,5.4,8.6,7.2c1.4,1.2,2.7,2.7,3.9,4.3l-3.7,4.3l-1.3-0.5
	c-1.2-0.4-2.3-0.3-3.4,0.7c-0.4,0.4-0.6,0.5-1.1,0.6c-0.6,0.1-1.3,0.3-1.8,0.7c-0.9,0.8-1,1.7-1.3,3.1c0.2,0.9,0.4,1.8,0.4,2.8
	c-2,0.2-3.5,1.3-5,3.1c-0.1,0.9-0.2,1.6-0.6,2.4l-0.3,0.7c0.1,0.7,0.1,1.3,0.1,2l-6.9,8c-1.7-4.9-2.9-9.9-3-15.4
	c0-7.5,2.6-15.2,4.8-21.9c0.7-2.3,2.1-5.2,2.3-7.5c-0.9-1-1.3-0.6-2.4-0.5c0.1-1.7,1.7-3.2,1.7-4.3c0-1.1-1.3-2.9-1.5-4
	c-0.3-1.4-0.2-3.6-0.2-5.1c-0.2-2.6-0.3-4.6,1.1-6.7C90.2,66,96.7,66.3,100.3,66z"/>
<path class="st1" d="M96.3,74.3c0.7,0.1,1.4,0.1,1.9,0.8l-0.4,2c0.2,1.1,0.3,1.4,1.1,2c1.2,0.8,3.3-1.3,4.4-2.1c0.8,0.4,1.4,1,2,1.6
	c0.1,0.9,0.1,2-0.2,2.9c-0.3,0.8-1,0.9-1.2,2c0.4,0.1,0.8,0.3,1.2,0.6v0.6c-0.5,1.7-1.3,2.7-2.2,3.9l-1,0.5
	c-1.4-0.9-2.5-1.8-4.1-1.5l-0.3,0.1c-0.8-0.7-1-0.8-1.4-2.1c-0.3-1-0.9-0.5-1.2-1.7c0.4-0.3,0.8-0.4,1.2-0.5l0.5-0.1l-1.1-1.8
	l0.4-0.6c0.5,0,0.9-0.1,1.4-0.2l-0.2-0.8c-0.7-0.5-1.2-0.9-1.7-1.7C95.6,76.8,95.9,75.5,96.3,74.3z"/>
<path class="st0" d="M132.5,98.7l0.8-0.1c0.9,0.6,1.8,2.5,2.4,3.6l5.5,10.2c-0.1,0.4-0.1,0.5-0.4,0.9c-0.3,0.5-1,1-1.4,1.2
	c-1.3,0.5-2.9,0.5-4.3,0.8l-10.1,2.4l0.1,1c0.1,0.9,0.1,1.9,0.5,2.7c0.7,1.7,2,3,3.1,4.2c2,2.3,4.4,4.5,6.2,7.1
	c0.8,1.2,0.5,3.5,0.5,5c-0.5,1.2-0.9,1.6-1.9,2c-0.9,0.3-1.4,0.2-2.1-0.4c-0.6-3.4-5.2-7.1-7.2-9.4c-1,1.6-1.9,3.3-3.3,4.2l-0.2,0.1
	c0.1,0.7,0,0.4,0.3,1l0.2,0.4l-0.4,0.8c0.1,1.2,1.1,2.6,1.6,3.6l4.3,8.5c3.3,7,5.7,14.7,8.9,21.8l-0.3,0.1c-3.8,1.6-7,1.8-11,1.8
	c-4-12.1-8.9-23.1-14.9-33.4l-5.3,6.3c-2.7,3.3-5.6,7.2-8.8,9.6c-1.6,1.3-3.5,1.3-4.9,3c-1.8,2.1-6.4,10.1-8.2,10.5
	c-0.5,0.1-0.8,0.2-1.2,0.5c-0.2,0.9-0.4,2.1-0.9,3c-0.5,1-1.2,1.4-2.1,1.6c-1.2,0.2-2.6-0.5-3.6-1.5c-0.7-0.7-1.1-1.6-1.2-2.8
	c-0.1-0.8,0.3-1.2,0.6-1.8c1-0.5,1.9-1.1,2.8-1.9c-0.1-4.1,2.6-4.9,4.2-7.8c0.7-1.4,1.6-2.6,2.5-3.8l-4.3-5c-0.5-0.8-0.1-2,0-3
	c-1.1-1-2.4-1.3-3.2-2.8c0.3-0.8,0.5-0.9,1.1-1.4l1,0.6c1.2-1.2,0.3-0.7,0.6-2.4l0.7-0.4c1.2,0.4,2.1,1.5,3.1,2.5
	c2.7-3.7,6.6-6.7,8.9-10.8c0.7-1.3,1.7-1.7,2.8-2.4c0.3-1.5,0.4-3.1,0.5-4.7c0.3-0.4,0.6-0.6,1-0.8c0.6-0.3,0.7-1.1,1.2-1.7l1.3,0.7
	c0.9-0.3,1.7-1.5,2.4-2.4c-0.3-1-0.7-2-0.8-3.1c-0.2-1-0.1-1,0.3-1.8c1.3,0,2.1-0.5,3.2-1.6l0.2-0.2c1,0.2,1.9,1.2,2.8,1.9l4.5-5.1
	c0.8-1,1.7-2.3,2.7-3c0.9-0.7,2.1-0.6,3.1-0.1c0.5,0.2,0.8,0.4,1.4,0.4c1.3,0.1,2.1,0.3,3.3,1c0.1,0.1,0.2,0.3,0.4,0.2
	C121.8,108.7,130.6,99.6,132.5,98.7z"/>
</svg>
