<?xml version="1.0" encoding="utf-8"?>
<!-- Generator: Adobe Illustrator 24.0.1, SVG Export Plug-In . SVG Version: 6.00 Build 0)  -->
<svg version="1.1" id="Layer_1" xmlns="http://www.w3.org/2000/svg" xmlns:xlink="http://www.w3.org/1999/xlink" x="0px" y="0px"
	 viewBox="0 0 2475.8 843.2" style="enable-background:new 0 0 2475.8 843.2;" xml:space="preserve">
<style type="text/css">
	.st0{fill:#FFFFFF;}
</style>
<path class="st0" d="M362.9,615.8L335,755.6c-0.6,3.3,0.2,6.3,2.3,9c2.1,2.4,4.8,3.6,8.1,3.6h112.4c6,0,9.4-2.8,10.3-8.5l5-22.9
	h94.4l-12.6,62.5c-2.4,12.6-8.5,22.8-18.4,30.6c-9.6,7.8-20.7,11.7-33.3,11.7H279.7c-7.2,0-13.9-1.5-20.2-4.5
	c-6.3-3-11.5-7-15.7-12.1c-4.2-5.4-7.2-11.4-9-18c-1.8-6.6-2-13.5-0.5-20.7L277.9,569c2.4-12.6,8.4-22.8,18-30.6
	c9.6-7.8,20.7-11.7,33.3-11.7h218.1c8.4,0,16,1.8,22.9,5.4c7.2,3.3,13,7.9,17.5,13.9c4.8,5.7,8.2,12.3,10.3,19.8
	c2.1,7.5,2.4,15.3,0.9,23.4l-8.5,42.3H496l4.1-18.9c0.6-3.3-0.2-6.1-2.3-8.5c-2.1-2.7-4.8-4-8.1-4H310.3L362.9,615.8z"/>
<path class="st0" d="M753.5,600H642.4l14.8-73.3h321.1L963.5,600H803l52.6,15.7l-45.4,225.7H705.4L753.5,600z"/>
<path class="st0" d="M1289.8,841.5h-94.4l18-89h-136.3l-18,89h-94.4l54.4-272.5c2.4-12.6,8.4-22.8,18-30.6
	c9.9-7.8,21.1-11.7,33.7-11.7h218.1c8.4,0,16,1.8,22.9,5.4c7.2,3.3,13.2,7.9,18,13.9c4.8,5.7,8.1,12.3,9.9,19.8
	c2.1,7.5,2.2,15.3,0.4,23.4L1289.8,841.5z M1051.9,600l52.2,15.7l-12.6,63h136.7l13-66.1c0.6-3.3-0.2-6.1-2.3-8.5
	c-2.1-2.7-4.8-4-8.1-4H1051.9z"/>
<path class="st0" d="M1016.9,313.9h-94.4l18-89H804.2l-18,89h-94.4l54.4-272.5c2.4-12.6,8.4-22.8,18-30.6
	c9.9-7.8,21.1-11.7,33.7-11.7H1016c8.4,0,16,1.8,22.9,5.4c7.2,3.3,13.2,7.9,18,13.9c4.8,5.7,8.1,12.3,9.9,19.8
	c2.1,7.5,2.3,15.3,0.4,23.4L1016.9,313.9z M779,72.4l52.2,15.7l-12.6,63h136.7l13-66.1c0.6-3.3-0.2-6.1-2.2-8.5
	c-2.1-2.7-4.8-4-8.1-4H779z"/>
<path class="st0" d="M1110.8-0.9h316.1c7.2,0,13.8,1.5,19.8,4.5c6.3,3,11.5,7.2,15.7,12.6c4.2,5.1,7.2,10.9,9,17.5
	c2.1,6.6,2.4,13.5,0.9,20.7l-25.6,128.2c-2.4,12.6-8.6,22.8-18.4,30.6c-9.6,7.8-20.7,11.7-33.3,11.7h-229.8l-17.5,89h-99.8
	L1110.8-0.9z M1192.6,88.1l-12.6,63h170c5.1,0,8.4-2.7,9.9-8.1l11.7-58c0.6-3.3-0.1-6.1-2.3-8.5c-2.1-2.7-4.8-4-8.1-4H1140
	L1192.6,88.1z"/>
<path class="st0" d="M1515.5,193.4l52.6,15.7L1547,313.9h-94.4l63-314.8h94.4l-24.3,120.5h157.4l24.3-120.5h94.4l-62.9,314.8h-94.4
	l24.3-120.5H1515.5z"/>
<path class="st0" d="M2158,64.7l-54.8,249.1h94.4l51-251.6c6.6-32.6-18.3-63.1-51.6-63.1h-98.4l-154.6,249.1h-55.3l62-17.9
	l48.5-231.3h-94.4l-63.8,314.8h162.3L2158,64.7z"/>
<path class="st0" d="M335.6,313.9H430l45.3-225.7l-50.6-15.7h174.1c8.3,0,14.5,7.6,12.9,15.7l-45,225.7h94.4L711.5,62
	c1.5-8.1,1.2-16-0.9-23.8c-2.1-7.5-5.4-14.2-9.9-20.2c-4.8-5.7-10.6-10.3-17.5-13.9c-7.2-3.3-15-4.9-23.4-4.9H441.7h-443l385.7,70
	L335.6,313.9z"/>
<path class="st0" d="M1191.5,367.1l-31.2,142.1h53.9l36.4-179.6h-92.9l-88.2,142.1h-31.6l35.4-10.2l27.7-132h-53.9H329.2L292,509.2
	h718.7h92.6L1191.5,367.1z"/>
<path class="st0" d="M1258,431.5l7.2-36h73.1c3.1,0,5.1-1.6,5.9-4.9l2.3-12.1c0.3-1.9-0.1-3.5-1.3-4.9c-1.2-1.5-2.7-2.3-4.6-2.3
	h-85.9l8.5-41.9h110.6h819.9l-37.1,180.1h-793.4h-129.6l8.5-41.9h95.2c3.1,0,5.1-1.6,5.9-4.9l4.9-23.9c0.3-1.9-0.1-3.5-1.3-4.9
	c-1.2-1.5-2.7-2.3-4.6-2.3H1258z"/>
<path class="st0" d="M2053.1,592.4l-54.8,249.1h94.4l381.8,0.8l-368.4-66.9l50.4-248.7h-162.8l-154.6,249.1h-55.3l62-17.9
	l48.5-231.3H1800l-63.8,314.8h162.3L2053.1,592.4z"/>
<path class="st0" d="M1373,841.5h94.4l45.3-225.7l-60.2-15.7h183.8c8.3,0,14.5,7.6,12.8,15.7l-45,225.7h94.4l50.4-251.8
	c1.5-8.1,1.2-16-0.9-23.8c-2.1-7.5-5.4-14.2-9.9-20.2c-4.8-5.7-10.6-10.3-17.5-13.9c-7.2-3.3-15-4.9-23.4-4.9h-218.1
	c-12.6,0-23.7,3.9-33.3,11.7c-9.9,7.8-16,18-18.4,30.6L1388,766.2h-38.1l-15.1,75.4H1373z"/>
</svg>
