<?xml version="1.0" encoding="utf-8"?>
<!-- Generator: Adobe Illustrator 24.0.1, SVG Export Plug-In . SVG Version: 6.00 Build 0)  -->
<svg version="1.1" id="Layer_1" xmlns="http://www.w3.org/2000/svg" xmlns:xlink="http://www.w3.org/1999/xlink" x="0px" y="0px"
	 viewBox="0 0 200 111.7" style="enable-background:new 0 0 200 111.7;" xml:space="preserve">
<style type="text/css">
	.st0{fill:#B5B5B5;}
</style>
<path class="st0" d="M46.9,17.2c0.1,0,0.1,0,0.2,0c0,0.3-0.6,0.8-0.8,1.1c-0.1,0.1-0.2,0.3-0.2,0.4C46,18.8,46,19,45.9,19.2
	c-0.1,0.2-0.1,0.3-0.1,0.5s-0.1,0.3-0.1,0.5c-0.2,1.9,0.5,3.9,1.7,5.4s2.8,2.4,4.7,2.6l-0.4,0.3c-0.9,0.1-1.6,0-2.5-0.2
	c-1.3-0.4-2.6-1-3.7-1.9c-1.6-1.2-3.1-3.2-3.3-5.3c-0.1-0.8,0.1-1.5,0.6-2.1C43.8,17.8,45.4,17.3,46.9,17.2z"/>
<path class="st0" d="M74.9,16.7c1.4,2.6,3,5.3,5.5,7.1c0.8,0.6,1.7,1,2.5,1.5C81.7,26,80.3,26.4,79,27c-1.5,0.7-2.9,1.4-4.3,2.4
	c-0.1-0.2-0.1-0.3-0.1-0.5C73.5,24.8,72.7,20.5,74.9,16.7z"/>
<path class="st0" d="M21.3,76.8c0.1,0.3-0.5,1.3-0.6,1.7c-0.4,1.2-0.5,2.6-0.5,3.9c0,1.6,0.2,3,1.3,4.2C23,88.2,25.9,89,28,89
	c-3.3,3-8.1,5.2-11.9,7.6c0,0.2-0.1,0.4-0.1,0.6c-0.1,0.5-0.3,0.9-0.6,1.3c-0.5,0.5-1.3,0.5-1.8,1c-0.4,0.4-0.8,0.8-1.2,1.2
	c-1.2,1.2-2.3,2.6-3.8,3.6c-1.2,0.8-2.5,1.2-3.9,1c-0.4-0.1-0.8-0.3-1.1-0.5c-0.9,0.7-1.8,1.7-2.8,2.3c-0.3-0.3-0.6-0.7-0.8-1
	c0.8-0.8,1.3-1.8,1.9-2.8c-0.5-1.1-0.9-2.3-0.6-3.6c0.2-0.7,0.5-1.2,1-1.7c0.9-0.8,3.2-1.7,4.4-2.4c1.2-0.7,2.3-1.6,3.5-2.3
	l-0.3-0.8c0.6-0.5,1-0.9,1.7-0.8C13.9,86.7,17.6,80.3,21.3,76.8z"/>
<path class="st0" d="M62.9,89.7c2.5,0.3,2.4,3.3,3.8,4.8c0.7,0.7,1.8,1,2.3,1.6c0.1,0.2,0.2,0.4,0.2,0.6s-0.1,0.3-0.3,0.4
	c-0.2,0.1-0.2,0.2-0.4,0.1c-1.9-1.1-5.6-4.5-6.6-6.4C62.2,90.3,62.5,90,62.9,89.7z"/>
<path class="st0" d="M153.1,17.2c-0.1,0-0.1,0-0.2,0c0,0.3,0.6,0.8,0.8,1.1c0.1,0.1,0.2,0.3,0.2,0.4c0.1,0.1,0.1,0.3,0.2,0.5
	c0.1,0.2,0.1,0.3,0.1,0.5s0.1,0.3,0.1,0.5c0.2,1.9-0.5,3.9-1.7,5.4s-2.8,2.4-4.7,2.6l0.4,0.3c0.9,0.1,1.6,0,2.5-0.2
	c1.3-0.4,2.6-1,3.7-1.9c1.6-1.2,3.1-3.2,3.3-5.3c0.1-0.8-0.1-1.5-0.6-2.1C156.2,17.8,154.6,17.3,153.1,17.2z"/>
<path class="st0" d="M125.1,16.7c-1.4,2.6-3,5.3-5.5,7.1c-0.8,0.6-1.7,1-2.5,1.5c1.2,0.7,2.6,1.1,3.9,1.7c1.5,0.7,2.9,1.4,4.3,2.4
	c0.1-0.2,0.1-0.3,0.1-0.5C126.5,24.8,127.3,20.5,125.1,16.7z"/>
<path class="st0" d="M178.7,76.8c-0.1,0.3,0.5,1.3,0.6,1.7c0.4,1.2,0.5,2.6,0.5,3.9c0,1.6-0.2,3-1.3,4.2c-1.5,1.6-4.4,2.4-6.5,2.4
	c3.3,3,8.1,5.2,11.9,7.6c0,0.2,0.1,0.4,0.1,0.6c0.1,0.5,0.3,0.9,0.6,1.3c0.5,0.5,1.3,0.5,1.8,1c0.4,0.4,0.8,0.8,1.2,1.2
	c1.2,1.2,2.3,2.6,3.8,3.6c1.2,0.8,2.5,1.2,3.9,1c0.4-0.1,0.8-0.3,1.1-0.5c0.9,0.7,1.8,1.7,2.8,2.3c0.3-0.3,0.6-0.7,0.8-1
	c-0.8-0.8-1.3-1.8-1.9-2.8c0.5-1.1,0.9-2.3,0.6-3.6c-0.2-0.7-0.5-1.2-1-1.7c-0.9-0.8-3.2-1.7-4.4-2.4c-1.2-0.7-2.3-1.6-3.5-2.3
	l0.3-0.8c-0.6-0.5-1-0.9-1.7-0.8C186.1,86.7,182.4,80.3,178.7,76.8z"/>
<path class="st0" d="M137.1,89.7c-2.5,0.3-2.4,3.3-3.8,4.8c-0.7,0.7-1.8,1-2.3,1.6c-0.1,0.2-0.2,0.4-0.2,0.6s0.1,0.3,0.3,0.4
	s0.2,0.2,0.4,0.1c1.9-1.1,5.6-4.5,6.6-6.4C137.8,90.3,137.5,90,137.1,89.7z"/>
<path class="st0" d="M173.1,74.3c-0.9-1-1.8-1.9-2.7-3l0.8-0.9c-2.5-5.1-5.4-10-8.9-14.4c-0.8-1-1.6-1.9-2.4-2.8
	c-0.7-0.7-1.7-1.6-2.2-2.5c0.2-0.5,1.1-0.6,1.6-0.9c0.4-0.3,0.5-0.7,0.8-1c0.8-0.8,1.7-1.1,2.3-2.2c0.2-0.3,0.3-0.6,0.3-0.9
	c0-0.9-0.7-2.6-0.9-3.5c1.7-1.7,3.4-3.4,5.1-5.2c0.8-0.8,1.7-1.9,2.6-2.6c3.2,0,7.9,2.2,10.4,4.2c-1.4-3.2-4.5-6.4-7.6-8.1
	c-1.5-0.8-3.2-1.4-5-1.3c-0.3,0-0.7,0-0.9,0.1c-0.1,0-0.2,0.1-0.2,0.2c-0.2,0.6,0.7,1.9,1,2.5v0.1c-0.8,1-1.7,1.9-2.6,2.8
	c-1.1,1.2-2.3,2.3-3.4,3.5c0.1-0.5,0.6-2,0.5-2.4c0-0.2-0.1-0.3-0.2-0.4c-0.4-0.3-1.3-0.1-1.8,0c0.8-4.4,0.7-8.7-0.5-13
	c-0.4,1.5-0.9,2.9-1.9,4.1c-1.3,1.6-3.4,3.1-5.5,3.3c-1.2,0.1-2.1-0.4-3-1.1c0.7,2.1,2.2,5.6,4.1,6.8c0.5,0,1,0,1.5,0.1
	c-0.7,0-1.4,0.1-2,0.2c-0.5,0.1-1.3,0.2-1.6,0.6c-0.1,0.6,0.7,1.1,0.9,1.8c0.1,0.8-0.3,1.4-0.8,2c-2.3-2-4.7-4.6-6.2-7.3
	c-1-2-1.8-4.4-2.5-6.5c1.6,0.1,3.3,0.1,4.9-0.3c1.8-0.5,3.4-1.6,4.3-3.2c0.7-1.3,1-2.9,0.6-4.3c-0.2-0.8-0.7-1.7-1.4-2.2
	c-0.5-0.3-3.3-1.2-4.2-1.6c-1.9-0.8-3.6-1.7-5.3-2.7c-4-2.3-7.2-1.8-11.3-0.3c-1.2,0.4-2.3,0.9-3.5,1.2c0.2-0.7,0.4-1.4,0.4-2.1
	c-0.1-0.1-0.1-0.2-0.1-0.3c0.3-0.5,0.3-0.8,0.3-1.3c0-0.9,0-2.3-0.5-3.2c-0.1-0.2-0.3-0.4-0.5-0.6c-0.1-0.3-0.2-0.7-0.3-1
	c-0.3-0.9-0.8-1.8-1.4-2.5c-0.9-0.9-2.3-1.6-3.5-1.6c-2.3,0-5,2.3-6.6,3.8c1-1.9,2.5-3.1,4.3-4.1c-1.6-0.3-3.2-0.4-4.7,0.4
	c-2.9,1.5-4.5,4-5.4,7c-0.4,0-0.8,0.1-1.3,0.2c-0.4,1.4-0.3,2.7,0.3,4c2.7,2.1,9,1.3,12.3,1c0.2,0.4,0.3,0.7,0.3,1.1
	c0,1.4-1.5,3.6-2.5,4.5c-1.1,1-3.5,0.9-4.8,0.9l-0.3-0.6c-1.7-0.9-1.4,0.1-2.4,0.2c-1-0.3-2-3.5-2.2-4.5c-0.1-0.5-0.2-2-0.5-2.3
	c0,0-0.1,0-0.1,0.1c-0.5,0.7,0,3.6,0.2,4.4c0.3,1.2,1,2,2,2.6c0.1,0.5,0.3,1,0.6,1.4c0.6,1,1.5,1.7,2.7,2c2.2,0.4,5.1-0.4,7-1.6
	c0.6-0.4,1.2-0.9,1.8-1.3h0.1c-0.1,0.1-0.2,0.2-0.3,0.3c-0.1,0.1-0.2,0.2-0.3,0.3c-0.1,0.1-0.2,0.2-0.3,0.3
	c-0.1,0.1-0.2,0.2-0.3,0.3c-0.1,0.1-0.2,0.2-0.4,0.3c-0.1,0.1-0.2,0.2-0.4,0.3c-0.1,0.1-0.3,0.2-0.4,0.2c-0.1,0.1-0.3,0.2-0.4,0.2
	c-0.1,0.1-0.3,0.1-0.4,0.2s-0.3,0.1-0.4,0.2s-0.3,0.1-0.4,0.2s-0.3,0.1-0.4,0.2c-0.1,0-0.3,0.1-0.4,0.1s-0.3,0.1-0.4,0.1
	s-0.3,0.1-0.4,0.1s-0.3,0.1-0.4,0.1c-1.6,0.2-3.2,0.1-4.6-0.9c0.1,0.3,0.2,0.6,0.3,0.9c0.4,0.8,1.1,1.5,2,1.8
	c1.4,0.5,3.3,0.1,4.6-0.5c2.6-1.3,6.6-5.7,7.5-8.5c0.2-0.7,0.4-1.9,0-2.6c-0.1-0.2-0.3-0.2-0.6-0.3c0-0.2,0-0.2,0.1-0.4
	c0.2-0.1,0.4-0.2,0.6-0.1c0.2,0,0.3,0.1,0.4,0.3c0.4,0.5,0.3,1.4,0.3,2.1c1.1,0.8,1.7,1.9,2.2,3.1c1.2,3.2,0.4,6.7-1,9.7
	c-0.4,0.9-0.9,1.7-1.3,2.6c-3.1-0.6-6-1.6-8.7-3.1c-0.7-0.4-1.4-0.9-2.1-1.3c-1.1,0-2.2-0.1-3.1-0.7c-1.2-0.8-1.7-2.2-2-3.5
	c-0.5,0.6-1.1,1-1.7,1.5c-1.4,1.3-2.8,2.7-4,4.2c-2.5,3.3-3.6,7.3-1.7,11.2c0.6,1.3,1.6,2.5,2,3.9c0.4,1.2,0.6,2.5,0.8,3.7
	c0.4,2.1,0.7,4.3,1,6.4c1.6-2.5,4-4.2,6.9-5.1c1.6-0.5,3.7-0.7,5.2,0.2c0.2,0.9,0.3,1.8,0.3,2.7c-0.7-0.3-1.4-0.5-2.1-0.6
	c-2.3-0.3-4.8,0.6-6.6,2.1c-1.5,1.2-2.2,2.4-2.4,4.3c0.4,0.8,1,1.6,1.5,2.4c-0.2,0.5-0.5,1-0.6,1.6c0.2,0.7,0.5,1.3,0.9,1.9
	c-2.1,1.2-3.6,2.7-4.3,5c-0.6,1.8-0.7,4,0.2,5.8c1.1,2.1,4.4,4.9,6.7,5.6c0.4-0.1,0.8-0.2,1.2-0.2c0.4,0.4,0.7,0.8,1.1,1.2
	c1,0.9,2.3,2.2,3.6,2.5c0.2,0.1,0.5,0,0.8,0c0.2,0.2,0.4,0.5,0.6,0.7c-0.7,0.8-1.5,1.5-2.2,2.3c-2.4,2.5-4.8,5-7.3,7.4
	c-2.6,2.8-5.3,5.5-8,8.3c-0.5,0.5-1,1-1.5,1.5c-0.5-0.5-1-1-1.5-1.5c-2.7-2.7-5.3-5.5-8-8.3c-2.4-2.5-4.9-4.9-7.3-7.4
	c-0.7-0.8-1.5-1.5-2.2-2.3c0.2-0.2,0.4-0.5,0.6-0.7c0.3,0,0.5,0,0.8,0c1.3-0.3,2.6-1.6,3.6-2.5c0.4-0.4,0.8-0.8,1.1-1.2
	c0.4,0.1,0.8,0.2,1.2,0.2c2.3-0.7,5.5-3.5,6.7-5.6c0.9-1.7,0.8-4,0.2-5.8c-0.7-2.3-2.2-3.8-4.3-5c0.4-0.6,0.7-1.2,0.9-1.9
	c-0.1-0.6-0.3-1.1-0.6-1.6c0.4-0.8,1.1-1.5,1.5-2.4c-0.2-1.8-1-3.1-2.4-4.3c-1.8-1.4-4.3-2.3-6.6-2.1c-0.8,0.1-1.4,0.3-2.1,0.6
	c0-0.9,0.1-1.8,0.3-2.7c1.5-0.8,3.6-0.6,5.2-0.2c2.9,0.8,5.3,2.6,6.9,5.1c0.3-2.2,0.6-4.3,1-6.4c0.2-1.2,0.4-2.5,0.8-3.7
	c0.4-1.4,1.4-2.6,2-3.9c1.9-3.9,0.8-7.9-1.7-11.2c-1.2-1.5-2.6-2.9-4-4.2c-0.6-0.5-1.2-1-1.7-1.5c-0.3,1.4-0.8,2.7-2,3.5
	c-0.9,0.7-2,0.8-3.1,0.7c-0.7,0.4-1.4,0.9-2.1,1.3c-2.7,1.6-5.6,2.5-8.7,3.1c-0.4-0.9-0.9-1.7-1.3-2.6c-1.3-3-2.2-6.5-1-9.7
	c0.4-1.2,1.1-2.3,2.2-3.1c-0.1-0.6-0.2-1.5,0.3-2.1c0.1-0.2,0.2-0.2,0.4-0.3c0.2,0,0.4,0.1,0.6,0.1c0.1,0.2,0.1,0.2,0.1,0.4
	c-0.3,0.1-0.4,0.1-0.6,0.3c-0.4,0.7-0.2,1.9,0,2.6c0.9,2.8,4.9,7.2,7.5,8.5c1.3,0.6,3.1,1,4.6,0.5c0.9-0.3,1.6-1,2-1.8
	c0.1-0.3,0.3-0.6,0.3-0.9c-1.3,1-3,1.1-4.6,0.9c-0.1,0-0.3,0-0.4-0.1c-0.1,0-0.3-0.1-0.4-0.1s-0.3-0.1-0.4-0.1s-0.3-0.1-0.4-0.1
	s-0.3-0.1-0.4-0.2s-0.3-0.1-0.4-0.2s-0.3-0.1-0.4-0.2s-0.3-0.1-0.4-0.2s-0.3-0.1-0.4-0.2s-0.3-0.2-0.4-0.2c-0.1-0.1-0.3-0.2-0.4-0.3
	c-0.1-0.1-0.2-0.2-0.4-0.3c-0.1-0.1-0.2-0.2-0.3-0.3c-0.1-0.1-0.2-0.2-0.3-0.3c-0.1-0.1-0.2-0.2-0.3-0.3c-0.1-0.1-0.2-0.2-0.3-0.3
	h0.1c0.6,0.4,1.2,0.9,1.8,1.3c1.9,1.1,4.8,2,7,1.6c1.1-0.2,2-1,2.7-2c0.3-0.5,0.5-0.9,0.6-1.4c1.1-0.6,1.7-1.5,2-2.6
	c0.2-0.8,0.7-3.8,0.2-4.4l-0.1-0.1c-0.3,0.3-0.3,1.8-0.5,2.3c-0.2,1-1.2,4.2-2.2,4.5c-1.1-0.1-0.8-1-2.4-0.2l-0.3,0.6
	c-1.4,0-3.8,0.1-4.8-0.9c-1-0.9-2.4-3.1-2.5-4.5c0-0.4,0.1-0.7,0.3-1.1c3.3,0.3,9.6,1.1,12.3-1c0.6-1.3,0.7-2.7,0.3-4
	c-0.4-0.1-0.8-0.1-1.3-0.2c-1-3-2.5-5.6-5.4-7c-1.5-0.8-3.1-0.8-4.7-0.4c0.9,1,2.4,2.2,3.4,4.1c-1.5-1.5-4.3-3.8-6.6-3.8
	c-1.3,0-2.7,0.7-3.5,1.6c-0.7,0.7-1.1,1.6-1.4,2.5c-0.1,0.3-0.2,0.7-0.3,1c-0.1,0.2-0.3,0.4-0.5,0.6c-0.5,0.8-0.5,2.2-0.5,3.2
	c0,0.5,0.1,0.9,0.3,1.3c0,0.2-0.1,0.2-0.1,0.3c0,0.7,0.2,1.4,0.4,2.1c-1.2-0.3-2.4-0.8-3.5-1.2c-4.1-1.4-7.4-2-11.3,0.3
	c-1.7,1-3.4,1.9-5.3,2.7c-0.8,0.4-3.7,1.3-4.2,1.6c-0.6,0.5-1.2,1.4-1.4,2.2c-0.4,1.4-0.1,3,0.6,4.3c0.9,1.6,2.5,2.7,4.3,3.2
	c1.6,0.4,3.3,0.4,4.9,0.3c-0.7,2.2-1.5,4.5-2.5,6.5c-1.4,2.8-3.8,5.3-6.2,7.3c-0.4-0.6-0.9-1.2-0.8-2c0.1-0.7,1-1.1,0.9-1.8
	c-0.3-0.4-1.1-0.5-1.6-0.6c-0.7-0.1-1.4-0.2-2-0.2c0.5-0.1,1-0.1,1.5-0.1c1.9-1.3,3.3-4.7,4.1-6.8c-0.9,0.8-1.8,1.2-3,1.1
	c-2.1-0.1-4.2-1.7-5.5-3.3c-1-1.2-1.5-2.6-1.9-4.1c-1.1,4.3-1.3,8.6-0.5,13c-0.5-0.1-1.4-0.3-1.8,0c-0.2,0.1-0.2,0.2-0.2,0.4
	c-0.1,0.4,0.4,1.8,0.5,2.4c-1.1-1.2-2.2-2.4-3.4-3.5c-0.9-0.9-1.8-1.8-2.6-2.8V32c0.2-0.6,1.1-1.9,1-2.5c0-0.1-0.2-0.1-0.2-0.2
	c-0.3-0.1-0.7-0.1-0.9-0.1c-1.8-0.1-3.5,0.5-5,1.3c-3.1,1.7-6.2,4.8-7.6,8.1c2.5-2,7.2-4.2,10.4-4.2c0.9,0.7,1.8,1.7,2.6,2.6
	c1.7,1.7,3.4,3.4,5.1,5.2c-0.3,1-0.9,2.6-0.9,3.5c0,0.3,0.1,0.6,0.3,0.9c0.6,1.1,1.5,1.4,2.3,2.2c0.3,0.3,0.5,0.8,0.8,1
	c0.4,0.3,1.4,0.4,1.6,0.9c-0.5,0.8-1.6,1.7-2.2,2.5c-0.8,0.9-1.6,1.8-2.4,2.8c-3.6,4.4-6.5,9.3-8.9,14.4l0.8,0.9c-0.8,1-1.8,2-2.7,3
	c-1.4,0.4-2.7,0.5-3.4,2c-1,1.9-1.9,5.6-1.2,7.7c0.3,1,1.1,1.5,2,1.9c1.8,0.9,3.7,1.2,5.6,1.1c0.8-0.6,1.4-1.4,2.2-2
	c0.8-0.5,1.8-0.7,2.7-1.1c2.6-1.3,4.3-3.7,6-6c1.6,0.5,3.4,0.9,5.1,0.9c2.9-4.7,6.4-9.4,11.2-12.4c1.2-0.7,2.4-1.3,3.7-1.8
	c1.3,1.2,2.5,2.6,3.8,3.9c1.6,1.7,3.2,3.3,4.8,5.1c-0.9,0.6-1.3,1.2-1.4,2.3C68,76.3,68,76.7,68,77.1c-1,0.7-1.6,1.8-2.5,2.7
	c0.1-0.4,0.4-1.2,0.2-1.6c-0.2,0-0.4,0-0.5,0.1c-0.8,0.5-0.7,1.7-1.2,2.4c-0.2,0.4-0.7,0.8-1.1,1.2c-1.4,1.4-2.8,2.7-3.3,4.7
	c0.3,0.3,0.8,0.7,0.8,1.1s-0.6,0.9-0.8,1.2c-0.3-0.1-0.5-0.3-0.7-0.5s-0.5-0.3-0.8-0.2c-0.4,0.1-0.9,0.8-1.2,1.1
	c1.2,2.6,11.4,11.4,14.2,12.5c0.4-0.2,0.7-0.5,1-0.8c-0.2-0.6-0.5-1.2-0.7-1.8c0.2-0.4,0.3-0.8,0.5-1.1c0.5,0.1,1.2,0.4,1.7,0.1
	s0.9-1.6,1.1-2.2c0.1-0.7,0-1.4-0.4-2c-0.5-0.7-1.2-1.2-1.7-1.8c-1.1-1.6-1.5-4.6-1.7-6.5c0.9-0.6,1.8-1,2.8-1.5
	c1,0.6,1.8,0.9,3,0.6c0.6-0.2,1.3-0.4,1.9-0.7c2.2,2.4,4.6,4.8,6.9,7.1L98,104c-0.9,0.7-2,1.2-3.2,1.5c-3.7,0.8-8.7-0.5-12.2-1.9
	c-1.1-0.4-3.4-1.6-4.5-1.6c-0.5,0-0.9,0.2-1.2,0.5c-0.6,0.6-0.8,1.4-0.8,2.2c0.1,1.3,0.9,2.3,1.8,3.2c3.6,3.3,9.2,4.1,13.9,3.9
	c1.6-0.1,3.5-0.3,4.8-1.3c1-0.8,1.7-1.9,2.5-2.9c0.4-0.4,0.8-0.8,1.2-1.3c0.4,0.4,0.8,0.8,1.2,1.3c0.8,1,1.5,2.1,2.5,2.9
	c1.3,0.9,3.2,1.2,4.8,1.3c4.7,0.2,10.3-0.6,13.9-3.9c0.9-0.8,1.7-1.9,1.8-3.2c0.1-0.8-0.2-1.6-0.8-2.2c-0.3-0.3-0.7-0.5-1.2-0.5
	c-1.1,0-3.4,1.2-4.5,1.6c-3.5,1.3-8.5,2.7-12.2,1.9c-1.2-0.3-2.2-0.8-3.2-1.5l12.5-12.8c2.3-2.4,4.7-4.7,6.9-7.1
	c0.6,0.3,1.2,0.5,1.9,0.7c1.2,0.3,2,0,3-0.6c0.9,0.5,1.9,0.9,2.8,1.5c-0.2,1.9-0.6,4.9-1.7,6.5c-0.5,0.7-1.2,1.1-1.7,1.8
	c-0.4,0.6-0.5,1.2-0.4,2c0.1,0.6,0.5,1.9,1.1,2.2c0.5,0.3,1.2,0,1.7-0.1c0.2,0.4,0.3,0.7,0.5,1.1c-0.3,0.6-0.5,1.2-0.7,1.8
	c0.3,0.3,0.6,0.6,1,0.8c2.8-1.1,13-9.9,14.2-12.5c-0.3-0.3-0.8-1-1.2-1.1c-0.3-0.1-0.6,0.1-0.8,0.2c-0.2,0.2-0.5,0.3-0.7,0.5
	c-0.3-0.3-0.9-0.8-0.8-1.2c0-0.4,0.6-0.8,0.8-1.1c-0.5-2-1.9-3.3-3.3-4.7c-0.3-0.3-0.8-0.7-1.1-1.2c-0.4-0.8-0.4-1.9-1.2-2.4
	c-0.2-0.1-0.3-0.1-0.5-0.1c-0.2,0.4,0.1,1.2,0.2,1.6c-0.9-0.9-1.5-2-2.5-2.7c0-0.4,0-0.8-0.1-1.2c-0.2-1.1-0.6-1.6-1.4-2.3
	c1.6-1.7,3.2-3.4,4.8-5.1c1.2-1.3,2.5-2.7,3.8-3.9c1.2,0.6,2.5,1.1,3.7,1.8c4.8,3,8.3,7.7,11.2,12.4c1.7,0.1,3.4-0.4,5.1-0.9
	c1.7,2.3,3.3,4.7,6,6c0.9,0.4,1.9,0.6,2.7,1.1s1.5,1.4,2.2,2c2,0,3.9-0.3,5.6-1.1c0.9-0.4,1.7-0.9,2-1.9c0.7-2.1-0.2-5.8-1.2-7.7
	C175.7,74.8,174.4,74.7,173.1,74.3z M113.1,10.9c-1.3,0-4.8,0.1-5.7-0.7c-0.2-0.1-0.2-0.4-0.2-0.6l0.1-0.1c1.9,1.1,3.9,1,6,1.3
	L113.1,10.9z M122.6,17.6c0,0.1,0.1,0.3,0.2,0.4c0.2,0.3,0.2,0.5,0.1,0.9c-0.2,0.2-0.5,0.3-0.8,0.3h-0.2c-0.4-0.6,0.5-4.4,0.6-5.1
	c0.1-0.4,0.2-0.7,0.5-0.9c0.2-0.1,0.3-0.1,0.5-0.1C123.4,13.6,122.5,17.2,122.6,17.6z M126,7c-0.3,0.7-1.5,1.1-2.1,1.3
	c-0.9,0.3-2.2,0.6-3.2,0.6c0.1-0.2,1.2-0.4,1.4-0.5c0.6-0.2,1.2-0.5,1.8-0.8c0.5-0.3,1.6-1.1,2-1.2C126,6.7,126.1,6.8,126,7z
	 M92.8,9.5L92.8,9.5c0,0.3,0,0.5-0.2,0.6c-1,0.8-4.4,0.8-5.7,0.7l-0.1-0.1C88.9,10.5,90.8,10.6,92.8,9.5z M78.1,19.1h-0.2
	c-0.3,0-0.6-0.1-0.8-0.3C77,18.5,77,18.3,77.2,18c0.1-0.1,0.1-0.3,0.2-0.4c0.1-0.4-0.8-4-0.9-4.7c0.2,0,0.4,0,0.5,0.1
	c0.3,0.2,0.4,0.6,0.5,0.9C77.7,14.7,78.5,18.5,78.1,19.1z M74.1,6.5c0.5,0.1,1.6,0.9,2,1.2c0.6,0.3,1.2,0.6,1.8,0.8
	c0.3,0.1,1.3,0.3,1.4,0.5c-1,0-2.2-0.3-3.2-0.6C75.5,8.1,74.3,7.7,74,7C73.9,6.8,74,6.7,74.1,6.5z M72.3,71.8
	c-1-0.7-2.3-2.2-3.2-3.1l-6.7-6.8l-8.8-8.7c-1.5-1.4-3.1-2.8-4.4-4.4c-0.1-0.2,0-0.4,0.1-0.7c0.5,0.2,2.4,2.2,2.9,2.8
	c4.1,4,8.2,7.9,12.2,12l5.8,6c0.8,0.8,1.6,1.8,2.4,2.5l0.1,0.1h-0.1c0.1,0,0.1,0.1,0.2,0.1v0.1C72.7,71.8,72.5,71.8,72.3,71.8z
	 M74,72.3c-0.2-0.3-0.4-0.6-0.3-0.9c0.1-0.2,0.2-0.2,0.4-0.3l0.1,0.1c0,0.1,0,0.3,0,0.4C74.2,71.8,74.2,72.2,74,72.3z M76.4,51.4
	l-0.9,0.1c0.4-0.4,1-0.7,1.4-1.2c0.6-0.7,1-1.9,1.7-2.9c1.3-1.7,2.9-3.2,4.5-4.7c0.1,0.1,0.1,0,0.1,0.1c0,0.2-0.1,0.6-0.2,0.8
	c-0.5,1.7-1.2,2.8-1.7,4.4c-0.5,1.4-0.4,2.8-1.3,4.1C78.8,51.5,77.8,51.4,76.4,51.4z M77.9,56.1c0.2-0.6,0.5-1.2,0.8-1.7
	c0.8-1.3,2.1-2,3.5-2.4c0.5,0,1-0.1,1.5,0c1.8,0.2,3.5,1.4,4.6,2.7c1.2,1.5,2.5,3.6,2.2,5.5c-0.2,1.3-0.8,1.7-1.7,2.5
	c0.1-1.3-0.1-2.3-0.6-3.5c-0.6-1.2-1.4-2.3-2.4-3.2c-1.2-1.1-3-2-4.7-1.9C79.8,54.3,78.8,55.1,77.9,56.1z M80.6,80.4L80.6,80.4
	c-0.1-0.6,0.3-2.8,0.6-3.3C81.5,78.1,80.9,79.4,80.6,80.4L80.6,80.4z M119.5,80.3L119.5,80.3L119.5,80.3c-0.3-0.9-0.9-2.2-0.5-3.2
	C119.2,77.6,119.6,79.8,119.5,80.3z M118.8,54.3c-1.7-0.1-3.4,0.8-4.7,1.9c-1,0.9-1.8,2-2.4,3.2c-0.5,1.2-0.8,2.2-0.6,3.5
	c-0.9-0.7-1.6-1.2-1.7-2.5c-0.2-2,1-4.1,2.2-5.5c1.1-1.4,2.8-2.6,4.6-2.7c0.5-0.1,1,0,1.5,0c1.5,0.4,2.7,1,3.5,2.4
	c0.3,0.5,0.6,1.1,0.8,1.7C121.2,55.1,120.2,54.3,118.8,54.3z M123.6,51.4c-1.4,0-2.4,0.1-3.6,0.7c-0.9-1.3-0.8-2.7-1.3-4.1
	c-0.5-1.6-1.3-2.6-1.7-4.4c-0.1-0.2-0.2-0.5-0.2-0.8c0-0.1,0-0.1,0.1-0.1c1.6,1.5,3.1,3,4.5,4.7c0.7,0.9,1.1,2.2,1.7,2.9
	c0.4,0.5,1,0.8,1.4,1.2L123.6,51.4z M126,72.3c-0.2-0.2-0.2-0.5-0.2-0.7c0-0.1,0-0.3,0-0.4l0.1-0.1c0.2,0.1,0.3,0.1,0.4,0.3
	C126.3,71.7,126.1,72.1,126,72.3z M150.7,48.8c-1.3,1.6-2.9,3-4.4,4.4l-8.8,8.7l-6.7,6.8c-0.9,0.9-2.2,2.4-3.2,3.1
	c-0.2,0-0.4-0.1-0.6-0.1v-0.1c0.1,0,0.1-0.1,0.2-0.1h-0.1l0.1-0.1c0.9-0.7,1.6-1.7,2.4-2.5l5.8-6c4-4.1,8.1-8.1,12.2-12
	c0.5-0.5,2.4-2.6,2.9-2.8C150.7,48.3,150.8,48.6,150.7,48.8z"/>
</svg>
