<?xml version="1.0" encoding="utf-8"?>
<!-- Generator: Adobe Illustrator 24.0.1, SVG Export Plug-In . SVG Version: 6.00 Build 0)  -->
<svg version="1.1" id="Layer_1" xmlns="http://www.w3.org/2000/svg" xmlns:xlink="http://www.w3.org/1999/xlink" x="0px" y="0px"
	 viewBox="0 0 616 616" style="enable-background:new 0 0 616 616;" xml:space="preserve">
<style type="text/css">
	.st0{fill:#FFFFFF;}
	.st1{fill-rule:evenodd;clip-rule:evenodd;}
	.st2{fill:#00A6FF;}
</style>
<rect y="0" class="st0" width="616" height="616"/>
<rect x="58" y="58" class="st0" width="500" height="500"/>
<g transform="scale(20)">
	<g transform="translate(0,0)">
		<path class="st1" d="M10.9,2.9v1h1v1h-1v3h1v-1h2v1h-1v5h-1v1h-1v-1h-2v1h-3v-1h1v-2h-4v3h3v1h-2v3h-1v1h1v-1h1v2h3v-1h1v1h2v1h1
			v-1h2v-1h1v1h1v2h1v1h-1v1h1v2h-3v-3h1v-1h-1v-1h-1v1h-1v1h1v1h-2v4h1v-2h2v1h-1v1h3v-1h1v-1h1v1h3v-1h-3v-1h3v-1h1v3h2v1h4v-2h-1
			v-1h1v-4h-2v-1h1v-1h1v-1h-1v-1h-1v3h-2v-1h-4v-1h1v-1h1v1h3v-3h1v1h2v-5h-1v2h-3v2h-2v-1h1v-2h3v-1h-3v1h-2v-1h-1v-5h-1v-1h-1v1
			h-1v4h-1v-1h-1v-1h1v-2h-1v1h-1v-2h3v-1h3v-1h-3v1h-1v-1h-1v1h-1v-1h-1v1h-1v-1L10.9,2.9L10.9,2.9z M17.9,6.9v3h1v-3
			C18.9,6.9,17.9,6.9,17.9,6.9z M10.9,8.9v1h1v-1H10.9z M13.9,8.9v2h1v-2H13.9z M8.9,10.9v1h1v-1H8.9L8.9,10.9z M10.9,10.9v1h1v-1
			H10.9L10.9,10.9z M17.9,10.9v1h-2v1h1v1h-3v2h-1v1h-1v-2h-2v-1h-1v1h-1v1h1v1h-2v1h-1v-1h-1v1h1v1h1v-1h2v1h1v-1h1v2h1v-1h2v-3h1
			v-1h1v2h-1v2h2v1h2v-2h1v-2h-1v1h-1v-3h1v1h2v1h1v-1h-1v-1h1v-1h-1v-1h-1v1h1v1h-2v-1h-1v-1h1v-1H17.9L17.9,10.9z M3.9,11.9v1h2
			v-1H3.9z M13.9,11.9v1h1v-1H13.9z M25.9,13.9v1h1v-1H25.9z M8.9,14.9v1h1v-1H8.9z M22.9,15.9v1h1v-1H22.9z M8.9,16.9v1h1v-1H8.9z
			 M16.9,16.9v1h1v-1H16.9z M19.9,19.9v3h3v-3H19.9z M17.9,20.9v1h1v-1H17.9z M20.9,20.9v1h1v-1H20.9z M23.9,20.9v3h1v1h1v-1h1v-1
			h-1v-1h-1v-1H23.9z M16.9,22.9v1h1v-1H16.9z M24.9,22.9v1h1v-1H24.9z M22.9,24.9v1h1v1h2v-1h-2v-1H22.9z M2.9,2.9h7v7h-7
			C2.9,9.9,2.9,2.9,2.9,2.9z M3.9,3.9v5h5v-5C8.9,3.9,3.9,3.9,3.9,3.9z M4.9,4.9h3v3h-3V4.9z M20.9,2.9h7v7h-7V2.9z M21.9,3.9v5h5
			v-5C26.9,3.9,21.9,3.9,21.9,3.9z M22.9,4.9h3v3h-3V4.9z M2.9,20.9h7v7h-7C2.9,27.9,2.9,20.9,2.9,20.9z M3.9,21.9v5h5v-5H3.9z
			 M4.9,22.9h3v3h-3V22.9z"/>
	</g>
</g>
<path class="st0" d="M308,260.4c-26.3,0-47.6,21.3-47.6,47.6c0,26.3,21.3,47.6,47.6,47.6s47.6-21.3,47.6-47.6
	C355.6,281.7,334.3,260.4,308,260.4"/>
<path class="st2" d="M308,267.7c-22.3,0-40.3,18.1-40.3,40.3s18.1,40.3,40.3,40.3c22.3,0,40.3-18.1,40.3-40.3S330.3,267.7,308,267.7
	 M327.8,295.2l-6.6,31.2c-0.4,2.2-1.8,2.7-3.7,1.7l-10.1-7.4l-4.9,4.6c-0.6,0.6-1,1-2.1,1l0.7-10.2l18.7-16.8
	c0.8-0.7-0.1-1.1-1.3-0.4l-23.2,14.6l-10-3.1c-2.1-0.7-2.2-2.1,0.4-3.2l38.8-15C326.8,291.4,328.4,292.6,327.8,295.2L327.8,295.2z"
	/>
</svg>
