<?xml version="1.0" encoding="utf-8"?>
<!-- Generator: Adobe Illustrator 24.0.1, SVG Export Plug-In . SVG Version: 6.00 Build 0)  -->
<svg version="1.1" id="Layer_1" xmlns="http://www.w3.org/2000/svg" xmlns:xlink="http://www.w3.org/1999/xlink" x="0px" y="0px"
	 viewBox="0 0 616 702.4" style="enable-background:new 0 0 616 702.4;" xml:space="preserve">
<style type="text/css">
	.st0{fill:#FFFFFF;}
	.st1{fill-rule:evenodd;clip-rule:evenodd;}
	.st2{fill:#00A6FF;}
</style>
<path class="st0" d="M308,0c-38.7,0-70,31.3-70,70s31.3,70,70,70c38.7,0,70-31.3,70-70S346.7,0,308,0"/>
<rect y="86.4" class="st0" width="616" height="616"/>
<rect x="58" y="144.4" class="st0" width="500" height="500"/>
<g transform="scale(20)">
	<g transform="translate(0,0)">
		<path class="st1" d="M10.9,7.2v1h1v1h-1v3h1v-1h2v1h-1v5h-1v1h-1v-1h-2v1h-3v-1h1v-2h-4v3h3v1h-2v3h-1v1h1v-1h1v2h3v-1h1v1h2v1h1
			v-1h2v-1h1v1h1v2h1v1h-1v1h1v2h-3v-3h1v-1h-1v-1h-1v1h-1v1h1v1h-2v4h1v-2h2v1h-1v1h3v-1h1v-1h1v1h3v-1h-3v-1h3v-1h1v3h2v1h4v-2h-1
			v-1h1v-4h-2v-1h1v-1h1v-1h-1v-1h-1v3h-2v-1h-4v-1h1v-1h1v1h3v-3h1v1h2v-5h-1v2h-3v2h-2v-1h1v-2h3v-1h-3v1h-2v-1h-1v-5h-1v-1h-1v1
			h-1v4h-1v-1h-1v-1h1v-2h-1v1h-1v-2h3v-1h3v-1h-3v1h-1v-1h-1v1h-1v-1h-1v1h-1v-1H10.9z M17.9,11.2v3h1v-3H17.9z M10.9,13.2v1h1v-1
			H10.9z M13.9,13.2v2h1v-2H13.9z M8.9,15.2v1h1v-1H8.9z M10.9,15.2v1h1v-1H10.9z M17.9,15.2v1h-2v1h1v1h-3v2h-1v1h-1v-2h-2v-1h-1v1
			h-1v1h1v1h-2v1h-1v-1h-1v1h1v1h1v-1h2v1h1v-1h1v2h1v-1h2v-3h1v-1h1v2h-1v2h2v1h2v-2h1v-2h-1v1h-1v-3h1v1h2v1h1v-1h-1v-1h1v-1h-1
			v-1h-1v1h1v1h-2v-1h-1v-1h1v-1H17.9z M3.9,16.2v1h2v-1H3.9z M13.9,16.2v1h1v-1H13.9z M25.9,18.2v1h1v-1H25.9z M8.9,19.2v1h1v-1
			H8.9z M22.9,20.2v1h1v-1H22.9z M8.9,21.2v1h1v-1H8.9z M16.9,21.2v1h1v-1H16.9z M19.9,24.2v3h3v-3H19.9z M17.9,25.2v1h1v-1H17.9z
			 M20.9,25.2v1h1v-1H20.9z M23.9,25.2v3h1v1h1v-1h1v-1h-1v-1h-1v-1H23.9z M16.9,27.2v1h1v-1H16.9z M24.9,27.2v1h1v-1H24.9z
			 M22.9,29.2v1h1v1h2v-1h-2v-1H22.9z M2.9,7.2h7v7h-7V7.2z M3.9,8.2v5h5v-5H3.9z M4.9,9.2h3v3h-3V9.2z M20.9,7.2h7v7h-7V7.2z
			 M21.9,8.2v5h5v-5H21.9z M22.9,9.2h3v3h-3V9.2z M2.9,25.2h7v7h-7V25.2z M3.9,26.2v5h5v-5H3.9z M4.9,27.2h3v3h-3V27.2z"/>
	</g>
</g>
<path class="st2" d="M308,10.7c-32.8,0-59.3,26.6-59.3,59.3s26.6,59.3,59.3,59.3c32.8,0,59.3-26.6,59.3-59.3S340.8,10.7,308,10.7
	 M337.1,51.3l-9.7,45.9c-0.7,3.3-2.7,4-5.4,2.5l-14.8-10.9l-7.2,6.9c-0.8,0.8-1.5,1.5-3,1.5l1.1-15.1l27.5-24.8
	c1.2-1.1-0.3-1.7-1.8-0.6l-34,21.4l-14.6-4.6c-3.2-1-3.3-3.2,0.7-4.7L333,46.6C335.7,45.7,338,47.3,337.1,51.3L337.1,51.3z"/>
</svg>
